<?xml version="1.0" encoding="utf-8"?>
<!-- Generator: Adobe Illustrator 24.0.2, SVG Export Plug-In . SVG Version: 6.00 Build 0)  -->
<svg version="1.1" id="레이어_1" xmlns="http://www.w3.org/2000/svg" xmlns:xlink="http://www.w3.org/1999/xlink" x="0px"
	 y="0px" viewBox="0 0 432.3 432.3" style="enable-background:new 0 0 432.3 432.3;" xml:space="preserve">
<style type="text/css">
	.st0{fill:#F7F4F4;}
</style>
<g>
	<path class="st0" d="M216.1,120c25.7,0,49.8,10,68,28.2c18.2,18.2,28.2,42.3,28.2,68s-10,49.8-28.2,68
		c-18.2,18.2-42.3,28.2-68,28.2s-49.8-10-68-28.2C130,266,120,241.8,120,216.1s10-49.8,28.2-68C166.3,130,190.5,120,216.1,120
		 M216.1,0C96.8,0,0,96.8,0,216.1s96.8,216.1,216.1,216.1s216.1-96.8,216.1-216.1S335.5,0,216.1,0L216.1,0z"/>
</g>
</svg>
