<?xml version="1.0" encoding="utf-8"?>
<!-- Generator: Adobe Illustrator 24.0.2, SVG Export Plug-In . SVG Version: 6.00 Build 0)  -->
<svg version="1.1" id="레이어_1" xmlns="http://www.w3.org/2000/svg" xmlns:xlink="http://www.w3.org/1999/xlink" x="0px"
	 y="0px" viewBox="0 0 60 60" style="enable-background:new 0 0 60 60;" xml:space="preserve">
<style type="text/css">
	.st0{fill:#E7E7E7;}
	.st1{fill:#228BCD;}
	.st2{fill:#060001;}
</style>
<g>
	<circle class="st0" cx="30" cy="30" r="30"/>
	<g>
		<g>
			<path class="st1" d="M21.4,14h17.1c1.3,0,2.4,1.1,2.4,2.4v29.2c0,2-2.2,3.1-3.7,2L30,41.4l-7.2,6.1c-1.6,1.1-3.7,0-3.7-2V16.4
				C19,15.1,20.1,14,21.4,14z"/>
			<path d="M21.4,48.9c-0.5,0-1-0.1-1.5-0.4c-1.1-0.6-1.7-1.7-1.7-2.9V16.4c0-1.8,1.5-3.3,3.3-3.3h17.1c1.8,0,3.3,1.5,3.3,3.3v29.2
				c0,1.2-0.7,2.4-1.8,2.9c-1.1,0.6-2.4,0.5-3.3-0.2c0,0,0,0-0.1,0L30,42.6l-6.7,5.7c0,0-0.1,0-0.1,0.1C22.7,48.7,22,48.9,21.4,48.9
				z M37.8,46.9c0.4,0.3,1,0.3,1.5,0.1c0.5-0.3,0.8-0.8,0.8-1.4V16.4c0-0.8-0.7-1.5-1.5-1.5H21.4c-0.8,0-1.5,0.7-1.5,1.5v29.2
				c0,0.6,0.3,1.1,0.8,1.4c0.5,0.3,1.1,0.2,1.6-0.1l7.2-6.1c0.3-0.3,0.8-0.3,1.1,0L37.8,46.9z"/>
		</g>
		<g>
			<g>
				<g>
					<circle class="st2" cx="31.9" cy="18.5" r="1.2"/>
				</g>
			</g>
			<g>
				<g>
					<circle class="st2" cx="36.1" cy="22.8" r="1.2"/>
				</g>
			</g>
			<g>
				<g>
					<circle class="st2" cx="36.1" cy="18.5" r="1.2"/>
				</g>
			</g>
			<g>
				<g>
					<circle class="st2" cx="31.9" cy="22.8" r="1.2"/>
				</g>
			</g>
			<g>
				<g>
					<circle class="st2" cx="27.7" cy="22.8" r="1.2"/>
				</g>
			</g>
			<g>
				<g>
					<circle class="st2" cx="36.1" cy="27.1" r="1.2"/>
				</g>
			</g>
			<g>
				<g>
					<circle class="st2" cx="31.9" cy="27.1" r="1.2"/>
				</g>
			</g>
			<g>
				<g>
					<circle class="st2" cx="36.1" cy="31.3" r="1.2"/>
				</g>
			</g>
			<g>
				<g>
					<circle class="st2" cx="27.7" cy="18.5" r="1.2"/>
				</g>
			</g>
			<g>
				<g>
					<circle class="st2" cx="23.5" cy="18.5" r="1.2"/>
				</g>
			</g>
		</g>
	</g>
</g>
</svg>
