<?xml version="1.0" encoding="utf-8"?>
<!-- Generator: Adobe Illustrator 24.0.2, SVG Export Plug-In . SVG Version: 6.00 Build 0)  -->
<svg version="1.1" id="레이어_1" xmlns="http://www.w3.org/2000/svg" xmlns:xlink="http://www.w3.org/1999/xlink" x="0px"
	 y="0px" viewBox="0 0 60 60" style="enable-background:new 0 0 60 60;" xml:space="preserve">
<style type="text/css">
	.st0{fill:#228BCD;}
	.st1{fill:#FFFFFF;}
	.st2{fill:#060001;}
</style>
<g>
	<circle class="st0" cx="30" cy="30" r="30"/>
	<g>
		<g>
			<g>
				<path class="st1" d="M25,49c-1.1,0-2.1-0.4-2.9-1.2c-1.7-1.8-4.7-5.2-5.7-7.2c-1.4-2.9-3.3-4.7-4.5-6.2s-0.6-3,0.2-3.5
					c0.8-0.6,2.8-1.6,5.1,0.4s4.7,4.2,4.7,4.2s0.2-20.1,0.2-22s1.7-2.4,2.7-2.4s2.6,0.5,2.6,2.2s0,13.1,0,13.1s0.5-1.8,2.9-1.8
					s2.9,2.4,2.9,2.4s0.2-1.5,2.4-1.5c2.2,0,3.1,1.1,3.1,2.8c0,0,0-8.4,0-10.2s1.2-2.2,2.5-2.2c1.3,0,2.8,0.5,2.8,1.9
					s0.9,20.5,0.9,22.2c0,1.7-1.5,8.9-4.1,8.9L25,49z"/>
			</g>
			<g>
				<path class="st2" d="M25,50c-1.3,0-2.6-0.6-3.6-1.5c-2.1-2.3-4.9-5.4-5.9-7.5c-1-2.1-2.3-3.6-3.4-4.9c-0.3-0.4-0.7-0.8-1-1.1
					c-0.7-0.9-1-1.9-0.8-2.9c0.1-0.8,0.6-1.6,1.3-2c2.1-1.4,4.3-1.2,6.3,0.5c1.1,1,2.2,2,3.1,2.8c0.1-5.2,0.2-18.3,0.2-19.9
					c0-2.3,1.9-3.4,3.7-3.4c1.7,0,3.5,1,3.5,3.2V24c0.5-0.2,1.1-0.4,1.9-0.4c1.4,0,2.4,0.7,3,1.5c0.5-0.4,1.3-0.6,2.3-0.6
					c0.8,0,1.6,0.2,2.2,0.4v-6.9c0-1.2,0.4-3.1,3.4-3.1c2.2,0,3.7,1.2,3.7,2.9c0,0.5,0.2,4.2,0.3,8.2c0.3,6.1,0.6,13.1,0.5,14.1
					c0,1.2-1.3,9.8-5.1,9.8L25,50L25,50C25,50,25,50,25,50z M14.4,31c-0.6,0-1.2,0.2-1.8,0.6c-0.2,0.1-0.4,0.4-0.4,0.7
					c-0.1,0.4,0.1,0.9,0.5,1.4c0.3,0.3,0.6,0.7,0.9,1.1c1.1,1.3,2.6,3,3.7,5.3c0.7,1.4,2.7,3.9,5.5,7c0.6,0.6,1.4,0.9,2.2,0.9l0,0
					L40.6,48c1.5,0,3.1-5.8,3.2-8c0-1-0.3-8.2-0.5-14c-0.2-4.3-0.3-7.7-0.3-8.2c0-0.9-1.8-0.9-1.8-0.9c-1.3,0-1.5,0.4-1.5,1.2v10.2
					c0,0.5-0.4,1-1,1s-1-0.4-1-1c0-0.9-0.3-1.8-2.2-1.8c-1.3,0-1.5,0.6-1.5,0.7c-0.1,0.5-0.5,0.8-0.9,0.8c-0.5,0-0.9-0.3-1-0.8
					c0-0.2-0.4-1.6-1.9-1.6c-1.5,0-1.9,1-1.9,1.1c-0.1,0.4-0.6,0.7-1.1,0.7c-0.5-0.1-0.8-0.5-0.8-0.9V13.2c0-1.2-1.2-1.3-1.6-1.3
					c-0.5,0-1.8,0.1-1.8,1.5c0,1.9-0.2,21.8-0.2,22c0,0.4-0.2,0.7-0.6,0.9c-0.4,0.2-0.8,0.1-1-0.2c0,0-2.4-2.2-4.6-4.2
					C15.9,31.3,15.2,31,14.4,31z"/>
			</g>
		</g>
		<g>
			<g>
				<g>
					<circle class="st2" cx="39.1" cy="46.2" r="0.7"/>
				</g>
			</g>
			<g>
				<g>
					<circle class="st2" cx="41.6" cy="43.6" r="0.7"/>
				</g>
			</g>
			<g>
				<g>
					<circle class="st2" cx="39.1" cy="43.6" r="0.7"/>
				</g>
			</g>
			<g>
				<g>
					<circle class="st2" cx="36.6" cy="43.6" r="0.7"/>
				</g>
			</g>
			<g>
				<g>
					<circle class="st2" cx="41.6" cy="41.1" r="0.7"/>
				</g>
			</g>
			<g>
				<g>
					<circle class="st2" cx="39.1" cy="41.1" r="0.7"/>
				</g>
			</g>
			<g>
				<g>
					<circle class="st2" cx="41.6" cy="38.5" r="0.7"/>
				</g>
			</g>
			<g>
				<g>
					<circle class="st2" cx="41.6" cy="35.9" r="0.7"/>
				</g>
			</g>
			<g>
				<g>
					<circle class="st2" cx="41.6" cy="33.4" r="0.7"/>
				</g>
			</g>
			<g>
				<g>
					<circle class="st2" cx="39.1" cy="38.5" r="0.7"/>
				</g>
			</g>
			<g>
				<g>
					<circle class="st2" cx="34.1" cy="43.6" r="0.7"/>
				</g>
			</g>
			<g>
				<g>
					<circle class="st2" cx="36.6" cy="46.2" r="0.7"/>
				</g>
			</g>
			<g>
				<g>
					<circle class="st2" cx="34.1" cy="46.2" r="0.7"/>
				</g>
			</g>
			<g>
				<g>
					<circle class="st2" cx="31.6" cy="46.2" r="0.7"/>
				</g>
			</g>
			<g>
				<g>
					<circle class="st2" cx="29.3" cy="46.2" r="0.7"/>
				</g>
			</g>
		</g>
		<g>
			<path class="st2" d="M28.2,25.9h-7v-4.6h7V25.9z M22.5,24.6h4.3v-1.9h-4.3V24.6z"/>
		</g>
		<g>
			<path class="st2" d="M44.9,28.7h-7v-4.6h7V28.7z M39.3,27.3h4.3v-1.9h-4.3V27.3z"/>
		</g>
	</g>
</g>
</svg>
