<?xml version="1.0" encoding="utf-8"?>
<!-- Generator: Adobe Illustrator 24.0.2, SVG Export Plug-In . SVG Version: 6.00 Build 0)  -->
<svg version="1.1" id="레이어_1" xmlns="http://www.w3.org/2000/svg" xmlns:xlink="http://www.w3.org/1999/xlink" x="0px"
	 y="0px" viewBox="0 0 43.8 80" style="enable-background:new 0 0 43.8 80;" xml:space="preserve">
<style type="text/css">
	.st0{fill:#FFFFFF;}
	.st1{fill:#060001;}
</style>
<g>
	<g>
		<g>
			<circle class="st0" cx="13.1" cy="11.6" r="10.1"/>
			<path d="M13.1,23.3C6.7,23.3,1.5,18,1.5,11.6S6.7,0,13.1,0s11.6,5.2,11.6,11.6S19.5,23.3,13.1,23.3z M13.1,3.1
				c-4.7,0-8.5,3.8-8.5,8.5s3.8,8.5,8.5,8.5s8.5-3.8,8.5-8.5S17.8,3.1,13.1,3.1z"/>
		</g>
		<g>
			<path class="st0" d="M12.8,63.7c-1.4,0-2.7-0.5-3.8-1.5c-3.7-3.4-7.5-6.7-7.5-13.7c0-8,4.6-12.7,7.5-13.5c0,0,0-12.6,0-17.6
				s0.2-7.3,4-7.3s4.2,2.4,4.2,7.7c0,3.2,0,14,0,14s1-4,4.1-4s4,3.8,4,3.8s0.4-2.9,3.9-2.9s4.1,3.9,4.1,3.9s0.6-2.1,3.4-2.1
				c2.8,0,4.6,2.2,4.6,4.3c0,2.1,0,14.7,0,18.2c0,3.5-2.4,10.3-5.4,10.3C33.5,63.5,18.5,63.7,12.8,63.7z"/>
			<path d="M12.7,65.3c-1.8,0-3.5-0.7-4.8-1.9l-0.2-0.2C3.9,59.7,0,56.1,0,48.6C0,40.7,4.1,35.7,7.5,34V17.5c0-4.3,0-8.8,5.6-8.8
				c5.7,0,5.7,4.9,5.7,9.3v9.2c0.7-0.4,1.6-0.7,2.6-0.7c1.9,0,3.3,1,4.2,2.2c0.9-0.7,2.1-1.3,3.7-1.3c2.2,0,3.7,1.2,4.6,2.5
				c0.7-0.5,1.7-0.8,2.9-0.8c3.8,0,6.1,3.1,6.1,5.9v18.2c0,3.5-2.4,11.8-7,11.8C34.8,65.1,29.8,65.1,12.7,65.3L12.7,65.3
				C12.8,65.3,12.8,65.3,12.7,65.3z M12.8,63.7L12.8,63.7L12.8,63.7z M13.1,11.8c-2,0-2.5,0.2-2.5,5.7v17.6c0,0.7-0.5,1.3-1.2,1.5
				c-2.2,0.6-6.4,4.7-6.4,12c0,6.2,3.1,9,6.7,12.3l0.2,0.2c0.7,0.7,1.7,1.1,2.7,1l0,0C26.3,62,34.3,62,36,62c1.5,0,3.9-5.3,3.9-8.7
				V35.1c0-1.1-1-2.8-3-2.8c-1.6,0-1.9,1-1.9,1c-0.2,0.7-0.9,1.2-1.6,1.1c-0.7,0-1.3-0.6-1.5-1.3c0-0.3-0.5-2.6-2.5-2.6
				c-1.9,0-2.3,1.2-2.4,1.6c-0.1,0.7-0.8,1.3-1.5,1.3c-0.8,0-1.4-0.5-1.6-1.2c0-0.1-0.6-2.6-2.5-2.6c-1.9,0-2.6,2.7-2.6,2.8
				c-0.2,0.8-0.9,1.3-1.7,1.2c-0.8-0.1-1.4-0.8-1.4-1.6V18C15.7,12.1,15.1,11.8,13.1,11.8z"/>
		</g>
		<g>
			<g>
				<path class="st0" d="M37.9,78.4H8c-2.4,0-4.3-1.9-4.3-4.3v-6.1c0-2.4,1.9-4.3,4.3-4.3h29.9c2.4,0,4.3,1.9,4.3,4.3v6.1
					C42.2,76.5,40.3,78.4,37.9,78.4z"/>
				<path d="M38.8,80H7c-2.7,0-5-2.2-5-5v-7.9c0-2.7,2.2-5,5-5h31.8c2.7,0,5,2.2,5,5V75C43.8,77.8,41.6,80,38.8,80z M7,65.3
					c-1,0-1.8,0.8-1.8,1.8V75c0,1,0.8,1.8,1.8,1.8h31.8c1,0,1.8-0.8,1.8-1.8v-7.9c0-1-0.8-1.8-1.8-1.8H7z"/>
			</g>
		</g>
		<g>
			<line class="st0" x1="9.1" y1="35.1" x2="9.1" y2="45.2"/>
			<path d="M9.1,46.7c-0.9,0-1.6-0.7-1.6-1.6V35.1c0-0.9,0.7-1.6,1.6-1.6s1.6,0.7,1.6,1.6v10.1C10.7,46,10,46.7,9.1,46.7z"/>
		</g>
		<g>
			
				<rect x="10.6" y="22.8" transform="matrix(6.123234e-17 -1 1 6.123234e-17 -14.0171 40.2379)" class="st0" width="5.1" height="8.6"/>
			<path d="M17.4,30.8H8.8c-0.6,0-1.2-0.5-1.2-1.2v-5.1c0-0.6,0.5-1.2,1.2-1.2h8.6c0.6,0,1.2,0.5,1.2,1.2v5.1
				C18.6,30.3,18,30.8,17.4,30.8z M10,28.5h6.2v-2.7H10V28.5z"/>
		</g>
	</g>
	<g>
		<g>
			<g>
				<circle class="st1" cx="32" cy="58.3" r="1.1"/>
			</g>
		</g>
		<g>
			<g>
				<circle class="st1" cx="35.9" cy="54.2" r="1.1"/>
			</g>
		</g>
		<g>
			<g>
				<circle class="st1" cx="32" cy="54.2" r="1.1"/>
			</g>
		</g>
		<g>
			<g>
				<circle class="st1" cx="28" cy="54.2" r="1.1"/>
			</g>
		</g>
		<g>
			<g>
				<circle class="st1" cx="28" cy="50.2" r="1.1"/>
			</g>
		</g>
		<g>
			<g>
				<circle class="st1" cx="35.9" cy="50.2" r="1.1"/>
			</g>
		</g>
		<g>
			<g>
				<circle class="st1" cx="32" cy="50.2" r="1.1"/>
			</g>
		</g>
		<g>
			<g>
				<circle class="st1" cx="35.9" cy="46.2" r="1.1"/>
			</g>
		</g>
		<g>
			<g>
				<circle class="st1" cx="35.9" cy="42.1" r="1.1"/>
			</g>
		</g>
		<g>
			<g>
				<circle class="st1" cx="32" cy="46.2" r="1.1"/>
			</g>
		</g>
		<g>
			<g>
				<circle class="st1" cx="24.1" cy="54.2" r="1.1"/>
			</g>
		</g>
		<g>
			<g>
				<circle class="st1" cx="28" cy="58.3" r="1.1"/>
			</g>
		</g>
		<g>
			<g>
				<circle class="st1" cx="24" cy="58.3" r="1.1"/>
			</g>
		</g>
		<g>
			<g>
				<circle class="st1" cx="20.1" cy="58.3" r="1.1"/>
			</g>
		</g>
	</g>
</g>
</svg>
