<?xml version="1.0" encoding="utf-8"?>
<!-- Generator: Adobe Illustrator 24.0.2, SVG Export Plug-In . SVG Version: 6.00 Build 0)  -->
<svg version="1.1" id="레이어_1" xmlns="http://www.w3.org/2000/svg" xmlns:xlink="http://www.w3.org/1999/xlink" x="0px"
	 y="0px" viewBox="0 0 66 80" style="enable-background:new 0 0 66 80;" xml:space="preserve">
<style type="text/css">
	.st0{fill:#FFFFFF;}
	.st1{fill:#060001;}
</style>
<g>
	<g>
		<g>
			<path class="st0" d="M30.4,63.5c-3,0-4.7-0.3-7.3-3.7s-5.9-8-9.4-9.8s-5.4-2.7-7.9-3.4s-4.5-1.3-4.2-3.3s3.1-5.7,7-6
				c3.9-0.3,9.1,2.4,10.1,2.9s5.4,0.9,6.4-3.2s1.1-6.5,1.1-9.4s0-17.8,0-20.8s2.1-5.3,5-5.3s4.6,3.1,4.6,4.9s0,20.4,0,20.4
				s2-2.7,4.9-2.7c2.9,0,4.7,3.7,4.7,3.7s1.3-2.5,4.5-2.5s5,3.5,5.3,5.5c0,0,3-1.4,5.3-0.2s3.6,5.1,3.8,8.1s-1,15-4.4,19.3
				c-3.5,4.3-5.3,5.6-5.3,5.6H30.4z"/>
			<path d="M66,39.3c0,4-1.2,15.2-4.8,19.7c-3.5,4.4-5.5,5.8-5.6,5.9c-0.3,0.2-0.6,0.3-0.9,0.3H30.4c-3.6,0-5.7-0.6-8.6-4.3
				c-0.3-0.4-0.6-0.8-0.9-1.2c-2.3-3-5.2-6.8-7.9-8.1L12,51c-2.8-1.4-4.5-2.2-6.5-2.8c-2.4-0.6-5.9-1.6-5.4-5.1
				c0.5-2.8,3.9-7,8.5-7.3c3.9-0.3,8.4,1.9,10.4,2.8c0.2,0.1,0.4,0.2,0.5,0.2c0.3,0.1,1.7,0.4,2.9-0.2c0.7-0.4,1.1-1,1.3-1.9
				c1-4,1-6.4,1-9V6.9c0-3.9,2.8-6.9,6.6-6.9c3.8,0,6.2,3.8,6.2,6.5v17c0.9-0.5,2.1-0.9,3.3-0.9c2.2,0,3.8,1.4,4.9,2.6
				c1-0.8,2.4-1.5,4.3-1.5c3.3,0,5.4,2.6,6.4,5c1.3-0.3,3.3-0.5,4.9,0.4c3.1,1.7,4.4,6.6,4.6,9.5C66,38.8,66,39,66,39.3z M54.1,61.9
				c0.7-0.6,2.2-2.1,4.6-5c3-3.7,4.2-15.1,4.1-18.2c-0.1-2.9-1.5-6-2.9-6.8c-1.2-0.7-3.3,0-3.9,0.2c-0.5,0.2-1,0.2-1.4-0.1
				c-0.4-0.2-0.7-0.7-0.8-1.2c-0.2-1.4-1.5-4.1-3.7-4.1c-2.2,0-3.1,1.6-3.1,1.7c-0.3,0.5-0.8,0.9-1.4,0.9c-0.6,0-1.2-0.3-1.4-0.9
				c0,0-1.4-2.8-3.3-2.8c-2.1,0-3.6,2-3.7,2c-0.4,0.5-1.1,0.8-1.8,0.6s-1.1-0.8-1.1-1.5V6.5c0-1-1.2-3.3-3-3.3c-2,0-3.4,1.5-3.4,3.7
				v20.8c0,2.7-0.1,5.4-1.1,9.7c-0.4,1.8-1.5,3.2-3,4c-2.1,1.1-4.5,0.7-5.6,0.3c-0.1-0.1-0.3-0.2-0.6-0.3c-1.6-0.7-5.7-2.7-8.8-2.5
				c-3.2,0.2-5.4,3.4-5.6,4.7c-0.1,0.5,0.4,0.8,3,1.5c2.3,0.6,4.2,1.6,7.1,3l1,0.5c3.4,1.7,6.4,5.6,9,9.1c0.3,0.4,0.6,0.8,0.9,1.1
				c2.3,3,3.4,3.1,6.1,3.1H54.1z"/>
		</g>
		<g>
			<g>
				<path class="st0" d="M56.3,78.4H25.9c-2.4,0-4.3-1.9-4.3-4.3v-6.2c0-2.4,1.9-4.3,4.3-4.3h30.4c2.4,0,4.3,1.9,4.3,4.3v6.2
					C60.6,76.5,58.7,78.4,56.3,78.4z"/>
				<path d="M62.2,67v8c0,2.8-2.3,5-5,5H25c-2.8,0-5-2.3-5-5v-8c0-2.8,2.3-5,5-5h32.2C60,61.9,62.2,64.2,62.2,67z M23.2,75
					c0,1,0.8,1.8,1.8,1.8h32.2c1,0,1.8-0.8,1.8-1.8v-8c0-1-0.8-1.8-1.8-1.8H25c-1,0-1.8,0.8-1.8,1.8V75z"/>
			</g>
		</g>
	</g>
	<g>
		<g>
			<g>
				<g>
					<circle class="st1" cx="50.2" cy="57.5" r="1.6"/>
				</g>
			</g>
		</g>
		<g>
			<g>
				<g>
					<circle class="st1" cx="56" cy="51.6" r="1.6"/>
				</g>
			</g>
		</g>
		<g>
			<g>
				<g>
					<circle class="st1" cx="50.2" cy="51.6" r="1.6"/>
				</g>
			</g>
		</g>
		<g>
			<g>
				<g>
					<circle class="st1" cx="44.4" cy="51.6" r="1.6"/>
				</g>
			</g>
		</g>
		<g>
			<g>
				<g>
					<circle class="st1" cx="56" cy="45.7" r="1.6"/>
				</g>
			</g>
		</g>
		<g>
			<g>
				<g>
					<circle class="st1" cx="50.2" cy="45.7" r="1.6"/>
				</g>
			</g>
		</g>
		<g>
			<g>
				<g>
					<circle class="st1" cx="56" cy="39.8" r="1.6"/>
				</g>
			</g>
		</g>
		<g>
			<g>
				<g>
					<circle class="st1" cx="44.4" cy="57.5" r="1.6"/>
				</g>
			</g>
		</g>
		<g>
			<g>
				<g>
					<circle class="st1" cx="38.6" cy="57.5" r="1.6"/>
				</g>
			</g>
		</g>
		<g>
			<g>
				<g>
					<circle class="st1" cx="32.8" cy="57.5" r="1.6"/>
				</g>
			</g>
		</g>
	</g>
	<g>
		
			<rect x="28.5" y="15.4" transform="matrix(6.123234e-17 -1 1 6.123234e-17 10.8823 51.2976)" class="st0" width="5.1" height="9.7"/>
		<path d="M37.1,17.6v5.1c0,0.7-0.5,1.2-1.2,1.2h-9.7c-0.7,0-1.2-0.5-1.2-1.2v-5.1c0-0.7,0.5-1.2,1.2-1.2h9.7
			C36.6,16.4,37.1,17,37.1,17.6z M34.7,21.6v-2.8h-7.3v2.8H34.7z"/>
	</g>
</g>
</svg>
