<?xml version="1.0" encoding="utf-8"?>
<!-- Generator: Adobe Illustrator 24.0.2, SVG Export Plug-In . SVG Version: 6.00 Build 0)  -->
<svg version="1.1" id="레이어_1" xmlns="http://www.w3.org/2000/svg" xmlns:xlink="http://www.w3.org/1999/xlink" x="0px"
	 y="0px" viewBox="0 0 57.9 80" style="enable-background:new 0 0 57.9 80;" xml:space="preserve">
<style type="text/css">
	.st0{fill:#FFFFFF;}
	.st1{fill:#060001;}
</style>
<g>
	<g>
		<g>
			<path class="st0" d="M24,63.7c-1.8,0-3.5-0.7-4.7-2c-2.8-3-7.8-8.5-9.3-11.8c-2.2-4.7-5.4-7.7-7.3-10.1S1.6,34.9,3,34
				s4.6-2.7,8.3,0.6s7.6,6.9,7.6,6.9s0.3-32.8,0.3-36s2.7-4,4.4-4c1.7,0,4.2,0.9,4.2,3.6s0,21.4,0,21.4s0.8-2.9,4.7-2.9
				s4.7,3.9,4.7,3.9s0.3-2.4,4-2.4s5.1,1.8,5.1,4.6c0,0,0-13.7,0-16.6s1.9-3.5,4-3.5s4.5,0.9,4.5,3.1s1.5,33.5,1.4,36.3
				c-0.1,2.8-2.4,14.5-6.8,14.5L24,63.7z"/>
		</g>
		<g>
			<path class="st1" d="M24,65.3c-2.2,0-4.3-0.9-5.8-2.5c-3.5-3.7-8-8.9-9.6-12.2c-1.6-3.4-3.8-5.9-5.5-8c-0.6-0.7-1.1-1.3-1.6-1.9
				c-1.1-1.4-1.6-3.1-1.4-4.7c0.2-1.4,1-2.6,2.1-3.3c3.4-2.3,7.1-2,10.3,0.8c1.8,1.6,3.6,3.2,5.1,4.5c0.1-8.6,0.3-29.9,0.3-32.4
				c0-3.8,3.1-5.5,6-5.5c2.8,0,5.8,1.6,5.8,5.2v17.6c0.8-0.4,1.8-0.6,3.1-0.6c2.4,0,4,1.1,5,2.5c0.9-0.6,2-1,3.7-1
				c1.4,0,2.6,0.2,3.6,0.7V13.1c0-1.9,0.7-5.1,5.6-5.1c3.6,0,6.1,1.9,6.1,4.7c0,0.9,0.3,6.9,0.6,13.3c0.4,10,0.9,21.3,0.9,23
				c-0.1,1.9-2.1,16.1-8.3,16.1L24,65.3L24,65.3C24,65.3,24,65.3,24,65.3z M6.8,34.3c-1,0-1.9,0.3-2.9,1c-0.3,0.2-0.6,0.6-0.7,1.2
				c-0.1,0.7,0.1,1.5,0.7,2.3c0.4,0.6,0.9,1.1,1.5,1.8c1.9,2.2,4.2,4.9,6,8.7c1.1,2.3,4.4,6.4,9.1,11.4c0.9,1,2.3,1.5,3.6,1.5l0,0
				L49.6,62c2.5,0,5.1-9.5,5.2-13c0-1.6-0.5-13.4-0.9-22.8c-0.3-7-0.6-12.5-0.6-13.5c0-1.5-2.9-1.5-2.9-1.5c-2.1,0-2.4,0.6-2.4,2
				v16.6c0,0.9-0.7,1.6-1.6,1.6s-1.6-0.7-1.6-1.6c0-1.5-0.4-3-3.6-3c-2.2,0-2.4,1.1-2.4,1.1c-0.1,0.8-0.7,1.3-1.5,1.3
				c-0.7,0-1.4-0.5-1.6-1.2c-0.1-0.3-0.7-2.6-3.1-2.6c-2.5,0-3.1,1.6-3.2,1.8c-0.2,0.7-1,1.2-1.7,1.1c-0.8-0.1-1.3-0.8-1.3-1.5V5.2
				c0-1.9-2-2.1-2.6-2.1c-0.9,0-2.9,0.2-2.9,2.4c0,3.1-0.3,35.6-0.3,36c0,0.6-0.4,1.2-0.9,1.4c-0.6,0.2-1.2,0.1-1.7-0.3
				c0,0-3.9-3.6-7.6-6.8C9.1,34.8,8,34.3,6.8,34.3z"/>
		</g>
	</g>
	<g>
		<g>
			<path class="st0" d="M52.3,78.4H19.9c-1.7,0-3.1-1.4-3.1-3.1v-8.5c0-1.7,1.4-3.1,3.1-3.1h32.4c1.7,0,3.1,1.4,3.1,3.1v8.5
				C55.4,77,54,78.4,52.3,78.4z"/>
		</g>
		<g>
			<path class="st1" d="M52,80H20.1c-2.7,0-5-2.2-5-5v-7.9c0-2.7,2.2-5,5-5H52c2.7,0,5,2.2,5,5V75C57,77.8,54.8,80,52,80z
				 M20.1,65.3c-1,0-1.8,0.8-1.8,1.8V75c0,1,0.8,1.8,1.8,1.8H52c1,0,1.8-0.8,1.8-1.8v-7.9c0-1-0.8-1.8-1.8-1.8H20.1z"/>
		</g>
	</g>
	<g>
		<g>
			<g>
				<circle class="st1" cx="47.1" cy="59.1" r="1.1"/>
			</g>
		</g>
		<g>
			<g>
				<circle class="st1" cx="51.2" cy="54.9" r="1.1"/>
			</g>
		</g>
		<g>
			<g>
				<circle class="st1" cx="47.1" cy="54.9" r="1.1"/>
			</g>
		</g>
		<g>
			<g>
				<circle class="st1" cx="43" cy="54.9" r="1.1"/>
			</g>
		</g>
		<g>
			<g>
				<circle class="st1" cx="51.2" cy="50.7" r="1.1"/>
			</g>
		</g>
		<g>
			<g>
				<circle class="st1" cx="47.1" cy="50.7" r="1.1"/>
			</g>
		</g>
		<g>
			<g>
				<circle class="st1" cx="51.2" cy="46.5" r="1.1"/>
			</g>
		</g>
		<g>
			<g>
				<circle class="st1" cx="51.2" cy="42.3" r="1.1"/>
			</g>
		</g>
		<g>
			<g>
				<circle class="st1" cx="51.2" cy="38.1" r="1.1"/>
			</g>
		</g>
		<g>
			<g>
				<circle class="st1" cx="47.1" cy="46.5" r="1.1"/>
			</g>
		</g>
		<g>
			<g>
				<circle class="st1" cx="39" cy="54.9" r="1.1"/>
			</g>
		</g>
		<g>
			<g>
				<circle class="st1" cx="43" cy="59.1" r="1.1"/>
			</g>
		</g>
		<g>
			<g>
				<circle class="st1" cx="38.9" cy="59.1" r="1.1"/>
			</g>
		</g>
		<g>
			<g>
				<circle class="st1" cx="34.8" cy="59.1" r="1.1"/>
			</g>
		</g>
		<g>
			<g>
				<circle class="st1" cx="31" cy="59.1" r="1.1"/>
			</g>
		</g>
	</g>
	<g>
		<path class="st1" d="M29.2,26H17.8v-7.5h11.5V26z M20,23.7h7v-3.1h-7V23.7z"/>
	</g>
	<g>
		<path class="st1" d="M56.6,30.4H45.1v-7.5h11.5V30.4z M47.3,28.2h7v-3.1h-7V28.2z"/>
	</g>
</g>
</svg>
