<?xml version="1.0" encoding="utf-8"?>
<!-- Generator: Adobe Illustrator 24.0.2, SVG Export Plug-In . SVG Version: 6.00 Build 0)  -->
<svg version="1.1" id="레이어_1" xmlns="http://www.w3.org/2000/svg" xmlns:xlink="http://www.w3.org/1999/xlink" x="0px"
	 y="0px" viewBox="0 0 42 42" style="enable-background:new 0 0 42 42;" xml:space="preserve">
<style type="text/css">
	.st0{fill:#E7E7E7;}
</style>
<g>
	<g>
		<g>
			<circle class="st0" cx="21" cy="21" r="21"/>
		</g>
	</g>
	<path d="M32.1,15.3c-0.5,0.6-1,1.2-1.6,1.8c-0.6,0.6-0.5,1-0.6,1.8c-0.1,1.2-0.3,2.3-0.7,3.4c-0.8,2.2-2.1,4.2-3.9,5.7
		c-4.2,3.6-10.8,3.8-15.4,0.9c3.4,0.1,5-0.6,6.7-1.9c-1.8-0.3-3.4-0.7-4.3-3.2c0.9,0.2,1.5,0.1,2,0c-1.7-0.5-3.6-1.3-3.6-4.5
		c0.7,0.4,1.6,0.6,2.1,0.5c-2.2-1.5-2.4-4.1-1.4-6.1c1.4,2.1,6.7,5.1,9.1,4.6c-0.3-2.2,0.9-4.3,3-5.1c1.2-0.4,2.4-0.4,3.6,0.1
		c0.5,0.2,0.9,0.5,1.3,0.8c0.1,0.1,0.1,0.1,0.2,0.1c0.1,0,0.1,0,0.2,0c0.8-0.2,2.1-0.8,2.5-1c0.1-0.1-0.7,2-1.9,2.5
		c0.5-0.1,1.8-0.5,2.3-0.7c0.1,0,0.2-0.1,0.3,0C32.1,15,32.2,15.1,32.1,15.3z"/>
</g>
</svg>
