<?xml version="1.0" encoding="utf-8"?>
<!-- Generator: Adobe Illustrator 24.1.1, SVG Export Plug-In . SVG Version: 6.00 Build 0)  -->
<svg version="1.1" id="레이어_1" xmlns="http://www.w3.org/2000/svg" xmlns:xlink="http://www.w3.org/1999/xlink" x="0px"
	 y="0px" viewBox="0 0 1920 1080" style="enable-background:new 0 0 1920 1080;" xml:space="preserve">
<path d="M5810.7,151.1c11.2-1.6,23.6-0.2,35.5-0.1c36.6,0.3,60.4-0.7,91.4,1.2c3.6,0.2,7.5-0.1,10.5,2c4.2,3.1,4.6,9.1,4.5,14.4
	c-0.6,44.1-0.6,83.9-1.2,128c0,1.4,0.5,4.9-1.3,8.4c-1.6,3.1-5.6,3.9-9.1,4.1c-17.4,0.9-34.4,2.1-53.9,0.9
	c-6.1-0.4-33.8,0.5-42.4-0.1c-13.2-1-25.1-1.4-38.4-2c-2.7-0.1-4.2-1.3-5.3-2.1c-1.3-0.9-2-2.4-2.5-4c-1.7-5.2-1.9-10.8-2-16.2
	c-1-39.2-2-78.4-0.8-117.6c0.2-5.6,1-12.2,5.9-14.9c4-2.2,9.5-1.3,13.9-2.4"/>
</svg>
