<?xml version="1.0" encoding="utf-8"?>
<!-- Generator: Adobe Illustrator 24.0.2, SVG Export Plug-In . SVG Version: 6.00 Build 0)  -->
<svg version="1.1" id="레이어_1" xmlns="http://www.w3.org/2000/svg" xmlns:xlink="http://www.w3.org/1999/xlink" x="0px"
	 y="0px" viewBox="0 0 445.62 63.66" style="enable-background:new 0 0 445.62 63.66;" xml:space="preserve">
<style type="text/css">
	.st0{fill:#FFFFFF;stroke:#FFFFFF;stroke-width:3;stroke-miterlimit:10;}
</style>
<g>
	<path class="st0" d="M58.51,52.23c-0.15,0.59-0.35,1.06-0.6,1.41c-0.26,0.35-0.64,0.62-1.15,0.81c-0.51,0.18-1.17,0.31-1.98,0.37
		s-1.83,0.09-3.08,0.09c-1.39,0-2.51-0.03-3.35-0.09c-0.84-0.06-1.51-0.18-2-0.37c-0.49-0.18-0.84-0.45-1.06-0.81
		c-0.22-0.35-0.39-0.82-0.51-1.41L37.2,22.2h-0.07l-7.18,30.03c-0.12,0.56-0.29,1.02-0.51,1.37s-0.57,0.63-1.04,0.82
		c-0.48,0.2-1.12,0.32-1.94,0.38s-1.9,0.09-3.24,0.09c-1.42,0-2.55-0.03-3.39-0.09c-0.84-0.06-1.51-0.18-2-0.37
		c-0.49-0.18-0.84-0.45-1.06-0.81c-0.22-0.35-0.4-0.82-0.55-1.41L5.45,10.88C5.23,10,5.11,9.31,5.08,8.81
		C5.06,8.31,5.2,7.93,5.5,7.66c0.31-0.27,0.81-0.43,1.5-0.49C7.7,7.1,8.67,7.07,9.92,7.07c1.15,0,2.06,0.02,2.73,0.05
		c0.67,0.04,1.18,0.12,1.52,0.26c0.34,0.13,0.57,0.33,0.7,0.59c0.12,0.26,0.22,0.62,0.29,1.08l8.31,36.29h0.04l8.64-36.04
		c0.1-0.46,0.23-0.84,0.38-1.14c0.16-0.29,0.43-0.52,0.81-0.68c0.38-0.16,0.9-0.27,1.56-0.33s1.54-0.09,2.64-0.09
		c1.17,0,2.11,0.02,2.8,0.07c0.7,0.05,1.23,0.15,1.61,0.31c0.38,0.16,0.65,0.38,0.82,0.68c0.17,0.29,0.31,0.68,0.4,1.17l8.94,36.04
		h0.07l8.31-36.18c0.07-0.39,0.17-0.73,0.29-1.01c0.12-0.28,0.35-0.5,0.7-0.66c0.34-0.16,0.83-0.27,1.46-0.33
		c0.63-0.06,1.53-0.09,2.67-0.09c1.07,0,1.91,0.03,2.51,0.09s1.03,0.23,1.3,0.49c0.27,0.27,0.38,0.67,0.35,1.19
		c-0.04,0.52-0.17,1.24-0.38,2.14L58.51,52.23z"/>
	<path class="st0" d="M101.69,50.91c0,0.71-0.03,1.3-0.09,1.78c-0.06,0.48-0.15,0.86-0.27,1.15c-0.12,0.29-0.27,0.51-0.46,0.64
		c-0.18,0.13-0.38,0.2-0.6,0.2h-23.8c-0.81,0-1.48-0.24-2.03-0.71c-0.55-0.48-0.82-1.25-0.82-2.33V10.33c0-1.07,0.27-1.85,0.82-2.33
		c0.55-0.48,1.23-0.71,2.03-0.71h23.66c0.22,0,0.42,0.06,0.59,0.18c0.17,0.12,0.32,0.34,0.44,0.64c0.12,0.31,0.21,0.7,0.27,1.17
		c0.06,0.48,0.09,1.08,0.09,1.81c0,0.68-0.03,1.26-0.09,1.74c-0.06,0.48-0.15,0.86-0.27,1.15c-0.12,0.29-0.27,0.51-0.44,0.64
		c-0.17,0.13-0.37,0.2-0.59,0.2H83.2v11.57h14.32c0.22,0,0.42,0.07,0.6,0.2c0.18,0.13,0.33,0.34,0.46,0.62
		c0.12,0.28,0.21,0.66,0.27,1.13c0.06,0.48,0.09,1.06,0.09,1.74c0,0.71-0.03,1.29-0.09,1.76c-0.06,0.46-0.15,0.84-0.27,1.12
		c-0.12,0.28-0.27,0.48-0.46,0.6c-0.18,0.12-0.38,0.18-0.6,0.18H83.2v13.37h17.07c0.22,0,0.42,0.07,0.6,0.2
		c0.18,0.13,0.34,0.35,0.46,0.64c0.12,0.29,0.21,0.68,0.27,1.15C101.66,49.61,101.69,50.2,101.69,50.91z"/>
	<path class="st0" d="M146.56,30.29c0,4.35-0.57,8.06-1.7,11.15c-1.13,3.09-2.76,5.61-4.89,7.56c-2.12,1.95-4.71,3.39-7.75,4.3
		c-3.04,0.92-6.66,1.37-10.86,1.37h-11.32c-0.81,0-1.48-0.24-2.03-0.71c-0.55-0.48-0.82-1.25-0.82-2.33V10.33
		c0-1.07,0.27-1.85,0.82-2.33c0.55-0.48,1.23-0.71,2.03-0.71h12.16c4.22,0,7.81,0.49,10.75,1.48c2.94,0.99,5.42,2.45,7.43,4.39
		c2.01,1.94,3.55,4.34,4.6,7.2C146.03,23.22,146.56,26.53,146.56,30.29z M136.59,30.62c0-2.25-0.26-4.33-0.79-6.26
		c-0.53-1.93-1.37-3.6-2.53-5.02c-1.16-1.42-2.65-2.52-4.47-3.31s-4.21-1.19-7.16-1.19h-4.87v32.23h5.02c2.64,0,4.86-0.34,6.67-1.03
		c1.81-0.68,3.31-1.71,4.52-3.09c1.21-1.38,2.11-3.09,2.71-5.15S136.59,33.35,136.59,30.62z"/>
	<path class="st0" d="M190.83,30.29c0,4.35-0.57,8.06-1.7,11.15c-1.13,3.09-2.76,5.61-4.89,7.56c-2.12,1.95-4.71,3.39-7.75,4.3
		c-3.04,0.92-6.66,1.37-10.86,1.37h-11.32c-0.81,0-1.48-0.24-2.03-0.71c-0.55-0.48-0.82-1.25-0.82-2.33V10.33
		c0-1.07,0.27-1.85,0.82-2.33c0.55-0.48,1.23-0.71,2.03-0.71h12.16c4.22,0,7.81,0.49,10.75,1.48c2.94,0.99,5.42,2.45,7.43,4.39
		c2.01,1.94,3.55,4.34,4.6,7.2C190.31,23.22,190.83,26.53,190.83,30.29z M180.87,30.62c0-2.25-0.26-4.33-0.79-6.26
		c-0.53-1.93-1.37-3.6-2.53-5.02c-1.16-1.42-2.65-2.52-4.47-3.31s-4.21-1.19-7.16-1.19h-4.87v32.23h5.02c2.64,0,4.86-0.34,6.67-1.03
		c1.81-0.68,3.31-1.71,4.52-3.09c1.21-1.38,2.11-3.09,2.71-5.15S180.87,33.35,180.87,30.62z"/>
	<path class="st0" d="M205.41,53.36c0,0.24-0.08,0.46-0.24,0.66c-0.16,0.2-0.42,0.35-0.79,0.48c-0.37,0.12-0.85,0.22-1.46,0.29
		c-0.61,0.07-1.39,0.11-2.34,0.11c-0.93,0-1.7-0.04-2.33-0.11c-0.62-0.07-1.12-0.17-1.48-0.29c-0.37-0.12-0.63-0.28-0.79-0.48
		c-0.16-0.2-0.24-0.42-0.24-0.66V8.61c0-0.24,0.08-0.46,0.24-0.66c0.16-0.2,0.43-0.35,0.81-0.48c0.38-0.12,0.87-0.22,1.48-0.29
		c0.61-0.07,1.38-0.11,2.31-0.11c0.95,0,1.73,0.04,2.34,0.11c0.61,0.07,1.1,0.17,1.46,0.29c0.37,0.12,0.63,0.28,0.79,0.48
		c0.16,0.2,0.24,0.42,0.24,0.66V53.36z"/>
	<path class="st0" d="M251.81,51.31c0,0.56-0.1,1.06-0.29,1.5c-0.2,0.44-0.46,0.81-0.79,1.1c-0.33,0.29-0.72,0.51-1.17,0.64
		c-0.45,0.13-0.91,0.2-1.37,0.2h-4.1c-0.85,0-1.59-0.09-2.22-0.26c-0.62-0.17-1.2-0.48-1.72-0.93c-0.52-0.45-1.03-1.06-1.52-1.83
		c-0.49-0.77-1.04-1.76-1.65-2.98l-11.79-22.16c-0.68-1.32-1.38-2.74-2.09-4.27c-0.71-1.53-1.34-3.01-1.9-4.45h-0.07
		c0.1,1.76,0.17,3.51,0.22,5.26c0.05,1.75,0.07,3.55,0.07,5.4v24.79c0,0.24-0.07,0.46-0.2,0.66c-0.13,0.2-0.37,0.36-0.7,0.49
		c-0.33,0.13-0.77,0.24-1.34,0.31c-0.56,0.07-1.28,0.11-2.16,0.11c-0.85,0-1.56-0.04-2.12-0.11c-0.56-0.07-1-0.18-1.32-0.31
		c-0.32-0.13-0.54-0.3-0.66-0.49c-0.12-0.2-0.18-0.42-0.18-0.66V10.73c0-1.15,0.34-2.01,1.01-2.58c0.67-0.57,1.5-0.86,2.47-0.86
		h5.16c0.93,0,1.71,0.08,2.34,0.24c0.63,0.16,1.2,0.42,1.7,0.79c0.5,0.37,0.97,0.87,1.41,1.52c0.44,0.65,0.89,1.45,1.35,2.4
		l9.23,17.32c0.54,1.05,1.07,2.08,1.59,3.09c0.52,1.01,1.03,2.03,1.52,3.04c0.49,1.01,0.96,2.01,1.43,2.98
		c0.46,0.98,0.92,1.95,1.35,2.93h0.04c-0.07-1.71-0.13-3.49-0.16-5.35c-0.04-1.85-0.06-3.63-0.06-5.31V8.72
		c0-0.24,0.07-0.46,0.22-0.66c0.15-0.2,0.39-0.37,0.73-0.51c0.34-0.15,0.79-0.25,1.35-0.31c0.56-0.06,1.28-0.09,2.16-0.09
		c0.83,0,1.53,0.03,2.09,0.09c0.56,0.06,0.99,0.16,1.3,0.31s0.52,0.32,0.64,0.51c0.12,0.2,0.18,0.42,0.18,0.66V51.31z"/>
	<path class="st0" d="M297.15,14.65c0,0.71-0.03,1.32-0.09,1.83c-0.06,0.51-0.15,0.92-0.26,1.23c-0.11,0.31-0.24,0.52-0.4,0.64
		c-0.16,0.12-0.35,0.18-0.57,0.18c-0.32,0-0.83-0.22-1.54-0.66c-0.71-0.44-1.65-0.92-2.82-1.43s-2.57-0.99-4.19-1.43
		s-3.51-0.66-5.66-0.66c-2.29,0-4.37,0.4-6.23,1.19c-1.86,0.79-3.44,1.92-4.76,3.37c-1.32,1.45-2.33,3.2-3.04,5.24
		c-0.71,2.04-1.06,4.29-1.06,6.76c0,2.71,0.36,5.1,1.08,7.16c0.72,2.06,1.73,3.79,3.02,5.18c1.29,1.39,2.85,2.44,4.67,3.15
		c1.82,0.71,3.83,1.06,6.02,1.06c1.07,0,2.14-0.12,3.19-0.37c1.05-0.24,2.03-0.61,2.93-1.1V35.01h-8.97c-0.44,0-0.78-0.27-1.03-0.82
		c-0.24-0.55-0.37-1.48-0.37-2.8c0-0.68,0.03-1.26,0.09-1.72c0.06-0.46,0.15-0.84,0.27-1.12c0.12-0.28,0.27-0.49,0.44-0.62
		c0.17-0.13,0.37-0.2,0.59-0.2h16c0.39,0,0.74,0.07,1.04,0.2c0.3,0.13,0.57,0.34,0.81,0.6c0.23,0.27,0.41,0.59,0.53,0.97
		c0.12,0.38,0.18,0.81,0.18,1.3v18.86c0,0.73-0.13,1.37-0.38,1.92c-0.26,0.55-0.78,0.98-1.57,1.3c-0.79,0.32-1.78,0.65-2.95,0.99
		c-1.17,0.34-2.39,0.64-3.64,0.88c-1.26,0.24-2.53,0.43-3.81,0.55c-1.28,0.12-2.57,0.18-3.86,0.18c-3.78,0-7.17-0.54-10.16-1.63
		c-2.99-1.09-5.52-2.66-7.6-4.72c-2.08-2.06-3.66-4.58-4.76-7.54c-1.1-2.97-1.65-6.33-1.65-10.09c0-3.88,0.59-7.37,1.76-10.46
		c1.17-3.09,2.83-5.71,4.98-7.87c2.15-2.16,4.74-3.81,7.78-4.96c3.04-1.15,6.43-1.72,10.16-1.72c2.05,0,3.92,0.14,5.6,0.42
		c1.68,0.28,3.16,0.62,4.41,1.03c1.26,0.4,2.3,0.84,3.13,1.3c0.83,0.46,1.41,0.87,1.74,1.21c0.33,0.34,0.57,0.82,0.71,1.45
		C297.08,12.51,297.15,13.43,297.15,14.65z"/>
	<path class="st0" d="M357.25,30.29c0,4.35-0.57,8.06-1.7,11.15c-1.13,3.09-2.76,5.61-4.89,7.56c-2.12,1.95-4.71,3.39-7.75,4.3
		c-3.04,0.92-6.66,1.37-10.86,1.37h-11.32c-0.81,0-1.48-0.24-2.03-0.71c-0.55-0.48-0.82-1.25-0.82-2.33V10.33
		c0-1.07,0.27-1.85,0.82-2.33c0.55-0.48,1.23-0.71,2.03-0.71h12.16c4.22,0,7.81,0.49,10.75,1.48c2.94,0.99,5.42,2.45,7.43,4.39
		c2.01,1.94,3.55,4.34,4.6,7.2C356.73,23.22,357.25,26.53,357.25,30.29z M347.29,30.62c0-2.25-0.26-4.33-0.79-6.26
		c-0.53-1.93-1.37-3.6-2.53-5.02c-1.16-1.42-2.65-2.52-4.47-3.31s-4.21-1.19-7.16-1.19h-4.87v32.23h5.02c2.64,0,4.86-0.34,6.67-1.03
		c1.81-0.68,3.31-1.71,4.52-3.09c1.21-1.38,2.11-3.09,2.71-5.15S347.29,33.35,347.29,30.62z"/>
	<path class="st0" d="M400.98,51.09c0.29,0.88,0.48,1.57,0.55,2.09s-0.02,0.9-0.29,1.15c-0.27,0.26-0.75,0.41-1.43,0.48
		c-0.68,0.06-1.62,0.09-2.82,0.09c-1.25,0-2.22-0.02-2.91-0.05c-0.7-0.04-1.23-0.11-1.59-0.22c-0.37-0.11-0.62-0.26-0.77-0.46
		c-0.15-0.2-0.27-0.45-0.37-0.77l-3.19-9.52h-17.8l-3,9.27c-0.1,0.34-0.23,0.63-0.38,0.86c-0.16,0.23-0.42,0.42-0.77,0.55
		c-0.35,0.13-0.85,0.23-1.5,0.27c-0.65,0.05-1.5,0.07-2.55,0.07c-1.12,0-2-0.04-2.64-0.11c-0.64-0.07-1.07-0.25-1.32-0.53
		c-0.24-0.28-0.33-0.68-0.26-1.19s0.26-1.2,0.55-2.05l14.61-42.04c0.15-0.42,0.32-0.75,0.51-1.01c0.2-0.26,0.51-0.45,0.93-0.59
		s1.02-0.22,1.78-0.26c0.76-0.04,1.76-0.05,3-0.05c1.44,0,2.59,0.02,3.44,0.05c0.85,0.04,1.52,0.12,2,0.26
		c0.48,0.13,0.82,0.34,1.03,0.6c0.21,0.27,0.38,0.64,0.53,1.1L400.98,51.09z M379.23,16.34h-0.04l-6.7,20.14h13.44L379.23,16.34z"/>
	<path class="st0" d="M423.76,36.7v16.66c0,0.24-0.08,0.46-0.24,0.66c-0.16,0.2-0.42,0.35-0.79,0.48c-0.37,0.12-0.86,0.22-1.48,0.29
		c-0.62,0.07-1.4,0.11-2.33,0.11c-0.95,0-1.73-0.04-2.34-0.11c-0.61-0.07-1.1-0.17-1.48-0.29c-0.38-0.12-0.64-0.28-0.79-0.48
		c-0.15-0.2-0.22-0.42-0.22-0.66V36.7l-12.96-25.82c-0.46-0.9-0.76-1.6-0.9-2.11s-0.06-0.88,0.22-1.14c0.28-0.26,0.8-0.41,1.56-0.48
		c0.76-0.06,1.81-0.09,3.15-0.09c1.12,0,2.02,0.02,2.69,0.07c0.67,0.05,1.2,0.14,1.59,0.27c0.39,0.13,0.68,0.31,0.86,0.53
		c0.18,0.22,0.36,0.5,0.53,0.84l5.27,11.65c0.51,1.12,1.02,2.31,1.52,3.55c0.5,1.25,1.01,2.55,1.52,3.92h0.07
		c0.46-1.32,0.94-2.6,1.43-3.85c0.49-1.25,0.96-2.43,1.43-3.55l5.2-11.57c0.12-0.39,0.27-0.7,0.46-0.93
		c0.18-0.23,0.46-0.42,0.82-0.57s0.87-0.24,1.5-0.29c0.63-0.05,1.48-0.07,2.53-0.07c1.39,0,2.47,0.03,3.24,0.09
		c0.77,0.06,1.29,0.22,1.58,0.48c0.28,0.26,0.35,0.64,0.2,1.15s-0.44,1.21-0.88,2.09L423.76,36.7z"/>
</g>
</svg>
