<?xml version="1.0" encoding="utf-8"?>
<!-- Generator: Adobe Illustrator 24.1.1, SVG Export Plug-In . SVG Version: 6.00 Build 0)  -->
<svg version="1.1" id="Layer_1" xmlns="http://www.w3.org/2000/svg" xmlns:xlink="http://www.w3.org/1999/xlink" x="0px" y="0px"
	 viewBox="0 0 512 512" style="enable-background:new 0 0 512 512;" xml:space="preserve">
<style type="text/css">
	.st0{fill:#FFFFFF;}
</style>
<rect x="336" y="336" class="st0" width="80" height="80"/>
<rect x="272" y="272" class="st0" width="64" height="64"/>
<rect x="416" y="416" class="st0" width="64" height="64"/>
<rect x="432" y="272" class="st0" width="48" height="48"/>
<rect x="272" y="432" class="st0" width="48" height="48"/>
<rect x="336" y="96" class="st0" width="80" height="80"/>
<path class="st0" d="M480,240H272V32h208V240z M316,196h120V76H316V196z"/>
<rect x="96" y="96" class="st0" width="80" height="80"/>
<path class="st0" d="M240,240H32V32h208V240z M76,196h120V76H76V196z"/>
<rect x="96" y="336" class="st0" width="80" height="80"/>
<path class="st0" d="M240,480H32V272h208V480z M76,436h120V316H76V436z"/>
</svg>
