<?xml version="1.0" encoding="utf-8"?>
<!-- Generator: Adobe Illustrator 24.1.1, SVG Export Plug-In . SVG Version: 6.00 Build 0)  -->
<svg version="1.1" id="Layer_1" xmlns="http://www.w3.org/2000/svg" xmlns:xlink="http://www.w3.org/1999/xlink" x="0px" y="0px"
	 viewBox="0 0 24 24" style="enable-background:new 0 0 24 24;" xml:space="preserve">
<style type="text/css">
	.st0{fill:#FCFCFC;}
</style>
<g>
	<path class="st0" d="M16.7,7.4c-0.2-0.2-0.4-0.3-0.7-0.3s-0.5,0.1-0.7,0.3L13,9.7V3c0-0.6-0.4-1-1-1s-1,0.4-1,1v6.7L8.7,7.4
		C8.5,7.2,8.3,7.1,8,7.1S7.5,7.2,7.3,7.4c-0.4,0.4-0.4,1,0,1.4l4.7,4.7l4.7-4.7C17.1,8.4,17.1,7.8,16.7,7.4z"/>
	<path class="st0" d="M21,16c0-0.1,0-0.2,0-0.3l-2-6C18.8,9.3,18.4,9,18,9h-0.2c-0.1,0.2-0.2,0.4-0.4,0.5L15.9,11h1.3l1.7,5H5.1
		l1.7-5h1.3L6.6,9.5C6.4,9.4,6.3,9.2,6.2,9H6C5.6,9,5.2,9.3,5.1,9.7l-2,6c0,0.1,0,0.2,0,0.3c0,0,0,5,0,5c0,0.6,0.4,1,1,1h16
		c0.6,0,1-0.4,1-1C21,21,21,16,21,16z"/>
</g>
</svg>
