<?xml version="1.0" encoding="utf-8"?>
<!-- Generator: Adobe Illustrator 24.1.1, SVG Export Plug-In . SVG Version: 6.00 Build 0)  -->
<svg version="1.1"
	 id="svg8" xmlns:cc="http://creativecommons.org/ns#" xmlns:dc="http://purl.org/dc/elements/1.1/" xmlns:inkscape="http://www.inkscape.org/namespaces/inkscape" xmlns:rdf="http://www.w3.org/1999/02/22-rdf-syntax-ns#" xmlns:sodipodi="http://sodipodi.sourceforge.net/DTD/sodipodi-0.dtd" xmlns:svg="http://www.w3.org/2000/svg"
	 xmlns="http://www.w3.org/2000/svg" xmlns:xlink="http://www.w3.org/1999/xlink" x="0px" y="0px" viewBox="0 0 32 32"
	 style="enable-background:new 0 0 32 32;" xml:space="preserve">
<style type="text/css">
	.st0{fill:#FFFFFF;}
</style>
<g>
	<path d="M16,9c-1.7,0-3,1.3-3,3s1.3,3,3,3c1.7,0,3-1.3,3-3S17.7,9,16,9z"/>
	<path d="M16,3c-5,0-9,4-9,9c0,8.7,7.9,15.6,9,16.6c1.1-0.9,9-7.8,9-16.6C25,7,21,3,16,3z M16,17c-2.7,0-5-2.3-5-5s2.2-5,5-5
		s5,2.2,5,5C21,14.7,18.7,17,16,17z"/>
	<path d="M16,1C9.9,1,5,5.9,5,12c0,10.7,10.4,18.8,10.4,18.8c0.4,0.3,0.9,0.3,1.2,0c0,0,10.4-8.1,10.4-18.8C27,5.9,22.1,1,16,1z
		 M16,28.6c-1.1-0.9-9-7.8-9-16.6c0-5,4-9,9-9c5,0,9,4,9,9C25,20.7,17.1,27.6,16,28.6z"/>
	<path class="st0" d="M16,7c-2.7,0-5,2.2-5,5s2.2,5,5,5c2.7,0,5-2.3,5-5C21,9.2,18.7,7,16,7z M16,15c-1.7,0-3-1.3-3-3s1.3-3,3-3
		c1.7,0,3,1.3,3,3S17.7,15,16,15z"/>
</g>
</svg>
