<?xml version="1.0" ?><svg viewBox="0 0 200 200" xmlns="http://www.w3.org/2000/svg"><defs><style>.a{fill:#fde3a7;}.b{fill:#f5a9bc;}.c{fill:#86dad4;}</style></defs><path class="a" d="M117.8,123.577c-1.107-.439-2.043.649-3.208.724-.387.024-.824.321-.983-.261-.147-.531.363-.616.675-.845.242-.179.8-.007.734-.377-.076-.419-.585-.477-1-.469a5.784,5.784,0,0,0-3.366,1.373,28.289,28.289,0,0,0-5.666,5.57,5.565,5.565,0,0,0-.9,1.91c-.486,1.806-.715,3.714-1.871,5.282a1.443,1.443,0,0,1-2.39.354c-1.365-1.052-1.42-1.292-.915-3.045a7.427,7.427,0,0,0,.08-1.276c.095-.936.376-1.189,1.272-.97a.633.633,0,0,0,.774-.345c.871-1.4,2.158-2.509,2.793-4.075a4.113,4.113,0,0,1,.837-1.387c2.212-2.178,4.1-4.678,6.773-6.4a18.474,18.474,0,0,1,7.2-2.8c1.11-.175,2.113-.7,3.214-.881.5-.084.181-.391.175-.65-.044-1.893-1.068-3.436-1.794-5.079-1.045-2.362-.6-4.594.328-6.875,1.665-4.111,1.88-5.185,2.279-10.547.1-1.335.134-2.678.19-4.017a1,1,0,0,1,.7-1.06.974.974,0,0,1,1.122.567c1.974,3.272,4.223,6.6,7.882,6.356a20.8,20.8,0,0,1,4.39.624,2.685,2.685,0,0,0,2.244-.48c1.882-1.477,3.794-3.6,6.564-5.764a1.212,1.212,0,0,1,1.493-.247c.538.355.394.907.194,1.4-1,2.459-1.965,4.935-3.046,7.358a5.439,5.439,0,0,0,.125,4.771,39.662,39.662,0,0,1,2.254,5.917,2.618,2.618,0,0,1-.669,2.6c-4.327,4.907-5.89,5.024-5.934,5.985-.033.7.858.642,1.329.9a7.361,7.361,0,0,1,2.763,2.437c1.158,1.744,3.61,2.045,5.13,8.322a46.16,46.16,0,0,1,.937,14.19,3.319,3.319,0,0,1-4.376,2.6,2.441,2.441,0,0,1-1.208-2.99c.559-1.262.343-2.522.437-3.789a10.1,10.1,0,0,0-1.368-5.666,38.3,38.3,0,0,1-1.772-3.984,38.809,38.809,0,0,0-2.031-3.967c-.356-.653-.736-.664-1.249-.025a2.231,2.231,0,0,1-2.077.934,21.012,21.012,0,0,1-3.418-.165.448.448,0,0,0-.333.034c-1.162.883-2.443.413-3.644.232a36.76,36.76,0,0,0-5.383.04c-1,0-.562,1.752-2.526.97a2.67,2.67,0,0,1-1.818-2.693c-.009-.288-.193-.315-.4-.317C118.869,123.574,118.411,123.577,117.8,123.577Z"/><path class="a" d="M144.322,152.943c-.325,1.1-.124,2.255-.443,3.382-.885,3.133-2.483,5.658-5.6,6.924a2.92,2.92,0,0,0-2.042,3.39c.285,2.809-.881,5.3-1.9,7.819-.738,1.818-1.1,3.09-2.08,2.749-.625-.218-.671-.74-.531-1.347,1.008-4.348.8-5.029-.52-8.761a1.341,1.341,0,0,0-.607-.808,14.981,14.981,0,0,1-2.354-1.7c-.141-.106-.356-.4-.467-.113-.39,1.016-1.451,1.345-2.061,2.126a17.385,17.385,0,0,0-3.033,7.2,9.336,9.336,0,0,1-1.111,3.033c-.236.378-.489.73-1.02.552a.934.934,0,0,1-.632-1.082,41.613,41.613,0,0,0-1.212-10.674,34.362,34.362,0,0,0-2.158-5.947c-.692-1.688-.848-3.548-1.567-5.244-.772-1.821-2.651-3.142-1.445-8.041.736-2.989,1.909-6.222,1.465-8.177-.192-.846.012-1.083.9-1.095s1.776-.034,2.66.016a1.281,1.281,0,0,1,1.371,1.232,2.82,2.82,0,0,0,1.347,1.778c.364.275.8-.106,1.124-.4.9-.82.953-.8,1.71.126.3.368.752.2,1.114.095a19.762,19.762,0,0,0,4.551-1.963,2.874,2.874,0,0,1,2.526-.342c1.326.435,2.679.782,4.009,1.206,2.269.725,1.917,2.295,5.449,3.245,1.507.406,1.73.716,1.9,2.305.179,1.64.451,3.269.682,4.9Q144.332,151.136,144.322,152.943Z"/><path class="a" d="M144.5,149.338a.951.951,0,0,1,1.384-.047,27.3,27.3,0,0,1,5.886,5.7,37.258,37.258,0,0,1,2.475,4.8c.366.742.675,1.512,1,2.273a9.307,9.307,0,0,1,.524,5.93c-.226,1,.325,2.056.466,3.1a41.515,41.515,0,0,1,.811,7.382,1.818,1.818,0,0,1-.141,1.007c-.582.832-.238,1.693-.113,2.539a4.722,4.722,0,0,1-.278,2.856,39.145,39.145,0,0,1-4.485,7.783c-.453.551-.9,1.11-1.405,1.615a1.366,1.366,0,0,1-1.359.552c-1.036-.281-.919-1.324-1.376-3.121-.316-1.248-1.226-2.188-1.756-3.326-2.724-5.848-2.277-7.778-.7-12.854a23.2,23.2,0,0,0,1.3-7.98c-.094-2.115-.071-4.239.008-6.355.148-3.962-2.29-7.677-2.26-8.24C144.425,151.745,144.641,150.543,144.5,149.338Z"/><path class="a" d="M81.216,8.45a1.5,1.5,0,0,1,1.467.756c1.262,1.912,2.224,3.991,3.373,5.966,4.894,8.407,7.621,14.59,11.515,24.75.875,2.285.883,2.282-1.3,3.379-1.405.707-1.425.726-2.467-.41a63.168,63.168,0,0,1-5.387-7.509C83.489,28.113,84.5,29.417,74.254,15.73c-.648-.867-1.967-1.741-.765-2.122.615-.2.98-.751,1.423-1.158A29.5,29.5,0,0,1,79.8,8.863,2.13,2.13,0,0,1,81.216,8.45Z"/><path class="a" d="M37.8,142.5c.009,8.2.115,11.286-.363,21.353-.2,4.165-.965,11.6-.008,15.093.246.9-.109,1.334-1.019,1.315a33.5,33.5,0,0,1-5.134-.162c-.679-.118-.9-.489-.808-1.06,1.865-11.694,1.077-20.974,2.306-30.255.236-1.777.291-3.58.377-5.374.108-2.251.472-4.478.625-6.719.172-2.5.844-4.955.751-7.48-.057-1.56-.577-2.782.525-3.21a2.1,2.1,0,0,1,2.249.867,2.514,2.514,0,0,1,.349,1.218C37.908,132.891,37.792,137.7,37.8,142.5Z"/><path class="a" d="M83.936,84.167c-.649-.52-.584-1.237-.65-1.909-.164-1.671-.328-3.343-.471-5.017-.038-.449-.1-.973.433-1.194a1.272,1.272,0,0,1,1.475.4,53.442,53.442,0,0,1,3.909,4.315c.841,1.164.839,1.18,2.169.588a23.549,23.549,0,0,1,3.16-1.314c.521-.147,1.105-.324,1.532.138s.217,1.01.012,1.529a19.259,19.259,0,0,1-1.961,3.406c-.922,1.41.675,1.514,1.824,5.3.19.625.4,1.3-.112,1.867s-1.172.341-1.765.158A14.542,14.542,0,0,1,89.1,90.564c-.5-.361-.663-.187-.8.322A14.564,14.564,0,0,1,86.224,95c-.348.528-.741,1.024-1.434.862-.733-.173-.832-.846-.948-1.479a18.412,18.412,0,0,1-.347-4.078c.028-.712-.185-1.058-1.025-.829a3.752,3.752,0,0,1-2.348-.292c-1.04-.41-1.2-1.236-.365-1.973,1.09-.964,2.222-1.879,3.325-2.826C83.325,84.177,83.627,84.26,83.936,84.167Z"/><path class="a" d="M58.252,92.173c.171,2.064-.589,4.081-.881,6.164-.892,6.358-.969,7.718-1.744,10.964-.207.865-.839,1.026-1.47.4-.5-.493-1.069-.068-1.61-.172-1.286-.246-1.612-.509-1.5-1.83.332-3.771.593-7.552,1.051-11.309a35.742,35.742,0,0,0,.648-6.369.726.726,0,0,1,.864-.823,7.51,7.51,0,0,1,2.832.526c.394.185.723.474,1.226.074.315-.249.563.124.575.484C58.267,90.885,58.252,91.487,58.252,92.173Z"/><path class="a" d="M24.909,88.544c0,2.879.055,5.76-.029,8.637a26.026,26.026,0,0,0-.1,3.241c.167,1.7-1.562,2.843-3.567,1.716-.632-.356-.563-1.18-.557-1.8.024-2.595-.106-5.189.093-7.789.133-1.754.166-3.527.194-5.291.02-1.2.244-2.373.38-3.557a.749.749,0,0,1,.92-.679,5.054,5.054,0,0,1,2.275.659c.7.424.568.881.568,4.863Z"/><path class="a" d="M39.877,111.187c.251-.182.087-.941.6-.794.452.127.409.741.412,1.191.007.829.065,1.676-.7,2.273a.489.489,0,0,0-.125.22c-.557,1.59-.556,1.566-2.224,1.6-.683.012-1.35-.107-2.036-.078a1.133,1.133,0,0,1-1.071-1.751c.085-.189.2-.35.083-.556-.7-1.22.174-2.384.129-3.581a.094.094,0,0,1,.038-.075c1.118-.588.5-1.484.412-2.288a2.462,2.462,0,0,0-.843-2.333c-.862-.715-.829-.86-.028-1.62.48-.454.416-1.715,1.132-1.633.315.036.4.284.506.52.627,1.433,1.371,1.536,2.4.341a1.536,1.536,0,0,1,.737-.554c.722-.21,1.028-.007.86.7a1.264,1.264,0,0,0,.407,1.439c.32.263.448.678.057.955-1.189.844-1.48,2.142-1.838,3.417-.022.08-.087.214-.065.231C39.555,109.413,38.805,110.676,39.877,111.187Z"/><path class="b" d="M23.972,104.814a12.524,12.524,0,0,1,.258-1.5c.035-.285.153-.52.469-.5.673.037.235.823.529,3.979.395,4.234-.174,5.239.7,7.984.421,1.32,1.563,1.692,2.708,1.964,3.745.889,7.453,1.912,11.159,2.942,2.809.781,5.736.9,8.56,1.593.406.1.507-.181.59-.454a56.664,56.664,0,0,0,2.244-9.122,1.9,1.9,0,0,1,2.792-1.479c.559.3.21.89.38,1.382.344-.329.353-.79.547-1.152s.424-.55.816-.444a.627.627,0,0,1,.4.768c-.493,2.356-.237,4.772-.673,7.143a14.585,14.585,0,0,0-.087,6.433c.665,2.533-.783,4.409-3.41,4.539a49.009,49.009,0,0,1-7.089-.432c-5.559-.533-10.751-2.573-16.112-3.92-4.9-1.228-7.545-.493-7.6-4.415a90.079,90.079,0,0,1,.609-9.471c.19-2.1.679-7.316.744-7.825.059-.464.241-.883.786-.814a.819.819,0,0,1,.714,1.007A6.78,6.78,0,0,0,23.972,104.814Z"/><path class="b" d="M56.017,86.133c-.029-3.9,1.142-8.373-.66-14.525A4.417,4.417,0,0,0,52.293,68.4c-6.662-1.906-8.646-3.191-20.882-5.256a15.73,15.73,0,0,0-3.086-.039A1.147,1.147,0,0,0,27.2,64.109c-.1.59.325.936.844,1.142a15.4,15.4,0,0,0,4.2.737A75.409,75.409,0,0,1,49.96,69.646a12.213,12.213,0,0,1,3.6,2.11c1.313,1.074,1.387,2.708,1.559,4.225a34.745,34.745,0,0,0,.311,3.741c.209.945-.3,1.946-.279,2.958a29.357,29.357,0,0,1-.323,5.634c-.05.289-.051.586-.4.682-.322.09-.468-.125-.586-.371-.069-.145-.174-.153-.332-.178-1.439-.218-.947-.969-.944-2.332a56.668,56.668,0,0,1,.315-7.273,8.914,8.914,0,0,0-.444-3.8,2.2,2.2,0,0,0-1.375-1.5,66.333,66.333,0,0,0-10.641-3.232c-1.976-.448-3.931-1-5.919-1.369s-4-.565-6.006-.841c-.325-.045-.438.071-.493.4a61.973,61.973,0,0,0-1.091,10.453,6.273,6.273,0,0,1-.726,3.712,2.715,2.715,0,0,1-1.653,1.152c-.855.236-1.307-.241-1.344-1.17a27.808,27.808,0,0,1,.725-7.135c.39-1.758.433-3.562.652-5.342.255-2.065.335-4.161.753-6.189A3.783,3.783,0,0,1,27.5,61.706a5.632,5.632,0,0,1,3.808-.257c4.873.9,9.7,2.046,14.621,2.7a25.123,25.123,0,0,1,8.8,2.352,10.018,10.018,0,0,1,2.814,2.355,4.793,4.793,0,0,1,.768,2.754,26.928,26.928,0,0,1,.571,3.794A66.392,66.392,0,0,1,57.753,88.42c-.128.586-.355,1.132-1.008,1.05s-.759-.662-.736-1.263C56.04,87.435,56.02,86.661,56.017,86.133Z"/><path class="b" d="M86.823,61.9a2.97,2.97,0,0,1-1.834-.916c-7.488-9.04-12.7-13.9-16.4-17.887a99.811,99.811,0,0,1-6.563-8.241c-1.117-1.492-2.452-2.787-3.581-4.265-.8-1.049-.76-1.642.347-2.394a25.778,25.778,0,0,1,4.837-2.572c.831-.337,1.384-.1,1.976.84A181.13,181.13,0,0,0,77.433,44.017c7.2,9.811,8.922,11.433,11.06,15.047.79,1.332.741,1.617-.607,2.33C87.541,61.576,87.274,61.936,86.823,61.9Z"/><path class="b" d="M37.18,105.253a12.962,12.962,0,0,0-3.113-.583c-.759-.107-1.521-.2-2.286-.269-.545-.049-.737-.316-.679-.841.106-.947-.314-1.491.668-1.41,1.088.091,2.179.556,3.3.036-.2-.311-.516-.235-.8-.256-.852-.062-1.7-.136-2.554-.186-.326-.02-.529-.155-.4-.474a5.69,5.69,0,0,1,1.061-2.1c2.182-2.256,4.81-2.217,7.548-1.582,1.05.244,1.705,1.192,2.581,1.835a84.929,84.929,0,0,0-9.409-.182,1.943,1.943,0,0,0,1.346.433,64.371,64.371,0,0,1,8.55.37c.379.05,1.425,1.654,1.289,2-.158.4-.553.24-.821.2-4.7-.771-4.563-1-4.99-.653a11.744,11.744,0,0,0,3.05.827,15.108,15.108,0,0,0,2.358.351.942.942,0,0,1,.957.986c.056.825,0,1.659,0,2.488,0,.433-.194.549-.6.428a25.192,25.192,0,0,0-4.967-.717c.307.4.585.553,1.438.6a33.374,33.374,0,0,1,3.367.522.621.621,0,0,1,.613.745c-.024.743-.024,1.488-.019,2.232,0,.391.006.612-.555.507-2.567-.485-5.147-.9-7.723-1.343a5.231,5.231,0,0,0-1.918.018,5.561,5.561,0,0,0,2.29.557c2.284.458,4.579.878,6.883,1.215a1.583,1.583,0,0,1,1.37,1.173,7.77,7.77,0,0,1,.26,2.111c.051.549-.42.932-1.045.872a24.247,24.247,0,0,1-2.794-.339c-1.812-.393-3.595-.914-5.406-1.3a12.547,12.547,0,0,1-2.358-.98,1.784,1.784,0,0,1-.857-1.567c-.14-1.115.386-2.238-.572-3.118-.635-.583-.576-1.621-1.074-2.382-.307-.471.148-.67.641-.608,1.692.214,3.384.418,5.076.623C37.009,105.49,37.113,105.445,37.18,105.253Z"/><path class="b" d="M104.043,5c.328-.038.555.232.8.479a17.353,17.353,0,0,0,2.99,2.691c1.018.652.753-.313,6.5-1.8a1.091,1.091,0,0,1,1.31.314c.614.856-.27,2-1.893,4.748-.7,1.183-.707,1.17.147,2.224q1.213,1.5,2.4,3.02c.347.446.625.963.191,1.476-.395.466-.944.333-1.427.117-1.351-.605-2.847-.587-4.238-1.018-.553-.17-.528.267-.509.613a13.609,13.609,0,0,1-.644,4.213c-.131.5-.266.988-.971,1s-.854-.473-1.05-.945c-.6-1.45-1.188-2.907-1.786-4.36-.251-.61-.606-.783-1.327-.6-1.405.351-2.889.293-4.3.7a.848.848,0,0,1-.946-.447.871.871,0,0,1,.074-1.038c1.006-1.532,2.252-2.877,3.371-4.322a1.7,1.7,0,0,0,.378-1.169c-.026-1.631-.019-3.263-.028-4.894C103.076,5.4,103.3,5,104.043,5Z"/><path class="b" d="M176.46,120.114c-2.607-.223-5.128-.479-7.656-.637-1.623-.1-3.244-.171-4.858-.373s-8.173-.889-9.845-1.034c-2.96-.258-5.933-.208-8.9-.367a7.34,7.34,0,0,1-1.753-.328,1.153,1.153,0,0,1-.487-1.967c.9-.783,1.909-1.448,2.87-2.165.16-.12.317-.036.484-.028,3.579.188,8.494.3,14.6.875,1.872.175,3.753.266,5.63.366,3.248.172,6.487.478,9.74.518.426.006.528.208.527.588a20.79,20.79,0,0,0,.444,3.987C177.43,120.447,176.717,120.007,176.46,120.114Z"/><path class="b" d="M172.4,92.078a18.619,18.619,0,0,1-3.839-.189c-1.562-.084-3.114-.311-4.673-.448-11.808-1.038-5.671-.451-14.511-.867-.2-.009-.517.09-.477-.3.136-1.366-.567-2.327-1.718-3.3a18.277,18.277,0,0,1,3.127.081c.319.061.6.11.679-.259.081-.4-.291-.438-.556-.494-.2-.042-4.75-.01-7.64-.038-4.112-.04-8.2-.531-12.317-.5-.53,0-.5-.157-.385-.6.4-1.628,1.76-1.554,2.974-1.784a60.608,60.608,0,0,1,11.346-.72,18.841,18.841,0,0,1,3.326-.025c.532.093.944.423,1.414.534a4.357,4.357,0,0,1,2.889,2.242c.3.506,1.023.552,1.611.7,3.324.827,6.763.969,10.1,1.7a27.361,27.361,0,0,1,7.9,3.427A1.582,1.582,0,0,1,172.4,92.078Z"/><path class="b" d="M150.9,145.836a7.229,7.229,0,0,0,.82-2.319c.127-.683.539-.79,1.109-.706,4.48.67,7.518.282,13.172,1.21a2.424,2.424,0,0,1,.888.274c.225.139.391.274.552,0,.193-.336-.089-.483-.327-.559a10.19,10.19,0,0,0-1.486-.382,44.812,44.812,0,0,0-5.515-.57c-2.476-.084-4.946-.324-7.418-.493-.4-.026-.639-.156-.628-.62a21.459,21.459,0,0,1,.754-3c.031-.186.223-.093.358-.086,3.876.222,2.689,0,22.813,1.825.59.053.488.362.276.694a7.257,7.257,0,0,1-4.444,3.256,11.919,11.919,0,0,1-3.413.149c-.652-.024-.8.2-.675.8.307,1.506.288,1.562-1.184,1.439-4.55-.378-9.1-.718-13.669-.71A19.455,19.455,0,0,1,150.9,145.836Z"/><path class="b" d="M144.6,118.287c3.768.248,7.5.235,11.221.6,3.681.357,7.334.957,11.023,1.231,1.962.146,3.927.227,5.889.363,1.447.1,2.885.345,4.342.343a.507.507,0,0,1,.569.506c.114,1.048.227,2.095.348,3.142.058.479-.126.678-.621.645-18.665-1.275-9.06-.357-25.128-1.2-.14-.007-.334,0-.407-.081a21.72,21.72,0,0,0-7.163-5.387C144.655,118.435,144.65,118.4,144.6,118.287Z"/><path class="b" d="M175.735,110.506c-11.836-1.217-19.125-2.077-24.413-2.21-.944-.024-1.872-.183-2.813-.194a.539.539,0,0,1-.565-.419q-.478-1.469-.976-2.927c-.163-.475.034-.667.484-.6,2.155.318,4.333.056,6.5.291,2.992.325,2.6-.267,14.137,1.041,1.612.183,3.237.244,4.854.386.934.083,1.862.228,2.8.325.35.037.473.216.536.544C177.031,110.7,177.548,110.52,175.735,110.506Z"/><path class="b" d="M176.213,135.459c-9.606-1.039-12.5-1.544-22.982-1.786-1.334-.031-1.308-.095-1.334-1.431a9.773,9.773,0,0,0,.03-2.893c-.126-.408.191-.476.512-.452q3.237.234,6.473.473c1.365.1,2.732.07,4.1.18,3.407.272,6.825.444,10.241.6a21.883,21.883,0,0,1,3.661.279c.3.064.642.048.534.454a13.193,13.193,0,0,0,.048,3.665c.007.732-.078,1.16-.94.882a1.148,1.148,0,0,0-.342,0Z"/><path class="b" d="M147.393,95.643c21.692.829,20.4,1.015,26.614,1.287a.519.519,0,0,1,.582.467c.287,1.191.615,2.373.935,3.557.118.435.048.642-.481.58-3.161-.376-6.324-.732-9.5-1.014-4.36-.387-14.832-.915-19.579-1.5-.557-.068-.673-.2-.53-.738C146,96.165,145.961,95.317,147.393,95.643Z"/><path class="b" d="M146.506,112.437a7.228,7.228,0,0,0,.906-.624,2.678,2.678,0,0,0,.988-2.75c-.1-.378-.008-.423.367-.382,1.273.139,2.551.221,3.831.3,2.755.164,5.5.463,8.256.632,5.262.321,12.842,1.485,15.619,1.575.526.017.682.2.687.71a4.772,4.772,0,0,1-.246,2.189c-.421.787-1.33.182-1.982.164-3.731-.1-7.458-.333-11.179-.632-2.017-.161-4.041-.219-6.058-.378-3.64-.285-7.279-.558-10.935-.5C146.674,112.641,146.591,112.539,146.506,112.437Z"/><path class="b" d="M153.518,124.6c3.595.089,7.183.343,10.781.38,4.294.045,9.5.677,13.154.649.481,0,.551.237.56.639.026,1.1-.32,2.141-.39,3.223-.028.43-.374.456-.7.432-11.339-.837-3.007-.3-9.373-.641-3.415-.183-6.818-.562-10.245-.595-1.674-.016-3.347-.3-5.029-.3-.408,0-.528-.175-.569-.56-.09-.823-.147-1.645-.178-2.473-.023-.623.207-.814.791-.759C152.714,124.626,153.117,124.586,153.518,124.6Z"/><path class="b" d="M151.749,150.882c4.1,0,14.27.344,15.979.338.46,0,.676.158.751.6.124.733.034,1.482.213,2.213.1.409-.2.441-.537.4a45.312,45.312,0,0,0-7.339.175c-1.714.065-3.431.028-5.147.063-.334.007-.907-.2-.928.287-.017.377.558.375.908.381,3.313.057,6.621-.063,9.927-.291a9.071,9.071,0,0,1,2.818.1c.221.054.5.043.492.356a12.88,12.88,0,0,1-.132,3.24c-.1.349-.162.531-.622.295-1.2-.618-7.823-.178-11.089-.235a1.457,1.457,0,0,1-1.555-1,29.323,29.323,0,0,0-3.649-6.673A.92.92,0,0,1,151.749,150.882Z"/><path class="b" d="M174.782,105.344c-16.367-1.5-15.509-1.342-26.705-1.733-1.826-.064-2.085-.378-2.624-2.526-.379-1.514-.376-1.547,1.121-1.39,7.459.78,11.263.767,20.006,1.553,2.718.244,5.427.577,8.142.853.793.08,1.243.414,1.216,1.271a4.67,4.67,0,0,0,.134.841C176.244,105.309,176.178,105.386,174.782,105.344Z"/><path class="b" d="M150.838,91.26c3.724.253,7.46.235,11.181.652,3.477.39,6.959.795,10.462.909a.764.764,0,0,1,.724.354,8.959,8.959,0,0,1,.991,2.543c.106.433-.144.55-.531.529-1.454-.074-2.919-.054-4.358-.236-1.078-.137-2.161-.144-3.237-.237-2.129-.186-4.279-.143-6.419-.224-4.135-.157-8.268-.341-12.4-.5-.483-.018-.533-.182-.332-.569.488-.938.972-1.88,1.44-2.828a.645.645,0,0,1,.678-.4C149.635,91.274,150.236,91.26,150.838,91.26Z"/><path class="b" d="M151.89,135.606c0-1.4,0-1.432,1.121-1.38,3.474.16,6.952.27,10.418.537,9.729.751,7.772.986,13.409,1.331.459.027.685.123.653.63a15.042,15.042,0,0,1-.448,2.692c-.111.446-.4.511-.768.467-2.993-.357-5.539-.8-18.434-1.687-1.566-.107-3.137-.182-4.7-.175-.671,0-.944-.259-1.033-.846C152.011,136.557,151.935,135.935,151.89,135.606Z"/><path class="b" d="M165.906,150.534c-3.29-.315-7.041-.058-10.782-.217-1.341-.057-2.681-.113-4.022-.121-.8,0-1.31-.643-1.993-.919a9.233,9.233,0,0,1-3.04-1.719c-.288-.275-.633-.563-.38-1.021a.918.918,0,0,1,1.115-.432,28.634,28.634,0,0,0,6.266.49c3.786.186,7.581.235,11.357.652,2.443.271,3.741-.088,3.631,1.162a.361.361,0,0,0,.011.085C168.446,150.549,168.446,150.549,165.906,150.534Z"/><path class="b" d="M113.264,115.5c-3.762-.352-7.564-.742-10.052-.855-.548-.025-.731-.135-.5-.7.49-1.187.942-2.391,1.4-3.591.138-.359.34-.574.765-.507a92.177,92.177,0,0,0,9.288.682c1.445.084,2.883.322,4.324.493a1.193,1.193,0,0,1,1.07,1.059,1,1,0,0,1-.592,1.209c-1.7.68-3.41,1.315-5.042,2.144A1.688,1.688,0,0,1,113.264,115.5Z"/><path class="b" d="M105.414,142.291c1.767,0,3.534.014,5.3-.008.54-.007.627.121.411.631-1.717,4.055-.423,5.219-1.434,5.212-.371,0-.73.067-.833-.473-.265-1.394-.733-4.5-2.02-3.952-1.507.645-2.88.029-4.252-.332-2.357-.619-4.406-1.748-5.471-4.119-.14-.312-.6-.7-.259-.97a1.065,1.065,0,0,1,1.332.212c1.151,1.529,2.74.674,4.126.877a.206.206,0,0,0,.162-.045c1.288-1.475,3-.766,4.5-.749a23.014,23.014,0,0,1,5.307.756c.807.2.748.355.381,1.063-.67,1.288-1.7,1.426-2.974,1.394-1.823-.044-3.65.1-5.476.131-.767.009-1.535-.1-2.3-.136-.181-.009-.468-.069-.463.221,0,.227.246.264.457.287A11.232,11.232,0,0,0,105.414,142.291Z"/><path class="b" d="M132.482,131.743a6.489,6.489,0,0,0,3.071.533c2.266.213,4.526.466,6.787.723a.987.987,0,0,1,.919.619,7.823,7.823,0,0,1,.867,1.852c.063.4.023.65-.52.593-2.743-.294-10.036-1.076-10.942-1.146-.429-.034-.527-.231-.529-.6a38.375,38.375,0,0,1,.331-4.693c.052-.437.294-.515.686-.582,2.17-.375,4.331.152,6.5.038.527-.028,1.188-.311,1.606.245a9.47,9.47,0,0,1,1.3,2.872c.11.34-.27.323-.468.288-1.655-.293-3.325-.463-5-.6A17.211,17.211,0,0,0,132.482,131.743Z"/><path class="b" d="M118.265,110.312c-1.5-.109-2.861-.231-4.207-.374-1.534-.164-3.073-.126-4.608-.253-1.445-.12-2.892-.219-4.336-.368-.483-.049-.5-.214-.344-.6.512-1.271,1.015-2.544,1.491-3.829a.754.754,0,0,1,.911-.566c1.378.2,7.055,1.022,8.521,1.2.625.073,1.036.188,1.3.914A23.845,23.845,0,0,0,118.265,110.312Z"/><path class="b" d="M113.089,92.963a7.718,7.718,0,0,1,3.659-1.8c1.108-.3,2.126-.825,3.2-1.19a1.286,1.286,0,0,0,.609-.57.505.505,0,0,1,.621-.157.466.466,0,0,1,.289.48,18.951,18.951,0,0,1-1.179,7.385c-.094.242-.189.256-.437.223-3.244-.436-6.513-.57-9.9-.813a7.779,7.779,0,0,1,2.21-2.813c.625-.425,1.477.022,2.229.046,1.907.061,3.748.76,5.677.6.247-.021.668.167.671-.282s-.407-.4-.717-.4C117.718,93.733,115.488,93.1,113.089,92.963Z"/><path class="b" d="M144.611,87.049a29.985,29.985,0,0,0-3.685,2.516c-.795.553-.862.041-3.581-.007-3.138-.055-6.263-.473-9.408-.352-.179.007-.444.106-.519-.153-.061-.215.13-.365.3-.475a5.522,5.522,0,0,0,1.433-1.781,1.033,1.033,0,0,1,.978-.526,84.47,84.47,0,0,1,8.445.509A50.793,50.793,0,0,1,144.611,87.049Z"/><path class="b" d="M112.374,116.028a42.078,42.078,0,0,0-6.5,4.215c-.728.535-1.679.247-2.513.189-.883-.062-1.763-.143-2.648-.127-.478.007-.621-.133-.41-.609.6-1.357,1.192-2.721,1.747-4.1a.664.664,0,0,1,.805-.445c2.35.237,4.717.278,7.058.639C110.726,115.917,111.554,115.953,112.374,116.028Z"/><path class="b" d="M116.388,105.007c-9.394-1.279-8.658-1.224-9.178-1.2-.386.019-.534-.1-.361-.5q.483-1.1.943-2.2c.153-.368.438-.376.776-.352,9.769.683,5.994.339,9.347.759.379.048.456.2.293.571-.333.755-.625,1.529-.915,2.3C117.119,104.85,116.85,105.118,116.388,105.007Z"/><path class="b" d="M112.65,138.769a43.594,43.594,0,0,0-8.9-.982c.867-1.427.825-2.993,1.111-4.488.087-.453.3-.635.806-.65,1.035-.03,2.039.245,3.069.209a.492.492,0,0,1,.558.512c.03.4.1.791.145,1.187.091.887.412,1.187,1.254,1.151,1.4-.06,1.753.266,1.848,1.681C112.567,137.813,112.606,138.235,112.65,138.769Z"/><path class="b" d="M137.783,68.446a3.177,3.177,0,0,1,2.075-3.195,2.979,2.979,0,0,1,3.514.749c1.376,1.373,1.462,2.148.3,3.706a7.473,7.473,0,0,1-.965,1.192,2.614,2.614,0,0,1-3.1.4A2.8,2.8,0,0,1,137.783,68.446Z"/><path class="b" d="M111.366,97.244c2.5.188,5,.364,7.5.57.86.071,1.013.392.643,1.179-.936,1.981-.943,2.027-3.015,1.688-1.5-.245-3.014-.077-4.521-.272a14.79,14.79,0,0,0-3.24-.212c-.429.041-.5-.151-.314-.506.337-.663.676-1.325.989-2a.694.694,0,0,1,.757-.42c.4.016.8,0,1.2,0Z"/><path class="b" d="M144.187,137.286a9.258,9.258,0,0,1-.718,2.877,1.237,1.237,0,0,1-1.724.616c-.716-.358-1.42-.743-2.124-1.123a5,5,0,0,1-2.259-2.27c-.76-1.626-2.152-.486-3.681-1.2-.36-.169-.514.043-.685.3a.582.582,0,0,1-.816.239.688.688,0,0,1-.344-.805c.087-.422.362-.539.757-.5,1.783.181,8.964.96,10.774,1.141C144,136.622,144.348,136.827,144.187,137.286Z"/><path class="b" d="M165.074,162.219a33.64,33.64,0,0,0-5.47-.158c-1.528-.029-2.534.606-2.778-.536-.146-.692-.391-1.364-.595-2.044.692,0,10.6-.013,10.826,0,.337.017.763.035.892.337.108.256-.287.447-.479.645-.437.452-.907.873-1.337,1.331A1.107,1.107,0,0,1,165.074,162.219Z"/><path class="b" d="M157.561,165.228a5.657,5.657,0,0,0-.136-1.693c-.131-.411.014-.609.5-.638,2.082-.127,4.163-.183,6.249-.137.217,0,.511-.1.635.12.144.26-.177.372-.3.54-.655.863-1.34,1.7-1.972,2.582a2.877,2.877,0,0,1-3,1.372C157.37,167.535,157.6,167.465,157.561,165.228Z"/><path class="b" d="M139.728,90.441a6.457,6.457,0,0,1-7.409,2.264c-.67-.124-1.332-.29-2-.447a2.379,2.379,0,0,1-1.359-.837c-.333-.42-.819-.924-.635-1.4.131-.339.83-.115,1.272-.122C132.928,89.844,136.228,90.239,139.728,90.441Z"/><path class="b" d="M102.04,121.007c2.153,0,2.369-.058,2.512.2.126.227-.094.369-.235.492a19.783,19.783,0,0,0-3.557,4.482c-.091.143-.209.387-.31.384-.9-.02-1.811-.057-2.71-.153-.232-.025-.149-.334-.092-.521a25.874,25.874,0,0,1,1.818-4.521.727.727,0,0,1,.771-.4c.6.014,1.2,0,1.8,0Z"/><path class="b" d="M119.058,67.858a2.585,2.585,0,0,1,2.776-2.866,2.878,2.878,0,0,1,2.4,2.49,2.908,2.908,0,0,1-2.779,2.989A2.3,2.3,0,0,1,119.058,67.858Z"/><path class="b" d="M140.191,168.758c-.905-.094-1.811-.171-2.714-.279-.431-.051-.794-.274-.8-.744a.8.8,0,0,1,.694-.853c.477-.064.51-.421.561-.738.065-.412.282-.534.649-.467a33.1,33.1,0,0,0,5.037.136c.947.03,1.014.1.746.976-.487,1.6-.616,1.728-2.3,1.784A13.531,13.531,0,0,1,140.191,168.758Z"/><path class="b" d="M110.335,128.337c-.127,1.292-.742,2.453-.927,3.725-.074.517-.519.178-3.764-.066-.437-.033-.452-.2-.331-.538a25.7,25.7,0,0,1,1.34-3.321.825.825,0,0,1,.814-.466c.862-.052,1.7.188,2.548.188C110.384,127.86,110.464,128.027,110.335,128.337Z"/><path class="b" d="M96.219,130.358c.216-.87.119-1.994.8-2.929.568-.778.783-.181,2.737-.253.434-.016.373.221.241.493q-.837,1.733-1.671,3.468c-.358.747-.974.491-1.555.424C96.085,131.481,96.2,130.984,96.219,130.358Z"/><path class="b" d="M113.752,162.917c2.486,0,2.389-.112,2.789,1.824.073.351-.021.489-.328.532a14.442,14.442,0,0,1-3.315.179,2.063,2.063,0,0,1-1.453-2.358c.1-.264.33-.17.511-.174C112.555,162.91,113.154,162.917,113.752,162.917Z"/><path class="b" d="M139.092,165.125a14.513,14.513,0,0,0,2.847-2.585c.125-.173.361-.144.562-.146.257,0,.514-.015.771,0,.554.029,1.379-.5,1.593,0a4.362,4.362,0,0,1-.232,2.493c-.063.3-.352.226-.572.239C143.656,165.149,145.506,165.125,139.092,165.125Z"/><path class="b" d="M109.634,153.646c-1.2-.122-1.209-.119-1.01-1.277a14.119,14.119,0,0,0,.334-3.045c-.023-.474.192-.659.661-.666.437-.007.64.078.7.592a14.414,14.414,0,0,0,.921,3.708C111.766,154.25,110.687,153.756,109.634,153.646Z"/><path class="b" d="M111.326,157.409c2.216,0,2.338-.014,3.111,1.9.156.389.09.506-.323.511a15.286,15.286,0,0,1-2.987-.189c-.611-.115-.894-.677-1.217-1.133-.235-.332-.875-.57-.653-.978.172-.315.792-.078,1.212-.108C110.753,157.392,111.041,157.409,111.326,157.409Z"/><path class="b" d="M110.722,156.725a8.144,8.144,0,0,1-1.025-.01c-.364-.045-.863.244-1.067-.255a3.377,3.377,0,0,1-.162-1.932c.065-.337.3-.16,2.811-.214.7-.015.624.454,1.073,1.156C113.291,156.936,113.108,156.731,110.722,156.725Z"/><path class="b" d="M145.182,159.35c0,2.3,0,2.412-2.238,2.308-.217-.01-.358-.09-.281-.295.217-.571.067-1.259.616-1.73.423-.362.107-.93.288-1.38.094-.232.067-.51.141-.752.113-.361.276-.744.729-.721a.767.767,0,0,1,.678.776c.057.592.016,1.195.016,1.794Z"/><path class="b" d="M96.073,132.482c0-.365.114-.556.512-.386a.672.672,0,0,0,.166.041c1.386.182,1.527.54.779,1.809a2.545,2.545,0,0,0-.1,1.424c.016.48.121.956.175,1.435.035.309.442.756-.237.836-.512.06-1.016.1-1.145-.65A27.772,27.772,0,0,1,96.073,132.482Z"/><path class="b" d="M113.589,162.393a11.027,11.027,0,0,0-1.286.01c-.669.076-.936-.132-1.013-.852-.132-1.228-.2-1.221,1.019-1.22,2.518,0,2.875-.127,3.394,1.562.132.429-.043.5-.4.5C114.733,162.388,114.161,162.392,113.589,162.393Z"/><path class="b" d="M107.369,126.957a4.094,4.094,0,0,1,2.541-2.24c1.348-.438.826.978.742,2-.032.38-.235.483-.571.455C109.21,127.1,108.339,127.034,107.369,126.957Z"/><path class="b" d="M35.5,88.387c.06.029.181.05.193.1.158.635.8.758,1.187,1.15a10.26,10.26,0,0,1,.666.828c-.561.173-.239,1.1-.967,1.133-.557.026-.854-.326-1.168-.72a2.7,2.7,0,0,1-.337-1.961C35.085,88.671,35.285,88.524,35.5,88.387Z"/><path class="b" d="M42.606,93.675A1.7,1.7,0,0,1,40.9,92.252a.736.736,0,0,1,.793-.807c.6-.015,1.769,1.051,1.7,1.58A.672.672,0,0,1,42.606,93.675Z"/><path class="b" d="M133.136,128.373c.9-.773,1.942-.519,2.914-.438,1.148.1,2.281.552,3.417-.058a.709.709,0,0,1,.421,0c.2.035.431.1.388.353-.039.224-.275.148-.429.149C138.649,128.384,134.176,128.373,133.136,128.373Z"/><path class="c" d="M128.737,27.837c-.77.953-2.054,1.517-1.772,3.213,1.891-2.5,4.711-2.76,7.192-3.737,4.168-1.642,7.4.27,10.554,2.583a7.294,7.294,0,0,1,2.868,3.851c.055.189.143.331.351.277.633-.164,1.268-.33,1.891-.532.279-.09.117-.306.076-.5a1.36,1.36,0,0,1,1.082-1.875,2.2,2.2,0,0,0,.89-.618,8.834,8.834,0,0,1,5.552-2.776,6.114,6.114,0,0,1,5.062,2.27.659.659,0,0,0,.905.23c2.483-1,6.226.321,7.344,2.689.765,1.621,1.5,3.226,1.246,5.079-.116.84.272.837.91.672a4.7,4.7,0,0,1,6.026,3.093,23.733,23.733,0,0,1,1.139,4.386c.476,2.6.024,5.213-2.075,6.853a28.417,28.417,0,0,1-6.357,4.03,17.961,17.961,0,0,1-3.031.9,4.1,4.1,0,0,0-3.482,3.11,11.464,11.464,0,0,1-1.207,2.832,1.458,1.458,0,0,0-.034,1.222c.8,2.825,1.286,5.648.3,8.561a17,17,0,0,0-.268,2.629,6.156,6.156,0,0,1-4,5.236,2.1,2.1,0,0,1-1.175.109c-1.823-.388-3.7-.274-5.512-.562-1.933-.308-3.895-.4-5.807-.823-1.049-.233-1.376-.811-1.03-1.832a17.754,17.754,0,0,0,.679-3,1.759,1.759,0,0,1,1.517-1.638c2.407-.359,4.1-3.416,3.631-6.183a1.817,1.817,0,0,0-.922-1.189c-.48-.31-.969-.611-1.476-.873-1.807-.934-2.113-2.23-1.751-4.369.322-1.913,1.035-2.738.167-3.074-2.43-.941-3.717-3.052-5.032-5.08a7.223,7.223,0,0,1-1.338-3.4c-.023-.317-.1-.646-.651-.533a6.936,6.936,0,0,1-4.423-.518c-4.734-2.214-4.1-3.507-5.094-2.782-3.7,2.727-7.845.878-10.917.817a1.416,1.416,0,0,0-1.468.933c-.887,1.961-.149,1.734-1.373,7.783-.869,4.3-.466,5.22-1.447,5.514-.571.169-.64-.426-.954-.654a8.96,8.96,0,0,1-2.576-2.946,16.037,16.037,0,0,1-2.088-5.58,2.154,2.154,0,0,1,.033-1.1c.438-.981,0-1.879-.091-2.827-.514-5.38-.413-10.622,3.926-14.722a11.018,11.018,0,0,1,6.895-3.263,6.652,6.652,0,0,1,2.426.143c.473.138.381-.024,3.771-1.693A8.227,8.227,0,0,1,128.737,27.837Z"/><path class="c" d="M35.88,85.289c-.336.95-.865,1.075-1.524.361a3.285,3.285,0,0,1,.691-5.018,1.818,1.818,0,0,0,.754-.682c.862-1.8,2.6-2.393,4.234-3.129a7.861,7.861,0,0,0,1.271-.5c1.308-.9,2.6-.536,3.9-.049a6.54,6.54,0,0,1,3.072,4.589,1.667,1.667,0,0,1-.969,1.506c-2,1.05-.319,3.236-1.736,5.544-.995,1.624-2.589,1.984-4.015.77a38.871,38.871,0,0,0-5.576-3.49c-.347-.4-.251-1.293-1.191-1.085C34.992,84.7,35.037,85.366,35.88,85.289Z"/><path class="c" d="M53.544,42.747c-.564,0-1.264-.2-1.649.062-.32.218-.04.986-.121,1.521a21.32,21.32,0,0,1-.571,2.322,1.128,1.128,0,0,1-1.085.907c-.521.041-.672-.446-.871-.807a17.344,17.344,0,0,0-1.005-1.985c-.324-.443-.59-.7-1.156-.271-1.013.773-2.341.657-3.483,1.108-.46.182-.812-.174-.818-.711a.955.955,0,0,1,.1-.5c1.138-1.787.847-3.5-.149-5.245a13.046,13.046,0,0,1-.7-1.93c-.118-.315-.183-.6.088-.866a.872.872,0,0,1,1.012-.243c.741.3,1.495.575,2.219.913a1.072,1.072,0,0,0,1.373-.279A36.308,36.308,0,0,1,50.2,33.954a.987.987,0,0,1,1.04-.181c.365.149.268.51.323.815A7.145,7.145,0,0,1,51.4,37.67a.8.8,0,0,0,.4.94c.877.588,1.72,1.228,2.564,1.864,1.654,1.248,1.269,2.251.3,2.329-.37.03-.744.005-1.116.005C53.544,42.788,53.544,42.767,53.544,42.747Z"/><path d="M115.887,136.862c-1.4-.03-1.39-.1-1.267,1.257a51.994,51.994,0,0,0,1.767,9.362,13.845,13.845,0,0,0,4.068,6.338c.443.423,1.122.935.5,1.556-.565.565-1.089-.081-1.53-.462a14.125,14.125,0,0,1-4.737-7.772c-.336-1.5-.748-2.992-1.153-4.6a6.785,6.785,0,0,0-1.11,3.386,12.381,12.381,0,0,0,2.1,9.136c2.537,3.415,3.373,7.38,4.052,11.432a75.673,75.673,0,0,1,.5,8.294,2.532,2.532,0,0,0,.418,1.464c.388-.532.159-1.184.4-1.734.084-.193.123-.406.374-.357.21.041.192.256.193.426a5.388,5.388,0,0,1-.151,1.268c-.083.344-.077.677.423.74.561.072.4-.313.424-.6.03-.379-.058-1,.379-.981.463.025.2.677.348,1.122a5.959,5.959,0,0,0,.887-2.721c.286-2.161,1.073-4.2,1.446-6.341a1.832,1.832,0,0,1,1.512-1.043c.327.063.239.372.194.565-.643,2.775-1.447,5.509-1.944,8.32a8.218,8.218,0,0,1-.974,2.464,1.512,1.512,0,0,1-1.8.81,10.866,10.866,0,0,0-1.436-.231,2.153,2.153,0,0,1-2.081-1.932c-.666-3.037.2-3.3-.817-10.022-1.422.69-2.763.293-4.084-.042-.5-.128-.641,0-.711.459-.411,2.713-1.234,5.353-1.453,8.1-.041.514-.163,1.134-.86,1.049-.715-.088-.718-.708-.659-1.276.3-2.852,1.1-5.61,1.591-8.426.141-.816.181-1.652.352-2.46.11-.523-.09-.7-.525-.864a10.84,10.84,0,0,1-5.282-4.94,1.229,1.229,0,0,1-.177-1.145c.844-1.968.92-4.12,1.488-6.156.4-1.429.682-2.892.99-4.346.332-1.566.335-1.459-1.216-1.21a8.71,8.71,0,0,1-6.989-1.519,11.247,11.247,0,0,1-4.33-7.621,22.965,22.965,0,0,1,.046-5.91c.3-2.727.479-5.47.965-8.18a18.769,18.769,0,0,1,1.33-3.675c1.929-4.789,4.515-9.295,6.133-14.216,2.333-7.1,4.072-9.479,6.6-12.7a4.569,4.569,0,0,1,1.84-1.23,24.529,24.529,0,0,1,8.618-2.059c.673-.04.3-.243.594-2.635a1.356,1.356,0,0,1,.77-1.25c.545-.21.939.144,1.293.475a18.318,18.318,0,0,1,2.253,2.1c.482.632.619,0,.759-.021,1.359-.163,1.5-1.16,1.562-2.237A4.515,4.515,0,0,1,128.02,83a1.025,1.025,0,0,1,1.313-.794c1.038.242,2.024-.169,3.15-.1a4.5,4.5,0,0,0-2.679-2.182c-4.467-1.756-7.874-2.59-10.866-5.612a6.316,6.316,0,0,1-1.764-3.992c-.835-8.312-.021-8.312-1.126-8.519-4.667-.871-7.15-4-8.162-8.615a9.117,9.117,0,0,1-.079-3.408,2.869,2.869,0,0,1,1.787-2.537,11.687,11.687,0,0,1-1.821-8.054,14.385,14.385,0,0,1,4.171-8.28,15.533,15.533,0,0,1,7.175-4.445c2.58-.714,4.656.165,6.617,1.644.4.3.581.325.965-.006a17.83,17.83,0,0,1,12.721-4.191,10.569,10.569,0,0,1,4.866,1.531,6.946,6.946,0,0,1,3.3,4.707c.517,2.176.19,3.312,1.9,2.734.238-.081.21-.184.188-.364-.339-2.736,1.087-4.589,3.144-6.053a8.647,8.647,0,0,1,6.37-1.5,5.008,5.008,0,0,1,4.227,3.56c.043.13.1.255.145.374,2.7-1.52,5.345-1.643,7.8.306,3.059,2.432,3.362,5.558,1.9,9.008a5.215,5.215,0,0,1,5.087,3.763A12.775,12.775,0,0,1,177.043,52a16.756,16.756,0,0,1-2.255,3.016c-1.727,1.964-3.956,2.2-6.386,2.049-.649,3.608-1.82,6.993-5.176,9.153,3.079,2.941,1.848,6.626-.189,10.412-3.163,5.878-5.585,2.806-15.036,2.448a3.783,3.783,0,0,0-3.645,2.753c-.084.479.01.68.541.647a30.012,30.012,0,0,1,3.941.2c1.364.092,1.7.471,1.712,1.819.023,2.236-.618,2.261,1.156,2.368a66.713,66.713,0,0,1,7.85,1.362c2.415.44,4.8,1.009,7.241,1.342a8.118,8.118,0,0,1,6.886,5.68,41.6,41.6,0,0,1,2.639,13.658c.085,9.879-.309,10.929.856,21.072a26.958,26.958,0,0,1-.608,9.872c-.3,1.153-1.38,1.828-2.4,2.463a11.384,11.384,0,0,1-6.5,1.486c-.6-.014-.672.16-.65.711.159,4,.242,8.006.75,11.989.459,3.583-2.267,5.451-4.818,7.561a1.489,1.489,0,0,0-.549,1.259c-.082,4.4.925,9.934.878,11.681-.011.41-.068.833-.607.881s-.76-.267-.861-.75a33.208,33.208,0,0,1-.5-4.086c-.1-1.282-.257-2.561-.34-3.845-.03-.456-.2-.584-.627-.587a25.666,25.666,0,0,0-2.746,0c-.512.051-1.027.007-1.081-.664-.049-.61.365-.85.893-.954a10.645,10.645,0,0,1,2.825,0c.584.041.778-.157.716-.713a6.74,6.74,0,0,0-.018-.856,2.675,2.675,0,0,1,1.373-3.088,1.5,1.5,0,0,1,.13-.111c3.11-1.77,3.307-4.724,3.052-7.777a57.008,57.008,0,0,1-.067-8.658c.15-2.191.148-2.167-1.911-2.947a44.926,44.926,0,0,0-11.013-2.418c-.493-.055-.589.074-.577.52a8.97,8.97,0,0,1-.222,2.728c-.56,1.968-1.82,2.658-3.747,2.042a1.6,1.6,0,0,0-.756-.017,3.254,3.254,0,0,1-2.562-.388c.107.826.211,1.6.305,2.374a.421.421,0,0,0,.4.385c4.238.679,6.713,3.525,8.608,7.047a18.136,18.136,0,0,1,2.5,7.237,30.947,30.947,0,0,1-.238,4.269c-.047.8.092,1.807-.723,1.9a.766.766,0,0,1-.885-.629,6.63,6.63,0,0,0-1.1-2.263c-.353,3.487,1.761,6.88,2.413,10.446a21.012,21.012,0,0,1,.482,3.48c0,.349.04.8-.312.916-.738.234-.483.693-.429,1.184a10.954,10.954,0,0,1-1.33,6.949,25.28,25.28,0,0,1-4.716,5.97c-.331.3-.652.577-1.135.341s-.475-.635-.457-1.092c.058-1.4-.676-2.553-1.156-3.832-.983,1.332-1.457,1.306-2.367-.053-1.787-2.671-3.048-5.506-2.764-8.824.491-5.792,1.555-6.384,3.044-12.835-2.51-.015-4.969.1-7.424-.052-.623-.038-.469.5-.507.787-.246,1.867-.919,6.2-1.962,7.763a3,3,0,0,1-4.039,1.131,1.508,1.508,0,0,1-.956-1.312c-.529-6.077.616-3.839-.555-8.165a1.562,1.562,0,0,0-.892-.886c-3.1-1.658-5.592-8.381-4.852-11.9a19.726,19.726,0,0,1,1.819-6.022,13.374,13.374,0,0,1,5.36-5.524,3.929,3.929,0,0,1,3.132-.448,3.508,3.508,0,0,1,2.009,1.764.657.657,0,0,1-.167.921c-.334.229-.636.076-.916-.188-1.621-1.534-2.234-1.659-4.066-.37a12.874,12.874,0,0,0-5.455,8.692c-.764,4.539.076,6.753,2.684,10.7a1.577,1.577,0,0,0,.588.489c3.547,1.841,2.65,5.607,2.756,9.5.013.455-.13,1.29.284,1.292.568,0,.179-.8.379-1.193.159-.309-.033-.938.427-.9.527.044.224.6.227.928a12.688,12.688,0,0,1-.135,1.421.748.748,0,0,0,.755-.388,18.051,18.051,0,0,0,1.785-5.092c.4-2.566.466-5.171.99-7.717.118-.567.291-1.026.867-.947.6.083.525.849.561,1.372,1.479-1.318,3.368-1.978,4-4.1.54-1.824,1.532-3.5,1.865-5.415.676-3.885.266-4.2-.413-11.762-.035-.385-.279-.448-.535-.564-1.12-.507-2.239-1.011-3.354-1.527-2.837-1.315-.994-2.892-4.523-3.2-.683-.059-1.373-.037-2.059-.073-.284-.015-.653.014-.831-.146-.824-.742-1.414-.121-2.075.258a22.151,22.151,0,0,0-2.285,1.808c-.528.405-1.056.9-1.756.449a1.559,1.559,0,0,1-.512-1.849c.031-.137.041-.279.06-.42.1-.23.1-.366-.215-.173-1.2.981-2.7,2.6-3.832,1.572-.685-.622-.467-1.392-.143-2.127a6.784,6.784,0,0,0,.38-.917C121.016,135.516,120.915,136.971,115.887,136.862ZM141.2,116.639a31.66,31.66,0,0,0,3.521,1.937,11.924,11.924,0,0,1,4.845,4.12c.309.467.5.478.977.234,1.682-.852,3.081-2.205,4.922-2.764.414-.126.184-.421.167-.636-.262-3.474-.379-6.959-.827-10.42-.355-2.756-.888-3.827-.064-4.05.486-.131.747.264.883.642,1.279,3.528,1.451,10.024,1.628,13.834.01.208-.177.542.113.608,1.094.246,1.967,1.2,3.236.908a8.4,8.4,0,0,1,2.637-.28c.312.027.573.117.635.457a.562.562,0,0,1-.4.677c-1.8.466-3.592,1.322-5.469.252a2.95,2.95,0,0,0-3.244.066c-.7.444-1.395.9-2.109,1.319-.637.377-1.557.568-1.876,1.117-.36.622.345,1.422.465,2.178a60.546,60.546,0,0,1,.344,11.475c-.008.257.016.38.368.378a32.194,32.194,0,0,1,10.8,2.1,16.359,16.359,0,0,0,9.509.423,3.667,3.667,0,0,0,3.138-3.3c.19-1.96.257-3.934.334-5.9a11.946,11.946,0,0,0-.1-2.483,36.446,36.446,0,0,1-.607-6.311c.037-5.784-.819-2.568-.554-16.021a10.265,10.265,0,0,0,0-1.626,36.951,36.951,0,0,0-3.162-10.283,6.605,6.605,0,0,0-4.9-3.861c-5.271-1.179-10.524-2.444-15.876-3.219a1.324,1.324,0,0,1-1.238-1.295q-.13-1.064-.188-2.136c-.02-.386-.156-.567-.558-.585-1.028-.045-2.054-.144-3.083-.172-2.717-.074-11.809-.289-13.638-.308-.77-.008-1.724-.192-2.26.183-.607.424-.383,1.478-.529,2.256-.07.37-.18.83-.618.815a4.969,4.969,0,0,0-1.884.623,25.524,25.524,0,0,1,3.252,4.678.864.864,0,0,0,.881.507c4.351-.232,4.855,2.174,7.025.085a30.2,30.2,0,0,1,8.774-5.758,1.391,1.391,0,0,1,1.616.034,1.553,1.553,0,0,1,.267,1.605,29.8,29.8,0,0,1-3.466,9.264,1.6,1.6,0,0,0-.1,1.43c.911,2.915,1.976,5.776,3.016,8.646.841,2.318-.928,2.612.375,3.158a24.961,24.961,0,0,1,5.189,2.773c.38.278,1.287.923,1.038,1.328a.363.363,0,0,1-.447.162c-.862-.327-1.469-1.427-6.656-3.638-.2-.087-.388-.227-.618-.007-.628.6-1.275,1.188-1.947,1.811,2.513,1.09,3.868,1.368,5.482,2.173a1.887,1.887,0,0,1,1.162,1.183c-.183-.008-.311.024-.4-.023-2.039-1.088-4.313-1.585-6.4-2.551a.653.653,0,0,0-.836.087C142.944,115.235,142.111,115.889,141.2,116.639ZM109.422,51.924a8.991,8.991,0,0,0,6.485,8.585c.649.219.792.122.791-.579-.007-4.408.171-8.811.441-13.211.02-.345,0-.759.259-.97.44-.353.326-.57,0-.914-.353-.377-.545-.883-.092-1.3s.864-.082,1.177.276a5.868,5.868,0,0,0,2.657,1.668c3.627,1.208,7.116,1.6,10.011-1.677a1.123,1.123,0,0,1,1.693,0,2.967,2.967,0,0,1,.721.948c1.489,3.239,6.21,3.923,8.847,2.944,1.428-.531,1.953-.221,1.878,1.32-.157,3.231,1.534,5.458,3.842,7.378a1.227,1.227,0,0,0,1.166.389.757.757,0,0,1,.969.334c.216.408.021.742-.245,1.088a7.643,7.643,0,0,0-1.549,5.559c.046.505.172.648.724.52a2.457,2.457,0,0,1,3.139,1.24,6.75,6.75,0,0,1,1.071,3.915,4.772,4.772,0,0,1-3.817,4.56c-1.613.339-1.613.339-1.892,1.976-.1.587-.306.96.484.991a25.841,25.841,0,0,1,4.491.651c2.431.528,6.4,1.887,7.937-.3a17.3,17.3,0,0,0,2.712-5.793c.486-1.96-.137-3.209-1.9-4.259a1.033,1.033,0,0,1-.291-1.677,16.167,16.167,0,0,1,1.633-1.875A15.406,15.406,0,0,0,167.3,50.913a4.767,4.767,0,0,0-5.65-4.66c-.6.068-1.185.191-1.777.293-1.2.206-1.759-.273-1.7-1.462.011-.229.024-.458.051-.685a8.167,8.167,0,0,0-3.778-8.324,7.458,7.458,0,0,0-6-1.421c-1.12.26-1.662-.113-1.91-1.251-.2-.921-.337-1.857-.529-2.78A5.513,5.513,0,0,0,142.6,26.4a8.847,8.847,0,0,0-2.368-.744A16.026,16.026,0,0,0,127.574,29.5a.778.778,0,0,0-.244.758c.03.442-.235.819-.651.684a3.672,3.672,0,0,1-1.964-.925,5.368,5.368,0,0,0-6.483-1.521,14.591,14.591,0,0,0-8.206,8.211,9.891,9.891,0,0,0,.948,9.725c.683.991.771,1.163-.053,2.058C109.959,49.536,109.192,50.637,109.422,51.924Zm13.22,33.819a1.459,1.459,0,0,0-.089.3c-.421,13.462,1.535,6.107-1.957,14.192a44.751,44.751,0,0,0-1.943,5.024,2.288,2.288,0,0,0,.366,1.8c.251.436.78.086,1.179.035,2.032-.266,2.8-.65,2.95.047.132.623-.5.561-3.1,1.1-.152.031-.445-.022-.43.155a3.6,3.6,0,0,0,.635,1.383c.235.429.315.11,2.39-.3.27-.054.644-.1.665.3.017.311-.3.346-.564.4-.5.093-.993.239-1.494.331-.4.074-.388.247-.19.523,1.973,2.75,2.722,3.559.371,3.77-3.97.356-7.487,2-10.931,3.808-3.318,1.74-5.245,4.907-7.366,7.79-1.114,1.515-1.892,3.291-3.071,4.81a7.635,7.635,0,0,0-1.33,3.5,1.97,1.97,0,0,0,1.679,2.451,2.09,2.09,0,0,0,2.5-1.395,43.84,43.84,0,0,0,1.166-4.728,13.717,13.717,0,0,1,.732-3.193,7.225,7.225,0,0,1,5.075-4c.581-.111,3.121-2,5.168-3.029.42-.211.864-.286,1.14.169.294.483-.06.81-.436,1.048a15.021,15.021,0,0,1-1.774,1.038c-.873.4-1.216.924-.631,1.849a12.693,12.693,0,0,1,3.456-1.414,4.175,4.175,0,0,1,2.45,0,.991.991,0,0,1,.448,1.744c-.21.251-.554.387-.678.79a5.612,5.612,0,0,1,2.368.671c.929.643,1.017.947.306,1.821.414.051-.009.152,1.656-.36a1.567,1.567,0,0,1,.926-2.4,4.86,4.86,0,0,1,2.514-.377,35.688,35.688,0,0,1,4.709.857c.244.057.52.247.692-.189.332-.843,1.035-.926,1.786-.7.929.28,1.844.607,2.754.944,1.08.4.924-.629,2.287-1.4.658-.37-.16-1.1.113-1.65a1.243,1.243,0,0,0,.027-.169c.09-.293.251-.533.586-.534.312,0,.407.237.483.507,1.085,3.824,3.582,7.759,5.287,11.033a5.767,5.767,0,0,1,.282,5.549,4.924,4.924,0,0,0-.474,3.418c.574,2.205,1.839.446,3.142,1.138.79.418,1.143.287,1.573-.5a3.632,3.632,0,0,0,.322-1.321c.187-1.478-.416-2.895-.333-4.348a66.488,66.488,0,0,0-.085-8.838c-.268-3.536-1.554-6.572-4.674-8.535-1.593-1-3.278-1.859-4.921-2.782a.869.869,0,0,0-.572-.128c-.355.052-.71.059-.877-.341-.305-.728.359-1.078,3.607-3.69a34.3,34.3,0,0,0-3.638-1.037c-.212-.044-.616.03-.6-.341.023-.446.432-.281.675-.278a15.693,15.693,0,0,1,3.711.89c.214.058.429.261.64.082.7-.594,1.391-1.21,2.159-1.884a42.065,42.065,0,0,0-4.71-1.293c-.442-.075-1.293.109-1.179-.561.11-.65.931-.33,1.413-.272a21.823,21.823,0,0,1,4.612,1.217c.7.246.867-.073,1.036-.586.227-.694-.072-.491-3.23-9.8a2.43,2.43,0,0,1,.129-2.244,28.988,28.988,0,0,0,3.262-8.164,1.248,1.248,0,0,0,.039-.941c-.3.135-.589.244-.859.4a34.338,34.338,0,0,0-7.085,4.8c-.537.512-1.139.957-1.713,1.43a1.293,1.293,0,0,1-1.507.139,12.356,12.356,0,0,0-5.488-1.112,1.345,1.345,0,0,1-1.377-.773,21.8,21.8,0,0,0-2.787-4.212A17.029,17.029,0,0,0,122.642,85.743Zm-4.1-39.775c.284,7.5-.848,14.8.326,24.554a4.774,4.774,0,0,0,1.217,2.683,11.719,11.719,0,0,0,3.2,2.562c5.289,2.855,9.347,2.588,10.916,6.038.19.42.491.417.831.424,2.461.051,4.923.085,7.383.158.5.015.637-.132.621-.616a3.191,3.191,0,0,1,1.654-2.977,3.506,3.506,0,0,0,1.833-3.1c-.052-3.187.169-2.772,2.637-3.263a3.025,3.025,0,0,0,2.295-1.847,4.32,4.32,0,0,0-.479-4.161c-.46-.8-1.008-.88-1.8-.395a2.368,2.368,0,0,0-1.063,1.5.6.6,0,0,1-.687.512.654.654,0,0,1-.563-.659,1.989,1.989,0,0,1,.249-1.489.992.992,0,0,0,.125-1.226,2.1,2.1,0,0,1-.191-.74,8.368,8.368,0,0,1,.822-5.165c.134-.266.321-.466-.1-.758-3.009-2.1-5.05-4.793-5.041-8.75a9.2,9.2,0,0,1-2.849.332c-3.207.006-5.918-.95-7.552-3.944-.256-.469-.408-.465-.779-.092a8.189,8.189,0,0,1-6.837,2.288A15.085,15.085,0,0,1,118.544,45.968Zm2.4,43.225c-2.531.227-4.818,1.224-7.181,1.96a5.367,5.367,0,0,0-3.4,2.962c-2.343,5.178-5.321,10.043-7.408,15.348-2.837,7.215-5.37,10.461-6.335,23.213a8.312,8.312,0,0,0,.781,4.922,11.348,11.348,0,0,0,2.54,2.989,9.521,9.521,0,0,0,6.171,2.433,1.737,1.737,0,0,0,1.752-1.137,18.643,18.643,0,0,0,1.2-5.928c-.364.093-.73.241-.945-.129a.472.472,0,0,1,.152-.683c.941-.445,1.048-1.356,1.268-2.191.568-2.144,1.514-4.185,1.734-6.422.042-.427.278-.941.116-1.256-.273-.53-.7.1-1.095.082a3.814,3.814,0,0,0-2.944,1.275c-1.348,1.375-1.6,3.245-2.007,4.97-.38,1.6-.61,3.24-1.144,4.8-1.337,3.9-7.725,2.472-6.9-1.882.972-5.17,3.256-5.447,4.248-7.984a16.71,16.71,0,0,1,2.438-3.7,18.677,18.677,0,0,1,7.669-6.544c2.914-1.237,5.752-2.708,9.029-2.747.058,0,.116-.09.2-.16-.439-.59-.906-1.137-1.275-1.742-.276-.452-.551-.428-.981-.281-2.1.711-4.185,1.448-6.206,2.362a14.634,14.634,0,0,1-1.614.543.344.344,0,0,1-.444-.157c-.113-.227.1-.289.229-.375a4.016,4.016,0,0,1,.517-.294c7.609-3.475,8.072-1.965,7.1-4.192-.226-.516-.443-.65-1.015-.484a32.824,32.824,0,0,1-4.645,1.17c-.367.052-.815.181-.928-.32-.109-.483.3-.583.684-.683,1.515-.4,3.02-.845,4.539-1.229.5-.126.66-.327.471-.815a2.91,2.91,0,0,1,.118-2.167c2.747-7.218,4.338-8.294,3.871-10.769A39.452,39.452,0,0,1,120.947,89.193Zm47.7-33.309c.758-.145,1.369-.285,1.988-.375a4.952,4.952,0,0,0,2.9-1.512,13.108,13.108,0,0,0,3.722-7.741c.5-3.772-2.588-7.132-5.869-5.41a.853.853,0,0,1-1.029-1.292c.389-.633.826-1.237,1.232-1.859a5.343,5.343,0,0,0-2.067-7.823c-2-1.035-4.954-.337-5.781,1.392-.253.531-.311,1.286-1.152,1.073-.879-.223-.585-.974-.552-1.576.13-2.345-1.244-4.121-3.363-4.271a7.564,7.564,0,0,0-4.9,1.238A5.586,5.586,0,0,0,151,32.216c-.023.5.11.689.653.848,5.149,1.509,8.115,4.913,8.334,10.135.022.535-.4,1.278.01,1.527.381.234,1.09-.06,1.653-.131a6.268,6.268,0,0,1,7.077,5.063A14.644,14.644,0,0,1,168.647,55.884ZM154.818,164.711a12.182,12.182,0,0,0-.569-5.043,24.329,24.329,0,0,0-3.071-6.015c-1.474-2.071-3.3-3.713-6.012-4.055a31.51,31.51,0,0,1-.107,3.575c-.027.508-.29,1-.1,1.522a27.924,27.924,0,0,1,1.017,4.681c1.283,7.354.477,9.034-1.727,16.377a20.824,20.824,0,0,0-.939,7.016,12.165,12.165,0,0,0,2.138,5.737,4.659,4.659,0,0,0,.385-2.283c-.02-.483.169-.877.681-.934.9-.1.932.994,1.088,1.946.3,1.82,1.356,3.343,1.846,5.181a20.705,20.705,0,0,0,3.331-4.343,9.076,9.076,0,0,0,1.079-7.33c-.185-.72-.34-1.447-.473-2.178-.084-.459-.1-1.092.405-1.176.946-.156.657-.682.536-1.209-.684-2.951-1.707-5.081-2.174-7.658-.277-1.536.03-3.091-.24-4.62-.077-.436-.1-.9.379-1.124a.988.988,0,0,1,1.216.37C153.909,163.61,154.3,164.088,154.818,164.711Zm-39.1.238a1.765,1.765,0,0,1,.485.04c.44.139.489-.054.413-.415-.605-2.861-1.271-5.7-3.081-8.1a14,14,0,0,1-2.688-8.947c.117-6.862,3-4.583,2.27-9.324-.045-.282-.065-.569-.1-.852-.033-.267.107-.6-.253-.749-.574-.244-1.143-.513-1.736-.7-.164-.051-.154.258-.182.417-2.458,14.173-1.555,9.506-3.914,19.225a2.429,2.429,0,0,0,.511,2.536,11.612,11.612,0,0,0,3.36,3c1.131.6,2.089,1.28,1.612,2.812-.094.3-.067.649.393.687A20.633,20.633,0,0,0,115.722,164.949Zm23.892-39.013c-1.221,1.826-1.647,2.5-3.678,1.718-.638-.245-1.3-.439-1.936-.683-.387-.147-.5-.02-.516.363a47.39,47.39,0,0,1-1.032,7.805c-.093.466-.037.661.5.651a16.782,16.782,0,0,1,2.136.124c1.384.153,2.624.54,3.271,1.967.5,1.1,1.277,1.223,4.984,2.986.279.132.394.1.447-.231.331-2.084,1.749-2.945.674-5.069C142.857,132.387,141.054,129.305,139.614,125.936Zm-14.866,1.322c.74.153,1.237.282,1.742.353.485.069.978.163.933.764-.045.627-.557.689-1.085.7a13.243,13.243,0,0,0-5.18,1.365,2.875,2.875,0,0,0-.688.5c-.124.107-.252.266-.152.451s.289.172.454.139c.474-.1.95-.195,1.415-.329,1.689-.487,2.749-1.137,3.006-.179.207.77-.76.92-1.524,1.151a6.743,6.743,0,0,0-3.337,2.531,14.261,14.261,0,0,0,3.351-1.783c.344-.264.717-.486,1.061-.124.625.658-.5,1.109-1.569,2.567a6.148,6.148,0,0,0-1.35,2.463c.744-.18.543-.17,3.609-2.988.436-.4.785-1.2,1.526-.723s.114,1.133-.027,1.7a12.88,12.88,0,0,0-.641,2.492,12.291,12.291,0,0,1,2.665-2.079,3.729,3.729,0,0,0,2.435-3.641c.108-1.479.5-2.931.528-4.424.005-.31.07-.592-.434-.64C127.839,127.172,126.538,126.486,124.748,127.258Zm-6.769-2.338a6.579,6.579,0,0,0-3.011.713,11.026,11.026,0,0,0-1.964.778c-.591.4-.178,1.4-.493,2.069-.052.112-.423,1.442-1.547,5.149-.155.509-.069.718.5.991a12.779,12.779,0,0,0,5.2.847c1.667.072,1.667.069,2.42-1.538a5.984,5.984,0,0,1-2.453.093c-.287-.1-.607-.244-.546-.656.053-.355.33-.422.63-.458,1.908-.231,2.837-.3,2.554-.56-.392-.354.09-1.354-.932-1.225-.822.1-1.651.145-2.477.215a.612.612,0,0,1-.732-.445c-.182-.674.615-.857.86-.975,1.476-.71,2.951-1.425,4.575-2.211a4.272,4.272,0,0,0-2.576-.257c-1.69.325-2.606,1.006-3.019.153a.756.756,0,0,1,.206-.936A20.586,20.586,0,0,1,117.979,124.92Zm26.03,32.707c-1.623,3.993-1.806,4.75-2.755,5.406-2.4,1.657-2.792,2.132-3.2,2.076-1.1-.148-.869.6-.962,1.189-.078.487.082.6.569.632,2.313.161,4.629-.038,6.94.1.513.032.369-.333.39-.571A30.808,30.808,0,0,0,144.009,157.627Z"/><path d="M60.185,83.769c-.143,2.38.04,5.269,0,8.155-.094,6.673-1.816,13.156-1.726,16.973.042,1.756-.594,3.416-.745,5.163-.325,3.758-.869,7.5-1.347,11.24a13.737,13.737,0,0,1-.441,2.006c-.427,1.488-.982,1.915-2.5,1.711-2.663-.359-2.053,1.516-13.706-1.739-.68-.189-.937-.169-.76.663a14.375,14.375,0,0,1,.221,4.1,97.4,97.4,0,0,0,.16,11.152c.2,5.378.288,10.76.591,16.131.323,5.719.282,11.445.5,17.165.1,2.758.514,3.91-.613,3.929-.726.011-.723-.607-.77-1.117-.267-2.937-.383-5.886-.395-8.831-.028-7.273-.547-14.529-.694-21.8-.084-4.147-.367-8.291-.482-12.438-.081-2.944.265-5.886.117-8.838-.025-.52-.138-.685-.612-.776-2.631-.506-2.86-.962-2.845-.211.1,4.559-.393,9.092-.618,13.634-.807,16.311-.454,17.8-1.946,38.247a6.712,6.712,0,0,1-.146,1.106.669.669,0,0,1-.763.546.631.631,0,0,1-.636-.67c-.083-2.105.458-2.624,1.762-36.276.216-5.576.62-11.144.969-16.714.035-.557-.072-.821-.638-.952a45.235,45.235,0,0,1-7.255-2.58,3.592,3.592,0,0,1-2.437-3.542c-.137-5.008-.076-10.017-.123-15.025-.007-.708-.069-1.142-.945-1.036a.8.8,0,0,1-.955-.852c-.148-4.059-.73-8.1-.624-12.167.053-2,.181-4,.3-6,.067-1.126.278-1.314,1.43-1.264.548.023.742-.068.806-.706.5-4.958.925-15.161,2.025-18.828A1.44,1.44,0,0,1,26.108,62.1a1.388,1.388,0,0,0,.875-.23,5.847,5.847,0,0,1,4.963-.652c2.276.693,4.706.869,7.056,1.334,5.232,1.037,10.529,1.792,15.6,3.513a6.471,6.471,0,0,1,4.366,4.109C60.366,74.089,60.185,79.574,60.185,83.769ZM23.476,111.58c.157,2.346.161,4.694.165,7.039,0,1.758.857,2.509,2.339,3.109a69.928,69.928,0,0,0,11.45,3.506c4.178.909,8.234,2.429,12.577,2.539a.875.875,0,0,0,.96-.5c1.744-3.531,2.418-10.953,2.842-14.847.261-2.4.243-1.879-1.667-2.093-.614-.068-.8.156-.884.683-.415,2.6-1.259,5.1-1.716,7.687-.315,1.782-.822,2.075-2.621,1.8a4.843,4.843,0,0,1-.5-.112C30.1,116.1,30.4,115.951,26.937,115.328a.949.949,0,0,1-.821-.773c-.518-2.467-.3-7.1-.235-10.02.009-.444-.2-1.166.457-1.209.726-.05.614.708.628,1.175.082,2.689.123,5.378.18,8.069.032,1.439.092,1.5,1.476,1.722a10.091,10.091,0,0,1,1.008.2c4.793,1.3,16.361,4.429,17.358,4.677,1.049.263,1.213.143,1.408-.934.117-.647.2-1.3.36-1.936.871-3.464,1.806-6.912,1.619-10.541-.075-1.438.857-3.472,1.463-14.924.089-1.675-.187-3.347-.047-5.037a64.053,64.053,0,0,0-.308-11.566c-.1-1.064-.967-.509-2.969-1.375-4.029-1.742-8.374-2.236-12.588-3.236-2.222-.528-4.582-.168-6.766-1-.433-.165-.449.138-.464.452-.133,2.828-.393,5.646-.691,8.46a45.553,45.553,0,0,0-.549,4.68c0,.3-.053.791-.5.774-.413-.016-.46-.453-.487-.794-.224-2.755.37-2.466.823-9.811a33.035,33.035,0,0,1,.353-4.353c.136-.7.548-.985,1.248-.7a14.8,14.8,0,0,0,4.519.87,69.353,69.353,0,0,1,11.914,2.288c1.955.506,3.814,1.356,5.791,1.819,1.205.283,1.5.6,1.621,1.854a64.48,64.48,0,0,1,.247,13.1c-.063.613-.174,1.27.855,1.149.877-.1,1.845.933,1.935-.23a48.576,48.576,0,0,0,.337-7.281c-.177-2.484-.284-4.97-.3-7.459a3.341,3.341,0,0,0-.913-2.333,5.854,5.854,0,0,0-2.942-1.837c-5.054-1.229-10.125-2.393-15.171-3.66-3.467-.872-7.13-.68-10.506-2-.436-.171-.562.086-.622.431-.191,1.069-.4,2.136-.557,3.211-.658,4.618-.779,9.288-1.335,13.916C23.549,83,23.591,83,25.416,83.018c1.036.009,1.2.161,1.272,1.164a109.111,109.111,0,0,1-.075,17.147c-.124,1.461-.463,1.761-1.89,1.935a2.212,2.212,0,0,1-.427.036c-.664-.052-.856.2-.841.9C23.509,106.657,23.476,109.118,23.476,111.58ZM53.119,89.767c-.238,11.034-1.466,13.8-1.405,18.533,0,.3-.086.608.431.638,1.424.084,2.847.216,4.267.362.435.045.621-.025.605-.514-.1-2.992.642-5.9.949-8.846.294-2.839.688-5.668.781-8.527.022-.686-.222-.919-.852-.917A15.205,15.205,0,0,1,53.119,89.767Zm-27.565-4.5c0-.688-.191-1.09-1.013-1.052-2.165.1-2.959-.775-3.041.5-.59,9.339,0,9.871.184,14.82.086,2.331.364,2.59,2.721,2.341.61-.065.781-.325.837-.914C25.67,96.442,25.531,93.088,25.554,85.267Zm2.264-22.588a41.76,41.76,0,0,0,5.262.824,82.839,82.839,0,0,1,8.544,1.808c3.612.855,7.257,1.578,10.837,2.563,2.7.744,4.739,2.936,4.775,5.213.146,9.147.757,6.9-.023,15.252-.018.2-.186.534.1.6a2.76,2.76,0,0,0,1.267.032c.293-.076.167-.508.169-.772.033-3.573.273-7.146.008-10.719a25.139,25.139,0,0,0-1.044-6.744,5.39,5.39,0,0,0-3.732-3.424c-5.522-1.85-11.282-2.645-16.939-3.892a55.927,55.927,0,0,1-5.95-1.194A3.984,3.984,0,0,0,27.818,62.679Zm28.707,49.462c.016-.314.019-.63.052-.942.067-.645-.442-.453-.756-.522-.434-.1-.455.2-.443.511a17.043,17.043,0,0,1-.2,2.562c-.508,4.515-.963,9.039-2.538,13.349-.142.391-.01.5.337.575,1.164.262,1.562.041,1.807-1.252C55.674,121.7,56.011,116.91,56.525,112.141Z"/><path d="M136.678,103.62a39.513,39.513,0,0,1,4.044,1.058c.461.179.849.487.625,1.032-.214.523-.691.5-1.169.349-.325-.1-.678-.127-.987-.256-.842-.352-1.416-.356-1.385.81.011.392-.34.574-.709.613-1.154.122-.8-1.722-1.509-2.873C135.338,103.952,135.847,103.567,136.678,103.62Z"/><path d="M129.634,112.257a13.768,13.768,0,0,0-1.161,2.066c-.178.291-.38.649-.786.5-.431-.161-.278-.565-.208-.887a7.52,7.52,0,0,1,1.826-3.425c.538-.6,1.071-.42,1.279.368.268,1.015.545,2.029.795,3.048.1.41.239.9-.333,1.078-.611.187-.781-.259-.9-.743C130,113.635,129.829,113.013,129.634,112.257Z"/><path d="M124.573,102.565c1.993,0,2.112-.081,1.881,1.489-.094.64.284,2.131-.808,2.124-.513,0-.725-.382-.764-.861-.02-.227-.047-.454-.054-.682-.011-.46-.212-.653-.694-.618-.567.042-1.138.033-1.708.02-.4-.009-.88-.035-.884-.574,0-.474.4-.623.821-.716A10,10,0,0,1,124.573,102.565Z"/><path d="M139.467,95.36a1.277,1.277,0,0,1,.468-.9,28.537,28.537,0,0,1,4.5-3.686c.255-.186.572-.372.829-.021.419.571-.25.647-3.667,3.53-.446.377-1.034.788-.09,1.375.423.262.348.776-.174,1.02S139.487,96.023,139.467,95.36Z"/><path d="M126.984,93.823c.037.7-.237.927-.637,1.016s-.786.142-1.182.208c-.368.062-.708.025-.827-.4a.584.584,0,0,1,.485-.774c.724-.136.573-.509.359-.967-.47-1.009-.919-2.028-1.38-3.04-.128-.279-.2-.57.069-.781a.528.528,0,0,1,.773.082A16.154,16.154,0,0,1,126.984,93.823Z"/><path d="M127.348,119.589c-.016.381-.1.731-.5.82s-.651-.185-.732-.549c-.144-.635-.251-1.278-.358-1.921a.528.528,0,0,1,.378-.669.565.565,0,0,1,.725.43C127.054,118.321,127.19,118.958,127.348,119.589Z"/><path d="M129.388,121.465c-.055.311.131.712-.372.755-.41.035-.56-.274-.623-.582-.15-.725-.277-1.457-.363-2.192-.04-.345.052-.759.461-.806C128.976,118.584,128.953,118.988,129.388,121.465Z"/><path d="M130.239,108.636c-.458-.02-1.054-1.055-.833-1.459.106-.194.384-.333.482-.174.369.6,1.323-.492,1.483.534C131.436,107.953,130.682,108.655,130.239,108.636Z"/><path d="M134.233,71.5c-.01,1.509-.346,3.286-1.813,3.624a2.883,2.883,0,0,1-3.006-1.015,8.27,8.27,0,0,1-1.2-2.362c-.154-.387-.185-.794-.6-1.075-.471-.321.069-1.177,1.086-1.238,1.113-.067,2.224-.161,3.339-.184C133.673,69.215,134.687,69.793,134.233,71.5Zm-4.9-.8a8.609,8.609,0,0,0,1.125,2.472,1.482,1.482,0,0,0,1.413.652c.6-.077.749-.666.856-1.164.094-.443.057-.911.112-1.365.058-.472-.172-.6-.59-.6C131.307,70.7,130.367,70.693,129.329,70.693Z"/><path d="M128.408,67.439a6.205,6.205,0,0,1-1.611-.187c-.92-.245-1.318-.879-.938-1.73a16.438,16.438,0,0,0,1.227-3.81c.081-.448.309-.75.806-.694.584.066.517.541.488.922a8.667,8.667,0,0,1-.884,3.367c-.5.975.355.656,1.62.919.371.078.766.221.728.694C129.795,67.53,129.2,67.438,128.408,67.439Z"/><path d="M139.046,59.537a12.287,12.287,0,0,1-.272,2.2c-.086.454-.306.9-.89.856-.551-.045-.752-.454-.811-.943a7.675,7.675,0,0,1,.2-3.541c.153-.434.387-.766.916-.721C139.126,57.47,139,58.6,139.046,59.537Z"/><path d="M137.111,50.507a7.633,7.633,0,0,1,3.136.71,2.241,2.241,0,0,1,.585.345c.354.26.579.62.32,1.026-.267.421-.67.309-1.056.1a6.372,6.372,0,0,0-4.917-.745c-.325.117-.638.164-.8-.2-.152-.348.082-.607.346-.791A3.9,3.9,0,0,1,137.111,50.507Z"/><path d="M124.508,49.473a1.923,1.923,0,0,1,1.994.884.626.626,0,0,1,0,.792.609.609,0,0,1-.784.129c-1.229-.685-2.382-.263-3.5.27-.391.186-.746.414-1.042-.035a.841.841,0,0,1,.315-1.256A5.7,5.7,0,0,1,124.508,49.473Z"/><path d="M124.305,59.175c-.093.655.074,1.309-.324,1.865-.2.283-.416.546-.82.518a.809.809,0,0,1-.725-.627,4.068,4.068,0,0,1,.046-3.449.841.841,0,0,1,.956-.545C124.35,57.134,124.231,58.191,124.305,59.175Z"/><path d="M46.784,84.161c1.264-1.206,1.664-3.185.649-4.305a4.563,4.563,0,0,1-1.089-2.151A2.244,2.244,0,0,0,43.75,75.99a3.272,3.272,0,0,0-2.675,1.45,1.577,1.577,0,0,1-1.227.805c-.22.018-.535.074-.63.224-.6.943-1.463.8-2.391.786a2.57,2.57,0,0,0-2.5,3.139,2.532,2.532,0,0,1,.018.934c-.235,1.194-.166,1.368.97,2.034.164-.124.046-.307.088-.455.084-.294.114-.755.458-.724.464.042.165.5.183.755a8.729,8.729,0,0,1-.427,3.094A3.832,3.832,0,0,0,36.2,91.9a1.984,1.984,0,0,1,.114,2.324A21.527,21.527,0,0,0,35.233,96.9a1.959,1.959,0,0,1-1.177,1.268c-3.923,1.6-4.316,6.38-2.084,9.326a4.4,4.4,0,0,0,1.333,1.053.977.977,0,0,1,.539,1.214,15.214,15.214,0,0,0-.681,4.946c0,.111-.017.221-.271.3a8.682,8.682,0,0,1-.025-2.752,8.925,8.925,0,0,1,.571-2.551c.192-.432-.042-.618-.378-.794-3.944-2.064-4-9.063.022-10.96a3.126,3.126,0,0,0,1.833-2.185c.449-1.737,1.451-2.5.708-3.324a4.5,4.5,0,0,1-.692-4.889,1.347,1.347,0,0,0-.621-1.865,1.911,1.911,0,0,1-.834-2.294,1.963,1.963,0,0,0,.056-.831c-.335-2.7,1.445-4.412,4.172-4.04.084.012.231.045.246.016.537-1.055,1.889-.785,2.6-1.7a4.2,4.2,0,0,1,5.616-.956c1.132.62.735,2.152,1.719,3.121a3.355,3.355,0,0,1,.828,3.418,4.541,4.541,0,0,1-1.769,2.822c-.2.127-.176.272-.173.427a3.251,3.251,0,0,1-.407,1.38c-.178.394-.49.719-.433,1.214a.545.545,0,0,1-.339.559c-.9.245-1.021,1-1.285,1.726-.4,1.083-1.076,2.046-1.026,3.3.028.711-.7.987-1.3,1-1.308.016-.538,1.305-1.345,2.141-.214.222-.07.446.232.458a3.8,3.8,0,0,1,.878.3,3.384,3.384,0,0,1,2.605,3.381,1.266,1.266,0,0,0,.262.619,5.579,5.579,0,0,1,.487,6.095c-.774,1.7.624,1.572.158,4.139A34.853,34.853,0,0,0,45.2,116a1.449,1.449,0,0,1-.906,1.414c-.349.144-.734.238-.927-.1-.222-.387.279-.408.471-.545a1.141,1.141,0,0,0,.5-1.015,25.372,25.372,0,0,1,.147-4.535,2.42,2.42,0,0,0-.3-1.492,2.562,2.562,0,0,1,.1-2.294c.8-1.806,1.019-3.6-.451-5.234a1.848,1.848,0,0,1-.38-1.2c-.073-1.694-1.254-2.311-2.635-2.679-1.187-.317-1.468-.986-.765-2.036a2.49,2.49,0,0,0,.312-1.05,1.238,1.238,0,0,1,1.29-1.217c.553-.008.824-.2.791-.818a5.926,5.926,0,0,1,.959-2.7c.214-.477.672-1,.3-1.5a1.641,1.641,0,0,0-1.747-.6,1.705,1.705,0,0,1-2.049-1.28c-.152-.416-.293-.52-.724-.444a1.658,1.658,0,0,1-2.016-1.151,6.2,6.2,0,0,0-.79-1.876c-.151-.23-.24-.492-.013-.7.268-.246.482.007.658.174a3.143,3.143,0,0,1,1.028,1.641c.133.642.476,1.025,1.213.846.81-.2,1.273.08,1.46.945.2.922.593,1.131,1.55.955a1.792,1.792,0,0,1,1.566.5,1.014,1.014,0,0,0,1.455-.029c.066-.055.189-.128.18-.172-.234-1.19,1.022-2.211.389-3.443-.076-.151-.064-.377-.175-.474-.892-.775-1.009-1.933-1.487-2.911a1.981,1.981,0,0,0-2.66-1.036c-.215.062-.485.355-.63-.043-.119-.325.192-.424.414-.541a2.449,2.449,0,0,1,3.306.854A33.135,33.135,0,0,0,46.784,84.161Z"/><path d="M40.1,102.066c-1.623,1.469-3.268,2.011-5.026.328-.123.517-.2,1.123-.873,1.354-.236.079-.186.307-.112.514.195.545.6.781,1.269.969.313.088.381.52.391.863s-.252.323-.481.31c-.824-.05-2.243-1.889-2.051-2.668.04-.161.123-.4.241-.436,1.209-.408.469-1.495.892-2.421.215-.467.534-.487.854-.108a2.4,2.4,0,0,1,.265.532,2,2,0,0,0,3.3.718,1.376,1.376,0,0,1,.2-.159c.547-.3,1.16-.761,1.731-.351s.2,1.087.054,1.656c-.07.27-.261.489.049.828.925,1.009.726,2.029-.548,2.661-1.464.727-.2,1.933-.99,3-.343.465-.129.7.337.853.3.1.578.237.876.327.2.059.3.169.289.358a.351.351,0,0,1-.419.333,2.955,2.955,0,0,1-1.881-.878.671.671,0,0,1-.144-.722,5.306,5.306,0,0,0,.385-2.449c.076-.9.875-1.412,1.529-1.943.293-.238.5-.528.167-.752-1-.665-.56-1.415-.209-2.46C40.163,102.235,40.13,102.151,40.1,102.066Z"/><path d="M38.364,112.7c-.009.859-.671,1.739-1.321,1.755a2.164,2.164,0,0,1-1.851-1.916c.011-1.023.588-1.714,1.406-1.686A1.9,1.9,0,0,1,38.364,112.7Z"/><path d="M34.478,120.737c.006-1.054.406-1.532,1.274-1.526a1.865,1.865,0,0,1,2.09,1.847c0,1.085-.577,1.845-1.368,1.82A1.917,1.917,0,0,1,34.478,120.737Zm1.01.023c.091.57.356,1.05.909,1.13.472.07.465-.476.477-.758.025-.588-.429-.827-.941-.913C35.483,120.145,35.557,120.529,35.488,120.76Z"/></svg>