<?xml version="1.0" encoding="utf-8"?>
<!-- Generator: Adobe Illustrator 24.1.1, SVG Export Plug-In . SVG Version: 6.00 Build 0)  -->
<svg version="1.1" id="Layer_1" xmlns="http://www.w3.org/2000/svg" xmlns:xlink="http://www.w3.org/1999/xlink" x="0px" y="0px"
	 viewBox="0 0 24 24" style="enable-background:new 0 0 24 24;" xml:space="preserve">
<style type="text/css">
	.st0{fill:#FFFFFF;}
</style>
<path class="st0" d="M6,11.6H12V5.7H6V11.6z M7,6.6h4v4H7V6.6z M6,18.3H12v-5.9H6V18.3z M7,13.3h4v4H7V13.3z M13.1,5.7v5.9H19V5.7
	H13.1z M18,10.7h-4v-4h4V10.7z M13.1,12.3h1.5v1.5h-1.5V12.3z M14.6,13.8H16v1.5h-1.5V13.8z M13.1,15.3h1.5v1.5h-1.5V15.3z M16,15.3
	h1.5v1.5H16V15.3z M17.5,16.8H19v1.5h-1.5V16.8z M14.6,16.8H16v1.5h-1.5V16.8z M16,12.3h1.5v1.5H16V12.3z M17.5,13.8H19v1.5h-1.5
	V13.8z"/>
</svg>
