<?xml version="1.0" encoding="utf-8"?>
<!-- Generator: Adobe Illustrator 24.1.1, SVG Export Plug-In . SVG Version: 6.00 Build 0)  -->
<svg version="1.1" id="레이어_1" xmlns="http://www.w3.org/2000/svg" xmlns:xlink="http://www.w3.org/1999/xlink" x="0px"
	 y="0px" viewBox="0 0 46 46" style="enable-background:new 0 0 46 46;" xml:space="preserve">
<style type="text/css">
	.st0{fill:#838383;}
	.st1{fill:none;stroke:#FFFFFF;stroke-width:2.5;stroke-linecap:round;stroke-linejoin:round;stroke-miterlimit:10;}
</style>
<g>
	<path d="M23,45.5C10.6,45.5,0.5,35.4,0.5,23S10.6,0.5,23,0.5S45.5,10.6,45.5,23S35.4,45.5,23,45.5z"/>
	<path class="st0" d="M23,1c12.1,0,22,9.9,22,22s-9.9,22-22,22S1,35.1,1,23S10.9,1,23,1 M23,0C10.3,0,0,10.3,0,23s10.3,23,23,23
		s23-10.3,23-23S35.7,0,23,0L23,0z"/>
</g>
<polyline class="st1" points="26.5,14 17.5,23 26.5,32 "/>
</svg>
