<?xml version="1.0" encoding="utf-8"?>
<!-- Generator: Adobe Illustrator 24.0.2, SVG Export Plug-In . SVG Version: 6.00 Build 0)  -->
<svg version="1.1" id="레이어_1" xmlns="http://www.w3.org/2000/svg" xmlns:xlink="http://www.w3.org/1999/xlink" x="0px"
	 y="0px" viewBox="0 0 20.3 40.7" style="enable-background:new 0 0 20.3 40.7;" xml:space="preserve">
<style type="text/css">
	.st0{fill:#FFFFFF;}
</style>
<title></title>
<g>
	<path class="st0" d="M20.3,30.5c0,5.6-4.6,10.2-10.2,10.2S0,36.1,0,30.5v-6.1c0-5.6,4.6-10.2,10.2-10.2c1.1,0,2,0.9,2,2s-0.9,2-2,2
		c-3.4,0-6.1,2.7-6.1,6.1v6.1c0,3.4,2.7,6.1,6.1,6.1s6.1-2.7,6.1-6.1c0-1.1,0.9-2,2-2C19.4,28.5,20.3,29.4,20.3,30.5z"/>
	<path class="st0" d="M20.3,10.2v6.1c0,5.6-4.6,10.2-10.2,10.2c-1.1,0-2-0.9-2-2c0-1.1,0.9-2,2-2c3.4,0,6.1-2.7,6.1-6.1v-6.1
		c0-3.4-2.7-6.1-6.1-6.1s-6.1,2.7-6.1,6.1c0,1.1-0.9,2-2,2s-2-0.9-2-2C0,4.6,4.6,0,10.2,0S20.3,4.6,20.3,10.2z"/>
</g>
</svg>
