<?xml version="1.0" encoding="utf-8"?>
<!-- Generator: Adobe Illustrator 24.0.2, SVG Export Plug-In . SVG Version: 6.00 Build 0)  -->
<svg version="1.1" id="레이어_1" xmlns="http://www.w3.org/2000/svg" xmlns:xlink="http://www.w3.org/1999/xlink" x="0px"
	 y="0px" viewBox="0 0 20.5 27.3" style="enable-background:new 0 0 20.5 27.3;" xml:space="preserve">
<style type="text/css">
	.st0{fill-rule:evenodd;clip-rule:evenodd;fill:#FFFFFF;}
</style>
<path class="st0" d="M3.4,0C1.5,0,0,1.5,0,3.4v20.5c0,1.9,1.5,3.4,3.4,3.4h13.6c1.9,0,3.4-1.5,3.4-3.4V9.2c0-0.9-0.4-1.8-1-2.4
	L13.6,1c-0.6-0.6-1.5-1-2.4-1H3.4z M11.9,10.2c0-0.9-0.8-1.7-1.7-1.7c-0.9,0-1.7,0.8-1.7,1.7v6.1l-2.2-2.2c-0.7-0.7-1.7-0.7-2.4,0
	c-0.7,0.7-0.7,1.7,0,2.4L9,21.7c0.7,0.7,1.7,0.7,2.4,0l5.1-5.1c0.7-0.7,0.7-1.7,0-2.4c-0.7-0.7-1.7-0.7-2.4,0l-2.2,2.2V10.2z"/>
</svg>
