<?xml version="1.0" encoding="utf-8"?>
<!-- Generator: Adobe Illustrator 24.0.2, SVG Export Plug-In . SVG Version: 6.00 Build 0)  -->
<svg version="1.1" id="레이어_1" xmlns="http://www.w3.org/2000/svg" xmlns:xlink="http://www.w3.org/1999/xlink" x="0px"
	 y="0px" viewBox="0 0 86.2 86.2" style="enable-background:new 0 0 86.2 86.2;" xml:space="preserve">
<style type="text/css">
	.st0{fill:#FFFFFF;}
</style>
<g>
	<g>
		<g>
			<path class="st0" d="M68,0H18.3C8.2,0,0,8.2,0,18.3V68C0,78,8.2,86.2,18.3,86.2H68C78,86.2,86.2,78,86.2,68V18.3
				C86.2,8.2,78,0,68,0z M43.1,69.8c-14.7,0-26.7-12-26.7-26.7c0-14.7,12-26.7,26.7-26.7c14.7,0,26.7,12,26.7,26.7
				C69.8,57.8,57.8,69.8,43.1,69.8z M70.7,21.3c-3.4,0-6.1-2.8-6.1-6.1c0-3.4,2.8-6.1,6.1-6.1c3.4,0,6.1,2.8,6.1,6.1
				C76.9,18.6,74.1,21.3,70.7,21.3z"/>
			<ellipse transform="matrix(0.9912 -0.1327 0.1327 0.9912 -5.3411 6.104)" class="st0" cx="43.1" cy="43.1" rx="17.8" ry="17.8"/>
		</g>
	</g>
</g>
</svg>
