<?xml version="1.0" encoding="utf-8"?>
<!-- Generator: Adobe Illustrator 24.0.2, SVG Export Plug-In . SVG Version: 6.00 Build 0)  -->
<svg version="1.1" id="레이어_1" xmlns="http://www.w3.org/2000/svg" xmlns:xlink="http://www.w3.org/1999/xlink" x="0px"
	 y="0px" viewBox="0 0 151.3 150" style="enable-background:new 0 0 151.3 150;" xml:space="preserve">
<style type="text/css">
	.st0{fill:#FFFFFF;}
</style>
<path class="st0" d="M151.3,103.2v41c0,3.2-2.6,5.8-5.8,5.8h-41c-3.2,0-5.8-2.6-5.8-5.8c0-3.2,2.6-5.8,5.8-5.8h27L84.7,91.7
	c-2.3-2.3-2.3-5.9,0-8.2c1.1-1.1,2.6-1.7,4.1-1.7c1.5,0,3,0.6,4.1,1.7l46.8,46.8v-27c0-3.2,2.6-5.8,5.8-5.8
	C148.7,97.4,151.3,100,151.3,103.2z M19.8,11.6h27c3.2,0,5.8-2.6,5.8-5.8S50,0,46.8,0h-41C2.6,0,0,2.6,0,5.8v41
	c0,3.2,2.6,5.8,5.8,5.8c3.2,0,5.8-2.6,5.8-5.8v-27L59,67.2c2.3,2.3,5.9,2.3,8.2,0c2.3-2.3,2.3-5.9,0-8.2L19.8,11.6z"/>
</svg>
