<?xml version="1.0" encoding="utf-8"?>
<!-- Generator: Adobe Illustrator 24.0.2, SVG Export Plug-In . SVG Version: 6.00 Build 0)  -->
<svg version="1.1" id="레이어_1" xmlns="http://www.w3.org/2000/svg" xmlns:xlink="http://www.w3.org/1999/xlink" x="0px"
	 y="0px" viewBox="0 0 151.3 150" style="enable-background:new 0 0 151.3 150;" xml:space="preserve">
<style type="text/css">
	.st0{fill:#FFFFFF;}
</style>
<path class="st0" d="M139.6,98.9v34.7c0,2.7-2.2,4.9-4.9,4.9h-34.7c-2.7,0-4.9-2.2-4.9-4.9c0-2.7,2.2-4.9,4.9-4.9h22.8L83.3,89.1
	c-1.9-1.9-1.9-5,0-6.9c1-1,2.2-1.4,3.5-1.4c1.3,0,2.5,0.5,3.5,1.4l39.6,39.6V98.9c0-2.7,2.2-4.9,4.9-4.9
	C137.4,94,139.6,96.2,139.6,98.9z M28.4,21.4h22.8c2.7,0,4.9-2.2,4.9-4.9s-2.2-4.9-4.9-4.9H16.5c-2.7,0-4.9,2.2-4.9,4.9v34.7
	c0,2.7,2.2,4.9,4.9,4.9c2.7,0,4.9-2.2,4.9-4.9V28.3l40.1,40.1c1.9,1.9,5,1.9,6.9,0c1.9-1.9,1.9-5,0-6.9L28.4,21.4z"/>
</svg>
