<?xml version="1.0" encoding="utf-8"?>
<!-- Generator: Adobe Illustrator 24.0.2, SVG Export Plug-In . SVG Version: 6.00 Build 0)  -->
<svg version="1.1" id="레이어_1" xmlns="http://www.w3.org/2000/svg" xmlns:xlink="http://www.w3.org/1999/xlink" x="0px"
	 y="0px" viewBox="0 0 29.6 29.6" style="enable-background:new 0 0 29.6 29.6;" xml:space="preserve">
<style type="text/css">
	.st0{fill:#FFFFFF;}
</style>
<path class="st0" d="M17.5,28.8L29.5,1.4c0.1-0.3,0.1-0.6,0-0.8c0,0,0-0.1-0.1-0.2c0,0-0.1-0.1-0.1-0.1s-0.1-0.1-0.1-0.1
	c0,0-0.1-0.1-0.2-0.1c-0.2-0.1-0.5-0.1-0.8,0l0,0l-27.5,12C0.2,12.3,0,12.6,0,13c0,0.3,0.1,0.5,0.3,0.7c0.1,0.1,0.2,0.2,0.3,0.2
	L11,18.6L15.6,29c0,0.1,0.1,0.2,0.2,0.3c0,0,0,0,0,0c0.4,0.4,1,0.4,1.4,0C17.4,29.2,17.5,29,17.5,28.8z"/>
</svg>
