<?xml version="1.0" encoding="utf-8"?>
<!-- Generator: Adobe Illustrator 24.0.2, SVG Export Plug-In . SVG Version: 6.00 Build 0)  -->
<svg version="1.1" id="레이어_1" xmlns="http://www.w3.org/2000/svg" xmlns:xlink="http://www.w3.org/1999/xlink" x="0px"
	 y="0px" viewBox="0 0 125.3 87.7" style="enable-background:new 0 0 125.3 87.7;" xml:space="preserve">
<style type="text/css">
	.st0{fill:#FFFFFF;}
</style>
<path class="st0" d="M122.7,13.7c-1.4-5.4-5.7-9.6-11.1-11.1C101.8,0,62.6,0,62.6,0s-39.2,0-49,2.6C8.3,4.1,4.1,8.3,2.6,13.7
	C0,23.5,0,43.9,0,43.9S0,64.2,2.6,74c1.4,5.4,5.7,9.6,11.1,11.1c9.8,2.6,49,2.6,49,2.6s39.2,0,49-2.6c5.4-1.4,9.6-5.7,11.1-11.1
	c2.6-9.8,2.6-30.2,2.6-30.2S125.3,23.5,122.7,13.7L122.7,13.7z M50.1,62.7V25.1l32.6,18.8L50.1,62.7L50.1,62.7z"/>
</svg>
