<?xml version="1.0" encoding="utf-8"?>
<!-- Generator: Adobe Illustrator 24.1.1, SVG Export Plug-In . SVG Version: 6.00 Build 0)  -->
<svg version="1.1" id="레이어_1" xmlns="http://www.w3.org/2000/svg" xmlns:xlink="http://www.w3.org/1999/xlink" x="0px"
	 y="0px" viewBox="0 0 440 167.5" style="enable-background:new 0 0 440 167.5;" xml:space="preserve">
<style type="text/css">
	.st0{fill:#F8E6E5;}
</style>
<g>
	<g>
		<path class="st0" d="M129.2,0c10.2,0,19.9,4,27.1,11.2L220,75l63.7-63.7c7.2-7.2,16.9-11.2,27.1-11.2s19.9,4,27.1,11.2l90.9,90.8
			c7.2,7.2,11.2,16.9,11.2,27.1s-4,19.9-11.2,27.1c-7.2,7.2-17,11.2-27.1,11.2c-10.2,0-19.9-4-27.1-11.2l-63.8-63.8l-63.7,63.7
			c-7.2,7.3-16.9,11.3-27.1,11.3s-19.9-4-27.1-11.2l-63.7-63.8l-63.7,63.7c-7.3,7.3-17,11.3-27.2,11.3s-19.9-4-27.1-11.2
			C4,149.1,0,139.3,0,129.2c0-10.2,4-19.9,11.2-27.1L102,11.3C109.3,4.1,119,0,129.2,0z"/>
	</g>
</g>
</svg>
