<?xml version="1.0" encoding="utf-8"?>
<!-- Generator: Adobe Illustrator 24.0.2, SVG Export Plug-In . SVG Version: 6.00 Build 0)  -->
<svg version="1.1" id="레이어_1" xmlns="http://www.w3.org/2000/svg" xmlns:xlink="http://www.w3.org/1999/xlink" x="0px"
	 y="0px" viewBox="0 0 433.1 433.1" style="enable-background:new 0 0 433.1 433.1;" xml:space="preserve">
<style type="text/css">
	.st0{fill:#F7F4F4;}
</style>
<g>
	<path class="st0" d="M216.5,130c23.1,0,44.8,9,61.2,25.3c16.3,16.3,25.3,38.1,25.3,61.2s-9,44.8-25.3,61.2
		c-16.3,16.3-38.1,25.3-61.2,25.3s-44.8-9-61.2-25.3C139,261.4,130,239.6,130,216.5s9-44.8,25.3-61.2C171.7,139,193.4,130,216.5,130
		 M216.5,0C96.9,0,0,96.9,0,216.5s96.9,216.5,216.5,216.5s216.5-96.9,216.5-216.5S336.1,0,216.5,0L216.5,0z"/>
</g>
</svg>
