<?xml version="1.0" encoding="utf-8"?>
<!-- Generator: Adobe Illustrator 24.0.2, SVG Export Plug-In . SVG Version: 6.00 Build 0)  -->
<svg version="1.1" id="레이어_1" xmlns="http://www.w3.org/2000/svg" xmlns:xlink="http://www.w3.org/1999/xlink" x="0px"
	 y="0px" viewBox="0 0 616.2 616.2" style="enable-background:new 0 0 616.2 616.2;" xml:space="preserve">
<style type="text/css">
	.st0{fill:#0F8BBB;}
</style>
<g>
	<path class="st0" d="M308.1,180c34.2,0,66.4,13.3,90.6,37.5s37.5,56.4,37.5,90.6s-13.3,66.4-37.5,90.6s-56.4,37.5-90.6,37.5
		s-66.4-13.3-90.6-37.5S180,342.3,180,308.1s13.3-66.4,37.5-90.6S273.9,180,308.1,180 M308.1,0C137.9,0,0,137.9,0,308.1
		s137.9,308.1,308.1,308.1s308.1-137.9,308.1-308.1S478.2,0,308.1,0L308.1,0z"/>
</g>
</svg>
