<?xml version="1.0" encoding="utf-8"?>
<!-- Generator: Adobe Illustrator 24.0.2, SVG Export Plug-In . SVG Version: 6.00 Build 0)  -->
<svg version="1.1" id="레이어_1" xmlns="http://www.w3.org/2000/svg" xmlns:xlink="http://www.w3.org/1999/xlink" x="0px"
	 y="0px" viewBox="0 0 906 344.9" style="enable-background:new 0 0 906 344.9;" xml:space="preserve">
<style type="text/css">
	.st0{fill:#0F8BBB;}
</style>
<g>
	<g>
		<path class="st0" d="M640,344.9c-20.9,0-41-8.3-55.8-23.1L453,190.5L321.7,321.7c-14.8,14.8-34.9,23.1-55.8,23.1
			c-20.9,0-41-8.3-55.8-23.1l-187-187C8.3,119.9,0,99.8,0,78.9c0-20.9,8.3-41,23.1-55.8C37.9,8.3,58,0,78.9,0
			c20.9,0,41,8.3,55.8,23.1L266,154.4L397.2,23.1C412,8.3,432.1,0,453,0c20.9,0,41,8.3,55.8,23.1L640,154.4L771.3,23.1
			C786.1,8.3,806.2,0,827.1,0c20.9,0,41,8.3,55.8,23.1C897.7,37.9,906,58,906,78.9c0,20.9-8.3,41-23.1,55.8l-187,187
			C681,336.5,661,344.9,640,344.9z"/>
	</g>
</g>
</svg>
