<?xml version="1.0" encoding="utf-8"?>
<!-- Generator: Adobe Illustrator 24.0.2, SVG Export Plug-In . SVG Version: 6.00 Build 0)  -->
<svg version="1.1" id="레이어_1" xmlns="http://www.w3.org/2000/svg" xmlns:xlink="http://www.w3.org/1999/xlink" x="0px"
	 y="0px" viewBox="0 0 60 60" style="enable-background:new 0 0 60 60;" xml:space="preserve">
<style type="text/css">
	.st0{fill:#FAF7F5;}
</style>
<g>
	<g>
		<path class="st0" d="M36.3,1c-8.1-2.3-17.5-0.6-24.8,3.9C8,7,4.9,9.9,3.1,13.8c-1.1,2.3-1.6,4.9-2,7.4C0.3,25.5-0.3,30,0.2,34.4
			c0.9,7.5,5.2,14.4,11,18.7s12.9,6.5,20,6.9c1.8,0.1,3.7,0.1,5.5-0.3c4.3-0.9,8-3.7,11.5-6.4c2-1.5,4-3,5.6-4.9
			c4.4-5,6-12,6.1-18.8c0.1-3.9-0.4-7.8-1.8-11.4c-1.9-4.6-5.4-8.2-9.3-10.9S40.6,2.8,36.3,1"/>
	</g>
	<g>
		<path d="M27.3,21.1c0.1,1.3-1,2.3-1.9,3.3c-1,1-1.9,2.2-2.1,3.6c-0.2,1.4,0.2,2.8,0.9,4c1.1,1.8,2.7,3.2,4.3,4.5
			c0.6,0.5,1.1,0.9,1.8,1.2c1.9,0.8,4-0.1,5.6-1.4c0.7-0.6,1.4-1.3,2.2-1.6c1.5-0.6,3.3,0.1,4.6,1c1.4,1,2.7,2.5,2.4,4.2
			c-0.3,1.5-1.6,2.5-2.9,3.2c-2,1.2-4.2,2.2-6.6,2.3c-1.5,0.1-3-0.3-4.5-0.6c-1-0.2-2-0.5-2.9-0.9c-1.4-0.6-2.6-1.6-3.8-2.6
			c-1.8-1.5-3.6-3.1-5.1-4.9c-1.4-1.8-2.4-3.8-3.4-5.8c-0.5-1-0.9-2-1.2-3.1c-0.2-1.1-0.2-2.3-0.1-3.5c0.3-3,1.3-6.2,3.5-8.3
			c0.9-0.8,2.2-0.8,2.6-0.6c1.7,0.5,3,1.1,4.4,2.1s2.4,2.8,2.1,4.5"/>
	</g>
</g>
</svg>
