<?xml version="1.0" encoding="utf-8"?>
<!-- Generator: Adobe Illustrator 24.0.2, SVG Export Plug-In . SVG Version: 6.00 Build 0)  -->
<svg version="1.1" id="레이어_1" xmlns="http://www.w3.org/2000/svg" xmlns:xlink="http://www.w3.org/1999/xlink" x="0px"
	 y="0px" viewBox="0 0 24 19.3" style="enable-background:new 0 0 24 19.3;" xml:space="preserve">
<style type="text/css">
	.st0{fill:#FFFFFF;}
</style>
<g>
	<g>
		<path class="st0" d="M11.1,16.5c-1.5-1-3-2.1-4.5-3.3c-0.7-0.5-1.4-1.1-2.1-1.7C4,11.1,3,10.6,2.7,10c0.1,0.2,0.1,0.5,0.2,0.7
			c0,0-0.1,0-0.1,0C2.9,10.7,3,10.6,3,10.5c0.2-0.2,0.4-0.4,0.6-0.5c0.4-0.3,0.7-0.7,1.1-1c0.7-0.7,1.5-1.4,2.2-2.2
			c1.5-1.4,3-2.9,4.4-4.3c1.4-1.3-0.7-3.4-2.1-2.1c-1.7,1.7-3.4,3.3-5.2,5C3.3,6.2,2.5,7,1.7,7.8C0.8,8.6,0,9.4,0,10.6
			c0,1.1,0.9,1.7,1.6,2.4c0.9,0.7,1.7,1.4,2.6,2.1c1.8,1.4,3.6,2.7,5.4,4C11.2,20.1,12.7,17.5,11.1,16.5L11.1,16.5z"/>
	</g>
	<g>
		<path class="st0" d="M2.7,11.7c6.6,0.4,13.3,0.3,19.9-0.2c1.9-0.1,1.9-3.1,0-2.9C16,9.1,9.3,9.2,2.7,8.8
			C0.8,8.7,0.8,11.6,2.7,11.7L2.7,11.7z"/>
	</g>
</g>
</svg>
