<?xml version="1.0" encoding="utf-8"?>
<!-- Generator: Adobe Illustrator 24.0.2, SVG Export Plug-In . SVG Version: 6.00 Build 0)  -->
<svg version="1.1" id="레이어_1" xmlns="http://www.w3.org/2000/svg" xmlns:xlink="http://www.w3.org/1999/xlink" x="0px"
	 y="0px" viewBox="0 0 60 60" style="enable-background:new 0 0 60 60;" xml:space="preserve">
<style type="text/css">
	.st0{fill:#EAE6E3;}
</style>
<g>
	<g>
		<path d="M36.3,1c-8.1-2.3-17.5-0.6-24.8,3.9C8,7,4.9,9.9,3.1,13.8c-1.1,2.3-1.6,4.9-2,7.4C0.3,25.5-0.3,30,0.2,34.4
			c0.9,7.5,5.2,14.4,11,18.7s12.9,6.5,20,6.9c1.8,0.1,3.7,0.1,5.5-0.3c4.3-0.9,8-3.7,11.5-6.4c2-1.5,4-3,5.6-4.9
			c4.4-5,6-12,6.1-18.8c0.1-3.9-0.4-7.8-1.8-11.4c-1.9-4.6-5.4-8.2-9.3-10.9S40.6,2.8,36.3,1"/>
	</g>
	<path class="st0" d="M38.6,17.6c-2.9,2.6-5.8,5.3-8.5,8.1c-2.8-2.7-5.7-5.3-8.7-7.9c-1.1-0.9-2.7-1.1-3.8,0c-1,1-1.1,2.9,0,3.8
		c3,2.5,5.9,5.2,8.7,7.9c-2.8,2.9-5.6,6-8.2,9.1c-0.9,1.1-1.1,2.7,0,3.8c1,1,2.9,1.1,3.8,0c2.7-3.1,5.4-6.1,8.3-9.1
		c2.9,2.9,5.7,5.8,8.4,8.9c2.3,2.6,6.1-1.2,3.8-3.8c-2.7-3.1-5.5-6-8.4-8.9c2.8-2.7,5.6-5.4,8.5-8C45,19.1,41.2,15.3,38.6,17.6z"/>
</g>
</svg>
