<?xml version="1.0" encoding="utf-8"?>
<!-- Generator: Adobe Illustrator 24.1.1, SVG Export Plug-In . SVG Version: 6.00 Build 0)  -->
<svg version="1.1" id="레이어_1" xmlns="http://www.w3.org/2000/svg" xmlns:xlink="http://www.w3.org/1999/xlink" x="0px"
	 y="0px" viewBox="0 0 24 19.3" style="enable-background:new 0 0 24 19.3;" xml:space="preserve">
<style type="text/css">
	.st0{fill:#FFFFFF;}
</style>
<g>
	<g>
		<path class="st0" d="M12.9,2.8c1.5,1,3,2.1,4.5,3.3c0.7,0.5,1.4,1.1,2.1,1.7C20,8.2,21,8.7,21.3,9.3c-0.1-0.2-0.1-0.5-0.2-0.7h0.1
			c-0.1,0-0.2,0.1-0.2,0.2c-0.2,0.2-0.4,0.4-0.6,0.5c-0.4,0.3-0.7,0.7-1.1,1c-0.7,0.7-1.5,1.4-2.2,2.2c-1.5,1.4-3,2.9-4.4,4.3
			c-1.4,1.3,0.7,3.4,2.1,2.1c1.7-1.7,3.4-3.3,5.2-5c0.7-0.8,1.5-1.6,2.3-2.4c0.9-0.8,1.7-1.6,1.7-2.8c0-1.1-0.9-1.7-1.6-2.4
			c-0.9-0.7-1.7-1.4-2.6-2.1c-1.8-1.4-3.6-2.7-5.4-4C12.8-0.8,11.3,1.8,12.9,2.8L12.9,2.8z"/>
	</g>
	<g>
		<path class="st0" d="M21.3,7.6C14.7,7.2,8,7.3,1.4,7.8c-1.9,0.1-1.9,3.1,0,2.9c6.6-0.5,13.3-0.6,19.9-0.2
			C23.2,10.6,23.2,7.7,21.3,7.6L21.3,7.6z"/>
	</g>
</g>
</svg>
