<?xml version="1.0" encoding="utf-8"?>
<!-- Generator: Adobe Illustrator 24.0.2, SVG Export Plug-In . SVG Version: 6.00 Build 0)  -->
<svg version="1.1" id="레이어_1" xmlns="http://www.w3.org/2000/svg" xmlns:xlink="http://www.w3.org/1999/xlink" x="0px"
	 y="0px" viewBox="0 0 60 60" style="enable-background:new 0 0 60 60;" xml:space="preserve">
<style type="text/css">
	.st0{fill:#EAE6E3;}
</style>
<g>
	<path class="st0" d="M36.3,1c-8.1-2.3-17.5-0.6-24.8,3.9C8,7,4.9,9.9,3.1,13.8c-1.1,2.3-1.6,4.9-2,7.4C0.3,25.5-0.3,30,0.2,34.4
		c0.9,7.5,5.2,14.4,11,18.7s12.9,6.5,20,6.9c1.8,0.1,3.7,0.1,5.5-0.3c4.3-0.9,8-3.7,11.5-6.4c2-1.5,4-3,5.6-4.9c4.4-5,6-12,6.1-18.8
		c0.1-3.9-0.4-7.8-1.8-11.4c-1.9-4.6-5.4-8.2-9.3-10.9S40.6,2.8,36.3,1"/>
</g>
<g>
	<g>
		<path d="M40.3,31.3c-1.6,2.3-3.2,4.6-4.9,6.8c-0.8,1.1-1.7,2.1-2.5,3.2c-0.6,0.8-1.5,2.3-2.4,2.7c0.4-0.1,0.7-0.2,1.1-0.3
			c0,0,0,0.1,0,0.1c-0.1-0.1-0.2-0.2-0.3-0.3c-0.3-0.2-0.6-0.6-0.8-0.8c-0.5-0.5-1-1.1-1.5-1.6c-1.1-1.1-2.2-2.2-3.2-3.3
			c-2.2-2.2-4.3-4.5-6.5-6.7c-2-2-5.1,1.1-3.1,3.1c2.5,2.6,5,5.2,7.5,7.8c1.2,1.2,2.4,2.5,3.6,3.7c1.2,1.2,2.4,2.5,4.2,2.5
			c1.6,0,2.6-1.3,3.6-2.5c1.1-1.3,2.1-2.6,3.2-3.9c2.1-2.7,4.1-5.4,6-8.2C45.7,31.2,41.9,29,40.3,31.3L40.3,31.3z"/>
	</g>
	<g>
		<path d="M33.2,44.1c0.6-10,0.5-20-0.3-30c-0.2-2.8-4.6-2.8-4.4,0c0.8,10,0.9,20,0.3,30C28.6,46.9,33,46.9,33.2,44.1L33.2,44.1z"/>
	</g>
</g>
</svg>
