<?xml version="1.0" encoding="utf-8"?>
<!-- Generator: Adobe Illustrator 24.0.2, SVG Export Plug-In . SVG Version: 6.00 Build 0)  -->
<svg version="1.1" id="레이어_1" xmlns="http://www.w3.org/2000/svg" xmlns:xlink="http://www.w3.org/1999/xlink" x="0px"
	 y="0px" viewBox="0 0 60 60" style="enable-background:new 0 0 60 60;" xml:space="preserve">
<style type="text/css">
	.st0{fill:#EAE6E3;}
	.st1{fill:#010101;}
</style>
<g>
	<g>
		<path class="st0" d="M36.3,1c-8.1-2.3-17.5-0.6-24.8,3.9C8,7,4.9,9.9,3.1,13.8c-1.1,2.3-1.6,4.9-2,7.4C0.3,25.5-0.3,30,0.2,34.4
			c0.9,7.5,5.2,14.4,11,18.7s12.9,6.5,20,6.9c1.8,0.1,3.7,0.1,5.5-0.3c4.3-0.9,8-3.7,11.5-6.4c2-1.5,4-3,5.6-4.9
			c4.4-5,6-12,6.1-18.8c0.1-3.9-0.4-7.8-1.8-11.4c-1.9-4.6-5.4-8.2-9.3-10.9S40.6,2.8,36.3,1"/>
	</g>
	<g>
		<g>
			<path class="st1" d="M32.8,26.9c-0.9-0.7-1.9-0.8-3.2-1c-0.4-0.1-0.4-0.2-0.8-0.2c-0.2,0-0.6,0.1-0.8,0.1
				c-1.3,0.1-1.9,0.1-2.7,0.9c-0.7,0.8-1.1,1.7-1.5,2.6c-0.2,0.6-0.7,1.3-0.7,2.1c0,1.2,0.6,2.5,1.7,3.1c0.3,0.2,0.4,0.6,0.6,0.8
				c0.3,0.3,0.8,0.4,1.3,0.6c2,1.1,4.2,0.9,5.9-0.4c1.7-1.3,2.5-3.5,2-5.7C34.4,28.8,33.9,27.7,32.8,26.9z"/>
		</g>
		<g>
			<path class="st1" d="M46.1,22.5c-0.1-1.1-0.2-2.3-0.6-3.4c-0.7-1.8-2.4-3.2-4.2-4c-1.8-0.8-3.8-1-5.8-1.2
				c-5.8-0.5-11.7-0.3-17.2,1.7c-1.1,0.4-2.2,0.9-3,1.7c-1.7,1.8-1.8,4.5-1.8,7c0,2.1,0.1,4.2,0.1,6.3c0.1,3.4,0.1,6.9,1.5,10.1
				c0.5,1.3,1.4,2.6,2.5,3.4c0,0,0.1,0.1,0.1,0.1c1.1,0.9,2.5,1.3,4,1.5c3.4,0.6,6.8,0.5,10.3,0.5c3.1,0,6.3,0,9.3-1
				c0.6-0.2,1.2-0.4,1.7-0.8c0.6-0.5,1-1.1,1.3-1.8c1.8-3.5,2.2-7.5,2.2-11.5C46.5,28.3,46.3,25.4,46.1,22.5z M34.7,38.3
				c-1.5,1.2-3.4,1.8-5.4,1.8c-1.5,0-3.1,0.2-4.4-0.5c-0.7-0.4-1.3-0.8-1.7-1.1c-0.2-0.1-0.7-0.6-0.8-0.7c-2.1-1.3-2.7-4.5-2.6-6.6
				c0-1.2,0.5-2.2,0.8-3c0.4-1,1-2.4,2.1-3.5c1.3-1.3,3-2.1,5-2.2c0.8-0.1,1.6,0,2.4,0.1c1.8,0.3,3.4,0.9,4.7,1.9
				c1.6,1.2,2.7,2.9,3.1,4.8C38.6,32.5,37.3,36.3,34.7,38.3z M40.7,22.5c-1,1.5-3.5,0.6-4.2-0.7c-0.4-0.8-0.2-1.9,0.5-2.4
				c1-0.6,2.3-0.5,3.1,0.2c0.4,0.3,0.6,0.7,0.8,1.2C41.1,21.4,41.1,22,40.7,22.5z"/>
		</g>
	</g>
</g>
</svg>
