<?xml version="1.0" encoding="utf-8"?>
<!-- Generator: Adobe Illustrator 24.0.2, SVG Export Plug-In . SVG Version: 6.00 Build 0)  -->
<svg version="1.1" id="레이어_1" xmlns="http://www.w3.org/2000/svg" xmlns:xlink="http://www.w3.org/1999/xlink" x="0px"
	 y="0px" viewBox="0 0 60 60" style="enable-background:new 0 0 60 60;" xml:space="preserve">
<style type="text/css">
	.st0{fill:#EAE6E3;}
</style>
<g>
	<g>
		<path class="st0" d="M36.3,1c-8.1-2.3-17.5-0.6-24.8,3.9C8,7,4.9,9.9,3.1,13.8c-1.1,2.3-1.6,4.9-2,7.4C0.3,25.5-0.3,30,0.2,34.4
			c0.9,7.5,5.2,14.4,11,18.7s12.9,6.5,20,6.9c1.8,0.1,3.7,0.1,5.5-0.3c4.3-0.9,8-3.7,11.5-6.4c2-1.5,4-3,5.6-4.9
			c4.4-5,6-12,6.1-18.8c0.1-3.9-0.4-7.8-1.8-11.4c-1.9-4.6-5.4-8.2-9.3-10.9S40.6,2.8,36.3,1"/>
	</g>
	<path d="M44.7,27.4c-3.9-0.2-7.8-0.3-11.7-0.3c-0.1-3.9-0.3-7.8-0.6-11.7c-0.1-1.5-1.2-2.7-2.7-2.7c-1.4,0-2.8,1.2-2.7,2.7
		c0.3,3.9,0.5,7.8,0.6,11.7c-4.1,0.1-8.2,0.3-12.2,0.6c-1.5,0.1-2.7,1.2-2.7,2.7c0,1.4,1.2,2.8,2.7,2.7c4.1-0.3,8.2-0.5,12.3-0.6
		c0,4.1-0.1,8.2-0.3,12.2c-0.2,3.5,5.2,3.5,5.4,0c0.2-4.1,0.3-8.2,0.3-12.3c3.9,0,7.8,0.1,11.7,0.3C48.2,33,48.2,27.6,44.7,27.4z"/>
</g>
</svg>
