<?xml version="1.0" encoding="utf-8"?>
<!-- Generator: Adobe Illustrator 24.0.2, SVG Export Plug-In . SVG Version: 6.00 Build 0)  -->
<svg version="1.1" id="레이어_1" xmlns="http://www.w3.org/2000/svg" xmlns:xlink="http://www.w3.org/1999/xlink" x="0px"
	 y="0px" viewBox="0 0 60 60" style="enable-background:new 0 0 60 60;" xml:space="preserve">
<style type="text/css">
	.st0{fill:#FAF7F5;}
	.st1{fill:#EB904C;}
</style>
<g>
	<g>
		<path class="st0" d="M36.3,1c-8.1-2.3-17.5-0.6-24.8,3.9C8,7,4.9,9.9,3.1,13.8c-1.1,2.3-1.6,4.9-2,7.4C0.3,25.5-0.3,30,0.2,34.4
			c0.9,7.5,5.2,14.4,11,18.7s12.9,6.5,20,6.9c1.8,0.1,3.7,0.1,5.5-0.3c4.3-0.9,8-3.7,11.5-6.4c2-1.5,4-3,5.6-4.9
			c4.4-5,6-12,6.1-18.8c0.1-3.9-0.4-7.8-1.8-11.4c-1.9-4.6-5.4-8.2-9.3-10.9S40.6,2.8,36.3,1"/>
	</g>
	<g>
		<g>
			<g>
				<path class="st1" d="M13.8,31.2c0,2.3,0.1,4.6,0.3,6.8c0.1,1.2,0.3,2.5,0.5,3.7c0.2,1.2,0.4,2.4,1.5,3.2c0.9,0.7,2,0.9,3.1,0.9
					c1.1,0,2.3,0,3.4,0c2.3,0,4.6-0.1,6.8-0.1c1.2,0,2.3-1,2.3-2.3c-0.1-1.2-1-2.3-2.3-2.3c-2,0-4,0-6.1,0.1c-1,0-1.9,0-2.9,0
					c-0.5,0-1,0-1.5,0c-0.1,0-0.6,0-0.3,0c0.3,0-0.4-0.2-0.1,0c0.1,0,0.2,0.1,0.3,0.2c0.1,0.2,0.2,0.3,0.3,0.5c0,0-0.1-0.7-0.1-0.7
					c-0.1-0.5-0.2-0.9-0.2-1.4c-0.1-0.9-0.2-1.6-0.3-2.7c-0.2-2-0.3-4-0.2-6c0-1.2-1-2.3-2.3-2.3C14.8,29,13.8,30,13.8,31.2
					L13.8,31.2z"/>
			</g>
		</g>
		<g>
			<g>
				<path class="st1" d="M29.1,19.8c0.9-0.4,1.8-0.6,2.7-0.8c0.2,0,0.5-0.1,0.7-0.1c0.8-0.1-0.4,0,0.3,0c0.5-0.1,1-0.1,1.4-0.1
					c1.9-0.1,3.9,0.1,5.8,0.1c0.1,0,0.2,0,0.2,0c-1-1.2-1.4-1.5-1.2-0.8c0,0.2,0.1,0.5,0.1,0.8c0,0.3,0.1,0.5,0.1,0.8
					c0,0.1,0,0.2,0,0.3c0-0.2,0-0.1,0,0.2c0.1,1,0.2,2,0.2,3.1c0.1,2.1,0,4.1,0,6.2c0,1.2,1.1,2.3,2.3,2.3c1.2-0.1,2.2-1,2.3-2.3
					c0.1-2.4,0.1-4.8,0-7.2c-0.1-1.2-0.2-2.4-0.4-3.7c-0.2-1.4-0.4-2.9-1.8-3.6c-1.1-0.6-2.6-0.4-3.8-0.5c-1.1,0-2.2-0.1-3.3,0
					c-2.3,0.1-4.7,0.4-6.9,1.3c-1.1,0.4-2,1.5-1.6,2.8C26.7,19.3,27.9,20.2,29.1,19.8L29.1,19.8z"/>
			</g>
		</g>
		<g>
			<g>
				<path class="st1" d="M19.9,44.3c4.1-4.3,8.3-8.6,12.4-12.9c3.8-4,7.7-8,10.5-12.7c1.5-2.5-2.4-4.8-3.9-2.3
					c-2.7,4.6-6.5,8.4-10.2,12.2c-4,4.2-8,8.4-12.1,12.6C14.7,43.2,17.9,46.4,19.9,44.3L19.9,44.3z"/>
			</g>
		</g>
	</g>
</g>
</svg>
