<?xml version="1.0" encoding="utf-8"?>
<!-- Generator: Adobe Illustrator 24.0.2, SVG Export Plug-In . SVG Version: 6.00 Build 0)  -->
<svg version="1.1" id="레이어_1" xmlns="http://www.w3.org/2000/svg" xmlns:xlink="http://www.w3.org/1999/xlink" x="0px"
	 y="0px" viewBox="0 0 60 60" style="enable-background:new 0 0 60 60;" xml:space="preserve">
<style type="text/css">
	.st0{fill:#EAE6E3;}
	.st1{fill:#010101;}
</style>
<g>
	<g>
		<path class="st0" d="M36.3,1c-8.1-2.3-17.5-0.6-24.8,3.9C8,7,4.9,9.9,3.1,13.8c-1.1,2.3-1.6,4.9-2,7.4C0.3,25.5-0.3,30,0.2,34.4
			c0.9,7.5,5.2,14.4,11,18.7s12.9,6.5,20,6.9c1.8,0.1,3.7,0.1,5.5-0.3c4.3-0.9,8-3.7,11.5-6.4c2-1.5,4-3,5.6-4.9
			c4.4-5,6-12,6.1-18.8c0.1-3.9-0.4-7.8-1.8-11.4c-1.9-4.6-5.4-8.2-9.3-10.9S40.6,2.8,36.3,1"/>
	</g>
	<g>
		<path class="st1" d="M46.9,23.3c-0.3-1.5-0.7-3.1-2-3.9c-0.6-0.3-1.2-0.5-1.9-0.7c-4.1-1-8-1.5-12.5-1.2c-3,0.2-5.9,0-8.9,0.4
			c-3,0.3-6.2,1.6-7.6,4.2c-0.4,0.8-0.7,1.7-0.9,2.6c-0.6,2.7-0.7,5.2-0.3,7.9c0.2,1.7,0.2,2.7,0.4,4.3c0.1,0.5,0.1,1,0.3,1.5
			c0.3,0.7,0.8,1.2,1.3,1.7c2.6,2.1,6.2,2.2,9.5,2.2c3.4,0,6.8,0,10.2,0c2.8,0,5.7,0,8.4-0.7c1-0.3,2.1-0.7,2.8-1.5
			c0.8-0.9,0.9-2.2,1.1-3.3C47.4,32.4,47.6,27.8,46.9,23.3z M36.2,30.4c-3.1,1.8-6.3,3.4-9.5,5.2c-0.3,0.1-0.6,0-0.6-0.3
			c0-1.6-0.2-3.1-0.4-4.7c-0.2-2-0.1-3.9,0.3-5.8c0-0.2,0.1-0.2,0.2-0.3c0.1,0,0.2-0.1,0.3,0c3,2,6.5,3.3,9.6,5.3
			C36.5,29.9,36.5,30.3,36.2,30.4z"/>
	</g>
</g>
</svg>
