<?xml version="1.0" encoding="utf-8"?>
<!-- Generator: Adobe Illustrator 24.0.2, SVG Export Plug-In . SVG Version: 6.00 Build 0)  -->
<svg version="1.1" id="레이어_1" xmlns="http://www.w3.org/2000/svg" xmlns:xlink="http://www.w3.org/1999/xlink" x="0px"
	 y="0px" viewBox="0 0 40 40" style="enable-background:new 0 0 40 40;" xml:space="preserve">
<style type="text/css">
	.st0{fill:#ECECEC;}
</style>
<g>
	<circle class="st0" cx="20" cy="20" r="20"/>
	<g>
		<g>
			<path d="M24,13.1h-8c-1.6,0-2.9,1.3-2.9,2.9v8c0,1.6,1.3,2.9,2.9,2.9h8c1.6,0,2.9-1.3,2.9-2.9v-8C26.9,14.4,25.6,13.1,24,13.1z
				 M20,24.3c-2.4,0-4.3-1.9-4.3-4.3c0-2.4,1.9-4.3,4.3-4.3c2.4,0,4.3,1.9,4.3,4.3C24.3,22.4,22.4,24.3,20,24.3z M24.4,16.5
				c-0.5,0-1-0.4-1-1c0-0.5,0.4-1,1-1c0.5,0,1,0.4,1,1C25.4,16.1,25,16.5,24.4,16.5z"/>
			<ellipse transform="matrix(0.9912 -0.1327 0.1327 0.9912 -2.4777 2.8316)" cx="20" cy="20" rx="2.9" ry="2.9"/>
		</g>
	</g>
</g>
</svg>
