<?xml version="1.0" encoding="utf-8"?>
<!-- Generator: Adobe Illustrator 24.0.2, SVG Export Plug-In . SVG Version: 6.00 Build 0)  -->
<svg version="1.1" id="레이어_1" xmlns="http://www.w3.org/2000/svg" xmlns:xlink="http://www.w3.org/1999/xlink" x="0px"
	 y="0px" viewBox="0 0 40 40" style="enable-background:new 0 0 40 40;" xml:space="preserve">
<style type="text/css">
	.st0{fill:#ECECEC;}
</style>
<g>
	<circle class="st0" cx="20" cy="20" r="20"/>
	<path d="M28,15.3c-0.3,0.5-0.7,0.9-1.1,1.3c-0.5,0.4-0.4,0.7-0.4,1.3c-0.1,0.9-0.2,1.7-0.5,2.5c-0.5,1.6-1.5,3-2.8,4.1
		C20,27,15.3,27.1,12,25c2.5,0.1,3.6-0.4,4.9-1.4c-1.3-0.2-2.4-0.5-3.1-2.3c0.6,0.2,1.1,0.1,1.4,0c-1.2-0.4-2.6-1-2.6-3.2
		c0.5,0.3,1.2,0.4,1.5,0.4c-1.6-1.1-1.7-3-1-4.4c1,1.5,4.8,3.7,6.6,3.3c-0.2-1.6,0.6-3.1,2.2-3.7c0.9-0.3,1.7-0.3,2.6,0.1
		c0.3,0.1,0.7,0.3,0.9,0.6c0,0,0.1,0.1,0.1,0.1c0,0,0.1,0,0.1,0c0.6-0.2,1.5-0.6,1.8-0.7c0.1-0.1-0.5,1.4-1.4,1.8
		c0.4-0.1,1.3-0.4,1.7-0.5c0.1,0,0.2-0.1,0.2,0C28,15.1,28,15.2,28,15.3z"/>
</g>
</svg>
