<?xml version="1.0" encoding="utf-8"?>
<!-- Generator: Adobe Illustrator 24.0.2, SVG Export Plug-In . SVG Version: 6.00 Build 0)  -->
<svg version="1.1" id="레이어_1" xmlns="http://www.w3.org/2000/svg" xmlns:xlink="http://www.w3.org/1999/xlink" x="0px"
	 y="0px" viewBox="0 0 40 40" style="enable-background:new 0 0 40 40;" xml:space="preserve">
<style type="text/css">
	.st0{fill:#ECECEC;}
</style>
<g>
	<circle class="st0" cx="20" cy="20" r="20"/>
	<path d="M28.1,15.9c-0.2-0.7-0.8-1.3-1.5-1.5c-1.3-0.4-6.6-0.4-6.6-0.4s-5.3,0-6.6,0.4c-0.7,0.2-1.3,0.8-1.5,1.5
		c-0.4,1.3-0.4,4.1-0.4,4.1s0,2.7,0.4,4.1c0.2,0.7,0.8,1.3,1.5,1.5c1.3,0.4,6.6,0.4,6.6,0.4s5.3,0,6.6-0.4c0.7-0.2,1.3-0.8,1.5-1.5
		c0.4-1.3,0.4-4.1,0.4-4.1S28.4,17.3,28.1,15.9L28.1,15.9z M18.3,22.5v-5l4.4,2.5L18.3,22.5L18.3,22.5z"/>
</g>
</svg>
