<?xml version="1.0" encoding="utf-8"?>
<!-- Generator: Adobe Illustrator 24.0.2, SVG Export Plug-In . SVG Version: 6.00 Build 0)  -->
<svg version="1.1" id="레이어_1" xmlns="http://www.w3.org/2000/svg" xmlns:xlink="http://www.w3.org/1999/xlink" x="0px"
	 y="0px" viewBox="0 0 9 9" style="enable-background:new 0 0 9 9;" xml:space="preserve">
<style type="text/css">
	.st0{fill:#FFFFFF;}
</style>
<path class="st0" d="M8.4,0.1C8.3,0,8.1,0,8,0H2C1.4,0,1,0.4,1,1s0.4,1,1,1h3.6L0.3,7.3c-0.4,0.4-0.4,1,0,1.4C0.5,8.9,0.7,9,1,9
	s0.5-0.1,0.7-0.3L7,3.4V7c0,0.6,0.4,1,1,1s1-0.4,1-1V1c0-0.1,0-0.3-0.1-0.4C8.8,0.4,8.6,0.2,8.4,0.1z"/>
</svg>
