<?xml version="1.0" encoding="utf-8"?>
<!-- Generator: Adobe Illustrator 24.0.2, SVG Export Plug-In . SVG Version: 6.00 Build 0)  -->
<svg version="1.1" id="레이어_1" xmlns="http://www.w3.org/2000/svg" xmlns:xlink="http://www.w3.org/1999/xlink" x="0px"
	 y="0px" viewBox="0 0 51 51" style="enable-background:new 0 0 51 51;" xml:space="preserve">
<style type="text/css">
	.st0{fill:none;stroke:#000000;stroke-linecap:round;stroke-linejoin:round;stroke-miterlimit:10;}
</style>
<g>
	<circle class="st0" cx="25.5" cy="25.5" r="25"/>
	<g>
		<g>
			<g>
				<path d="M30.7,16.5H20.3c-2.1,0-3.8,1.7-3.8,3.8v10.4c0,2.1,1.7,3.8,3.8,3.8h10.4c2.1,0,3.8-1.7,3.8-3.8V20.3
					C34.5,18.2,32.8,16.5,30.7,16.5z M25.5,31.1c-3.1,0-5.6-2.5-5.6-5.6c0-3.1,2.5-5.6,5.6-5.6c3.1,0,5.6,2.5,5.6,5.6
					C31.1,28.6,28.6,31.1,25.5,31.1z M31.3,21c-0.7,0-1.3-0.6-1.3-1.3c0-0.7,0.6-1.3,1.3-1.3c0.7,0,1.3,0.6,1.3,1.3
					C32.5,20.4,32,21,31.3,21z"/>
				<ellipse transform="matrix(0.9912 -0.1327 0.1327 0.9912 -3.1591 3.6103)" cx="25.5" cy="25.5" rx="3.7" ry="3.7"/>
			</g>
		</g>
	</g>
</g>
</svg>
