<?xml version="1.0" encoding="utf-8"?>
<!-- Generator: Adobe Illustrator 24.0.2, SVG Export Plug-In . SVG Version: 6.00 Build 0)  -->
<svg version="1.1" id="레이어_1" xmlns="http://www.w3.org/2000/svg" xmlns:xlink="http://www.w3.org/1999/xlink" x="0px"
	 y="0px" viewBox="0 0 9 9" style="enable-background:new 0 0 9 9;" xml:space="preserve">
<style type="text/css">
	.st0{fill:#FFFFFF;}
</style>
<path class="st0" d="M0.6,8.9C0.7,9,0.9,9,1,9h6c0.6,0,1-0.4,1-1S7.6,7,7,7H3.4l5.3-5.3c0.4-0.4,0.4-1,0-1.4C8.5,0.1,8.3,0,8,0
	S7.5,0.1,7.3,0.3L2,5.6V2c0-0.6-0.4-1-1-1S0,1.4,0,2v6c0,0.1,0,0.3,0.1,0.4C0.2,8.6,0.4,8.8,0.6,8.9z"/>
</svg>
