<?xml version="1.0" encoding="utf-8"?>
<!-- Generator: Adobe Illustrator 24.0.2, SVG Export Plug-In . SVG Version: 6.00 Build 0)  -->
<svg version="1.1" id="레이어_1" xmlns="http://www.w3.org/2000/svg" xmlns:xlink="http://www.w3.org/1999/xlink" x="0px"
	 y="0px" viewBox="0 0 51 51" style="enable-background:new 0 0 51 51;" xml:space="preserve">
<style type="text/css">
	.st0{fill:none;stroke:#FFFFFF;stroke-linecap:round;stroke-linejoin:round;stroke-miterlimit:10;}
	.st1{fill:#FFFFFF;}
</style>
<g>
	<circle class="st0" cx="25.5" cy="25.5" r="25"/>
	<path class="st1" d="M36.5,20c-0.3-1-1-1.8-2-2c-1.8-0.5-8.9-0.5-8.9-0.5s-7.1,0-8.9,0.5c-1,0.3-1.8,1-2,2
		c-0.5,1.8-0.5,5.5-0.5,5.5s0,3.7,0.5,5.5c0.3,1,1,1.8,2,2c1.8,0.5,8.9,0.5,8.9,0.5s7.1,0,8.9-0.5c1-0.3,1.8-1,2-2
		c0.5-1.8,0.5-5.5,0.5-5.5S36.9,21.8,36.5,20L36.5,20z M23.2,28.9v-6.9l5.9,3.4L23.2,28.9L23.2,28.9z"/>
</g>
</svg>
