<svg xmlns="http://www.w3.org/2000/svg" width="80" height="80" viewBox="0 0 80 80">
    <g transform="translate(-283 -4097)">
        <rect data-name="1" width="80" height="80" rx="20" transform="translate(283 4097)" style="fill:#ee7264"/>
        <g data-name="Layer 2">
            <path data-name="패스 248" d="M26.632 34A24.668 24.668 0 0 1 2 9.36 7.359 7.359 0 0 1 9.358 2a6.3 6.3 0 0 1 1.232.112 6.06 6.06 0 0 1 1.152.288 1.6 1.6 0 0 1 1.04 1.2l2.191 9.6a1.6 1.6 0 0 1-.416 1.472c-.208.224-.224.24-2.191 1.264a15.853 15.853 0 0 0 7.789 7.824c1.04-1.984 1.056-2 1.28-2.208a1.6 1.6 0 0 1 1.472-.416l9.6 2.192a1.6 1.6 0 0 1 1.152 1.04 6.946 6.946 0 0 1 .3 1.168 7.634 7.634 0 0 1 .1 1.216A7.359 7.359 0 0 1 26.632 34z" transform="translate(305 4119)" style="fill:#fff"/>
        </g>
    </g>
</svg>
