<?xml version="1.0" encoding="utf-8"?>
<!-- Generator: Adobe Illustrator 24.1.1, SVG Export Plug-In . SVG Version: 6.00 Build 0)  -->
<svg version="1.1" id="Layer_1" xmlns="http://www.w3.org/2000/svg" xmlns:xlink="http://www.w3.org/1999/xlink" x="0px" y="0px"
	 viewBox="0 0 80 80" style="enable-background:new 0 0 80 80;" xml:space="preserve">
<style type="text/css">
	.st0{fill:#EE7264;}
	.st1{fill:#FFFFFF;}
</style>
<g>
	<path class="st0" d="M20,0h40c11,0,20,9,20,20v40c0,11-9,20-20,20H20C9,80,0,71,0,60V20C0,9,9,0,20,0z"/>
	<path class="st1" d="M31.2,48.8v3.5h-3.5v-3.5H31.2z M31.2,27.7v3.5h-3.5v-3.5H31.2z M52.3,27.7v3.5h-3.5v-3.5H52.3z M24.2,55.8
		h10.5V45.2H24.2V55.8z M24.2,34.8h10.5V24.2H24.2V34.8z M45.2,34.8h10.5V24.2H45.2V34.8z M38.3,41.7v17.6H20.7V41.7H38.3z
		 M52.3,55.8v3.5h-3.5v-3.5H52.3z M59.3,55.8v3.5h-3.5v-3.5H59.3z M59.3,41.7v10.5H48.8v-3.5h-3.5v10.5h-3.5V41.7h10.5v3.5h3.5v-3.5
		H59.3z M38.3,20.7v17.6H20.7V20.7H38.3z M59.3,20.7v17.6H41.7V20.7H59.3z"/>
</g>
</svg>
