<svg xmlns="http://www.w3.org/2000/svg" width="38" height="39" viewBox="0 0 38 39">
    <g data-name="그룹 36">
        <path data-name="패스 39" d="M442.59 250.085a9.946 9.946 0 0 1-3.374-8.774c0-.039.013-.077.018-.115-.06 0-.119.012-.179.014a10.249 10.249 0 0 1-8.172-3.569 7.93 7.93 0 0 1-1.005-8.456 9.328 9.328 0 0 1 4.513-4.028 11.557 11.557 0 0 1 2.728-.834 10.568 10.568 0 0 1-.309-3.085 9.655 9.655 0 0 1 4.342-7.571 8.733 8.733 0 0 1 8.82-.292 9.172 9.172 0 0 1 3.8 4.661 10.573 10.573 0 0 1 .338 1.047 11.842 11.842 0 0 1 1.822-.942c2.981-1.205 6.516-1.1 8.677.432a5.973 5.973 0 0 1 2.424 4.284 9.443 9.443 0 0 1-4.256 8.472q-.294.205-.6.39a11.065 11.065 0 0 1 2.268 2.177c2.45 3.176 2.8 8.064-.045 10.919-2.5 2.507-6.795 2.711-9.977 1.06a12.812 12.812 0 0 1-3.289 3.869 7.287 7.287 0 0 1-8.544.341z" transform="translate(-429.082 -212.318)" style="fill:#ee7264"/>
        <path data-name="패스 40" d="M446.126 226.77a4.837 4.837 0 0 0-3.574 3.2 6.946 6.946 0 0 0 .613 5.6 5.02 5.02 0 0 0 5.627 2.243 6.3 6.3 0 0 0 4.165-4.01s1.767-8.953-6.831-7.033z" transform="translate(-428.42 -212.346)" style="fill:#ffe600"/>
    </g>
</svg>
