<svg xmlns="http://www.w3.org/2000/svg" width="612.52" height="568.769" viewBox="0 0 612.52 568.769">
    <g data-name="그룹 93">
        <g data-name="그룹 92">
            <path data-name="패스 131" d="M59.248 393.014c3.062 12.635 6.836 25.15 12.3 36.97 5.268 11.392 12.237 21.516 18.846 32.116a.994.994 0 0 1-1.559 1.192C71.752 445.09 61.06 417.864 57.771 393.4c-.127-.943 1.238-1.376 1.477-.39z" style="fill:#90d3c7" transform="rotate(-30 222.49 334.236)"/>
        </g>
        <path data-name="패스 132" d="M68.973 429.117a1.087 1.087 0 0 1-.487 1.235c-1.417.857-5.366 2.616-11.367.384-5.683-2.114-7.71-5.425-8.376-6.982a1.09 1.09 0 0 1 .49-1.391c1.471-.786 5.092-1.915 11.6.631 6.236 2.44 7.776 4.884 8.14 6.123z" style="fill:#90d3c7" transform="rotate(-30 222.49 334.236)"/>
        <path data-name="패스 133" d="M71.276 429.985a1.088 1.088 0 0 1-1.177-.615c-.7-1.5-2.034-5.613.82-11.344 2.7-5.427 6.21-7.093 7.829-7.591a1.09 1.09 0 0 1 1.331.634c.626 1.546 1.366 5.266-1.854 11.468-3.086 5.944-5.679 7.217-6.949 7.448z" style="fill:#90d3c7" transform="rotate(-30 222.49 334.236)"/>
        <path data-name="패스 134" d="M76.642 445.362a1.089 1.089 0 0 1-.6 1.183c-1.493.716-5.592 2.088-11.351-.711-5.453-2.651-7.153-6.142-7.666-7.755a1.089 1.089 0 0 1 .622-1.337c1.539-.641 5.252-1.417 11.485 1.743 5.968 3.028 7.268 5.609 7.51 6.877z" style="fill:#90d3c7" transform="rotate(-30 222.49 334.236)"/>
        <path data-name="패스 135" d="M78.85 446.448a1.089 1.089 0 0 1-1.112-.726c-.554-1.56-1.484-5.782 1.908-11.212 3.212-5.142 6.863-6.464 8.522-6.8a1.089 1.089 0 0 1 1.264.759c.474 1.6.853 5.373-2.948 11.237-3.643 5.616-6.347 6.634-7.634 6.742z" style="fill:#90d3c7" transform="rotate(-30 222.49 334.236)"/>
        <path data-name="패스 136" d="M72.226 406.622c-7.371 7.087-20.273 10.366-28.62 4.868 0 0-14.063-8.977-8.356-19.356 3.914-7.118 9.526-3.045 9.526-3.045s-4.61-10.6 5.718-14.373c10.307-3.762 14.869 7.353 14.869 7.353s5.7-8.487 11.941-1.64c4.91 5.386 3.891 17.571-5.078 26.193z" style="fill:#f4971c" transform="rotate(-30 222.49 334.236)"/>
        <path data-name="패스 137" d="M63.612 413.233s14.158-3.142 13.556-12.99-17.13 2.028-13.556 12.99z" style="fill:#90d3c7" transform="rotate(-30 222.49 334.236)"/>
        <path data-name="패스 138" d="M64.671 412.51s-11.59 8.717-18.683 1.859 12.676-11.7 18.683-1.859z" style="fill:#90d3c7" transform="rotate(-30 222.49 334.236)"/>
    </g>
    <g data-name="그룹 66">
        <g data-name="그룹 62">
            <path data-name="패스 71" d="M363.827 409.023c.1-.532.883-.352.894.137.04 1.764.085 3.541.111 5.31 1.037-.868 11.015-9.379 14.477-12.571a.316.316 0 0 1 .442.45c-.759.8-5.929 6.027-7.321 7.368 2.266-.3 4.53-.65 6.8-.881.443-.045.425.585.08.714a21.139 21.139 0 0 1-7.9 1.142c-2.521 2.4-5.123 4.74-7.791 6.986a48.25 48.25 0 0 0 2.867.157 27.737 27.737 0 0 1 3.847.028c.389.061.263.568-.012.675-2.18.847-5.139.446-7.449-.236a121.888 121.888 0 0 1-9.981 7.491 2.268 2.268 0 0 0 1.141.689c2.689.663 8.878.446 20.127-8.474 11.737-9.309 13.552-17.235 13.683-20.807a2.365 2.365 0 0 0-2.048-2.409c-3.6-.447-11.924-.262-21.971 7.984-10.609 8.708-11.611 17.921-11.552 21.471 0 .049.01.1.014.144a2.326 2.326 0 0 0 .113.54c3.823-3.28 7.684-6.5 11.541-9.72a15.9 15.9 0 0 1-.112-6.188z" style="fill:#b2ce5b" transform="rotate(-14 -1043.845 -184.55)"/>
        </g>
        <g data-name="그룹 63">
            <path data-name="패스 72" d="M370.041 428.886c.5-.216.784.538.384.819-1.444 1.015-2.895 2.041-4.35 3.047 1.3.379 13.923 3.931 18.5 5.031a.316.316 0 0 1-.128.618c-1.084-.189-8.308-1.572-10.2-1.982 1.507 1.718 3.062 3.4 4.517 5.159.284.343-.25.678-.548.464a21.136 21.136 0 0 1-5.345-5.924 173.86 173.86 0 0 1-10.14-2.585c.471.835.946 1.667 1.466 2.47a27.912 27.912 0 0 1 2.118 3.212c.165.356-.326.534-.568.365-1.917-1.34-3.231-4.02-3.95-6.319a121.782 121.782 0 0 1-11.779-4.123 2.259 2.259 0 0 0 .063 1.332c.946 2.6 4.57 7.624 18.243 12 14.266 4.57 21.861 1.666 24.9-.213a2.364 2.364 0 0 0 .861-3.043c-1.634-3.241-6.419-10.051-18.862-13.808-13.14-3.967-21.351.329-24.268 2.353-.04.028-.074.063-.112.092a2.429 2.429 0 0 0-.385.394c4.852 1.352 9.676 2.767 14.5 4.179a15.9 15.9 0 0 1 5.083-3.538z" style="fill:#b2ce5b" transform="rotate(-14 -1043.845 -184.55)"/>
        </g>
        <path data-name="패스 73" d="M339.74 419.282c-13.314 1.534-23.535 16.754-17.67 28.8s25.122 14.266 33.571 3.863 2.331-28.8-10.666-32.065a10.415 10.415 0 0 0-5.235-.598z" style="fill:#ee7264" transform="rotate(-14 -1043.845 -184.55)"/>
        <g data-name="그룹 65">
            <g data-name="그룹 64">
                <path data-name="패스 74" d="M343.094 429.4s4.889.8 5.018 2.81-5.483.965-5.483.965 1.474 3.661.028 4.443-3.482-4.362-3.482-4.362-1.794 3.935-3.72 2.842 1.992-4.949 1.992-4.949-3.715-1.833-2.518-4.456 4.377.887 4.377.887 2.422-4.648 4.9-2.975-1.112 4.795-1.112 4.795z" style="fill:#f4971c" transform="rotate(-14 -1043.845 -184.55)"/>
            </g>
        </g>
    </g>
    <g data-name="그룹 78">
        <path data-name="패스 91" d="M449.758 102.591a71.837 71.837 0 0 0-67.637-42.906 1.183 1.183 0 0 1-.081-2.364 74.984 74.984 0 0 1 71.316 43.654 1.972 1.972 0 1 1-3.582 1.65z" style="fill:#729f3a" transform="rotate(-83 287.789 250.05)"/>
        <path data-name="패스 92" d="M393.35 60.436s-11.181 12.964-32.51 4.541 30.578-20.084 32.578-6.212" style="fill:#729f3a" transform="rotate(-83 287.789 250.05)"/>
        <path data-name="패스 93" d="M410.487 63.336s2.229 7.567-11.25 14.944c-6.634 3.632-16.2 2.22-17.517.008-.92-1.55 15.165-19.946 28.767-14.952z" style="fill:#729f3a" transform="rotate(-83 287.789 250.05)"/>
        <path data-name="패스 94" d="M409.561 62.4s-10.143-2.631-14.32-12.8-3.367-12.08-1.321-13.064 11.811 3.627 15.995 11.625 4.599 13.95-.354 14.239z" style="fill:#729f3a" transform="rotate(-83 287.789 250.05)"/>
        <path data-name="패스 95" d="M440.509 82.8s-5.974 10.009-22.8 7.419c-.742-.064-7.239-.7-8.59-4.483-1.075-3.012 5.338-4.75 11.346-5.907 8.517-1.638 13.865-.759 20.044 2.971z" style="fill:#729f3a" transform="rotate(-83 287.789 250.05)"/>
        <path data-name="패스 96" d="M440.137 82.926S427.292 73.354 424.3 61.46s-.013-15.66.855-16.152 9.775 1.516 15.608 16.7 2.35 19.318-.626 20.918z" style="fill:#729f3a" transform="rotate(-83 287.789 250.05)"/>
    </g>
    <g data-name="그룹 27">
        <path data-name="패스 19" d="M112.746 247.591s-12.853-.452-12.3-10.147 9.713-5.69 9.713-5.69-6.29-7.426 2.023-12.59 18.525 12.317 18.525 12.317-.092-17.516 10.254-17.284 11.2 8.046 11.2 8.046 15.154 4.53 8.411 14.559c-6.328 9.413-11.893 9.72-11.893 9.72s13.655-.832 15.78 11.208-11.858 13.5-11.858 13.5a12.43 12.43 0 0 1-8.27 12.023c-8.869 3.418-16.411-14.745-16.411-14.745s-5.416 9.806-11.425 9.677a9.246 9.246 0 0 1-8.6-11.531s-10.5 1.512-10.164-8.459 15.015-10.604 15.015-10.604z" style="fill:#f2b696" transform="translate(365.869 184.655)"/>
        <g data-name="그룹 19">
            <path data-name="패스 20" d="M128.966 249.462c-4.21-2.056-7.436-4.92-10.849-8.052-.323-.3-.935.107-.642.495 2.755 3.659 6.96 6.381 11.058 8.3.495.232.931-.5.433-.74z" style="fill:#f7c1a9" transform="translate(365.869 184.655)"/>
        </g>
        <g data-name="그룹 20">
            <path data-name="패스 21" d="M131.837 246.3a16.377 16.377 0 0 0-3.459-4.665 14.984 14.984 0 0 0-4.566-3.657c-.462-.189-.731.466-.451.775 1.231 1.36 2.911 2.362 4.227 3.673s2.357 2.912 3.682 4.2c.223.218.7 0 .567-.33z" style="fill:#f7c1a9" transform="translate(365.869 184.655)"/>
        </g>
        <g data-name="그룹 21">
            <path data-name="패스 22" d="M133.686 245.235a19.409 19.409 0 0 0 3.826-4.3 17.369 17.369 0 0 0 2.8-5.037.411.411 0 0 0-.724-.365c-1.1 1.516-1.921 3.233-2.98 4.785s-2.407 2.893-3.458 4.442c-.242.358.218.716.541.479z" style="fill:#f7c1a9" transform="translate(365.869 184.655)"/>
        </g>
        <g data-name="그룹 22">
            <path data-name="패스 23" d="M133.982 247.684a19.76 19.76 0 0 0 12.07-9.629c.229-.465-.467-.711-.751-.378a40.717 40.717 0 0 1-5.124 5.483 36.837 36.837 0 0 1-6.417 3.878c-.335.177-.169.743.222.646z" style="fill:#f7c1a9" transform="translate(365.869 184.655)"/>
        </g>
        <g data-name="그룹 23">
            <path data-name="패스 24" d="M133.059 254.382a16.046 16.046 0 0 0 6.207 9.437c.339.235.678-.267.423-.548a34.431 34.431 0 0 1-3.67-4.426 37.2 37.2 0 0 1-2.277-4.752c-.187-.409-.755-.1-.683.289z" style="fill:#f7c1a9" transform="translate(365.869 184.655)"/>
        </g>
        <g data-name="그룹 24">
            <path data-name="패스 25" d="M135.823 252.237a25.023 25.023 0 0 1 7.365 2.129 24.107 24.107 0 0 1 5.957 4.835c.4.407 1.14-.129.806-.622-2.88-4.255-8.837-7.444-14.017-7.164-.445.024-.6.73-.111.822z" style="fill:#f7c1a9" transform="translate(365.869 184.655)"/>
        </g>
        <g data-name="그룹 25">
            <path data-name="패스 26" d="M128.419 254.51c-.851 1.315-1.566 2.658-2.547 3.892-.9 1.126-1.916 2.126-2.883 3.187-.2.225.061.619.339.439a15.838 15.838 0 0 0 5.82-7.211c.166-.44-.494-.67-.729-.307z" style="fill:#f7c1a9" transform="translate(365.869 184.655)"/>
        </g>
        <g data-name="그룹 26">
            <path data-name="패스 27" d="M126.848 251.521a38.72 38.72 0 0 0-6.452 3.516.309.309 0 0 0 .312.534 38.556 38.556 0 0 0 6.389-3.458c.281-.192.111-.743-.249-.592z" style="fill:#f7c1a9" transform="translate(365.869 184.655)"/>
        </g>
        <path data-name="패스 28" d="M138.867 248.825c1.017 3.953-.635 7.114-4.588 8.131s-7.752-.467-8.769-4.421a7.064 7.064 0 0 1 5.415-8.617c3.953-1.018 6.925.953 7.942 4.907z" style="fill:#ffe600" transform="translate(365.869 184.655)"/>
    </g>
    <g data-name="그룹 72">
        <g data-name="그룹 67">
            <path data-name="패스 75" d="M261.2 239.854c-.081-.509.683-.6.847-.16.593 1.573 1.194 3.155 1.777 4.736.658-1.107 6.934-11.906 9.037-15.869a.3.3 0 0 1 .539.265c-.431.955-3.424 7.289-4.251 8.933 1.943-.982 3.866-2.015 5.832-2.94.384-.18.566.392.3.616a20.137 20.137 0 0 1-6.734 3.522 166.21 166.21 0 0 1-4.794 8.738 45.616 45.616 0 0 0 2.626-.765 26.5 26.5 0 0 1 3.465-1.19c.369-.068.416.427.2.61-1.692 1.45-4.477 2.024-6.768 2.142a116.029 116.029 0 0 1-6.6 9.884 2.168 2.168 0 0 0 1.244.258c2.625-.254 8.117-2.4 15.406-13.973 7.606-12.072 6.733-19.767 5.722-23.019a2.251 2.251 0 0 0-2.6-1.517c-3.378.737-10.8 3.532-17.219 14.115-6.782 11.177-4.771 19.771-3.6 22.942.017.044.04.083.059.125a2.289 2.289 0 0 0 .271.45c2.4-4.155 4.852-8.267 7.3-12.38a15.156 15.156 0 0 1-2.059-5.523z" style="fill:#b2ce5b" transform="rotate(16 930.47 -188.486)"/>
        </g>
        <g data-name="그룹 68">
            <path data-name="패스 76" d="M224.964 267.945c-.4.324-.856-.3-.56-.655 1.069-1.3 2.142-2.606 3.223-3.9-1.288-.02-13.778-.088-18.262.06a.3.3 0 0 1-.038-.6c1.043-.1 8.026-.659 9.864-.76-1.819-1.2-3.672-2.349-5.453-3.6-.347-.243.058-.685.386-.564a20.115 20.115 0 0 1 6.406 4.088c3.309-.16 6.644-.232 9.965-.191a45.846 45.846 0 0 0-1.97-1.9 26.355 26.355 0 0 1-2.757-2.413c-.243-.285.163-.573.428-.479 2.1.745 3.984 2.875 5.226 4.8a115.992 115.992 0 0 1 11.859.806 2.158 2.158 0 0 0-.4-1.207c-1.527-2.15-6.125-5.844-19.787-6.408-14.256-.588-20.5 4-22.813 6.494a2.253 2.253 0 0 0-.022 3.012c2.321 2.562 8.437 7.606 20.814 7.909 13.069.32 19.522-5.7 21.689-8.3.029-.036.052-.075.079-.113a2.22 2.22 0 0 0 .254-.459c-4.8-.013-9.585-.093-14.371-.17a15.136 15.136 0 0 1-3.76 4.55z" style="fill:#b2ce5b" transform="rotate(16 930.47 -188.486)"/>
        </g>
        <g data-name="그룹 71">
            <path data-name="패스 77" d="M254.671 247.29c12.679 1.469 22.406 15.972 16.812 27.445s-23.936 13.573-31.977 3.66-2.2-27.428 10.178-30.535a9.93 9.93 0 0 1 4.987-.57z" style="fill:#ffe600" transform="rotate(16 930.47 -188.486)"/>
            <g data-name="그룹 70">
                <g data-name="그룹 69">
                    <path data-name="패스 78" d="M251.565 260.547s.609 4.679 2.521 4.862 1.088-5.19 1.088-5.19 3.439 1.516 4.228.164-4.045-3.449-4.045-3.449 3.8-1.587 2.819-3.454-4.773 1.745-4.773 1.745-1.631-3.593-4.164-2.535.71 4.2.71 4.2-4.5 2.163-2.982 4.576 4.598-.919 4.598-.919z" style="fill:#2d3a56" transform="rotate(16 930.47 -188.486)"/>
                </g>
            </g>
        </g>
    </g>
    <g data-name="그룹 37">
        <g data-name="그룹 36">
            <path data-name="패스 39" d="M442.128 250.137a10.156 10.156 0 0 1-3.259-8.786c0-.039.013-.077.017-.115-.058 0-.115.012-.173.014a9.744 9.744 0 0 1-7.892-3.574 8.179 8.179 0 0 1-.971-8.468 9.128 9.128 0 0 1 4.359-4.034 10.87 10.87 0 0 1 2.635-.835 10.956 10.956 0 0 1-.3-3.089 9.746 9.746 0 0 1 4.193-7.581 8.177 8.177 0 0 1 8.518-.292 9.123 9.123 0 0 1 3.673 4.667 10.863 10.863 0 0 1 .326 1.048 11.3 11.3 0 0 1 1.76-.943c2.879-1.207 6.293-1.1 8.38.433a6.036 6.036 0 0 1 2.341 4.29 9.577 9.577 0 0 1-4.11 8.484q-.284.205-.582.391a10.867 10.867 0 0 1 2.19 2.18c2.366 3.18 2.7 8.075-.043 10.934-2.411 2.51-6.562 2.715-9.636 1.061a12.729 12.729 0 0 1-3.176 3.874 6.837 6.837 0 0 1-8.25.341z" style="fill:#ee7264" transform="translate(4.234 249.519)"/>
            <path data-name="패스 40" d="M446.126 226.77a4.837 4.837 0 0 0-3.574 3.2 6.946 6.946 0 0 0 .613 5.6 5.02 5.02 0 0 0 5.627 2.243 6.3 6.3 0 0 0 4.165-4.01s1.767-8.953-6.831-7.033z" style="fill:#ffe600" transform="translate(4.234 249.519)"/>
        </g>
    </g>
    <g data-name="그룹 91">
        <g data-name="그룹 89">
            <path data-name="패스 123" d="M318.386 213.564c1.354 12.93 2 25.986.813 38.954-1.14 12.5-4.31 24.372-6.978 36.58a1 1 0 0 0 1.869.6c9.985-22.881 10.925-52.116 5.818-76.262-.2-.931-1.628-.881-1.522.128z" style="fill:#90d3c7" transform="rotate(21 118.397 871.683)"/>
        </g>
        <g data-name="그룹 90">
            <path data-name="패스 124" d="M322.771 241.039c2.327-1.6 5.884-5.545 8.421-8.545 2.557-3.023 5.778-6.013 7.157-9.769a1.085 1.085 0 0 0-1.574-1.353c-3.656 2.192-6.152 6.254-8.8 9.532-2.382 2.949-5.212 5.728-6.34 9.4-.209.678.653.994 1.137.737z" style="fill:#90d3c7" transform="rotate(21 118.397 871.683)"/>
        </g>
        <path data-name="패스 125" d="M321.335 250.838a1.088 1.088 0 0 0 .873 1c1.623.332 5.933.665 10.838-3.451 4.644-3.9 5.443-7.7 5.548-9.387a1.09 1.09 0 0 0-.928-1.146c-1.649-.247-5.439-.1-10.716 4.485-5.056 4.39-5.688 7.209-5.615 8.499z" style="fill:#90d3c7" transform="rotate(21 118.397 871.683)"/>
        <path data-name="패스 126" d="M319.457 252.427a1.086 1.086 0 0 0 .9-.974c.158-1.648.034-5.969-4.578-10.411-4.367-4.206-8.23-4.6-9.921-4.525a1.091 1.091 0 0 0-1.042 1.044c-.071 1.666.48 5.419 5.594 10.182 4.903 4.564 7.773 4.893 9.047 4.684z" style="fill:#90d3c7" transform="rotate(21 118.397 871.683)"/>
        <path data-name="패스 127" d="M318.645 272.361a1.088 1.088 0 0 0 .873 1c1.623.332 5.933.665 10.837-3.451 4.644-3.9 5.444-7.7 5.549-9.387a1.091 1.091 0 0 0-.928-1.146c-1.65-.247-5.44-.1-10.716 4.486-5.06 4.389-5.688 7.208-5.615 8.498z" style="fill:#90d3c7" transform="rotate(21 118.397 871.683)"/>
        <path data-name="패스 128" d="M316.767 273.95a1.088 1.088 0 0 0 .9-.974c.158-1.648.033-5.969-4.578-10.411-4.367-4.206-8.23-4.6-9.922-4.525a1.09 1.09 0 0 0-1.041 1.044c-.071 1.666.48 5.419 5.594 10.182 4.902 4.563 7.772 4.893 9.047 4.684z" style="fill:#90d3c7" transform="rotate(21 118.397 871.683)"/>
        <path data-name="패스 129" d="M337.82 218.033a6.331 6.331 0 0 1-.849 12.608 6.9 6.9 0 0 1-5-2.305c-1.837-2.039-2.424-4.359-.856-6.6s3.768-4.087 6.705-3.703z" style="fill:#f0869e" transform="rotate(21 118.397 871.683)"/>
        <path data-name="패스 130" d="M319.266 209.676a6.665 6.665 0 0 1 5.941 4.244 5.7 5.7 0 0 1-.1 4.321 6.267 6.267 0 0 1-3.947 3.183 7.126 7.126 0 0 1-6.579-1.222c-4.435-3.794-.642-10.654 4.685-10.526z" style="fill:#f0869e" transform="rotate(21 118.397 871.683)"/>
    </g>
    <g data-name="그룹 84">
        <g data-name="그룹 81">
            <path data-name="패스 111" d="M86.787 350.64s-4.63 6.872-9.153 4.582 2.407-8.995 2.407-8.995-7.205-3.509-5.628-7.964 8.635.3 8.635.3-1.883-5.915 3.1-8.412 5.03 7.037 5.03 7.037 5.855-5.268 8.82.017-7.488 6.742-7.488 6.742 5.917 5.476 2.312 8.737-8.035-2.044-8.035-2.044z" style="fill:#93bfd8" transform="rotate(-110 222.576 83.664)"/>
            <path data-name="패스 112" d="M88.2 344.957A3.036 3.036 0 0 0 89.364 343a1.851 1.851 0 0 0-1.047-1.906 1.936 1.936 0 0 0-1.73.256 4.242 4.242 0 0 0-1.207 1.34 3.349 3.349 0 0 0-.655 2.221c.341 2.189 2.496.847 3.475.046z" style="fill:#fff" transform="rotate(-110 222.576 83.664)"/>
        </g>
        <g data-name="그룹 82">
            <path data-name="패스 113" d="M63.44 324.025s-3.863 9.381-9.006 7.22 1.149-10.755 1.149-10.755-10.327 1.674-10.66-4.565 12.854-3.9 12.854-3.9-3.386-10.777 2.825-10.862 5.955 9.917 5.955 9.917 6.957-3.477 8.982.791-4.908 7.092-4.908 7.092 7.1 5.311 2.946 10.223-10.137-5.161-10.137-5.161z" style="fill:#93bfd8" transform="rotate(-110 222.576 83.664)"/>
            <path data-name="패스 114" d="M63.274 318.959c.639-.749 1.321-1.687 1.029-2.627a1.645 1.645 0 0 0-1.729-1.074 1.982 1.982 0 0 0-1.589 1.36 2.5 2.5 0 0 0 .333 2.109 1.571 1.571 0 0 0 .987.735.841.841 0 0 0 .973-.6" style="fill:#fff" transform="rotate(-110 222.576 83.664)"/>
        </g>
        <g data-name="그룹 83">
            <path data-name="패스 115" d="M104.684 321.159s2.377 5.569-2.143 7.161-6.057-7.308-6.057-7.308-6.863 3.538-8.733-.762 6.342-6.422 6.342-6.422-5.6-5.137-2.871-8.7 8.322 3.437 8.322 3.437 4.348-7.056 7.011-4.378-2.868 9.5-2.868 9.5 8.921.885 8.372 5.611-7.375 1.861-7.375 1.861z" style="fill:#93bfd8" transform="rotate(-110 222.576 83.664)"/>
            <path data-name="패스 116" d="M99.96 317.126a2.012 2.012 0 1 0-.083.015" style="fill:#fff" transform="rotate(-110 222.576 83.664)"/>
        </g>
    </g>
    <g data-name="그룹 77">
        <path data-name="패스 85" d="M155.494 363.426c.666.579 2.442.079 4.628-2.875l14.9-16.1c8.641 8.174 21.734 9.963 32.533 4.965a1.6 1.6 0 0 0-1.341-2.9 27.252 27.252 0 0 1-26.846-2.672 28.706 28.706 0 0 0 6.567-1.112 54.423 54.423 0 0 0 11.154-4.4 235.479 235.479 0 0 1 3.287-1.583 1.6 1.6 0 1 0-1.355-2.888c-1.221.573-2.311 1.105-3.333 1.6-3.578 1.747-6.249 2.389-10.659 3.561-4.848 1.288-6.9 1.714-7.37 1.424l4.732-5.422a123.639 123.639 0 0 1 10.337-10.912 1.6 1.6 0 1 0-2.128-2.377c-3.861 3.456-6.506 5.534-9.826 9.337 0 0-4.872 6.11-4.908 5.927a22.7 22.7 0 0 1 .8-10.833 62.243 62.243 0 0 1 4.524-10.493 1.6 1.6 0 0 0-2.84-1.457 64.971 64.971 0 0 0-4.743 11.041 26.547 26.547 0 0 0-1.057 11.234 27.254 27.254 0 0 1-2.257-23.972 1.6 1.6 0 1 0-2.965-1.179c-4 10.06-2.687 21.077 4.233 29.323L157.2 359.045c-1.682 2.131-2.37 3.801-1.706 4.381z" style="fill:#b2ce5b" transform="rotate(45.97 92.809 710.838)"/>
        <path data-name="패스 86" d="M213.22 344.49a5.578 5.578 0 0 1-9.184 6.3 6.073 6.073 0 0 1-1.138-4.72c.407-2.384 1.692-4.056 4.1-4.2s4.884.379 6.222 2.62z" style="fill:#ee7264" transform="rotate(45.97 92.809 710.838)"/>
        <path data-name="패스 87" d="M206.86 330.857a5.875 5.875 0 0 1 .308 6.427 5.02 5.02 0 0 1-3.042 2.292 5.521 5.521 0 0 1-4.356-.992 6.279 6.279 0 0 1-2.747-5.219c.201-5.141 7.017-6.265 9.837-2.508z" style="fill:#ee7264" transform="rotate(45.97 92.809 710.838)"/>
        <path data-name="패스 88" d="M197.381 315.371a5.479 5.479 0 0 0-5.949.226 6.278 6.278 0 0 0-2.514 5.493 4.294 4.294 0 0 0 4.672 4.33 7.843 7.843 0 0 0 6.251-3.679c1.07-2.047-.709-5.258-2.46-6.37z" style="fill:#ee7264" transform="rotate(45.97 92.809 710.838)"/>
        <path data-name="패스 90" d="M165.165 309.49a3.961 3.961 0 0 0-.482 2.82c.4 1.514 1.933 2.39 3.328 3.1a6.878 6.878 0 0 0 3.376 1.031c3.65-.194 5.642-5.4 3.149-7.962-2.823-2.908-7.372-2.72-9.371 1.011z" style="fill:#ee7264" transform="rotate(45.97 92.809 710.838)"/>
        <path data-name="패스 89" d="M184.74 310.544a4.962 4.962 0 0 0-5.683.049 4.477 4.477 0 0 0-1.284 5.441 5.831 5.831 0 0 0 2.686 2.4c2.119 1.038 5.492 1.036 6.592-1.517.872-2.026-.666-5.227-2.311-6.373z" transform="rotate(45.97 92.809 710.838)" style="fill:#ee7264"/>
    </g>
    <g data-name="그룹 76">
        <g data-name="그룹 74">
            <g data-name="그룹 73">
                <path data-name="패스 79" d="M309.047 105.859s-12.808 7.611-33.809 1.986-12.774-18.956-5.769-17.736c0 0-7.7-13.3 4.837-22.122 8.6-6.048 19.492 1.1 19.492 1.1s1.54-14.495 15.731-14.976 12.193 18.526 12.193 18.526 3.157-3.059 7.323 1.276-4.574 22.494-19.998 31.946z" style="fill:#fff" transform="rotate(8 -379.755 1796.689)"/>
                <path data-name="패스 80" d="M307.76 107.6s-16.365 5.433-21.414 1.93 10.693-4.152 10.693-4.152-8.377-3.318-9.628-6.817 13.771.561 13.771.561-4.911-10.5-3.41-13.848 11.036 9.443 11.036 9.443 4.432-12.958 6.662-11.61c3.284 1.987-.574 12.108-.574 12.108s7.479-7.365 8.7-4.132-6.383 10.225-15.836 16.517z" style="fill:#ee7264" transform="rotate(8 -379.755 1796.689)"/>
            </g>
        </g>
        <path data-name="패스 81" d="M314.679 134.855a1.224 1.224 0 0 0 1.2.89c1.864-.025 6.682-.692 11.086-6.393 4.171-5.4 4.139-9.767 3.849-11.65a1.227 1.227 0 0 0-1.295-1.037c-1.872.124-6 1.2-10.705 7.5-4.507 6.035-4.525 9.29-4.135 10.69z" style="fill:#ee7264" transform="rotate(8 -379.755 1796.689)"/>
        <path data-name="패스 82" d="M314.653 133.485a1.224 1.224 0 0 1-.269 1.47c-1.378 1.254-5.353 4.057-12.463 2.9-6.734-1.094-9.694-4.307-10.769-5.88a1.227 1.227 0 0 1 .238-1.642c1.452-1.189 5.2-3.225 12.941-1.833 7.416 1.335 9.649 3.7 10.322 4.985z" style="fill:#ee7264" transform="rotate(8 -379.755 1796.689)"/>
        <g data-name="그룹 75">
            <path data-name="패스 84" d="M306.909 104.4c2.1 9.936 4.4 19.684 5.727 29.773 1.32 10.05 1.773 19.986 2.5 30.082.066.918 1.365.708 1.5-.075 3.411-19.611.385-42.271-7.625-60.448a1.115 1.115 0 0 0-2.1.668z" style="fill:#ee7264" transform="rotate(8 -379.755 1796.689)"/>
        </g>
    </g>
    <g data-name="그룹 56">
        <path data-name="패스 63" d="M267.532 306.886a18.808 18.808 0 0 0-4.041 6.711 19.187 19.187 0 0 0-4.183-2.123 17.235 17.235 0 0 0-15.223 1.728 14.46 14.46 0 0 0-6.233 13.723A16.137 16.137 0 0 0 243 336.08a19.287 19.287 0 0 0 7.521 4.3 19.493 19.493 0 0 0-1.028 5.917 17.231 17.231 0 0 0 6.527 13.861 14.46 14.46 0 0 0 15 1.494 16.136 16.136 0 0 0 7.018-7.813 19.1 19.1 0 0 0 1.35-4.351c.572.222 1.153.428 1.747.6 5.311 1.507 11.282.593 14.62-2.543a10.678 10.678 0 0 0 3.2-8.03c-.052-5.24-3.392-10.885-9.022-14.018a17.32 17.32 0 0 0-1.129-.574 18.175 18.175 0 0 0 1.04-1.919c2.92-6.372 1.7-14.962-4.1-18.9-5.538-3.742-13.612-2.054-18.212 2.782z" style="fill:#f0869e" transform="translate(40.021 -302.065)"/>
        <path data-name="패스 64" d="M262.283 327.955a3.111 3.111 0 0 1 2.311.987c1.44 1.4 1.79 3.376.39 4.817a3.477 3.477 0 0 1-5.008-.067A3.009 3.009 0 0 1 260 329.1a3.422 3.422 0 0 1 2.281-1.143" style="fill:#fff" transform="translate(40.021 -302.065)"/>
        <path data-name="패스 65" d="M273.687 322.345a3.111 3.111 0 0 1 2.31.987c1.441 1.4 1.79 3.377.39 4.817a3.477 3.477 0 0 1-5.008-.067 3.01 3.01 0 0 1 .027-4.594 3.422 3.422 0 0 1 2.281-1.143" style="fill:#fff" transform="translate(40.021 -302.065)"/>
        <path data-name="패스 66" d="M273.687 333.446a3.108 3.108 0 0 1 2.31.988c1.441 1.4 1.79 3.376.39 4.816a3.475 3.475 0 0 1-5.008-.067 3.01 3.01 0 0 1 .027-4.594 3.422 3.422 0 0 1 2.281-1.143" style="fill:#fff" transform="translate(40.021 -302.065)"/>
    </g>
    <g data-name="그룹 47">
        <g data-name="그룹 46">
            <path data-name="패스 41" d="M206.115 96.533a.959.959 0 0 0 1.1.393c1.39-.444 4.847-2.044 6.845-7.321 1.892-5 .871-8.262.224-9.606a.962.962 0 0 0-1.208-.482c-1.374.521-4.223 2.269-6.307 8.064-1.994 5.553-1.269 7.992-.654 8.952z" style="fill:#90d3c7" transform="rotate(-2.98 1001.8 2847.356)"/>
            <path data-name="패스 42" d="M221.513 78.731a.959.959 0 0 0 .73.915c1.415.355 5.2.815 9.674-2.618 4.24-3.252 5.091-6.566 5.25-8.049a.961.961 0 0 0-.773-1.045c-1.443-.281-4.785-.3-9.608 3.533-4.622 3.669-5.286 6.126-5.273 7.264z" style="fill:#90d3c7" transform="rotate(-2.98 1001.8 2847.356)"/>
            <path data-name="패스 43" d="M217.507 98.278a.6.6 0 0 0 .454.568c.88.221 3.231.507 6.015-1.628 2.636-2.021 3.165-4.081 3.263-5a.6.6 0 0 0-.48-.65c-.9-.175-2.975-.184-5.973 2.2-2.874 2.274-3.286 3.802-3.279 4.51z" style="fill:#90d3c7" transform="rotate(-2.98 1001.8 2847.356)"/>
            <path data-name="패스 44" d="M198.133 115.842a.6.6 0 0 0-.623.377c-.333.844-.922 3.138.834 6.175 1.662 2.876 3.636 3.668 4.538 3.885a.6.6 0 0 0 .706-.392c.29-.867.569-2.926-1.4-6.208-1.888-3.145-3.353-3.753-4.055-3.837z" style="fill:#90d3c7" transform="rotate(-2.98 1001.8 2847.356)"/>
            <path data-name="패스 45" d="M207.033 107.3a.959.959 0 0 0 .03-1.17c-.855-1.182-3.453-3.969-9.089-4.223-5.338-.24-8.122 1.748-9.2 2.781a.96.96 0 0 0-.081 1.3c.922 1.144 3.471 3.307 9.627 3.481 5.901.163 7.992-1.289 8.713-2.169z" style="fill:#90d3c7" transform="rotate(-2.98 1001.8 2847.356)"/>
            <g data-name="그룹 41">
                <g data-name="그룹 38">
                    <path data-name="패스 46" d="M195.794 83.512c8.828 10.909 12.507 23.007 10.376 37.057-.1.659.9.831 1.12.237 4.411-11.778.805-31.354-10.157-38.787a1.015 1.015 0 0 0-1.339 1.493z" style="fill:#90d3c7" transform="rotate(-2.98 1001.8 2847.356)"/>
                </g>
                <g data-name="그룹 40">
                    <g data-name="그룹 39">
                        <path data-name="패스 47" d="M193.745 86.662c6.4-1.945 11.344-9.66 10.11-16.082 0 0-1.906-10.751-9.609-9.9-5.284.583-4.226 5-4.226 5s-5.434-4.981-10.975-.416 1.576 11.1 1.576 11.1-4.989-1.409-5.147 4.875c-.074 3.04 9.518 8.082 18.271 5.423z" style="fill:#f4971c" transform="rotate(-2.98 1001.8 2847.356)"/>
                        <path data-name="패스 48" d="M199.207 84.473s5.867-6.45 5.283-9.5-5.461 8.362-5.461 8.362 1.534-8.823.173-10.119-1.56 9.6-1.56 9.6-4.851-7.547-6.706-7.54 4.86 8.169 4.86 8.169-9.846-1.7-9.49-.433 10.662 1.825 10.662 1.825-9.886 2.34-8.641 3.566 6.036-.85 10.88-3.93z" style="fill:#90d3c7" transform="rotate(-2.98 1001.8 2847.356)"/>
                    </g>
                </g>
            </g>
            <g data-name="그룹 45">
                <g data-name="그룹 42">
                    <path data-name="패스 49" d="M219.062 61.727c1.268 31.922-13.634 59.879-28.534 87.193a.846.846 0 0 0 1.393.959c12.577-16.277 21.674-35.9 27.143-55.685 2.57-9.293 7.022-23.587 2.8-33.007-.569-1.27-2.865-.959-2.806.54z" style="fill:#90d3c7" transform="rotate(-2.98 1001.8 2847.356)"/>
                </g>
                <g data-name="그룹 44">
                    <g data-name="그룹 43">
                        <path data-name="패스 50" d="M216.045 63.336c6.356 2.09 14.835-1.381 17.518-7.346 0 0 4.622-9.891-2.17-13.623-4.659-2.561-6.331 1.657-6.331 1.657s-1.582-7.2-8.74-6.65-5.1 9.991-5.1 9.991-3.271-4.022-7.014 1.03c-1.808 2.442 3.147 12.084 11.837 14.941z" style="fill:#f4971c" transform="rotate(-2.98 1001.8 2847.356)"/>
                        <path data-name="패스 51" d="M221.773 64.686s8.509-1.9 9.785-4.737-9.276 3.7-9.276 3.7 6.328-6.338 5.96-8.18-6.8 6.96-6.8 6.96.37-8.963-1.152-10.023-.721 9.477-.721 9.477-7.078-7.053-7.515-5.81 7.676 7.627 7.676 7.627-9.434-3.77-9.12-2.051 5.428 2.771 11.163 3.037z" style="fill:#90d3c7" transform="rotate(-2.98 1001.8 2847.356)"/>
                    </g>
                </g>
            </g>
        </g>
    </g>
    <g data-name="그룹 97">
        <g data-name="그룹 94">
            <path data-name="패스 139" d="M134.925 400.2c-.625-.1-.433-1.025.139-1.049 2.062-.088 4.138-.183 6.206-.255q-1.559-1.789-3.127-3.571a14.526 14.526 0 0 1-3.977.232c-.423-.023-.558-.686-.1-.774a16.976 16.976 0 0 1 3.283-.366c-3.626-4.109-7.3-8.18-11.119-12.154a.369.369 0 0 1 .516-.527q1.424 1.3 2.849 2.646c-.152-.9-.2-1.832-.355-2.728-.2-1.173-.506-2.323-.663-3.5-.1-.726.942-.709 1.166-.155a14.574 14.574 0 0 1 .96 7.426q2.427 2.3 4.832 4.7c-.4-2.643-.867-5.282-1.191-7.931-.063-.517.674-.51.833-.111a24.721 24.721 0 0 1 1.523 9.207 203.17 203.17 0 0 1 8.353 8.946c.064-1.119.121-2.239.116-3.357a32.512 32.512 0 0 1-.058-4.5c.062-.456.658-.322.789 0 1.042 2.529.644 6-.1 8.716a142.2 142.2 0 0 1 9 11.495 2.649 2.649 0 0 0 .779-1.351c.711-3.16.312-10.392-10.386-23.335-11.163-13.506-20.475-15.44-24.656-15.509a2.766 2.766 0 0 0-2.769 2.452c-.436 4.223-.024 13.949 9.858 25.5 10.434 12.2 21.231 13.154 25.381 13 .057 0 .112-.015.168-.02a2.822 2.822 0 0 0 .629-.145c-3.926-4.394-7.782-8.832-11.64-13.267a18.6 18.6 0 0 1-7.239.285z" transform="rotate(32 259.588 169.839)" style="fill:#b2ce5b"/>
        </g>
        <g data-name="그룹 95">
            <path data-name="패스 140" d="M132.729 418.244c-.49.16-.7-.58-.29-.811 1.46-.833 2.927-1.676 4.4-2.5-1.2-.476-12.849-4.977-17.093-6.431a.3.3 0 0 1 .177-.574c1.011.275 7.737 2.236 9.49 2.794-1.275-1.765-2.6-3.5-3.819-5.3-.239-.35.3-.62.561-.39a20.113 20.113 0 0 1 4.536 6.1 165.853 165.853 0 0 1 9.383 3.362 45.038 45.038 0 0 0-1.168-2.474 26.4 26.4 0 0 1-1.72-3.235c-.125-.353.357-.478.571-.3 1.7 1.443 2.7 4.1 3.178 6.347a115.972 115.972 0 0 1 10.8 4.967 2.155 2.155 0 0 0 .06-1.269c-.663-2.553-3.649-7.639-16.22-13.019-13.118-5.614-20.58-3.542-23.633-2.033a2.25 2.25 0 0 0-1.089 2.807c1.259 3.22 5.184 10.108 16.646 14.787 12.1 4.941 20.275 1.6 23.222-.053.041-.023.076-.052.115-.077a2.337 2.337 0 0 0 .4-.339c-4.481-1.717-8.927-3.492-13.374-5.264a15.146 15.146 0 0 1-5.133 2.905z" transform="rotate(32 263.394 170.93)" style="fill:#b2ce5b"/>
        </g>
        <g data-name="그룹 96">
            <path data-name="패스 141" d="M157.421 415.164c4.64 3.88 5.693 11.16 2.938 16.544s-8.762 8.724-14.8 8.972a15.551 15.551 0 0 1-9.766-2.68 13.936 13.936 0 0 1-5.177-13.575 16.61 16.61 0 0 1 9.137-11.6 20.628 20.628 0 0 1 14.94-.884" transform="rotate(32 270.187 164.047)" style="fill:#fff"/>
            <path data-name="패스 142" d="M168.859 420.417c-4.238 4.316-11.578 4.785-16.726 1.609s-8-9.431-7.761-15.475a15.552 15.552 0 0 1 3.453-9.516 13.938 13.938 0 0 1 13.945-4.076 16.608 16.608 0 0 1 10.837 10.034 20.631 20.631 0 0 1-.312 14.963" transform="rotate(32 270.187 164.047)" style="fill:#fff"/>
            <path data-name="패스 143" d="M167.359 429.182c4.331 3.064 6.277 10.307 4.862 16.354s-5.765 10.637-10.609 12.071a10.3 10.3 0 0 1-8.289-.839c-3.79-2.265-6.216-7.559-6.224-12.88a19.133 19.133 0 0 1 5.635-13.656 14.38 14.38 0 0 1 11.935-3.821" transform="rotate(32 270.187 164.047)" style="fill:#fff"/>
            <path data-name="패스 144" d="M177.324 446.362c6.562 1.613 14.475-1.1 17.15-7.3 2.547-5.908-.512-13.247-5.922-16.729s-12.495-3.558-18.6-1.527c-5.039 1.676-13.572 7.549-9.8 13.824 1.3 2.166 4.181 3.636 6.089 5.2 3.437 2.816 6.659 5.445 11.083 6.532z" transform="rotate(32 270.187 164.047)" style="fill:#fff"/>
            <path data-name="패스 145" d="M193.752 415.668c2.271-7.148-3.112-12.252-4.925-13.19-4.923-2.549-11.1-1.967-15.959.692s-8.518 7.169-11.032 12.109c-2.6 5.1-2.31 15.627 6.061 13.288 2.849-.795 20.017 5.471 25.855-12.899z" transform="rotate(32 270.187 164.047)" style="fill:#fff"/>
            <path data-name="패스 146" d="M157.862 424.286a5.522 5.522 0 0 1 2.677-4.676 7.064 7.064 0 0 1 6.057-.406 5.912 5.912 0 0 1 3.507 5.931 7.142 7.142 0 0 1-3.414 5.5s-9.136 3.765-8.827-6.349z" transform="rotate(32 270.187 164.047)" style="fill:#ffe600"/>
        </g>
    </g>
    <g data-name="그룹 54">
        <path data-name="패스 52" d="M254.213 431.515c0 4.62-4.326 7.046-14.464 10.287-8.471 2.709-9.182-6.7-2.068-6.379 0 0-9.114.086-8.25-4.93.719-4.168 9.481-2.255 9.481-2.255s-6.363-1.978-6.005-4.344c1.212-7.994 21.303 2.892 21.306 7.621z" style="fill:#93bfd8" transform="translate(122.234 -384.232)"/>
        <g data-name="그룹 50">
            <path data-name="패스 53" d="M282.951 444.622a1.11 1.11 0 0 0-.934-.983c-1.671-.269-6.085-.424-10.915 3.987-4.574 4.178-5.228 8.09-5.263 9.819a1.116 1.116 0 0 0 1 1.131c1.694.181 5.557-.135 10.747-5.038 4.971-4.698 5.494-7.602 5.365-8.916z" style="fill:#90d3c7" transform="translate(122.234 -384.232)"/>
            <g data-name="그룹 49">
                <g data-name="그룹 48">
                    <path data-name="패스 54" d="M254.237 434.328c16.181 1.71 29.113 8.615 38.882 21.883.458.622 1.417-.055 1.113-.724-6.037-13.273-25.039-26.371-40.12-23.48a1.177 1.177 0 0 0 .125 2.321z" style="fill:#90d3c7" transform="translate(122.234 -384.232)"/>
                </g>
            </g>
        </g>
        <g data-name="그룹 53">
            <path data-name="패스 55" d="M258.552 416.706a.9.9 0 0 1-.32 1.047c-1.11.8-4.241 2.5-9.319 1.052-4.808-1.37-6.689-3.96-7.337-5.2a.9.9 0 0 1 .313-1.176c1.158-.741 4.061-1.9 9.575-.232 5.284 1.603 6.709 3.514 7.088 4.509z" style="fill:#90d3c7" transform="translate(122.234 -384.232)"/>
            <path data-name="패스 56" d="M273.865 434.265a1.112 1.112 0 0 1-1.357.006c-1.35-1.019-4.517-4.1-4.676-10.637-.15-6.193 2.221-9.373 3.445-10.6a1.114 1.114 0 0 1 1.506-.063c1.3 1.1 3.748 4.1 3.8 11.244.053 6.846-1.683 9.235-2.718 10.05z" style="fill:#90d3c7" transform="translate(122.234 -384.232)"/>
            <g data-name="그룹 52">
                <g data-name="그룹 51">
                    <path data-name="패스 57" d="M256.449 405.541c3.779 14.665 11.99 26.477 25.738 35.532a.563.563 0 0 1-.528.994c-13.251-5.679-28.082-23.084-27.4-36.677.06-1.191 1.884-1.045 2.192.151z" style="fill:#90d3c7" transform="translate(122.234 -384.232)"/>
                </g>
            </g>
        </g>
        <path data-name="패스 58" d="M255.519 433.393s-1.027 3.956-3.982 3.511.085-8.982 1.506-8.893 2.587 2.601 2.476 5.382z" style="fill:#90d3c7" transform="translate(122.234 -384.232)"/>
        <path data-name="패스 59" d="M256.811 408c-4.358 1.532-8.081-1.751-14.494-10.245-5.359-7.1 3.282-10.881 5.335-4.063 0 0-3.1-8.572 1.922-9.416 4.172-.7 5.266 8.2 5.266 8.2s-.239-6.659 2.112-7.1c7.948-1.511 4.321 21.052-.141 22.624z" style="fill:#93bfd8" transform="translate(122.234 -384.232)"/>
        <path data-name="패스 60" d="M255.471 409.85s-4.073.339-4.631-2.6 8.5-2.891 8.89-1.521-1.598 3.305-4.259 4.121z" style="fill:#90d3c7" transform="translate(122.234 -384.232)"/>
    </g>
    <g data-name="그룹 124">
        <g data-name="그룹 123">
            <g data-name="그룹 118">
                <path data-name="패스 187" d="M460.934 455.168a132.387 132.387 0 0 0-42.389-47.676 1.3 1.3 0 0 1 1.488-2.12 135.267 135.267 0 0 1 43.256 48.716c.776 1.477-1.581 2.552-2.355 1.08z" style="fill:#90d3c7" transform="rotate(-65 28.462 404.128)"/>
            </g>
            <g data-name="그룹 119">
                <path data-name="패스 188" d="M435.6 420.222a36.989 36.989 0 0 0-2.336-12.745c-.576-1.554 1.774-2.646 2.355-1.08a40.713 40.713 0 0 1 2.559 14.082c.01 1.664-2.568 1.4-2.578-.257z" style="fill:#90d3c7" transform="rotate(-65 28.462 404.128)"/>
            </g>
            <g data-name="그룹 120">
                <path data-name="패스 189" d="M443.331 428.648a31.25 31.25 0 0 1-15.638-1.063c-1.587-.522-.681-2.949.9-2.428a28.513 28.513 0 0 0 14.321.933 1.3 1.3 0 0 1 .415 2.558z" style="fill:#90d3c7" transform="rotate(-65 28.462 404.128)"/>
            </g>
            <g data-name="그룹 121">
                <path data-name="패스 190" d="M452.885 439.619a33.7 33.7 0 0 0 2.047-12.315c-.03-1.663 2.548-1.4 2.578.256a35.576 35.576 0 0 1-2.2 12.96 1.3 1.3 0 0 1-2.428-.9z" style="fill:#90d3c7" transform="rotate(-65 28.462 404.128)"/>
            </g>
            <g data-name="그룹 122">
                <path data-name="패스 191" d="M457.53 448.364a34.278 34.278 0 0 1-13.345-3.064c-1.512-.686-.62-3.118.9-2.428a32.435 32.435 0 0 0 12.7 2.914c1.666.043 1.4 2.621-.257 2.578z" style="fill:#90d3c7" transform="rotate(-65 28.462 404.128)"/>
            </g>
        </g>
        <path data-name="패스 192" d="M417.325 398.828a7.383 7.383 0 0 1 4.5 5.882 6.641 6.641 0 0 1-3.412 6.473 7.885 7.885 0 0 1-10.439-3.842c-2.19-5.757 4.082-10.68 9.351-8.513z" style="fill:#ffe600" transform="rotate(-65 28.462 404.128)"/>
        <path data-name="패스 193" d="M438.73 399.784a7.753 7.753 0 0 1-2.167 6.4 4.907 4.907 0 0 1-2.963 1.8 4.3 4.3 0 0 1-2.747-.788 6.465 6.465 0 0 1-2.847-6.61c1.12-4.941 9.594-6.769 10.724-.802z" style="fill:#ffe600" transform="rotate(-65 28.462 404.128)"/>
        <path data-name="패스 194" d="M428.932 423.7a6.1 6.1 0 0 1-1.08 6.779 6.016 6.016 0 0 1-6.75 1.172 5.939 5.939 0 0 1-3.187-6.051c.829-5.493 8.496-7.033 11.017-1.9z" style="fill:#ffe600" transform="rotate(-65 28.462 404.128)"/>
        <path data-name="패스 195" d="M461.239 421.11a6.774 6.774 0 0 1-4.138 5.474 5.959 5.959 0 0 1-4.151.137 6.886 6.886 0 0 1-3.326-2.766 6.411 6.411 0 0 1-1.185-3.936 6.212 6.212 0 0 1 3.8-4.889c4.702-2.145 9.597.225 9 5.98z" style="fill:#ffe600" transform="rotate(-65 28.462 404.128)"/>
        <path data-name="패스 196" d="M445.866 439.992a4.777 4.777 0 0 0-2.345-2.6 9.15 9.15 0 0 0-3.44-.917c-2-.19-4.312.124-5.455 1.774a6.056 6.056 0 0 0-.7 3.978 7.563 7.563 0 0 0 1.2 3.955 5.289 5.289 0 0 0 4.563 1.948c3.763-.241 7.501-4.193 6.177-8.138z" style="fill:#ffe600" transform="rotate(-65 28.462 404.128)"/>
    </g>
    <g data-name="그룹 80">
        <path data-name="패스 103" d="M73.955 188.99a64.044 64.044 0 0 0-25.306 35.73 63.048 63.048 0 0 0-2.029 11.006 63.771 63.771 0 0 0-.251 5.6c-.01.469.016.929.022 1.393l.016.7v.174l.011.145.033.339c.095.914.23 1.837.389 2.752a39.532 39.532 0 0 0 3.339 10.58 19.424 19.424 0 0 0 7.012 8.175l.006.005a.831.831 0 0 1-.853 1.411 21.152 21.152 0 0 1-7.783-8.782 41.37 41.37 0 0 1-3.661-11.042 42.852 42.852 0 0 1-.449-2.888l-.04-.37-.019-.209-.006-.182-.028-.73c-.014-.485-.047-.974-.045-1.457a66.28 66.28 0 0 1 .178-5.794 65.293 65.293 0 0 1 1.939-11.423 66.648 66.648 0 0 1 25.855-37.558 1.472 1.472 0 1 1 1.688 2.411z" style="fill:#729f3a" transform="scale(-1) rotate(53 581.292 -576.374)"/>
        <path data-name="패스 104" d="M66.037 193.795s11.627.641 20.146-7.325c6.061-5.85 1.994-11.5 1.994-11.5a8.673 8.673 0 0 0-10.409-1.025c-6.221 3.431-12.856 14.955-11.731 19.85z" style="fill:#729f3a" transform="scale(-1) rotate(53 581.292 -576.374)"/>
        <path data-name="패스 105" d="M52.179 212.906s10.29 3.735 20.028-.4C79.183 209.423 77 203.7 77 203.7a8.709 8.709 0 0 0-9.1-3.711c-6.486 1.074-15.456 8.619-15.721 12.917z" style="fill:#729f3a" transform="scale(-1) rotate(53 581.292 -576.374)"/>
        <path data-name="패스 106" d="M45.106 231.962s11.677 4.238 22.728-.448c7.916-3.505 5.436-10 5.436-10a9.882 9.882 0 0 0-10.32-4.214c-7.364 1.222-17.543 9.784-17.844 14.662z" style="fill:#729f3a" transform="scale(-1) rotate(53 581.292 -576.374)"/>
        <path data-name="패스 107" d="M52.805 212.534s7.231-9.109 6.351-20.313c-.761-8.07-7.266-7.8-7.266-7.8a9.253 9.253 0 0 0-6.8 7.914c-1.107 6.903 3.473 18.484 7.715 20.199z" style="fill:#729f3a" transform="scale(-1) rotate(53 581.292 -576.374)"/>
        <path data-name="패스 108" d="M46.653 231.053s.986-12.306-6.726-21.619c-5.67-6.632-11.442-2.518-11.442-2.518a9.566 9.566 0 0 0-1.334 11c3.249 6.718 14.571 14.157 19.502 13.137z" style="fill:#729f3a" transform="scale(-1) rotate(53 581.292 -576.374)"/>
        <path data-name="패스 109" d="M46.854 253.3s13.139 4.053 25.1-1.728c8.561-4.3 5.468-11.35 5.468-11.35s-3.71-5.813-11.637-4.1c-8.074 1.756-18.863 11.778-18.931 17.178z" style="fill:#729f3a" transform="scale(-1) rotate(53 581.292 -576.374)"/>
        <path data-name="패스 110" d="M47.459 249.708S44.6 240.2 36.107 235.473c-6.185-3.313-9.309 1.455-9.309 1.455a7.692 7.692 0 0 0 2.213 8.632c4.395 4.084 15.051 6.352 18.448 4.148z" style="fill:#729f3a" transform="scale(-1) rotate(53 581.292 -576.374)"/>
    </g>
    <g data-name="그룹 61">
        <g data-name="그룹 57">
            <path data-name="패스 67" d="M236.717 167.734c-.044-.514.723-.546.856-.1.478 1.612.965 3.233 1.432 4.852.736-1.058 7.772-11.378 10.154-15.179a.3.3 0 0 1 .519.3c-.5.922-3.939 7.024-4.882 8.605 2.008-.84 4-1.733 6.028-2.514.4-.152.537.431.253.636a20.162 20.162 0 0 1-6.97 3.029 165.263 165.263 0 0 1-5.41 8.371c.9-.172 1.793-.349 2.675-.575a26.561 26.561 0 0 1 3.542-.937c.372-.042.384.455.158.623-1.791 1.324-4.61 1.7-6.9 1.649a116.114 116.114 0 0 1-7.295 9.385 2.166 2.166 0 0 0 1.222.347c2.636-.065 8.269-1.814 16.37-12.83 8.454-11.495 8.136-19.233 7.361-22.549a2.253 2.253 0 0 0-2.486-1.7c-3.421.493-11.022 2.747-18.188 12.842-7.568 10.66-6.179 19.377-5.236 22.624.013.045.033.086.049.129a2.243 2.243 0 0 0 .239.468c2.691-3.971 5.433-7.9 8.17-11.823a15.153 15.153 0 0 1-1.661-5.653z" style="fill:#b2ce5b" transform="translate(321.511 101.59)"/>
        </g>
        <g data-name="그룹 58">
            <path data-name="패스 68" d="M247.4 184.429c.4-.323.855.3.557.656-1.072 1.295-2.148 2.6-3.233 3.89 1.288.023 13.779.124 18.262-.013a.3.3 0 0 1 .037.6c-1.043.1-8.027.637-9.865.734 1.815 1.2 3.665 2.359 5.443 3.609.347.244-.06.685-.388.563a20.136 20.136 0 0 1-6.4-4.1c-3.309.151-6.644.214-9.966.165a43.99 43.99 0 0 0 1.966 1.9 26.453 26.453 0 0 1 2.751 2.42c.242.286-.165.573-.43.478-2.1-.751-3.976-2.885-5.213-4.817a115.881 115.881 0 0 1-11.857-.837 2.162 2.162 0 0 0 .391 1.208c1.522 2.154 6.111 5.86 19.772 6.459 14.254.625 20.506-3.947 22.829-6.435a2.253 2.253 0 0 0 .029-3.012c-2.314-2.569-8.417-7.628-20.793-7.963-13.068-.353-19.537 5.653-21.71 8.243-.03.036-.052.076-.079.113a2.208 2.208 0 0 0-.256.459c4.8.025 9.585.117 14.37.206a15.151 15.151 0 0 1 3.783-4.526z" style="fill:#b2ce5b" transform="translate(321.511 101.59)"/>
        </g>
        <path data-name="패스 69" d="M217.153 183.2c-11.849 4.746-17.429 21.293-9.02 30.9s26.659 6.815 31.816-4.861-5.072-27.045-17.835-26.793a9.929 9.929 0 0 0-4.961.754z" style="fill:#ffe600" transform="translate(321.511 101.59)"/>
        <g data-name="그룹 60">
            <g data-name="그룹 59">
                <path data-name="패스 70" d="M222.77 191.652s4.693-.493 5.315 1.324-4.8 2.262-4.8 2.262 2.271 2.994 1.139 4.075-4.292-3.136-4.292-3.136-.663 4.065-2.707 3.544.59-5.048.59-5.048-3.872-.753-3.43-3.463 4.244-.282 4.244-.282 1.062-4.878 3.761-3.961.18 4.685.18 4.685z" style="fill:#2d3a56" transform="translate(321.511 101.59)"/>
            </g>
        </g>
    </g>
    <g data-name="그룹 31">
        <g data-name="그룹 28">
            <path data-name="패스 29" d="M430.634 148.408c.443-.623 1.341.078 1.062.71-1 2.281-2.008 4.581-3.033 6.86q2.771-.735 5.537-1.484a17.424 17.424 0 0 1 1.869-4.431c.251-.447 1.04-.24.893.3a20.387 20.387 0 0 1-1.354 3.751c6.385-1.736 12.756-3.55 19.1-5.565a.446.446 0 0 1 .3.841q-2.172.846-4.386 1.675c1.058.317 2.092.76 3.145 1.071 1.377.407 2.786.689 4.147 1.148.838.283.267 1.4-.453 1.346-2.61-.19-6.452-1.238-8.557-2.92q-3.791 1.4-7.669 2.73c3.077.976 6.185 1.877 9.227 2.938.594.208.194 1-.324.962a29.87 29.87 0 0 1-10.786-3.259c-4.658 1.558-9.389 3-14.146 4.279 1.179.665 2.361 1.324 3.575 1.915a39.384 39.384 0 0 1 4.9 2.336c.461.31 0 .884-.418.856-3.3-.219-6.842-2.5-9.39-4.755a171.725 171.725 0 0 1-17.25 3.617 3.2 3.2 0 0 0 1.048 1.565c3.044 2.455 11.092 5.878 30.819 1.19 20.584-4.893 27.645-13.949 29.949-18.442a3.341 3.341 0 0 0-1.181-4.307c-4.342-2.724-15.1-7.464-32.885-2.92-18.782 4.8-25.572 15.989-27.619 20.565-.029.063-.044.129-.068.193a3.379 3.379 0 0 0-.179.758c6.853-1.91 13.718-3.721 20.579-5.536a22.478 22.478 0 0 1 3.548-7.987z" style="fill:#b2ce5b" transform="rotate(-158 358.535 358.293)"/>
        </g>
        <g data-name="그룹 29">
            <path data-name="패스 30" d="M412.261 136.41c.088-.616 1-.444 1.034.118.123 2.026.254 4.065.362 6.1 1.154-1.043 12.243-11.266 16.081-15.088a.363.363 0 0 1 .528.5c-.838.948-6.548 7.189-8.088 8.792 2.591-.441 5.177-.948 7.776-1.314.507-.072.514.653.124.817a24.318 24.318 0 0 1-9.024 1.663 199.79 199.79 0 0 1-8.645 8.372c1.1.043 2.2.079 3.3.054a31.916 31.916 0 0 1 4.422-.138c.449.052.328.641.016.776-2.468 1.07-5.886.74-8.57.059a140.175 140.175 0 0 1-11.139 9.051 2.6 2.6 0 0 0 1.342.741c3.119.643 10.222.12 22.754-10.63 13.076-11.218 14.811-20.407 14.8-24.518a2.719 2.719 0 0 0-2.46-2.678c-4.16-.353-13.715.227-24.9 10.149-11.807 10.478-12.549 21.11-12.325 25.187 0 .056.017.109.023.165a2.756 2.756 0 0 0 .153.615c4.249-3.938 8.544-7.809 12.834-11.681a18.293 18.293 0 0 1-.398-7.112z" style="fill:#b2ce5b" transform="rotate(-158 358.535 358.293)"/>
        </g>
        <g data-name="그룹 30">
            <path data-name="패스 31" d="M415.7 166.431a8.347 8.347 0 0 0-1.792-12.862 5.381 5.381 0 0 0-1.343-.522 7.686 7.686 0 0 0 .2-4.566c-2.192-8.736-10.927-4.812-10.927-4.812A8.347 8.347 0 0 0 391.5 135.8a6.386 6.386 0 0 0-2.879 1.789c-4.7-8.31-14.669.446-14.669.446s-6.387-3.093-11.523 4.713a7.055 7.055 0 0 0-.337 7.222c-3.728-.532-7.337-.024-8.921 3.2-3.9 7.928 4.466 10.61 4.466 10.61s-8.93 1.309-4.72 9a7.423 7.423 0 0 0 7.474 3.967c-2.6 2.272-4.761 5.517-3.512 9.627 2.618 8.618 11.15 4.27 11.15 4.27a8.347 8.347 0 0 0 10.707 7.35 7.425 7.425 0 0 0 3.737-3.168c1.651 3.953 4.275 7.69 8.236 7.2a10.692 10.692 0 0 0 9.407-8.312s11.976 1.69 12.71-8.8a12 12 0 0 0-.22-3.37 8.311 8.311 0 0 0 7.458-4c4.603-7.744-4.364-11.113-4.364-11.113z" style="fill:#f2b696" transform="rotate(-158 358.535 358.293)"/>
            <path data-name="패스 32" d="M399.566 167.3a3.757 3.757 0 0 0-.807-5.789 2.434 2.434 0 0 0-.6-.234 3.471 3.471 0 0 0 .088-2.056c-.987-3.931-4.918-2.165-4.918-2.165a3.756 3.756 0 0 0-4.65-3.54 2.873 2.873 0 0 0-1.3.8c-2.113-3.74-6.6.2-6.6.2s-2.874-1.392-5.185 2.12a3.176 3.176 0 0 0-.152 3.251c-1.678-.239-3.3-.011-4.015 1.439-1.756 3.568 2.01 4.775 2.01 4.775s-4.019.589-2.125 4.05a3.343 3.343 0 0 0 3.364 1.786 4.065 4.065 0 0 0-1.581 4.332c1.179 3.879 5.019 1.922 5.019 1.922a3.756 3.756 0 0 0 4.818 3.308 3.34 3.34 0 0 0 1.682-1.426c.743 1.779 1.924 3.461 3.707 3.24a4.812 4.812 0 0 0 4.233-3.741s5.39.76 5.72-3.961a5.435 5.435 0 0 0-.1-1.517 3.741 3.741 0 0 0 3.356-1.8c2.07-3.478-1.964-4.994-1.964-4.994z" style="fill:#f0869e" transform="rotate(-158 358.535 358.293)"/>
            <path data-name="패스 33" d="M394.829 162.372c3.4 5.18 2.57 10.528-2.611 13.924s-11.363 3.123-14.759-2.057-1.62-11.633 3.56-15.029 10.414-2.019 13.81 3.162z" style="fill:#ee7264" transform="rotate(-158 358.535 358.293)"/>
        </g>
    </g>
    <g data-name="그룹 117">
        <path data-name="패스 172" d="M433.884 279.839c.247-4.528 4-11.606-11.057-11.175a26.181 26.181 0 0 0-3.142.284c2.915-3.894 4.776-7.809 4.631-10.009-.431-6.576-7.1-4.629-10.676-7.414s-7.255-9.9-15.485 2.715a24.8 24.8 0 0 0-2.859 5.931c-1.947-5.876-4.943-11.241-7.476-12.169-6.527-2.391-9.816 3.485-11.973 5.543-2.37.894-14.644 4.066-6.354 16.405a32.856 32.856 0 0 0 4.146 5.324c-6.69-.441-13.3.764-15.413 2.752-4.8 4.517.944 8.421 1.073 12.954s-3.024 11.9 11.946 10.22c.888-.1 1.735-.241 2.548-.414-3.174 4.614-5.137 9.421-4.771 11.868.975 6.517 7.457 4.024 11.255 6.5s8.05 9.267 15.206-3.989a24.506 24.506 0 0 0 2.578-7.186c2.756 6.881 7.6 13.156 10.649 14.15 6.266 2.043 6.935-4.869 10.85-7.158s11.889-3.056 3.232-15.385a24.557 24.557 0 0 0-5.1-5.386c6.823 1.129 13.851.5 16.191-1.365 5.153-4.101-.246-8.468.001-12.996z" style="fill:#f4971c" transform="translate(-348.983 -68.541)"/>
        <path data-name="패스 173" d="M393.719 294.348a4.73 4.73 0 0 1-1.517-4.091c0-.018.006-.036.008-.054-.027 0-.054.006-.081.007a4.538 4.538 0 0 1-3.675-1.665A3.808 3.808 0 0 1 388 284.6a4.251 4.251 0 0 1 2.03-1.878 5.01 5.01 0 0 1 1.227-.389 5.122 5.122 0 0 1-.139-1.439 4.538 4.538 0 0 1 1.953-3.53 3.806 3.806 0 0 1 3.966-.136 4.249 4.249 0 0 1 1.711 2.173 4.849 4.849 0 0 1 .151.489 5.293 5.293 0 0 1 .82-.44 4.165 4.165 0 0 1 3.9.2 2.812 2.812 0 0 1 1.09 2 4.462 4.462 0 0 1-1.909 3.95 4.133 4.133 0 0 1-.271.182 5.1 5.1 0 0 1 1.02 1.015 4.076 4.076 0 0 1-.021 5.092 3.83 3.83 0 0 1-4.487.495 5.958 5.958 0 0 1-1.478 1.8 3.186 3.186 0 0 1-3.844.164z" style="fill:#fff" transform="translate(-348.983 -68.541)"/>
        <path data-name="패스 174" d="M395.581 283.467a2.253 2.253 0 0 0-1.664 1.491 3.232 3.232 0 0 0 .286 2.606 2.338 2.338 0 0 0 2.62 1.045 2.936 2.936 0 0 0 1.94-1.867s.823-4.169-3.182-3.275z" style="fill:#f4971c" transform="translate(-348.983 -68.541)"/>
        <g data-name="그룹 101">
            <g data-name="그룹 99">
                <path data-name="패스 175" d="M378.427 263.89a17.435 17.435 0 0 0 2.39 3.632c.709.914 1.319 2.08 2.541 2.226a.693.693 0 0 0 .669-.509c.237-1.228-.806-2.278-1.477-3.233a17.136 17.136 0 0 0-2.666-3.241.932.932 0 0 0-1.457 1.125z" style="fill:#f2b696" transform="translate(-348.983 -68.541)"/>
            </g>
            <g data-name="그룹 100">
                <path data-name="패스 176" d="M383.743 260.444c1.056 2.2 1.952 4.728 3.6 6.571a.831.831 0 0 0 1.379-.8c-.685-2.368-2.361-4.476-3.666-6.535a.76.76 0 0 0-1.311.766z" style="fill:#f2b696" transform="translate(-348.983 -68.541)"/>
            </g>
        </g>
        <g data-name="그룹 104">
            <g data-name="그룹 102">
                <path data-name="패스 177" d="M416.915 307.362a17.47 17.47 0 0 0-2.779-3.345c-.806-.83-1.542-1.92-2.771-1.931a.693.693 0 0 0-.609.581c-.1 1.246 1.053 2.174 1.826 3.049a17.174 17.174 0 0 0 3.009 2.925.933.933 0 0 0 1.324-1.279z" style="fill:#f2b696" transform="translate(-348.983 -68.541)"/>
            </g>
            <g data-name="그룹 103">
                <path data-name="패스 178" d="M412.013 311.376c-1.294-2.075-2.464-4.483-4.3-6.132a.831.831 0 0 0-1.281.95c.943 2.278 2.843 4.186 4.368 6.089a.76.76 0 0 0 1.218-.907z" style="fill:#f2b696" transform="translate(-348.983 -68.541)"/>
            </g>
        </g>
        <g data-name="그룹 107">
            <g data-name="그룹 105">
                <path data-name="패스 179" d="M407.258 258.829a17.429 17.429 0 0 0-2.171 3.767c-.5 1.044-1.266 2.113-.848 3.269a.69.69 0 0 0 .755.37c1.2-.34 1.673-1.743 2.226-2.771a17.165 17.165 0 0 0 1.7-3.838.933.933 0 0 0-1.66-.8z" style="fill:#f2b696" transform="translate(-348.983 -68.541)"/>
            </g>
            <g data-name="그룹 106">
                <path data-name="패스 180" d="M412.724 262.031c-1.5 1.934-3.347 3.868-4.255 6.167a.831.831 0 0 0 1.337.871c1.808-1.675 2.938-4.12 4.192-6.21a.76.76 0 0 0-1.274-.828z" style="fill:#f2b696" transform="translate(-348.983 -68.541)"/>
            </g>
        </g>
        <g data-name="그룹 110">
            <g data-name="그룹 108">
                <path data-name="패스 181" d="M385.7 312.74a17.437 17.437 0 0 0 1.741-3.984c.379-1.093 1.024-2.24.48-3.344a.691.691 0 0 0-.791-.283c-1.159.471-1.47 1.918-1.9 3a17.131 17.131 0 0 0-1.262 4 .932.932 0 0 0 1.737.608z" style="fill:#f2b696" transform="translate(-348.983 -68.541)"/>
            </g>
            <g data-name="그룹 109">
                <path data-name="패스 182" d="M379.914 310.163c1.272-2.087 2.9-4.214 3.545-6.6a.831.831 0 0 0-1.424-.718c-1.612 1.866-2.464 4.42-3.479 6.637a.76.76 0 0 0 1.358.681z" style="fill:#f2b696" transform="translate(-348.983 -68.541)"/>
            </g>
        </g>
        <g data-name="그룹 113">
            <g data-name="그룹 111">
                <path data-name="패스 183" d="M424.715 279.376a17.406 17.406 0 0 0-4.332.373c-1.141.189-2.457.17-3.167 1.175a.691.691 0 0 0 .13.83c.967.794 2.386.376 3.546.241a17.148 17.148 0 0 0 4.119-.8.933.933 0 0 0-.3-1.817z" style="fill:#f2b696" transform="translate(-348.983 -68.541)"/>
            </g>
            <g data-name="그룹 112">
                <path data-name="패스 184" d="M425.215 285.691c-2.442-.121-5.087-.534-7.492.037a.831.831 0 0 0 .05 1.594c2.408.525 5.06.054 7.492-.113a.76.76 0 0 0-.05-1.518z" style="fill:#f2b696" transform="translate(-348.983 -68.541)"/>
            </g>
        </g>
        <g data-name="그룹 116">
            <g data-name="그룹 114">
                <path data-name="패스 185" d="M368.164 292.53a17.4 17.4 0 0 0 4.263-.852c1.114-.313 2.423-.441 3.018-1.518a.691.691 0 0 0-.221-.811c-1.049-.681-2.413-.109-3.551.154a17.183 17.183 0 0 0-4 1.253.933.933 0 0 0 .495 1.774z" style="fill:#f2b696" transform="translate(-348.983 -68.541)"/>
            </g>
            <g data-name="그룹 115">
                <path data-name="패스 186" d="M366.967 286.309c2.44-.151 5.115-.034 7.442-.867a.832.832 0 0 0-.226-1.58c-2.452-.254-5.035.508-7.434.944a.76.76 0 0 0 .218 1.5z" style="fill:#f2b696" transform="translate(-348.983 -68.541)"/>
            </g>
        </g>
    </g>
    <g data-name="그룹 32">
        <path data-name="패스 34" d="M64.429 110.471c-.249.582-1.1.173-.984-.388.414-2.023.824-4.06 1.254-6.084q-2.113 1.08-4.222 2.171a14.49 14.49 0 0 1-.736 3.914c-.125.406-.8.376-.776-.087a16.946 16.946 0 0 1 .439-3.273c-4.864 2.524-9.7 5.107-14.483 7.848a.369.369 0 0 1-.387-.628q1.611-1.066 3.257-2.125c-.911-.07-1.826-.248-2.733-.315-1.186-.089-2.376-.071-3.558-.2-.727-.082-.461-1.085.131-1.168a14.561 14.561 0 0 1 7.438.865q2.822-1.8 5.73-3.553c-2.662-.251-5.335-.436-7.984-.762-.517-.064-.332-.778.094-.835a24.712 24.712 0 0 1 9.3.749c3.5-2.077 7.074-4.073 10.7-5.941-1.071-.332-2.143-.658-3.23-.925A32.522 32.522 0 0 1 59.3 98.7c-.428-.171-.153-.716.189-.767 2.706-.4 5.976.827 8.433 2.205a142.336 142.336 0 0 1 13.33-5.948 2.652 2.652 0 0 0-1.123-1.083c-2.894-1.455-10.008-2.816-25.154 4.433-15.805 7.565-19.935 16.132-21.013 20.172a2.766 2.766 0 0 0 1.71 3.28c3.992 1.445 13.529 3.4 27.13-3.395 14.363-7.174 17.9-17.42 18.755-21.483.012-.056.013-.112.022-.168a2.735 2.735 0 0 0 .011-.645c-5.212 2.746-10.452 5.414-15.688 8.085a18.6 18.6 0 0 1-1.473 7.085z" style="fill:#b2ce5b" transform="rotate(48 -281.387 217.569)"/>
    </g>
    <g data-name="그룹 33">
        <path data-name="패스 35" d="M81.4 116.966c.036.514-.732.534-.858.085-.455-1.618-.917-3.246-1.361-4.871-.751 1.046-7.937 11.263-10.374 15.029a.3.3 0 0 1-.515-.311c.512-.914 4.041-6.966 5.007-8.532-2.02.81-4.025 1.673-6.064 2.425-.4.146-.53-.439-.243-.64a20.138 20.138 0 0 1 7.013-2.926c1.757-2.808 3.6-5.587 5.531-8.291-.9.158-1.8.322-2.683.535a26.576 26.576 0 0 1-3.555.886c-.373.036-.377-.462-.149-.625 1.811-1.3 4.635-1.63 6.927-1.549a116.134 116.134 0 0 1 7.435-9.281 2.158 2.158 0 0 0-1.217-.365c-2.637.026-8.295 1.693-16.556 12.589-8.621 11.37-8.415 19.112-7.689 22.439a2.25 2.25 0 0 0 2.46 1.736c3.429-.442 11.062-2.585 18.375-12.575 7.722-10.548 6.461-19.284 5.566-22.545-.013-.045-.033-.086-.048-.13a2.218 2.218 0 0 0-.232-.471c-2.749 3.932-5.547 7.817-8.342 11.7a15.162 15.162 0 0 1 1.572 5.688z" style="fill:#b2ce5b" transform="rotate(48 -281.387 217.569)"/>
    </g>
    <g data-name="그룹 35">
        <g data-name="그룹 34">
            <path data-name="패스 36" d="M86.758 117.522c-5.041-4.2-7.24-11.2-6.574-17.722.008-.078.027-.154.035-.232-.116 0-.231.025-.348.029a19.654 19.654 0 0 1-15.919-7.21 16.494 16.494 0 0 1-1.958-17.08 18.4 18.4 0 0 1 8.792-8.135 21.81 21.81 0 0 1 5.314-1.685 22.1 22.1 0 0 1-.6-6.23 19.653 19.653 0 0 1 8.457-15.293 16.492 16.492 0 0 1 17.181-.588 18.4 18.4 0 0 1 7.409 9.412 21.58 21.58 0 0 1 .653 2.112 22.733 22.733 0 0 1 3.551-1.9c5.806-2.434 12.694-2.22 16.9.873a12.185 12.185 0 0 1 4.721 8.654c.661 5.941-2.346 12.792-8.291 17.113q-.57.413-1.173.788a22.047 22.047 0 0 1 4.417 4.4c4.772 6.416 5.451 16.289-.088 22.056-4.862 5.062-13.235 5.477-19.435 2.14a25.7 25.7 0 0 1-6.406 7.814c-6.744 5.762-14.782 2.23-16.638.684z" style="fill:#f0869e" transform="rotate(48 -281.387 217.569)"/>
            <path data-name="패스 37" d="M94.038 99.08a10.687 10.687 0 0 1-3.428-9.243c0-.041.014-.08.018-.121-.061 0-.121.013-.182.015a10.252 10.252 0 0 1-8.3-3.76 8.6 8.6 0 0 1-1.021-8.908 9.6 9.6 0 0 1 4.585-4.244 11.415 11.415 0 0 1 2.772-.878 11.537 11.537 0 0 1-.313-3.25 10.246 10.246 0 0 1 4.411-7.975 8.6 8.6 0 0 1 8.961-.307 9.594 9.594 0 0 1 3.863 4.909 11.085 11.085 0 0 1 .343 1.1 11.96 11.96 0 0 1 1.852-.993c3.028-1.269 6.621-1.158 8.816.456a6.354 6.354 0 0 1 2.463 4.513 10.076 10.076 0 0 1-4.325 8.925q-.3.216-.611.411a11.478 11.478 0 0 1 2.3 2.294c2.488 3.346 2.842 8.5-.046 11.5-2.536 2.64-6.9 2.856-10.137 1.116a13.405 13.405 0 0 1-3.341 4.075 7.193 7.193 0 0 1-8.68.365z" style="fill:#ee7264" transform="rotate(48 -281.387 217.569)"/>
            <path data-name="패스 38" d="M98.245 74.5a5.089 5.089 0 0 0-3.76 3.368 7.308 7.308 0 0 0 .645 5.889 5.281 5.281 0 0 0 5.92 2.359 6.625 6.625 0 0 0 4.381-4.218s1.859-9.42-7.186-7.398z" style="fill:#ffe600" transform="rotate(48 -281.387 217.569)"/>
        </g>
    </g>
    <g data-name="그룹 88">
        <g data-name="그룹 85">
            <path data-name="패스 117" d="M363.266 367.66s4.453 6.988.549 10.221-7.288-5.8-7.288-5.8-6.093 5.206-9.548 1.983 3.719-7.8 3.719-7.8-6.175-.634-6.477-6.194 8.459-1.8 8.459-1.8-2.493-7.471 3.535-8.08 3.194 9.556 3.194 9.556 7.383-3.24 8.934 1.367-5.077 6.547-5.077 6.547z" style="fill:#fff" transform="translate(71.968 -319.303)"/>
            <path data-name="패스 118" d="M358.618 364.1a3.035 3.035 0 0 0-1.328-1.85 1.851 1.851 0 0 0-2.166.2 1.944 1.944 0 0 0-.456 1.689 4.241 4.241 0 0 0 .748 1.641 3.346 3.346 0 0 0 1.774 1.487c2.144.559 1.773-1.953 1.428-3.167z" style="fill:#ffe600" transform="translate(71.968 -319.303)"/>
        </g>
        <g data-name="그룹 86">
            <path data-name="패스 119" d="M329.728 379.757s7.06 7.286 3.027 11.139-9.4-5.346-9.4-5.346-2.587 10.137-8.441 7.953 1.554-13.343 1.554-13.343-11.234-1.2-8.833-6.925 11.47-1.5 11.47-1.5-.411-7.766 4.31-7.919 4.544 7.329 4.544 7.329 7.7-4.386 10.549 1.379-8.78 7.233-8.78 7.233z" style="fill:#fff" transform="translate(71.968 -319.303)"/>
            <path data-name="패스 120" d="M324.833 376.575c-.431-.884-1.019-1.884-2-1.992a1.647 1.647 0 0 0-1.676 1.158 1.98 1.98 0 0 0 .613 2 2.5 2.5 0 0 0 2.067.537 1.57 1.57 0 0 0 1.068-.612.841.841 0 0 0-.159-1.129" style="fill:#ffe600" transform="translate(71.968 -319.303)"/>
        </g>
        <g data-name="그룹 87">
            <path data-name="패스 121" d="M343.377 339.484s6.055.043 5.711 4.823-9.118 2.637-9.118 2.637.5 7.7-4.185 7.7-3.357-8.377-3.357-8.377-6.946 3.087-9.124-.841 6.473-6.258 6.473-6.258-4.735-6.8-1.216-8.176 7.563 6.419 7.563 6.419 4.372-7.826 8.486-5.436-1.233 7.509-1.233 7.509z" style="fill:#fff" transform="translate(71.968 -319.303)"/>
            <path data-name="패스 122" d="M337.794 342.206a2.027 2.027 0 1 0-.02.082" style="fill:#ffe600" transform="translate(71.968 -319.303)"/>
        </g>
    </g>
    <g data-name="그룹 37">
        <g data-name="그룹 36">
            <path data-name="패스 39" d="M442.128 250.137a10.156 10.156 0 0 1-3.259-8.786c0-.039.013-.077.017-.115-.058 0-.115.012-.173.014a9.744 9.744 0 0 1-7.892-3.574 8.179 8.179 0 0 1-.971-8.468 9.128 9.128 0 0 1 4.359-4.034 10.87 10.87 0 0 1 2.635-.835 10.956 10.956 0 0 1-.3-3.089 9.746 9.746 0 0 1 4.193-7.581 8.177 8.177 0 0 1 8.518-.292 9.123 9.123 0 0 1 3.673 4.667 10.863 10.863 0 0 1 .326 1.048 11.3 11.3 0 0 1 1.76-.943c2.879-1.207 6.293-1.1 8.38.433a6.036 6.036 0 0 1 2.341 4.29 9.577 9.577 0 0 1-4.11 8.484q-.284.205-.582.391a10.867 10.867 0 0 1 2.19 2.18c2.366 3.18 2.7 8.075-.043 10.934-2.411 2.51-6.562 2.715-9.636 1.061a12.729 12.729 0 0 1-3.176 3.874 6.837 6.837 0 0 1-8.25.341z" style="fill:#ee7264" transform="translate(146.738 -144.822)"/>
            <path data-name="패스 40" d="M446.126 226.77a4.837 4.837 0 0 0-3.574 3.2 6.946 6.946 0 0 0 .613 5.6 5.02 5.02 0 0 0 5.627 2.243 6.3 6.3 0 0 0 4.165-4.01s1.767-8.953-6.831-7.033z" style="fill:#ffe600" transform="translate(146.738 -144.822)"/>
        </g>
    </g>
</svg>
