<?xml version="1.0" encoding="utf-8"?>
<!-- Generator: Adobe Illustrator 24.1.1, SVG Export Plug-In . SVG Version: 6.00 Build 0)  -->
<svg version="1.1" id="Layer_1" xmlns="http://www.w3.org/2000/svg" xmlns:xlink="http://www.w3.org/1999/xlink" x="0px" y="0px"
	 viewBox="0 0 313.3 68.9" style="enable-background:new 0 0 313.3 68.9;" xml:space="preserve">
<style type="text/css">
	.st0{fill:none;stroke:#EE7264;stroke-width:2;stroke-linecap:round;}
	.st1{fill:#FFE600;}
	.st2{fill:#EE7264;}
</style>
<path class="st0" d="M234.3,59.3c0,0-33,14.1-76.6,6.2s-48.2-11-79.6-14.4c-31.4-3.4-47.3,4.1-47.3,4.1S6.8,65.1,1,67.5"/>
<g>
	<g>
		<path class="st1" d="M283.5,31.5c0,0-7.9-5-10.7-18.3s6.9-12.5,8.2-8.2c0,0,5.2-8.1,13.6-3.6c5.8,3.1,4.9,11.2,4.9,11.2
			s8.5-3.2,12.8,4.6c4.3,7.8-6.8,12.1-6.8,12.1s2.6,0.9,1.4,4.5C305.7,37.2,293.1,37.5,283.5,31.5z"/>
		<path class="st2" d="M282.1,31.3c0,0-7.7-7.6-7.2-11.4c0.5-3.8,5.3,4.8,5.3,4.8s-0.5-5.6,1-7.3c1.6-1.7,3.6,7.9,3.6,7.9
			s4.4-5.7,6.7-5.8s-2.1,8.8-2.1,8.8s8.4-1.2,8.3,0.4c-0.2,2.4-6.9,3.1-6.9,3.1s6.2,2.1,4.8,3.7C294.4,37.1,288.3,34.8,282.1,31.3z"
			/>
	</g>
</g>
<path class="st2" d="M269,42.9c-0.3,0.2-0.3,0.6-0.2,0.9c0.5,1,2.3,3.5,6.7,4.4c4.2,0.8,6.6-0.5,7.6-1.1c0.3-0.2,0.4-0.7,0.2-1
	c-0.6-1-2.4-3-7.2-3.9C271.5,41.4,269.7,42.3,269,42.9z"/>
<path class="st2" d="M269.8,42.5c-0.2,0.3-0.6,0.4-0.9,0.3c-1.1-0.4-3.8-1.8-5.2-6.1c-1.3-4.1-0.4-6.6,0.2-7.7
	c0.2-0.3,0.6-0.5,1-0.3c1.1,0.5,3.3,2,4.7,6.7C270.9,39.8,270.3,41.7,269.8,42.5z"/>
<g>
	<path class="st2" d="M283.7,29.9c-4.9,4-9.7,8-14.9,11.6c-5.2,3.6-10.6,6.7-16,9.9c-0.5,0.3,0,1,0.5,0.8
		c12.3-4,23.2-11.4,31.4-21.4c0.2-0.3,0.2-0.8-0.2-1C284.2,29.7,283.9,29.7,283.7,29.9z"/>
</g>
</svg>
