<?xml version="1.0" encoding="utf-8"?>
<!-- Generator: Adobe Illustrator 24.1.1, SVG Export Plug-In . SVG Version: 6.00 Build 0)  -->
<svg version="1.1" id="Layer_1" xmlns="http://www.w3.org/2000/svg" xmlns:xlink="http://www.w3.org/1999/xlink" x="0px" y="0px"
	 viewBox="0 0 306.3 64.1" style="enable-background:new 0 0 306.3 64.1;" xml:space="preserve">
<style type="text/css">
	.st0{fill:none;stroke:#FFFFFF;stroke-width:2;stroke-linecap:round;}
	.st1{fill:#FFE600;}
	.st2{fill:#FFFFFF;}
</style>
<path class="st0" d="M234.3,54.4c0,0-33,14.1-76.6,6.2s-48.2-11-79.6-14.4c-31.4-3.4-47.3,4.1-47.3,4.1S6.8,60.2,1,62.7"/>
<g>
	<g>
		<path class="st1" d="M276.4,31.5c0,0-7.9-5-10.7-18.3c-2.9-13.3,6.9-12.5,8.2-8.2c0,0,5.2-8.1,13.6-3.6c5.8,3.1,4.9,11.2,4.9,11.2
			s8.5-3.2,12.8,4.6c4.3,7.8-6.8,12.1-6.8,12.1s2.6,0.9,1.4,4.5C298.6,37.2,286.1,37.5,276.4,31.5z"/>
		<path class="st2" d="M275.1,31.3c0,0-7.7-7.6-7.2-11.4c0.5-3.8,5.3,4.8,5.3,4.8s-0.5-5.6,1-7.3c1.6-1.7,3.6,7.9,3.6,7.9
			s4.4-5.7,6.7-5.8s-2.1,8.8-2.1,8.8s8.4-1.2,8.3,0.4c-0.2,2.4-6.9,3.1-6.9,3.1s6.2,2.1,4.8,3.7C287.3,37.1,281.3,34.8,275.1,31.3z"
			/>
	</g>
</g>
<path class="st2" d="M261.9,42.9c-0.3,0.2-0.3,0.6-0.2,0.9c0.5,1,2.3,3.5,6.7,4.4c4.2,0.8,6.6-0.5,7.6-1.1c0.3-0.2,0.4-0.7,0.2-1
	c-0.6-1-2.4-3-7.2-3.9C264.4,41.4,262.6,42.3,261.9,42.9z"/>
<path class="st2" d="M262.7,42.5c-0.2,0.3-0.6,0.4-0.9,0.3c-1.1-0.4-3.8-1.8-5.2-6.1c-1.3-4.1-0.4-6.6,0.2-7.7
	c0.2-0.3,0.6-0.5,1-0.3c1.1,0.5,3.3,2,4.7,6.7C263.9,39.8,263.2,41.7,262.7,42.5z"/>
<g>
	<path class="st2" d="M276.6,29.9c-4.9,4-9.7,8-14.9,11.6c-5.2,3.6-10.6,6.7-16,9.9c-0.5,0.3,0,1,0.5,0.8
		c12.3-4,23.2-11.4,31.4-21.4c0.2-0.3,0.2-0.8-0.2-1C277.2,29.7,276.9,29.7,276.6,29.9z"/>
</g>
</svg>
