<svg xmlns="http://www.w3.org/2000/svg" width="730.917" height="167.16" viewBox="0 0 730.917 167.16">
    <g data-name="그룹 32">
        <path data-name="패스 34" d="M64.429 110.471c-.249.582-1.1.173-.984-.388.414-2.023.824-4.06 1.254-6.084q-2.113 1.08-4.222 2.171a14.49 14.49 0 0 1-.736 3.914c-.125.406-.8.376-.776-.087a16.946 16.946 0 0 1 .439-3.273c-4.864 2.524-9.7 5.107-14.483 7.848a.369.369 0 0 1-.387-.628q1.611-1.066 3.257-2.125c-.911-.07-1.826-.248-2.733-.315-1.186-.089-2.376-.071-3.558-.2-.727-.082-.461-1.085.131-1.168a14.561 14.561 0 0 1 7.438.865q2.822-1.8 5.73-3.553c-2.662-.251-5.335-.436-7.984-.762-.517-.064-.332-.778.094-.835a24.712 24.712 0 0 1 9.3.749c3.5-2.077 7.074-4.073 10.7-5.941-1.071-.332-2.143-.658-3.23-.925A32.522 32.522 0 0 1 59.3 98.7c-.428-.171-.153-.716.189-.767 2.706-.4 5.976.827 8.433 2.205a142.336 142.336 0 0 1 13.33-5.948 2.652 2.652 0 0 0-1.123-1.083c-2.894-1.455-10.008-2.816-25.154 4.433-15.805 7.565-19.935 16.132-21.013 20.172a2.766 2.766 0 0 0 1.71 3.28c3.992 1.445 13.529 3.4 27.13-3.395 14.363-7.174 17.9-17.42 18.755-21.483.012-.056.013-.112.022-.168a2.735 2.735 0 0 0 .011-.645c-5.212 2.746-10.452 5.414-15.688 8.085a18.6 18.6 0 0 1-1.473 7.085z" style="fill:#b2ce5b" transform="translate(-33.873 -6.776)"/>
    </g>
    <g data-name="그룹 33">
        <path data-name="패스 35" d="M81.4 116.966c.036.514-.732.534-.858.085-.455-1.618-.917-3.246-1.361-4.871-.751 1.046-7.937 11.263-10.374 15.029a.3.3 0 0 1-.515-.311c.512-.914 4.041-6.966 5.007-8.532-2.02.81-4.025 1.673-6.064 2.425-.4.146-.53-.439-.243-.64a20.138 20.138 0 0 1 7.013-2.926c1.757-2.808 3.6-5.587 5.531-8.291-.9.158-1.8.322-2.683.535a26.576 26.576 0 0 1-3.555.886c-.373.036-.377-.462-.149-.625 1.811-1.3 4.635-1.63 6.927-1.549a116.134 116.134 0 0 1 7.435-9.281 2.158 2.158 0 0 0-1.217-.365c-2.637.026-8.295 1.693-16.556 12.589-8.621 11.37-8.415 19.112-7.689 22.439a2.25 2.25 0 0 0 2.46 1.736c3.429-.442 11.062-2.585 18.375-12.575 7.722-10.548 6.461-19.284 5.566-22.545-.013-.045-.033-.086-.048-.13a2.218 2.218 0 0 0-.232-.471c-2.749 3.932-5.547 7.817-8.342 11.7a15.162 15.162 0 0 1 1.572 5.688z" style="fill:#b2ce5b" transform="translate(-33.873 -6.776)"/>
    </g>
    <g data-name="그룹 35">
        <g data-name="그룹 34">
            <path data-name="패스 36" d="M86.758 117.522c-5.041-4.2-7.24-11.2-6.574-17.722.008-.078.027-.154.035-.232-.116 0-.231.025-.348.029a19.654 19.654 0 0 1-15.919-7.21 16.494 16.494 0 0 1-1.958-17.08 18.4 18.4 0 0 1 8.792-8.135 21.81 21.81 0 0 1 5.314-1.685 22.1 22.1 0 0 1-.6-6.23 19.653 19.653 0 0 1 8.457-15.293 16.492 16.492 0 0 1 17.181-.588 18.4 18.4 0 0 1 7.409 9.412 21.58 21.58 0 0 1 .653 2.112 22.733 22.733 0 0 1 3.551-1.9c5.806-2.434 12.694-2.22 16.9.873a12.185 12.185 0 0 1 4.721 8.654c.661 5.941-2.346 12.792-8.291 17.113q-.57.413-1.173.788a22.047 22.047 0 0 1 4.417 4.4c4.772 6.416 5.451 16.289-.088 22.056-4.862 5.062-13.235 5.477-19.435 2.14a25.7 25.7 0 0 1-6.406 7.814c-6.744 5.762-14.782 2.23-16.638.684z" style="fill:#f0869e" transform="translate(-33.873 -6.776)"/>
            <path data-name="패스 37" d="M94.038 99.08a10.687 10.687 0 0 1-3.428-9.243c0-.041.014-.08.018-.121-.061 0-.121.013-.182.015a10.252 10.252 0 0 1-8.3-3.76 8.6 8.6 0 0 1-1.021-8.908 9.6 9.6 0 0 1 4.585-4.244 11.415 11.415 0 0 1 2.772-.878 11.537 11.537 0 0 1-.313-3.25 10.246 10.246 0 0 1 4.411-7.975 8.6 8.6 0 0 1 8.961-.307 9.594 9.594 0 0 1 3.863 4.909 11.085 11.085 0 0 1 .343 1.1 11.96 11.96 0 0 1 1.852-.993c3.028-1.269 6.621-1.158 8.816.456a6.354 6.354 0 0 1 2.463 4.513 10.076 10.076 0 0 1-4.325 8.925q-.3.216-.611.411a11.478 11.478 0 0 1 2.3 2.294c2.488 3.346 2.842 8.5-.046 11.5-2.536 2.64-6.9 2.856-10.137 1.116a13.405 13.405 0 0 1-3.341 4.075 7.193 7.193 0 0 1-8.68.365z" style="fill:#ee7264" transform="translate(-33.873 -6.776)"/>
            <path data-name="패스 38" d="M98.245 74.5a5.089 5.089 0 0 0-3.76 3.368 7.308 7.308 0 0 0 .645 5.889 5.281 5.281 0 0 0 5.92 2.359 6.625 6.625 0 0 0 4.381-4.218s1.859-9.42-7.186-7.398z" style="fill:#ffe600" transform="translate(-33.873 -6.776)"/>
        </g>
    </g>
    <g data-name="그룹 124">
        <g data-name="그룹 123">
            <g data-name="그룹 118">
                <path data-name="패스 187" d="M460.934 455.168a132.387 132.387 0 0 0-42.389-47.676 1.3 1.3 0 0 1 1.488-2.12 135.267 135.267 0 0 1 43.256 48.716c.776 1.477-1.581 2.552-2.355 1.08z" style="fill:#90d3c7" transform="translate(267.473 -342.62)"/>
            </g>
            <g data-name="그룹 119">
                <path data-name="패스 188" d="M435.6 420.222a36.989 36.989 0 0 0-2.336-12.745c-.576-1.554 1.774-2.646 2.355-1.08a40.713 40.713 0 0 1 2.559 14.082c.01 1.664-2.568 1.4-2.578-.257z" style="fill:#90d3c7" transform="translate(267.473 -342.62)"/>
            </g>
            <g data-name="그룹 120">
                <path data-name="패스 189" d="M443.331 428.648a31.25 31.25 0 0 1-15.638-1.063c-1.587-.522-.681-2.949.9-2.428a28.513 28.513 0 0 0 14.321.933 1.3 1.3 0 0 1 .415 2.558z" style="fill:#90d3c7" transform="translate(267.473 -342.62)"/>
            </g>
            <g data-name="그룹 121">
                <path data-name="패스 190" d="M452.885 439.619a33.7 33.7 0 0 0 2.047-12.315c-.03-1.663 2.548-1.4 2.578.256a35.576 35.576 0 0 1-2.2 12.96 1.3 1.3 0 0 1-2.428-.9z" style="fill:#90d3c7" transform="translate(267.473 -342.62)"/>
            </g>
            <g data-name="그룹 122">
                <path data-name="패스 191" d="M457.53 448.364a34.278 34.278 0 0 1-13.345-3.064c-1.512-.686-.62-3.118.9-2.428a32.435 32.435 0 0 0 12.7 2.914c1.666.043 1.4 2.621-.257 2.578z" style="fill:#90d3c7" transform="translate(267.473 -342.62)"/>
            </g>
        </g>
        <path data-name="패스 192" d="M417.325 398.828a7.383 7.383 0 0 1 4.5 5.882 6.641 6.641 0 0 1-3.412 6.473 7.885 7.885 0 0 1-10.439-3.842c-2.19-5.757 4.082-10.68 9.351-8.513z" style="fill:#ffe600" transform="translate(267.473 -342.62)"/>
        <path data-name="패스 193" d="M438.73 399.784a7.753 7.753 0 0 1-2.167 6.4 4.907 4.907 0 0 1-2.963 1.8 4.3 4.3 0 0 1-2.747-.788 6.465 6.465 0 0 1-2.847-6.61c1.12-4.941 9.594-6.769 10.724-.802z" style="fill:#ffe600" transform="translate(267.473 -342.62)"/>
        <path data-name="패스 194" d="M428.932 423.7a6.1 6.1 0 0 1-1.08 6.779 6.016 6.016 0 0 1-6.75 1.172 5.939 5.939 0 0 1-3.187-6.051c.829-5.493 8.496-7.033 11.017-1.9z" style="fill:#ffe600" transform="translate(267.473 -342.62)"/>
        <path data-name="패스 195" d="M461.239 421.11a6.774 6.774 0 0 1-4.138 5.474 5.959 5.959 0 0 1-4.151.137 6.886 6.886 0 0 1-3.326-2.766 6.411 6.411 0 0 1-1.185-3.936 6.212 6.212 0 0 1 3.8-4.889c4.702-2.145 9.597.225 9 5.98z" style="fill:#ffe600" transform="translate(267.473 -342.62)"/>
        <path data-name="패스 196" d="M445.866 439.992a4.777 4.777 0 0 0-2.345-2.6 9.15 9.15 0 0 0-3.44-.917c-2-.19-4.312.124-5.455 1.774a6.056 6.056 0 0 0-.7 3.978 7.563 7.563 0 0 0 1.2 3.955 5.289 5.289 0 0 0 4.563 1.948c3.763-.241 7.501-4.193 6.177-8.138z" style="fill:#ffe600" transform="translate(267.473 -342.62)"/>
    </g>
    <g data-name="그룹 80">
        <path data-name="패스 103" d="M73.955 188.99a64.044 64.044 0 0 0-25.306 35.73 63.048 63.048 0 0 0-2.029 11.006 63.771 63.771 0 0 0-.251 5.6c-.01.469.016.929.022 1.393l.016.7v.174l.011.145.033.339c.095.914.23 1.837.389 2.752a39.532 39.532 0 0 0 3.339 10.58 19.424 19.424 0 0 0 7.012 8.175l.006.005a.831.831 0 0 1-.853 1.411 21.152 21.152 0 0 1-7.783-8.782 41.37 41.37 0 0 1-3.661-11.042 42.852 42.852 0 0 1-.449-2.888l-.04-.37-.019-.209-.006-.182-.028-.73c-.014-.485-.047-.974-.045-1.457a66.28 66.28 0 0 1 .178-5.794 65.293 65.293 0 0 1 1.939-11.423 66.648 66.648 0 0 1 25.855-37.558 1.472 1.472 0 1 1 1.688 2.411z" style="fill:#729f3a" transform="translate(591.114 -172.672)"/>
        <path data-name="패스 104" d="M66.037 193.795s11.627.641 20.146-7.325c6.061-5.85 1.994-11.5 1.994-11.5a8.673 8.673 0 0 0-10.409-1.025c-6.221 3.431-12.856 14.955-11.731 19.85z" style="fill:#729f3a" transform="translate(591.114 -172.672)"/>
        <path data-name="패스 105" d="M52.179 212.906s10.29 3.735 20.028-.4C79.183 209.423 77 203.7 77 203.7a8.709 8.709 0 0 0-9.1-3.711c-6.486 1.074-15.456 8.619-15.721 12.917z" style="fill:#729f3a" transform="translate(591.114 -172.672)"/>
        <path data-name="패스 106" d="M45.106 231.962s11.677 4.238 22.728-.448c7.916-3.505 5.436-10 5.436-10a9.882 9.882 0 0 0-10.32-4.214c-7.364 1.222-17.543 9.784-17.844 14.662z" style="fill:#729f3a" transform="translate(591.114 -172.672)"/>
        <path data-name="패스 107" d="M52.805 212.534s7.231-9.109 6.351-20.313c-.761-8.07-7.266-7.8-7.266-7.8a9.253 9.253 0 0 0-6.8 7.914c-1.107 6.903 3.473 18.484 7.715 20.199z" style="fill:#729f3a" transform="translate(591.114 -172.672)"/>
        <path data-name="패스 108" d="M46.653 231.053s.986-12.306-6.726-21.619c-5.67-6.632-11.442-2.518-11.442-2.518a9.566 9.566 0 0 0-1.334 11c3.249 6.718 14.571 14.157 19.502 13.137z" style="fill:#729f3a" transform="translate(591.114 -172.672)"/>
        <path data-name="패스 109" d="M46.854 253.3s13.139 4.053 25.1-1.728c8.561-4.3 5.468-11.35 5.468-11.35s-3.71-5.813-11.637-4.1c-8.074 1.756-18.863 11.778-18.931 17.178z" style="fill:#729f3a" transform="translate(591.114 -172.672)"/>
        <path data-name="패스 110" d="M47.459 249.708S44.6 240.2 36.107 235.473c-6.185-3.313-9.309 1.455-9.309 1.455a7.692 7.692 0 0 0 2.213 8.632c4.395 4.084 15.051 6.352 18.448 4.148z" style="fill:#729f3a" transform="translate(591.114 -172.672)"/>
    </g>
    <g data-name="그룹 88">
        <g data-name="그룹 85">
            <path data-name="패스 117" d="M363.266 367.66s4.453 6.988.549 10.221-7.288-5.8-7.288-5.8-6.093 5.206-9.548 1.983 3.719-7.8 3.719-7.8-6.175-.634-6.477-6.194 8.459-1.8 8.459-1.8-2.493-7.471 3.535-8.08 3.194 9.556 3.194 9.556 7.383-3.24 8.934 1.367-5.077 6.547-5.077 6.547z" transform="translate(326.422 -227.429)" style="fill:#fff"/>
            <path data-name="패스 118" d="M358.618 364.1a3.035 3.035 0 0 0-1.328-1.85 1.851 1.851 0 0 0-2.166.2 1.944 1.944 0 0 0-.456 1.689 4.241 4.241 0 0 0 .748 1.641 3.346 3.346 0 0 0 1.774 1.487c2.144.559 1.773-1.953 1.428-3.167z" transform="translate(326.422 -227.429)" style="fill:#ffe600"/>
        </g>
        <g data-name="그룹 86">
            <path data-name="패스 119" d="M329.728 379.757s7.06 7.286 3.027 11.139-9.4-5.346-9.4-5.346-2.587 10.137-8.441 7.953 1.554-13.343 1.554-13.343-11.234-1.2-8.833-6.925 11.47-1.5 11.47-1.5-.411-7.766 4.31-7.919 4.544 7.329 4.544 7.329 7.7-4.386 10.549 1.379-8.78 7.233-8.78 7.233z" transform="translate(324.704 -226.652)" style="fill:#fff"/>
            <path data-name="패스 120" d="M324.833 376.575c-.431-.884-1.019-1.884-2-1.992a1.647 1.647 0 0 0-1.676 1.158 1.98 1.98 0 0 0 .613 2 2.5 2.5 0 0 0 2.067.537 1.57 1.57 0 0 0 1.068-.612.841.841 0 0 0-.159-1.129" transform="translate(324.704 -226.652)" style="fill:#ffe600"/>
        </g>
        <g data-name="그룹 87">
            <path data-name="패스 121" d="M343.377 339.484s6.055.043 5.711 4.823-9.118 2.637-9.118 2.637.5 7.7-4.185 7.7-3.357-8.377-3.357-8.377-6.946 3.087-9.124-.841 6.473-6.258 6.473-6.258-4.735-6.8-1.216-8.176 7.563 6.419 7.563 6.419 4.372-7.826 8.486-5.436-1.233 7.509-1.233 7.509z" transform="translate(325.469 -228.416)" style="fill:#fff"/>
            <path data-name="패스 122" d="M337.794 342.206a2.027 2.027 0 1 0-.02.082" transform="translate(325.469 -228.416)" style="fill:#ffe600"/>
        </g>
    </g>
</svg>
