<svg xmlns="http://www.w3.org/2000/svg" width="697.164" height="68.079" viewBox="0 0 697.164 68.079">
    <g data-name="그룹 91">
        <g data-name="그룹 89">
            <path data-name="패스 123" d="M318.386 213.54c1.354 12.537 2 25.2.813 37.769-1.14 12.119-4.31 23.631-6.978 35.468a1 1 0 0 0 1.869.582c9.985-22.185 10.925-50.531 5.818-73.943-.2-.9-1.628-.854-1.522.124z" transform="rotate(43 762.901 572.394)" style="fill:#90d3c7"/>
        </g>
        <g data-name="그룹 90">
            <path data-name="패스 124" d="M322.771 241.039c2.327-1.6 5.884-5.545 8.421-8.545 2.557-3.023 5.778-6.013 7.157-9.769a1.085 1.085 0 0 0-1.574-1.353c-3.656 2.192-6.152 6.254-8.8 9.532-2.382 2.949-5.212 5.728-6.34 9.4-.209.678.653.994 1.137.737z" transform="rotate(43 763.304 571.37)" style="fill:#90d3c7"/>
        </g>
        <path data-name="패스 125" d="M321.335 250.838a1.088 1.088 0 0 0 .873 1c1.623.332 5.933.665 10.838-3.451 4.644-3.9 5.443-7.7 5.548-9.387a1.09 1.09 0 0 0-.928-1.146c-1.649-.247-5.439-.1-10.716 4.485-5.056 4.39-5.688 7.209-5.615 8.499z" transform="rotate(43 764.571 571.87)" style="fill:#90d3c7"/>
        <path data-name="패스 126" d="M319.457 252.427a1.086 1.086 0 0 0 .9-.974c.158-1.648.034-5.969-4.578-10.411-4.367-4.206-8.23-4.6-9.921-4.525a1.091 1.091 0 0 0-1.042 1.044c-.071 1.666.48 5.419 5.594 10.182 4.903 4.564 7.773 4.893 9.047 4.684z" transform="rotate(43 763.945 573.39)" style="fill:#90d3c7"/>
        <path data-name="패스 127" d="M318.645 272.361a1.088 1.088 0 0 0 .873 1c1.623.332 5.933.665 10.837-3.451 4.644-3.9 5.444-7.7 5.549-9.387a1.091 1.091 0 0 0-.928-1.146c-1.65-.247-5.44-.1-10.716 4.486-5.06 4.389-5.688 7.208-5.615 8.498z" transform="rotate(43 765.355 572.727)" style="fill:#90d3c7"/>
        <path data-name="패스 128" d="M316.767 273.95a1.088 1.088 0 0 0 .9-.974c.158-1.648.033-5.969-4.578-10.411-4.367-4.206-8.23-4.6-9.922-4.525a1.09 1.09 0 0 0-1.041 1.044c-.071 1.666.48 5.419 5.594 10.182 4.902 4.563 7.772 4.893 9.047 4.684z" transform="rotate(43 764.941 573.782)" style="fill:#90d3c7"/>
        <path data-name="패스 129" d="M337.82 218.033a6.331 6.331 0 0 1-.849 12.608 6.9 6.9 0 0 1-5-2.305c-1.837-2.039-2.424-4.359-.856-6.6s3.768-4.087 6.705-3.703z" transform="rotate(43 763.304 571.37)" style="fill:#f0869e"/>
        <path data-name="패스 130" d="M319.266 209.676a6.665 6.665 0 0 1 5.941 4.244 5.7 5.7 0 0 1-.1 4.321 6.267 6.267 0 0 1-3.947 3.183 7.126 7.126 0 0 1-6.579-1.222c-4.435-3.794-.642-10.654 4.685-10.526z" transform="rotate(43 762.926 572.331)" style="fill:#f0869e"/>
    </g>
    <g data-name="그룹 79">
        <path data-name="패스 97" d="M393.094 361.932a51.246 51.246 0 0 0 50.181-27.332.844.844 0 0 1 1.5.768 53.5 53.5 0 0 1-51.921 29.365 1.407 1.407 0 1 1 .211-2.805z" transform="scale(-1) rotate(57 546.456 -263.415)" style="fill:#729f3a"/>
        <path data-name="패스 98" d="M444.012 340.608s-2.147-8.218 7.3-14.56-.4 18.146-6.633 15.057" transform="scale(-1) rotate(57 548.31 -268.307)" style="fill:#729f3a"/>
        <path data-name="패스 99" d="M432.767 351.135s-5.455-1.382-5.085-12.337c.182-5.392 4.525-10.751 6.361-10.756 1.288-.003 6.733 16.558-1.276 23.093z" transform="scale(-1) rotate(57 546.686 -267.582)" style="fill:#729f3a"/>
        <path data-name="패스 100" d="M434.318 353.02a16.412 16.412 0 0 1 13.059-4.14c7.757 1.129 8.64 2.323 8.5 3.937s-6.519 5.932-12.949 5.594-10.228-2.244-8.61-5.391z" transform="scale(-1) rotate(57 549.995 -266.662)" style="fill:#729f3a"/>
        <path data-name="패스 101" d="M410.106 363.876s12.146-4.445 21.5-1.21 10.584 6.914 10.533 7.719-5.346 5.933-18.181 3.16-14.086-6.952-13.852-9.669z" transform="scale(-1) rotate(57 547.9 -260.91)" style="fill:#729f3a"/>
        <path data-name="패스 102" d="M410.567 362.641s-2.539-12.682 2.087-21.437 8.45-9.4 9.236-9.231 5.048 6.188.347 18.451-9.021 12.863-11.67 12.217z" transform="scale(-1) rotate(57 547.621 -267.356)" style="fill:#729f3a"/>
    </g>
</svg>
