<svg xmlns="http://www.w3.org/2000/svg" width="2169.714" height="1334" viewBox="0 0 2169.714 1334">
    <path transform="translate(124.493)" style="fill:#fcf2f0" d="M0 0h1920v1334H0z"/>
    <path data-name="패스 149" d="M62.651 150.573c2.367.286 4.193 3.014 3.158 5.161a3.573 3.573 0 1 1-4.088-5.058 1.841 1.841 0 0 1 .93-.103z" transform="translate(1462.483 -19.192)" style="fill:#f2b696;opacity:.5"/>
    <path data-name="패스 150" d="M153.368 93.351c2.367.285 4.193 3.013 3.158 5.161a3.573 3.573 0 1 1-4.088-5.058 1.841 1.841 0 0 1 .93-.103z" transform="translate(1462.483 -19.192)" style="fill:#f2b696;opacity:.5"/>
    <path data-name="패스 170" d="M44.332 47.143c2.367.285 4.193 3.013 3.159 5.161a3.573 3.573 0 1 1-4.091-5.058 1.841 1.841 0 0 1 .932-.103z" transform="translate(1439.483 -24.192)" style="fill:#f2b696;opacity:.5"/>
    <path data-name="패스 147" d="M136.4 316.22c2.367.285 4.193 3.013 3.158 5.161a3.573 3.573 0 1 1-4.088-5.058 1.825 1.825 0 0 1 .93-.103z" transform="translate(1685.537 528)" style="fill:#f2b696;opacity:.5"/>
    <path data-name="패스 245" d="M115.763 447.566c2.367.286 4.194 3.013 3.159 5.161a3.573 3.573 0 1 1-4.088-5.058 1.835 1.835 0 0 1 .929-.103z" transform="translate(1945.101 676.694)" style="fill:#f2b696;opacity:.5"/>
    <path data-name="패스 149" d="M62.651 150.573c2.367.286 4.193 3.014 3.158 5.161a3.573 3.573 0 1 1-4.088-5.058 1.841 1.841 0 0 1 .93-.103z" transform="translate(1685.537 528)" style="fill:#f2b696;opacity:.5"/>
    <path data-name="패스 219" d="M62.651 150.573c2.367.286 4.193 3.014 3.158 5.161a3.573 3.573 0 1 1-4.088-5.058 1.841 1.841 0 0 1 .93-.103z" transform="translate(1623.97 -19.508)" style="fill:#f2b696;opacity:.5"/>
    <path data-name="패스 244" d="M62.651 150.573c2.367.286 4.193 3.014 3.158 5.161a3.573 3.573 0 1 1-4.088-5.058 1.841 1.841 0 0 1 .93-.103z" transform="translate(1421.477 103.935)" style="fill:#f2b696;opacity:.5"/>
    <path data-name="패스 150" d="M153.368 93.351c2.367.285 4.193 3.013 3.158 5.161a3.573 3.573 0 1 1-4.088-5.058 1.841 1.841 0 0 1 .93-.103z" transform="translate(1685.537 528)" style="fill:#f2b696;opacity:.5"/>
    <path data-name="패스 218" d="M153.368 93.351c2.367.285 4.193 3.013 3.158 5.161a3.573 3.573 0 1 1-4.088-5.058 1.841 1.841 0 0 1 .93-.103z" transform="translate(1623.97 -19.508)" style="fill:#f2b696;opacity:.5"/>
    <path data-name="패스 243" d="M153.368 93.351c2.367.285 4.193 3.013 3.158 5.161a3.573 3.573 0 1 1-4.088-5.058 1.841 1.841 0 0 1 .93-.103z" transform="translate(1421.477 103.935)" style="fill:#f2b696;opacity:.5"/>
    <path data-name="패스 151" d="M246.679 116.51c2.367.286 4.193 3.014 3.158 5.161a3.573 3.573 0 1 1-4.088-5.058 1.838 1.838 0 0 1 .93-.103z" transform="translate(1685.537 528)" style="fill:#f2b696;opacity:.5"/>
    <path data-name="패스 217" d="M246.679 116.51c2.367.286 4.193 3.014 3.158 5.161a3.573 3.573 0 1 1-4.088-5.058 1.838 1.838 0 0 1 .93-.103z" transform="translate(1623.97 -19.508)" style="fill:#f2b696;opacity:.5"/>
    <path data-name="패스 241" d="M186.321 203.642c2.367.285 4.193 3.013 3.158 5.161a3.573 3.573 0 1 1-4.088-5.058 1.841 1.841 0 0 1 .93-.103z" transform="translate(1421.477 103.935)" style="fill:#f2b696;opacity:.5"/>
    <path data-name="패스 153" d="M222.732 294.028c2.367.286 4.193 3.013 3.158 5.161a3.573 3.573 0 1 1-4.088-5.058 1.838 1.838 0 0 1 .93-.103z" transform="translate(1685.537 528)" style="fill:#f2b696;opacity:.5"/>
    <path data-name="패스 215" d="M222.732 294.028c2.367.286 4.193 3.013 3.158 5.161a3.573 3.573 0 1 1-4.088-5.058 1.838 1.838 0 0 1 .93-.103z" transform="translate(1623.97 -19.508)" style="fill:#f2b696;opacity:.5"/>
    <path data-name="패스 239" d="M32.583 451.085c2.367.286 4.194 3.013 3.159 5.161a3.726 3.726 0 0 1-5.963.661 3.752 3.752 0 0 1 1.874-5.719 1.841 1.841 0 0 1 .93-.103z" transform="translate(1945.101 846.694)" style="fill:#f2b696;opacity:.5"/>
    <path data-name="패스 213" d="M29.1 352.187c2.367.285 4.194 3.013 3.159 5.161a3.726 3.726 0 0 1-5.963.661 3.752 3.752 0 0 1 1.875-5.719 1.822 1.822 0 0 1 .929-.103z" transform="translate(1663.97 -159.508)" style="fill:#f2b696;opacity:.5"/>
    <path data-name="패스 238" d="M29.1 352.187c2.367.285 4.194 3.013 3.159 5.161a3.726 3.726 0 0 1-5.963.661 3.752 3.752 0 0 1 1.875-5.719 1.822 1.822 0 0 1 .929-.103z" transform="translate(1782.603 903.827)" style="fill:#f2b696;opacity:.5"/>
    <path data-name="패스 212" d="M217.532 385.4c2.366.286 4.193 3.014 3.158 5.161a3.573 3.573 0 1 1-4.09-5.061 1.838 1.838 0 0 1 .932-.1z" transform="translate(1623.97 -19.508)" style="fill:#f2b696;opacity:.5"/>
    <path data-name="패스 237" d="M217.532 385.4c2.366.286 4.193 3.014 3.158 5.161a3.573 3.573 0 1 1-4.09-5.061 1.838 1.838 0 0 1 .932-.1z" transform="translate(1945.101 676.694)" style="fill:#f2b696;opacity:.5"/>
    <path data-name="패스 157" d="M359.3 105.976c2.367.285 4.193 3.013 3.158 5.161a3.573 3.573 0 1 1-4.088-5.058 1.838 1.838 0 0 1 .93-.103z" transform="translate(1685.537 528)" style="fill:#f2b696;opacity:.5"/>
    <path data-name="패스 211" d="M359.3 105.976c2.367.285 4.193 3.013 3.158 5.161a3.573 3.573 0 1 1-4.088-5.058 1.838 1.838 0 0 1 .93-.103z" transform="translate(1623.97 -19.508)" style="fill:#f2b696;opacity:.5"/>
    <path data-name="패스 236" d="M359.3 105.976c2.367.285 4.193 3.013 3.158 5.161a3.573 3.573 0 1 1-4.088-5.058 1.838 1.838 0 0 1 .93-.103z" transform="translate(1202.603 723.827)" style="fill:#f2b696;opacity:.5"/>
    <path data-name="패스 158" d="M470.944 186.98c2.367.286 4.193 3.014 3.159 5.161a3.573 3.573 0 1 1-4.089-5.058 1.841 1.841 0 0 1 .93-.103z" transform="translate(1685.537 528)" style="fill:#f2b696;opacity:.5"/>
    <path data-name="패스 210" d="M470.944 186.98c2.367.286 4.193 3.014 3.159 5.161a3.573 3.573 0 1 1-4.089-5.058 1.841 1.841 0 0 1 .93-.103z" transform="translate(1623.97 -19.508)" style="fill:#f2b696;opacity:.5"/>
    <path data-name="패스 159" d="M295.981 184c2.367.285 4.193 3.013 3.158 5.161a3.573 3.573 0 1 1-4.088-5.058 1.828 1.828 0 0 1 .93-.103z" transform="translate(1685.537 528)" style="fill:#f2b696;opacity:.5"/>
    <path data-name="패스 209" d="M295.981 184c2.367.285 4.193 3.013 3.158 5.161a3.573 3.573 0 1 1-4.088-5.058 1.828 1.828 0 0 1 .93-.103z" transform="translate(1623.97 -19.508)" style="fill:#f2b696;opacity:.5"/>
    <path data-name="패스 234" d="M295.981 184c2.367.285 4.193 3.013 3.158 5.161a3.573 3.573 0 1 1-4.088-5.058 1.828 1.828 0 0 1 .93-.103z" transform="translate(1202.603 723.827)" style="fill:#f2b696;opacity:.5"/>
    <path data-name="패스 160" d="M298.969 403.843c2.367.285 4.193 3.013 3.158 5.161a3.573 3.573 0 1 1-4.088-5.058 1.828 1.828 0 0 1 .93-.103z" transform="translate(1685.537 528)" style="fill:#f2b696;opacity:.5"/>
    <path data-name="패스 233" d="M298.969 403.843c2.367.285 4.193 3.013 3.158 5.161a3.573 3.573 0 1 1-4.088-5.058 1.828 1.828 0 0 1 .93-.103z" transform="translate(1290.603 780.827)" style="fill:#f2b696;opacity:.5"/>
    <path data-name="패스 161" d="M333.838 304.291c2.367.285 4.193 3.013 3.158 5.161a3.573 3.573 0 1 1-4.088-5.058 1.841 1.841 0 0 1 .93-.103z" transform="translate(1685.537 528)" style="fill:#f2b696;opacity:.5"/>
    <path data-name="패스 207" d="M333.838 304.291c2.367.285 4.193 3.013 3.158 5.161a3.573 3.573 0 1 1-4.088-5.058 1.841 1.841 0 0 1 .93-.103z" transform="translate(1623.97 -19.508)" style="fill:#f2b696;opacity:.5"/>
    <path data-name="패스 232" d="M333.838 304.291c2.367.285 4.193 3.013 3.158 5.161a3.573 3.573 0 1 1-4.088-5.058 1.841 1.841 0 0 1 .93-.103z" transform="translate(1202.603 723.827)" style="fill:#f2b696;opacity:.5"/>
    <path data-name="패스 162" d="M463.986 280.183c2.367.286 4.193 3.014 3.159 5.161a3.573 3.573 0 1 1-4.089-5.058 1.841 1.841 0 0 1 .93-.103z" transform="translate(1685.537 528)" style="fill:#f2b696;opacity:.5"/>
    <path data-name="패스 206" d="M463.986 280.183c2.367.286 4.193 3.014 3.159 5.161a3.573 3.573 0 1 1-4.089-5.058 1.841 1.841 0 0 1 .93-.103z" transform="translate(1623.97 -19.508)" style="fill:#f2b696;opacity:.5"/>
    <path data-name="패스 163" d="M461.313 385.4c2.367.286 4.193 3.014 3.158 5.161a3.573 3.573 0 1 1-4.088-5.058 1.838 1.838 0 0 1 .93-.103z" transform="translate(1685.537 528)" style="fill:#f2b696;opacity:.5"/>
    <path data-name="패스 205" d="M461.313 385.4c2.367.286 4.193 3.014 3.158 5.161a3.573 3.573 0 1 1-4.088-5.058 1.838 1.838 0 0 1 .93-.103z" transform="translate(1623.97 -19.508)" style="fill:#f2b696;opacity:.5"/>
    <path data-name="패스 230" d="M461.313 385.4c2.367.286 4.193 3.014 3.158 5.161a3.573 3.573 0 1 1-4.088-5.058 1.838 1.838 0 0 1 .93-.103z" transform="translate(1072.603 883.827)" style="fill:#f2b696;opacity:.5"/>
    <path data-name="패스 164" d="M411.292 449.465c2.367.286 4.194 3.014 3.159 5.161a3.573 3.573 0 1 1-4.089-5.058 1.841 1.841 0 0 1 .93-.103z" transform="translate(1685.537 528)" style="fill:#f2b696;opacity:.5"/>
    <path data-name="패스 204" d="M411.292 449.465c2.367.286 4.194 3.014 3.159 5.161a3.573 3.573 0 1 1-4.089-5.058 1.841 1.841 0 0 1 .93-.103z" transform="translate(1616.97 -27.508)" style="fill:#f2b696;opacity:.5"/>
    <path data-name="패스 165" d="M394.36 220.808c2.367.286 4.193 3.014 3.158 5.161a3.573 3.573 0 1 1-4.088-5.058 1.838 1.838 0 0 1 .93-.103z" transform="translate(1685.537 528)" style="fill:#f2b696;opacity:.5"/>
    <path data-name="패스 203" d="M394.36 220.808c2.367.286 4.193 3.014 3.158 5.161a3.573 3.573 0 1 1-4.088-5.058 1.838 1.838 0 0 1 .93-.103z" transform="translate(1763.97 .492)" style="fill:#f2b696;opacity:.5"/>
    <path data-name="패스 228" d="M394.36 220.808c2.367.286 4.193 3.014 3.158 5.161a3.573 3.573 0 1 1-4.088-5.058 1.838 1.838 0 0 1 .93-.103z" transform="translate(1202.603 723.827)" style="fill:#f2b696;opacity:.5"/>
    <path data-name="패스 166" d="M467.465 47.143c2.367.285 4.193 3.013 3.159 5.161a3.573 3.573 0 1 1-4.089-5.058 1.841 1.841 0 0 1 .93-.103z" transform="translate(1685.537 528)" style="fill:#f2b696;opacity:.5"/>
    <path data-name="패스 202" d="M467.465 47.143c2.367.285 4.193 3.013 3.159 5.161a3.573 3.573 0 1 1-4.089-5.058 1.841 1.841 0 0 1 .93-.103z" transform="translate(1623.97 -19.508)" style="fill:#f2b696;opacity:.5"/>
    <path data-name="패스 227" d="M467.465 47.143c2.367.285 4.193 3.013 3.159 5.161a3.573 3.573 0 1 1-4.089-5.058 1.841 1.841 0 0 1 .93-.103z" transform="translate(1132.603 673.827)" style="fill:#f2b696;opacity:.5"/>
    <path data-name="패스 226" d="M343.2 43.624c2.367.285 4.193 3.013 3.158 5.161a3.573 3.573 0 1 1-4.088-5.058 1.841 1.841 0 0 1 .93-.103z" transform="translate(1172.603 583.827)" style="fill:#f2b696;opacity:.5"/>
    <path data-name="패스 225" d="M221.158 451.085c2.367.286 4.193 3.013 3.159 5.161a3.573 3.573 0 1 1-4.089-5.058 1.841 1.841 0 0 1 .93-.103z" transform="translate(1945.101 676.694)" style="fill:#f2b696;opacity:.5"/>
    <path data-name="패스 169" d="M268.922 37.735c2.367.286 4.193 3.014 3.158 5.162a3.573 3.573 0 1 1-4.088-5.058 1.834 1.834 0 0 1 .93-.104z" transform="translate(1685.537 528)" style="fill:#f2b696;opacity:.5"/>
    <path data-name="패스 199" d="M268.922 37.735c2.367.286 4.193 3.014 3.158 5.162a3.573 3.573 0 1 1-4.088-5.058 1.834 1.834 0 0 1 .93-.104z" transform="translate(1623.97 -19.508)" style="fill:#f2b696;opacity:.5"/>
    <path data-name="패스 224" d="M268.922 37.735c2.367.286 4.193 3.014 3.158 5.162a3.573 3.573 0 1 1-4.088-5.058 1.834 1.834 0 0 1 .93-.104z" transform="translate(1202.603 723.827)" style="fill:#f2b696;opacity:.5"/>
    <path data-name="패스 170" d="M44.332 47.143c2.367.285 4.193 3.013 3.159 5.161a3.573 3.573 0 1 1-4.091-5.058 1.841 1.841 0 0 1 .932-.103z" transform="translate(1685.537 528)" style="fill:#f2b696;opacity:.5"/>
    <path data-name="패스 198" d="M44.332 47.143c2.367.285 4.193 3.013 3.159 5.161a3.573 3.573 0 1 1-4.091-5.058 1.841 1.841 0 0 1 .932-.103z" transform="translate(1623.97 -19.508)" style="fill:#f2b696;opacity:.5"/>
    <path data-name="패스 223" d="M44.332 47.143c2.367.285 4.193 3.013 3.159 5.161a3.573 3.573 0 1 1-4.091-5.058 1.841 1.841 0 0 1 .932-.103z" transform="translate(1471.477 343.935)" style="fill:#f2b696;opacity:.5"/>
    <path data-name="패스 171" d="M29.1 279.256c2.367.285 4.194 3.013 3.159 5.161a3.726 3.726 0 0 1-5.963.661 3.752 3.752 0 0 1 1.875-5.719 1.822 1.822 0 0 1 .929-.103z" transform="translate(1685.537 528)" style="fill:#f2b696;opacity:.5"/>
    <path data-name="패스 197" d="M29.1 279.256c2.367.285 4.194 3.013 3.159 5.161a3.726 3.726 0 0 1-5.963.661 3.752 3.752 0 0 1 1.875-5.719 1.822 1.822 0 0 1 .929-.103z" transform="translate(1623.97 -19.508)" style="fill:#f2b696;opacity:.5"/>
    <path data-name="패스 149" d="M62.651 150.573c2.367.286 4.193 3.014 3.158 5.161a3.573 3.573 0 1 1-4.088-5.058 1.841 1.841 0 0 1 .93-.103z" transform="translate(717.661 -19.192)" style="fill:#f2b696;opacity:.5"/>
    <path data-name="패스 150" d="M153.368 93.351c2.367.285 4.193 3.013 3.158 5.161a3.573 3.573 0 1 1-4.088-5.058 1.841 1.841 0 0 1 .93-.103z" transform="translate(717.661 -19.192)" style="fill:#f2b696;opacity:.5"/>
    <path data-name="패스 170" d="M44.332 47.143c2.367.285 4.193 3.013 3.159 5.161a3.573 3.573 0 1 1-4.091-5.058 1.841 1.841 0 0 1 .932-.103z" transform="translate(694.661 -24.192)" style="fill:#f2b696;opacity:.5"/>
    <path data-name="패스 147" d="M136.4 316.22c2.367.285 4.193 3.013 3.158 5.161a3.573 3.573 0 1 1-4.088-5.058 1.825 1.825 0 0 1 .93-.103z" transform="translate(940.715 528)" style="fill:#f2b696;opacity:.5"/>
    <path data-name="패스 245" d="M115.763 447.566c2.367.286 4.194 3.013 3.159 5.161a3.573 3.573 0 1 1-4.088-5.058 1.835 1.835 0 0 1 .929-.103z" transform="translate(1200.279 676.694)" style="fill:#f2b696;opacity:.5"/>
    <path data-name="패스 149" d="M62.651 150.573c2.367.286 4.193 3.014 3.158 5.161a3.573 3.573 0 1 1-4.088-5.058 1.841 1.841 0 0 1 .93-.103z" transform="translate(940.715 528)" style="fill:#f2b696;opacity:.5"/>
    <path data-name="패스 219" d="M62.651 150.573c2.367.286 4.193 3.014 3.158 5.161a3.573 3.573 0 1 1-4.088-5.058 1.841 1.841 0 0 1 .93-.103z" transform="translate(879.148 -19.508)" style="fill:#f2b696;opacity:.5"/>
    <path data-name="패스 244" d="M62.651 150.573c2.367.286 4.193 3.014 3.158 5.161a3.573 3.573 0 1 1-4.088-5.058 1.841 1.841 0 0 1 .93-.103z" transform="translate(676.655 103.935)" style="fill:#f2b696;opacity:.5"/>
    <path data-name="패스 150" d="M153.368 93.351c2.367.285 4.193 3.013 3.158 5.161a3.573 3.573 0 1 1-4.088-5.058 1.841 1.841 0 0 1 .93-.103z" transform="translate(940.715 528)" style="fill:#f2b696;opacity:.5"/>
    <path data-name="패스 218" d="M153.368 93.351c2.367.285 4.193 3.013 3.158 5.161a3.573 3.573 0 1 1-4.088-5.058 1.841 1.841 0 0 1 .93-.103z" transform="translate(879.148 -19.508)" style="fill:#f2b696;opacity:.5"/>
    <path data-name="패스 243" d="M153.368 93.351c2.367.285 4.193 3.013 3.158 5.161a3.573 3.573 0 1 1-4.088-5.058 1.841 1.841 0 0 1 .93-.103z" transform="translate(676.655 103.935)" style="fill:#f2b696;opacity:.5"/>
    <path data-name="패스 151" d="M246.679 116.51c2.367.286 4.193 3.014 3.158 5.161a3.573 3.573 0 1 1-4.088-5.058 1.838 1.838 0 0 1 .93-.103z" transform="translate(940.715 528)" style="fill:#f2b696;opacity:.5"/>
    <path data-name="패스 217" d="M246.679 116.51c2.367.286 4.193 3.014 3.158 5.161a3.573 3.573 0 1 1-4.088-5.058 1.838 1.838 0 0 1 .93-.103z" transform="translate(879.148 -19.508)" style="fill:#f2b696;opacity:.5"/>
    <path data-name="패스 241" d="M186.321 203.642c2.367.285 4.193 3.013 3.158 5.161a3.573 3.573 0 1 1-4.088-5.058 1.841 1.841 0 0 1 .93-.103z" transform="translate(676.655 103.935)" style="fill:#f2b696;opacity:.5"/>
    <path data-name="패스 153" d="M222.732 294.028c2.367.286 4.193 3.013 3.158 5.161a3.573 3.573 0 1 1-4.088-5.058 1.838 1.838 0 0 1 .93-.103z" transform="translate(940.715 528)" style="fill:#f2b696;opacity:.5"/>
    <path data-name="패스 215" d="M222.732 294.028c2.367.286 4.193 3.013 3.158 5.161a3.573 3.573 0 1 1-4.088-5.058 1.838 1.838 0 0 1 .93-.103z" transform="translate(879.148 -19.508)" style="fill:#f2b696;opacity:.5"/>
    <path data-name="패스 239" d="M32.583 451.085c2.367.286 4.194 3.013 3.159 5.161a3.726 3.726 0 0 1-5.963.661 3.752 3.752 0 0 1 1.874-5.719 1.841 1.841 0 0 1 .93-.103z" transform="translate(1200.279 846.694)" style="fill:#f2b696;opacity:.5"/>
    <path data-name="패스 213" d="M29.1 352.187c2.367.285 4.194 3.013 3.159 5.161a3.726 3.726 0 0 1-5.963.661 3.752 3.752 0 0 1 1.875-5.719 1.822 1.822 0 0 1 .929-.103z" transform="translate(919.148 -159.508)" style="fill:#f2b696;opacity:.5"/>
    <path data-name="패스 238" d="M29.1 352.187c2.367.285 4.194 3.013 3.159 5.161a3.726 3.726 0 0 1-5.963.661 3.752 3.752 0 0 1 1.875-5.719 1.822 1.822 0 0 1 .929-.103z" transform="translate(1037.781 903.827)" style="fill:#f2b696;opacity:.5"/>
    <path data-name="패스 212" d="M217.532 385.4c2.366.286 4.193 3.014 3.158 5.161a3.573 3.573 0 1 1-4.09-5.061 1.838 1.838 0 0 1 .932-.1z" transform="translate(879.148 -19.508)" style="fill:#f2b696;opacity:.5"/>
    <path data-name="패스 237" d="M217.532 385.4c2.366.286 4.193 3.014 3.158 5.161a3.573 3.573 0 1 1-4.09-5.061 1.838 1.838 0 0 1 .932-.1z" transform="translate(1200.279 676.694)" style="fill:#f2b696;opacity:.5"/>
    <path data-name="패스 157" d="M359.3 105.976c2.367.285 4.193 3.013 3.158 5.161a3.573 3.573 0 1 1-4.088-5.058 1.838 1.838 0 0 1 .93-.103z" transform="translate(940.715 528)" style="fill:#f2b696;opacity:.5"/>
    <path data-name="패스 211" d="M359.3 105.976c2.367.285 4.193 3.013 3.158 5.161a3.573 3.573 0 1 1-4.088-5.058 1.838 1.838 0 0 1 .93-.103z" transform="translate(879.148 -19.508)" style="fill:#f2b696;opacity:.5"/>
    <path data-name="패스 236" d="M359.3 105.976c2.367.285 4.193 3.013 3.158 5.161a3.573 3.573 0 1 1-4.088-5.058 1.838 1.838 0 0 1 .93-.103z" transform="translate(457.781 723.827)" style="fill:#f2b696;opacity:.5"/>
    <path data-name="패스 158" d="M470.944 186.98c2.367.286 4.193 3.014 3.159 5.161a3.573 3.573 0 1 1-4.089-5.058 1.841 1.841 0 0 1 .93-.103z" transform="translate(940.715 528)" style="fill:#f2b696;opacity:.5"/>
    <path data-name="패스 210" d="M470.944 186.98c2.367.286 4.193 3.014 3.159 5.161a3.573 3.573 0 1 1-4.089-5.058 1.841 1.841 0 0 1 .93-.103z" transform="translate(879.148 -19.508)" style="fill:#f2b696;opacity:.5"/>
    <path data-name="패스 159" d="M295.981 184c2.367.285 4.193 3.013 3.158 5.161a3.573 3.573 0 1 1-4.088-5.058 1.828 1.828 0 0 1 .93-.103z" transform="translate(940.715 528)" style="fill:#f2b696;opacity:.5"/>
    <path data-name="패스 209" d="M295.981 184c2.367.285 4.193 3.013 3.158 5.161a3.573 3.573 0 1 1-4.088-5.058 1.828 1.828 0 0 1 .93-.103z" transform="translate(879.148 -19.508)" style="fill:#f2b696;opacity:.5"/>
    <path data-name="패스 234" d="M295.981 184c2.367.285 4.193 3.013 3.158 5.161a3.573 3.573 0 1 1-4.088-5.058 1.828 1.828 0 0 1 .93-.103z" transform="translate(457.781 723.827)" style="fill:#f2b696;opacity:.5"/>
    <path data-name="패스 160" d="M298.969 403.843c2.367.285 4.193 3.013 3.158 5.161a3.573 3.573 0 1 1-4.088-5.058 1.828 1.828 0 0 1 .93-.103z" transform="translate(940.715 528)" style="fill:#f2b696;opacity:.5"/>
    <path data-name="패스 233" d="M298.969 403.843c2.367.285 4.193 3.013 3.158 5.161a3.573 3.573 0 1 1-4.088-5.058 1.828 1.828 0 0 1 .93-.103z" transform="translate(545.781 780.827)" style="fill:#f2b696;opacity:.5"/>
    <path data-name="패스 161" d="M333.838 304.291c2.367.285 4.193 3.013 3.158 5.161a3.573 3.573 0 1 1-4.088-5.058 1.841 1.841 0 0 1 .93-.103z" transform="translate(940.715 528)" style="fill:#f2b696;opacity:.5"/>
    <path data-name="패스 207" d="M333.838 304.291c2.367.285 4.193 3.013 3.158 5.161a3.573 3.573 0 1 1-4.088-5.058 1.841 1.841 0 0 1 .93-.103z" transform="translate(879.148 -19.508)" style="fill:#f2b696;opacity:.5"/>
    <path data-name="패스 232" d="M333.838 304.291c2.367.285 4.193 3.013 3.158 5.161a3.573 3.573 0 1 1-4.088-5.058 1.841 1.841 0 0 1 .93-.103z" transform="translate(457.781 723.827)" style="fill:#f2b696;opacity:.5"/>
    <path data-name="패스 162" d="M463.986 280.183c2.367.286 4.193 3.014 3.159 5.161a3.573 3.573 0 1 1-4.089-5.058 1.841 1.841 0 0 1 .93-.103z" transform="translate(940.715 528)" style="fill:#f2b696;opacity:.5"/>
    <path data-name="패스 206" d="M463.986 280.183c2.367.286 4.193 3.014 3.159 5.161a3.573 3.573 0 1 1-4.089-5.058 1.841 1.841 0 0 1 .93-.103z" transform="translate(879.148 -19.508)" style="fill:#f2b696;opacity:.5"/>
    <path data-name="패스 163" d="M461.313 385.4c2.367.286 4.193 3.014 3.158 5.161a3.573 3.573 0 1 1-4.088-5.058 1.838 1.838 0 0 1 .93-.103z" transform="translate(940.715 528)" style="fill:#f2b696;opacity:.5"/>
    <path data-name="패스 205" d="M461.313 385.4c2.367.286 4.193 3.014 3.158 5.161a3.573 3.573 0 1 1-4.088-5.058 1.838 1.838 0 0 1 .93-.103z" transform="translate(879.148 -19.508)" style="fill:#f2b696;opacity:.5"/>
    <path data-name="패스 230" d="M461.313 385.4c2.367.286 4.193 3.014 3.158 5.161a3.573 3.573 0 1 1-4.088-5.058 1.838 1.838 0 0 1 .93-.103z" transform="translate(327.781 883.827)" style="fill:#f2b696;opacity:.5"/>
    <path data-name="패스 164" d="M411.292 449.465c2.367.286 4.194 3.014 3.159 5.161a3.573 3.573 0 1 1-4.089-5.058 1.841 1.841 0 0 1 .93-.103z" transform="translate(940.715 528)" style="fill:#f2b696;opacity:.5"/>
    <path data-name="패스 204" d="M411.292 449.465c2.367.286 4.194 3.014 3.159 5.161a3.573 3.573 0 1 1-4.089-5.058 1.841 1.841 0 0 1 .93-.103z" transform="translate(872.148 -27.508)" style="fill:#f2b696;opacity:.5"/>
    <path data-name="패스 165" d="M394.36 220.808c2.367.286 4.193 3.014 3.158 5.161a3.573 3.573 0 1 1-4.088-5.058 1.838 1.838 0 0 1 .93-.103z" transform="translate(940.715 528)" style="fill:#f2b696;opacity:.5"/>
    <path data-name="패스 203" d="M394.36 220.808c2.367.286 4.193 3.014 3.158 5.161a3.573 3.573 0 1 1-4.088-5.058 1.838 1.838 0 0 1 .93-.103z" transform="translate(1019.148 .492)" style="fill:#f2b696;opacity:.5"/>
    <path data-name="패스 228" d="M394.36 220.808c2.367.286 4.193 3.014 3.158 5.161a3.573 3.573 0 1 1-4.088-5.058 1.838 1.838 0 0 1 .93-.103z" transform="translate(457.781 723.827)" style="fill:#f2b696;opacity:.5"/>
    <path data-name="패스 166" d="M467.465 47.143c2.367.285 4.193 3.013 3.159 5.161a3.573 3.573 0 1 1-4.089-5.058 1.841 1.841 0 0 1 .93-.103z" transform="translate(940.715 528)" style="fill:#f2b696;opacity:.5"/>
    <path data-name="패스 202" d="M467.465 47.143c2.367.285 4.193 3.013 3.159 5.161a3.573 3.573 0 1 1-4.089-5.058 1.841 1.841 0 0 1 .93-.103z" transform="translate(879.148 -19.508)" style="fill:#f2b696;opacity:.5"/>
    <path data-name="패스 227" d="M467.465 47.143c2.367.285 4.193 3.013 3.159 5.161a3.573 3.573 0 1 1-4.089-5.058 1.841 1.841 0 0 1 .93-.103z" transform="translate(387.781 673.827)" style="fill:#f2b696;opacity:.5"/>
    <path data-name="패스 226" d="M343.2 43.624c2.367.285 4.193 3.013 3.158 5.161a3.573 3.573 0 1 1-4.088-5.058 1.841 1.841 0 0 1 .93-.103z" transform="translate(427.781 583.827)" style="fill:#f2b696;opacity:.5"/>
    <path data-name="패스 225" d="M221.158 451.085c2.367.286 4.193 3.013 3.159 5.161a3.573 3.573 0 1 1-4.089-5.058 1.841 1.841 0 0 1 .93-.103z" transform="translate(1200.279 676.694)" style="fill:#f2b696;opacity:.5"/>
    <path data-name="패스 169" d="M268.922 37.735c2.367.286 4.193 3.014 3.158 5.162a3.573 3.573 0 1 1-4.088-5.058 1.834 1.834 0 0 1 .93-.104z" transform="translate(940.715 528)" style="fill:#f2b696;opacity:.5"/>
    <path data-name="패스 199" d="M268.922 37.735c2.367.286 4.193 3.014 3.158 5.162a3.573 3.573 0 1 1-4.088-5.058 1.834 1.834 0 0 1 .93-.104z" transform="translate(879.148 -19.508)" style="fill:#f2b696;opacity:.5"/>
    <path data-name="패스 224" d="M268.922 37.735c2.367.286 4.193 3.014 3.158 5.162a3.573 3.573 0 1 1-4.088-5.058 1.834 1.834 0 0 1 .93-.104z" transform="translate(457.781 723.827)" style="fill:#f2b696;opacity:.5"/>
    <path data-name="패스 170" d="M44.332 47.143c2.367.285 4.193 3.013 3.159 5.161a3.573 3.573 0 1 1-4.091-5.058 1.841 1.841 0 0 1 .932-.103z" transform="translate(940.715 528)" style="fill:#f2b696;opacity:.5"/>
    <path data-name="패스 198" d="M44.332 47.143c2.367.285 4.193 3.013 3.159 5.161a3.573 3.573 0 1 1-4.091-5.058 1.841 1.841 0 0 1 .932-.103z" transform="translate(879.148 -19.508)" style="fill:#f2b696;opacity:.5"/>
    <path data-name="패스 223" d="M44.332 47.143c2.367.285 4.193 3.013 3.159 5.161a3.573 3.573 0 1 1-4.091-5.058 1.841 1.841 0 0 1 .932-.103z" transform="translate(726.655 343.935)" style="fill:#f2b696;opacity:.5"/>
    <path data-name="패스 171" d="M29.1 279.256c2.367.285 4.194 3.013 3.159 5.161a3.726 3.726 0 0 1-5.963.661 3.752 3.752 0 0 1 1.875-5.719 1.822 1.822 0 0 1 .929-.103z" transform="translate(940.715 528)" style="fill:#f2b696;opacity:.5"/>
    <path data-name="패스 197" d="M29.1 279.256c2.367.285 4.194 3.013 3.159 5.161a3.726 3.726 0 0 1-5.963.661 3.752 3.752 0 0 1 1.875-5.719 1.822 1.822 0 0 1 .929-.103z" transform="translate(879.148 -19.508)" style="fill:#f2b696;opacity:.5"/>
    <path data-name="패스 148" d="M115.763 447.566c2.367.286 4.194 3.013 3.159 5.161a3.573 3.573 0 1 1-4.088-5.058 1.835 1.835 0 0 1 .929-.103z" transform="translate(1160.09 265.761)" style="fill:#f2b696;opacity:.5"/>
    <path data-name="패스 154" d="M32.583 451.085c2.367.286 4.194 3.013 3.159 5.161a3.726 3.726 0 0 1-5.963.661 3.752 3.752 0 0 1 1.874-5.719 1.841 1.841 0 0 1 .93-.103z" transform="translate(1107.09 -194.239)" style="fill:#f2b696;opacity:.5"/>
    <path data-name="패스 155" d="M29.1 352.187c2.367.285 4.194 3.013 3.159 5.161a3.726 3.726 0 0 1-5.963.661 3.752 3.752 0 0 1 1.875-5.719 1.822 1.822 0 0 1 .929-.103z" transform="translate(1017.09 -114.239)" style="fill:#f2b696;opacity:.5"/>
    <path data-name="패스 156" d="M217.532 385.4c2.366.286 4.193 3.014 3.158 5.161a3.573 3.573 0 1 1-4.09-5.061 1.838 1.838 0 0 1 .932-.1z" transform="translate(1116.09 -314.239)" style="fill:#f2b696;opacity:.5"/>
    <path data-name="패스 160" d="M298.969 403.843c2.367.285 4.193 3.013 3.158 5.161a3.573 3.573 0 1 1-4.088-5.058 1.828 1.828 0 0 1 .93-.103z" transform="translate(1144.09 -269.239)" style="fill:#f2b696;opacity:.5"/>
    <path data-name="패스 168" d="M221.158 451.085c2.367.286 4.193 3.013 3.159 5.161a3.573 3.573 0 1 1-4.089-5.058 1.841 1.841 0 0 1 .93-.103z" transform="translate(577.09 45.761)" style="fill:#f2b696;opacity:.5"/>
    <path data-name="패스 149" d="M62.651 150.573c2.367.286 4.193 3.014 3.158 5.161a3.573 3.573 0 1 1-4.088-5.058 1.841 1.841 0 0 1 .93-.103z" transform="translate(-5.539 -19.192)" style="fill:#f2b696;opacity:.5"/>
    <path data-name="패스 150" d="M153.368 93.351c2.367.285 4.193 3.013 3.158 5.161a3.573 3.573 0 1 1-4.088-5.058 1.841 1.841 0 0 1 .93-.103z" transform="translate(-5.539 -19.192)" style="fill:#f2b696;opacity:.5"/>
    <path data-name="패스 170" d="M44.332 47.143c2.367.285 4.193 3.013 3.159 5.161a3.573 3.573 0 1 1-4.091-5.058 1.841 1.841 0 0 1 .932-.103z" transform="translate(-28.539 -24.192)" style="fill:#f2b696;opacity:.5"/>
    <path data-name="패스 147" d="M136.4 316.22c2.367.285 4.193 3.013 3.158 5.161a3.573 3.573 0 1 1-4.088-5.058 1.825 1.825 0 0 1 .93-.103z" transform="translate(217.514 528)" style="fill:#f2b696;opacity:.5"/>
    <path data-name="패스 245" d="M115.763 447.566c2.367.286 4.194 3.013 3.159 5.161a3.573 3.573 0 1 1-4.088-5.058 1.835 1.835 0 0 1 .929-.103z" transform="translate(477.078 676.694)" style="fill:#f2b696;opacity:.5"/>
    <path data-name="패스 149" d="M62.651 150.573c2.367.286 4.193 3.014 3.158 5.161a3.573 3.573 0 1 1-4.088-5.058 1.841 1.841 0 0 1 .93-.103z" transform="translate(217.514 528)" style="fill:#f2b696;opacity:.5"/>
    <path data-name="패스 219" d="M62.651 150.573c2.367.286 4.193 3.014 3.158 5.161a3.573 3.573 0 1 1-4.088-5.058 1.841 1.841 0 0 1 .93-.103z" transform="translate(155.947 -19.508)" style="fill:#f2b696;opacity:.5"/>
    <path data-name="패스 244" d="M62.651 150.573c2.367.286 4.193 3.014 3.158 5.161a3.573 3.573 0 1 1-4.088-5.058 1.841 1.841 0 0 1 .93-.103z" transform="translate(-46.545 103.935)" style="fill:#f2b696;opacity:.5"/>
    <path data-name="패스 150" d="M153.368 93.351c2.367.285 4.193 3.013 3.158 5.161a3.573 3.573 0 1 1-4.088-5.058 1.841 1.841 0 0 1 .93-.103z" transform="translate(217.514 528)" style="fill:#f2b696;opacity:.5"/>
    <path data-name="패스 218" d="M153.368 93.351c2.367.285 4.193 3.013 3.158 5.161a3.573 3.573 0 1 1-4.088-5.058 1.841 1.841 0 0 1 .93-.103z" transform="translate(155.947 -19.508)" style="fill:#f2b696;opacity:.5"/>
    <path data-name="패스 243" d="M153.368 93.351c2.367.285 4.193 3.013 3.158 5.161a3.573 3.573 0 1 1-4.088-5.058 1.841 1.841 0 0 1 .93-.103z" transform="translate(-46.545 103.935)" style="fill:#f2b696;opacity:.5"/>
    <path data-name="패스 151" d="M246.679 116.51c2.367.286 4.193 3.014 3.158 5.161a3.573 3.573 0 1 1-4.088-5.058 1.838 1.838 0 0 1 .93-.103z" transform="translate(217.514 528)" style="fill:#f2b696;opacity:.5"/>
    <path data-name="패스 217" d="M246.679 116.51c2.367.286 4.193 3.014 3.158 5.161a3.573 3.573 0 1 1-4.088-5.058 1.838 1.838 0 0 1 .93-.103z" transform="translate(155.947 -19.508)" style="fill:#f2b696;opacity:.5"/>
    <path data-name="패스 241" d="M186.321 203.642c2.367.285 4.193 3.013 3.158 5.161a3.573 3.573 0 1 1-4.088-5.058 1.841 1.841 0 0 1 .93-.103z" transform="translate(-46.545 103.935)" style="fill:#f2b696;opacity:.5"/>
    <path data-name="패스 153" d="M222.732 294.028c2.367.286 4.193 3.013 3.158 5.161a3.573 3.573 0 1 1-4.088-5.058 1.838 1.838 0 0 1 .93-.103z" transform="translate(217.514 528)" style="fill:#f2b696;opacity:.5"/>
    <path data-name="패스 215" d="M222.732 294.028c2.367.286 4.193 3.013 3.158 5.161a3.573 3.573 0 1 1-4.088-5.058 1.838 1.838 0 0 1 .93-.103z" transform="translate(155.947 -19.508)" style="fill:#f2b696;opacity:.5"/>
    <path data-name="패스 239" d="M32.583 451.085c2.367.286 4.194 3.013 3.159 5.161a3.726 3.726 0 0 1-5.963.661 3.752 3.752 0 0 1 1.874-5.719 1.841 1.841 0 0 1 .93-.103z" transform="translate(477.078 846.694)" style="fill:#f2b696;opacity:.5"/>
    <path data-name="패스 213" d="M29.1 352.187c2.367.285 4.194 3.013 3.159 5.161a3.726 3.726 0 0 1-5.963.661 3.752 3.752 0 0 1 1.875-5.719 1.822 1.822 0 0 1 .929-.103z" transform="translate(195.947 -159.508)" style="fill:#f2b696;opacity:.5"/>
    <path data-name="패스 238" d="M29.1 352.187c2.367.285 4.194 3.013 3.159 5.161a3.726 3.726 0 0 1-5.963.661 3.752 3.752 0 0 1 1.875-5.719 1.822 1.822 0 0 1 .929-.103z" transform="translate(314.581 903.827)" style="fill:#f2b696;opacity:.5"/>
    <path data-name="패스 212" d="M217.532 385.4c2.366.286 4.193 3.014 3.158 5.161a3.573 3.573 0 1 1-4.09-5.061 1.838 1.838 0 0 1 .932-.1z" transform="translate(155.947 -19.508)" style="fill:#f2b696;opacity:.5"/>
    <path data-name="패스 237" d="M217.532 385.4c2.366.286 4.193 3.014 3.158 5.161a3.573 3.573 0 1 1-4.09-5.061 1.838 1.838 0 0 1 .932-.1z" transform="translate(477.078 676.694)" style="fill:#f2b696;opacity:.5"/>
    <path data-name="패스 157" d="M359.3 105.976c2.367.285 4.193 3.013 3.158 5.161a3.573 3.573 0 1 1-4.088-5.058 1.838 1.838 0 0 1 .93-.103z" transform="translate(217.514 528)" style="fill:#f2b696;opacity:.5"/>
    <path data-name="패스 211" d="M359.3 105.976c2.367.285 4.193 3.013 3.158 5.161a3.573 3.573 0 1 1-4.088-5.058 1.838 1.838 0 0 1 .93-.103z" transform="translate(155.947 -19.508)" style="fill:#f2b696;opacity:.5"/>
    <path data-name="패스 236" d="M359.3 105.976c2.367.285 4.193 3.013 3.158 5.161a3.573 3.573 0 1 1-4.088-5.058 1.838 1.838 0 0 1 .93-.103z" transform="translate(-265.419 723.827)" style="fill:#f2b696;opacity:.5"/>
    <path data-name="패스 158" d="M470.944 186.98c2.367.286 4.193 3.014 3.159 5.161a3.573 3.573 0 1 1-4.089-5.058 1.841 1.841 0 0 1 .93-.103z" transform="translate(217.514 528)" style="fill:#f2b696;opacity:.5"/>
    <path data-name="패스 210" d="M470.944 186.98c2.367.286 4.193 3.014 3.159 5.161a3.573 3.573 0 1 1-4.089-5.058 1.841 1.841 0 0 1 .93-.103z" transform="translate(155.947 -19.508)" style="fill:#f2b696;opacity:.5"/>
    <path data-name="패스 159" d="M295.981 184c2.367.285 4.193 3.013 3.158 5.161a3.573 3.573 0 1 1-4.088-5.058 1.828 1.828 0 0 1 .93-.103z" transform="translate(217.514 528)" style="fill:#f2b696;opacity:.5"/>
    <path data-name="패스 209" d="M295.981 184c2.367.285 4.193 3.013 3.158 5.161a3.573 3.573 0 1 1-4.088-5.058 1.828 1.828 0 0 1 .93-.103z" transform="translate(155.947 -19.508)" style="fill:#f2b696;opacity:.5"/>
    <path data-name="패스 234" d="M295.981 184c2.367.285 4.193 3.013 3.158 5.161a3.573 3.573 0 1 1-4.088-5.058 1.828 1.828 0 0 1 .93-.103z" transform="translate(-265.419 723.827)" style="fill:#f2b696;opacity:.5"/>
    <path data-name="패스 160" d="M298.969 403.843c2.367.285 4.193 3.013 3.158 5.161a3.573 3.573 0 1 1-4.088-5.058 1.828 1.828 0 0 1 .93-.103z" transform="translate(217.514 528)" style="fill:#f2b696;opacity:.5"/>
    <path data-name="패스 233" d="M298.969 403.843c2.367.285 4.193 3.013 3.158 5.161a3.573 3.573 0 1 1-4.088-5.058 1.828 1.828 0 0 1 .93-.103z" transform="translate(-177.419 780.827)" style="fill:#f2b696;opacity:.5"/>
    <path data-name="패스 161" d="M333.838 304.291c2.367.285 4.193 3.013 3.158 5.161a3.573 3.573 0 1 1-4.088-5.058 1.841 1.841 0 0 1 .93-.103z" transform="translate(217.514 528)" style="fill:#f2b696;opacity:.5"/>
    <path data-name="패스 207" d="M333.838 304.291c2.367.285 4.193 3.013 3.158 5.161a3.573 3.573 0 1 1-4.088-5.058 1.841 1.841 0 0 1 .93-.103z" transform="translate(155.947 -19.508)" style="fill:#f2b696;opacity:.5"/>
    <path data-name="패스 232" d="M333.838 304.291c2.367.285 4.193 3.013 3.158 5.161a3.573 3.573 0 1 1-4.088-5.058 1.841 1.841 0 0 1 .93-.103z" transform="translate(-265.419 723.827)" style="fill:#f2b696;opacity:.5"/>
    <path data-name="패스 162" d="M463.986 280.183c2.367.286 4.193 3.014 3.159 5.161a3.573 3.573 0 1 1-4.089-5.058 1.841 1.841 0 0 1 .93-.103z" transform="translate(217.514 528)" style="fill:#f2b696;opacity:.5"/>
    <path data-name="패스 206" d="M463.986 280.183c2.367.286 4.193 3.014 3.159 5.161a3.573 3.573 0 1 1-4.089-5.058 1.841 1.841 0 0 1 .93-.103z" transform="translate(155.947 -19.508)" style="fill:#f2b696;opacity:.5"/>
    <path data-name="패스 163" d="M461.313 385.4c2.367.286 4.193 3.014 3.158 5.161a3.573 3.573 0 1 1-4.088-5.058 1.838 1.838 0 0 1 .93-.103z" transform="translate(217.514 528)" style="fill:#f2b696;opacity:.5"/>
    <path data-name="패스 205" d="M461.313 385.4c2.367.286 4.193 3.014 3.158 5.161a3.573 3.573 0 1 1-4.088-5.058 1.838 1.838 0 0 1 .93-.103z" transform="translate(155.947 -19.508)" style="fill:#f2b696;opacity:.5"/>
    <path data-name="패스 230" d="M461.313 385.4c2.367.286 4.193 3.014 3.158 5.161a3.573 3.573 0 1 1-4.088-5.058 1.838 1.838 0 0 1 .93-.103z" transform="translate(-395.419 883.827)" style="fill:#f2b696;opacity:.5"/>
    <path data-name="패스 164" d="M411.292 449.465c2.367.286 4.194 3.014 3.159 5.161a3.573 3.573 0 1 1-4.089-5.058 1.841 1.841 0 0 1 .93-.103z" transform="translate(217.514 528)" style="fill:#f2b696;opacity:.5"/>
    <path data-name="패스 204" d="M411.292 449.465c2.367.286 4.194 3.014 3.159 5.161a3.573 3.573 0 1 1-4.089-5.058 1.841 1.841 0 0 1 .93-.103z" transform="translate(148.947 -27.508)" style="fill:#f2b696;opacity:.5"/>
    <path data-name="패스 165" d="M394.36 220.808c2.367.286 4.193 3.014 3.158 5.161a3.573 3.573 0 1 1-4.088-5.058 1.838 1.838 0 0 1 .93-.103z" transform="translate(217.514 528)" style="fill:#f2b696;opacity:.5"/>
    <path data-name="패스 203" d="M394.36 220.808c2.367.286 4.193 3.014 3.158 5.161a3.573 3.573 0 1 1-4.088-5.058 1.838 1.838 0 0 1 .93-.103z" transform="translate(295.947 .492)" style="fill:#f2b696;opacity:.5"/>
    <path data-name="패스 228" d="M394.36 220.808c2.367.286 4.193 3.014 3.158 5.161a3.573 3.573 0 1 1-4.088-5.058 1.838 1.838 0 0 1 .93-.103z" transform="translate(-265.419 723.827)" style="fill:#f2b696;opacity:.5"/>
    <path data-name="패스 166" d="M467.465 47.143c2.367.285 4.193 3.013 3.159 5.161a3.573 3.573 0 1 1-4.089-5.058 1.841 1.841 0 0 1 .93-.103z" transform="translate(217.514 528)" style="fill:#f2b696;opacity:.5"/>
    <path data-name="패스 202" d="M467.465 47.143c2.367.285 4.193 3.013 3.159 5.161a3.573 3.573 0 1 1-4.089-5.058 1.841 1.841 0 0 1 .93-.103z" transform="translate(155.947 -19.508)" style="fill:#f2b696;opacity:.5"/>
    <path data-name="패스 227" d="M467.465 47.143c2.367.285 4.193 3.013 3.159 5.161a3.573 3.573 0 1 1-4.089-5.058 1.841 1.841 0 0 1 .93-.103z" transform="translate(-335.419 673.827)" style="fill:#f2b696;opacity:.5"/>
    <path data-name="패스 226" d="M343.2 43.624c2.367.285 4.193 3.013 3.158 5.161a3.573 3.573 0 1 1-4.088-5.058 1.841 1.841 0 0 1 .93-.103z" transform="translate(-295.419 583.827)" style="fill:#f2b696;opacity:.5"/>
    <path data-name="패스 225" d="M221.158 451.085c2.367.286 4.193 3.013 3.159 5.161a3.573 3.573 0 1 1-4.089-5.058 1.841 1.841 0 0 1 .93-.103z" transform="translate(477.078 676.694)" style="fill:#f2b696;opacity:.5"/>
    <path data-name="패스 169" d="M268.922 37.735c2.367.286 4.193 3.014 3.158 5.162a3.573 3.573 0 1 1-4.088-5.058 1.834 1.834 0 0 1 .93-.104z" transform="translate(217.514 528)" style="fill:#f2b696;opacity:.5"/>
    <path data-name="패스 199" d="M268.922 37.735c2.367.286 4.193 3.014 3.158 5.162a3.573 3.573 0 1 1-4.088-5.058 1.834 1.834 0 0 1 .93-.104z" transform="translate(155.947 -19.508)" style="fill:#f2b696;opacity:.5"/>
    <path data-name="패스 224" d="M268.922 37.735c2.367.286 4.193 3.014 3.158 5.162a3.573 3.573 0 1 1-4.088-5.058 1.834 1.834 0 0 1 .93-.104z" transform="translate(-265.419 723.827)" style="fill:#f2b696;opacity:.5"/>
    <path data-name="패스 170" d="M44.332 47.143c2.367.285 4.193 3.013 3.159 5.161a3.573 3.573 0 1 1-4.091-5.058 1.841 1.841 0 0 1 .932-.103z" transform="translate(217.514 528)" style="fill:#f2b696;opacity:.5"/>
    <path data-name="패스 198" d="M44.332 47.143c2.367.285 4.193 3.013 3.159 5.161a3.573 3.573 0 1 1-4.091-5.058 1.841 1.841 0 0 1 .932-.103z" transform="translate(155.947 -19.508)" style="fill:#f2b696;opacity:.5"/>
    <path data-name="패스 223" d="M44.332 47.143c2.367.285 4.193 3.013 3.159 5.161a3.573 3.573 0 1 1-4.091-5.058 1.841 1.841 0 0 1 .932-.103z" transform="translate(3.455 343.935)" style="fill:#f2b696;opacity:.5"/>
    <path data-name="패스 171" d="M29.1 279.256c2.367.285 4.194 3.013 3.159 5.161a3.726 3.726 0 0 1-5.963.661 3.752 3.752 0 0 1 1.875-5.719 1.822 1.822 0 0 1 .929-.103z" transform="translate(217.514 528)" style="fill:#f2b696;opacity:.5"/>
    <path data-name="패스 197" d="M29.1 279.256c2.367.285 4.194 3.013 3.159 5.161a3.726 3.726 0 0 1-5.963.661 3.752 3.752 0 0 1 1.875-5.719 1.822 1.822 0 0 1 .929-.103z" transform="translate(155.947 -19.508)" style="fill:#f2b696;opacity:.5"/>
</svg>
