<svg xmlns="http://www.w3.org/2000/svg" width="41.652" height="41.625" viewBox="0 0 41.652 41.625">
    <path data-name="Paper Plane" d="m639.862 5022.229-6.583-10.78a13.9 13.9 0 0 0-3.793-3.829l-10.983-6.841c-1.291-.8-1.2-1.949.2-2.543l38.866-16.492a2.382 2.382 0 0 1 .9-.217c.749 0 1.006.635.555 1.688l-16.624 38.829c-.316.736-.779 1.109-1.264 1.109a1.612 1.612 0 0 1-1.274-.924zM635.6 5010.1l5.31 8.693 12.815-29.936-19.31 19.635a13.086 13.086 0 0 1 1.185 1.608zm-13.655-10.341 8.9 5.545a13.313 13.313 0 0 1 1.744 1.328l19.22-19.543z" transform="translate(-617.59 -4981.528)" style="fill:#ee7264"/>
</svg>
