<?xml version="1.0" encoding="utf-8"?>
<!-- Generator: Adobe Illustrator 24.0.2, SVG Export Plug-In . SVG Version: 6.00 Build 0)  -->
<svg version="1.1" id="레이어_1" xmlns="http://www.w3.org/2000/svg" xmlns:xlink="http://www.w3.org/1999/xlink" x="0px"
	 y="0px" viewBox="0 0 21.3 32" style="enable-background:new 0 0 21.3 32;" xml:space="preserve">
<style type="text/css">
	.st0{fill:#FFFFFF;}
</style>
<g>
	<path class="st0" d="M19,31.5c-0.4,0-0.7-0.1-1-0.3l-7.3-5.1l-7.3,5.1c-0.3,0.2-0.7,0.3-1.1,0.3c-0.9,0-1.8-0.6-1.8-1.8V2.3
		c0-1,0.8-1.8,1.8-1.8H19c1,0,1.8,0.8,1.8,1.8v27.3C20.8,30.8,19.9,31.5,19,31.5z"/>
	<path d="M19,1c0.7,0,1.3,0.6,1.3,1.3v27.3c0,0.8-0.7,1.3-1.3,1.3c-0.3,0-0.5-0.1-0.7-0.2l-7-4.9l-0.6-0.4l-0.6,0.4l-7,4.9
		C2.8,30.9,2.6,31,2.3,31C1.7,31,1,30.5,1,29.7V2.3C1,1.6,1.6,1,2.3,1H19 M19,0H2.3C1.1,0,0,1.1,0,2.3v27.3C0,31.1,1.1,32,2.3,32
		c0.4,0,0.9-0.1,1.4-0.4l7-4.9l7,4.9c0.4,0.3,0.9,0.4,1.3,0.4c1.2,0,2.3-0.9,2.3-2.3V2.3C21.3,1.1,20.3,0,19,0L19,0z"/>
</g>
</svg>
