<?xml version="1.0" encoding="utf-8"?>
<!-- Generator: Adobe Illustrator 24.0.2, SVG Export Plug-In . SVG Version: 6.00 Build 0)  -->
<svg version="1.1" id="레이어_1" xmlns="http://www.w3.org/2000/svg" xmlns:xlink="http://www.w3.org/1999/xlink" x="0px"
	 y="0px" viewBox="0 0 50 50" style="enable-background:new 0 0 50 50;" xml:space="preserve">
<style type="text/css">
	.st0{fill:#FFFFFF;}
	.st1{fill:#E3E3E3;}
</style>
<g>
	<g>
		<g>
			<circle class="st0" cx="25" cy="25" r="24.5"/>
			<path class="st1" d="M25,1c13.2,0,24,10.8,24,24S38.2,49,25,49S1,38.2,1,25S11.8,1,25,1 M25,0C11.2,0,0,11.2,0,25s11.2,25,25,25
				s25-11.2,25-25S38.8,0,25,0L25,0z"/>
		</g>
	</g>
	<g>
		<g>
			<g>
				<path d="M31.2,14.3H18.8c-2.5,0-4.5,2-4.5,4.5v12.3c0,2.5,2,4.5,4.5,4.5h12.3c2.5,0,4.5-2,4.5-4.5V18.8
					C35.7,16.3,33.7,14.3,31.2,14.3z M25,31.6c-3.7,0-6.6-3-6.6-6.6c0-3.7,3-6.6,6.6-6.6c3.7,0,6.6,3,6.6,6.6
					C31.6,28.7,28.7,31.6,25,31.6z M31.8,19.6c-0.8,0-1.5-0.7-1.5-1.5c0-0.8,0.7-1.5,1.5-1.5c0.8,0,1.5,0.7,1.5,1.5
					C33.4,18.9,32.7,19.6,31.8,19.6z"/>
				<ellipse transform="matrix(0.9912 -0.1327 0.1327 0.9912 -3.0971 3.5395)" cx="25" cy="25" rx="4.4" ry="4.4"/>
			</g>
		</g>
	</g>
</g>
</svg>
