<?xml version="1.0" encoding="utf-8"?>
<!-- Generator: Adobe Illustrator 24.0.2, SVG Export Plug-In . SVG Version: 6.00 Build 0)  -->
<svg version="1.1" id="레이어_1" xmlns="http://www.w3.org/2000/svg" xmlns:xlink="http://www.w3.org/1999/xlink" x="0px"
	 y="0px" viewBox="0 0 50 50" style="enable-background:new 0 0 50 50;" xml:space="preserve">
<style type="text/css">
	.st0{fill:#FFFFFF;}
	.st1{fill:#E3E3E3;}
	.st2{fill:none;stroke:#000000;stroke-width:1.5;stroke-miterlimit:10;}
</style>
<g>
	<g>
		<g>
			<circle class="st0" cx="25" cy="25" r="24.5"/>
			<path class="st1" d="M25,1c13.2,0,24,10.8,24,24S38.2,49,25,49S1,38.2,1,25S11.8,1,25,1 M25,0C11.2,0,0,11.2,0,25s11.2,25,25,25
				s25-11.2,25-25S38.8,0,25,0L25,0z"/>
		</g>
	</g>
	<g>
		<polyline class="st2" points="36.1,31 36.1,35.2 13.9,35.2 13.9,31.7 		"/>
		<g>
			<polyline class="st2" points="33.6,23 25,31.5 16.4,23 			"/>
			<line class="st2" x1="25" y1="31.5" x2="25" y2="12.8"/>
		</g>
	</g>
</g>
</svg>
