<?xml version="1.0" encoding="utf-8"?>
<!-- Generator: Adobe Illustrator 24.0.2, SVG Export Plug-In . SVG Version: 6.00 Build 0)  -->
<svg version="1.1" id="레이어_1" xmlns="http://www.w3.org/2000/svg" xmlns:xlink="http://www.w3.org/1999/xlink" x="0px"
	 y="0px" viewBox="0 0 50 50" style="enable-background:new 0 0 50 50;" xml:space="preserve">
<style type="text/css">
	.st0{fill:#FFFFFF;}
	.st1{fill:#E3E3E3;}
</style>
<g>
	<g>
		<g>
			<circle class="st0" cx="25" cy="25" r="24.5"/>
			<path class="st1" d="M25,1c13.2,0,24,10.8,24,24S38.2,49,25,49S1,38.2,1,25S11.8,1,25,1 M25,0C11.2,0,0,11.2,0,25s11.2,25,25,25
				s25-11.2,25-25S38.8,0,25,0L25,0z"/>
		</g>
	</g>
	<path d="M36.4,19.2c-0.5,0.7-1,1.3-1.6,1.8c-0.7,0.6-0.5,1-0.6,1.8c-0.1,1.2-0.3,2.4-0.7,3.5c-0.8,2.3-2.2,4.3-4,5.8
		c-4.4,3.7-11.1,3.9-15.9,0.9c3.5,0.2,5.1-0.6,6.9-1.9c-1.8-0.3-3.5-0.8-4.4-3.3c0.9,0.2,1.5,0.1,2.1,0c-1.7-0.5-3.7-1.4-3.7-4.6
		c0.7,0.4,1.7,0.6,2.1,0.6c-2.3-1.6-2.5-4.3-1.4-6.2c1.5,2.2,6.9,5.3,9.4,4.7c-0.3-2.2,0.9-4.5,3.1-5.2c1.2-0.4,2.5-0.4,3.7,0.1
		c0.5,0.2,1,0.5,1.3,0.9c0.1,0.1,0.1,0.1,0.2,0.1c0.1,0,0.1,0,0.2,0c0.9-0.2,2.2-0.8,2.6-1c0.1-0.1-0.8,2.1-2,2.6
		c0.6-0.1,1.9-0.5,2.4-0.8c0.1,0,0.2-0.1,0.3,0C36.5,18.9,36.5,19.1,36.4,19.2z"/>
</g>
</svg>
