<?xml version="1.0" encoding="utf-8"?>
<!-- Generator: Adobe Illustrator 24.0.2, SVG Export Plug-In . SVG Version: 6.00 Build 0)  -->
<svg version="1.1" id="레이어_1" xmlns="http://www.w3.org/2000/svg" xmlns:xlink="http://www.w3.org/1999/xlink" x="0px"
	 y="0px" viewBox="0 0 50 50" style="enable-background:new 0 0 50 50;" xml:space="preserve">
<style type="text/css">
	.st0{fill:#FFFFFF;}
	.st1{fill:#E3E3E3;}
</style>
<g>
	<g>
		<g>
			<circle class="st0" cx="25" cy="25" r="24.5"/>
			<path class="st1" d="M25,1c13.2,0,24,10.8,24,24S38.2,49,25,49S1,38.2,1,25S11.8,1,25,1 M25,0C11.2,0,0,11.2,0,25s11.2,25,25,25
				s25-11.2,25-25S38.8,0,25,0L25,0z"/>
		</g>
	</g>
	<path d="M36.6,19.2c-0.3-1-1.1-1.9-2.1-2.1c-1.9-0.5-9.4-0.5-9.4-0.5s-7.6,0-9.4,0.5c-1,0.3-1.9,1.1-2.1,2.1
		c-0.5,1.9-0.5,5.8-0.5,5.8s0,3.9,0.5,5.8c0.3,1,1.1,1.9,2.1,2.1c1.9,0.5,9.4,0.5,9.4,0.5s7.6,0,9.4-0.5c1-0.3,1.9-1.1,2.1-2.1
		c0.5-1.9,0.5-5.8,0.5-5.8S37.1,21.1,36.6,19.2L36.6,19.2z M22.6,28.6v-7.2l6.3,3.6L22.6,28.6L22.6,28.6z"/>
</g>
</svg>
