<?xml version="1.0" encoding="utf-8"?>
<!-- Generator: Adobe Illustrator 24.1.1, SVG Export Plug-In . SVG Version: 6.00 Build 0)  -->
<svg version="1.1" id="Layer_1" xmlns="http://www.w3.org/2000/svg" xmlns:xlink="http://www.w3.org/1999/xlink" x="0px" y="0px"
	 viewBox="0 0 32 32" style="enable-background:new 0 0 32 32;" xml:space="preserve">
<style type="text/css">
	.st0{fill:#FFFFFF;}
	.st1{fill:#020202;}
</style>
<path class="st0" d="M20.7,11.3c-0.4-0.4-1-0.4-1.4,0L16,14.6l-3.3-3.3c-0.4-0.4-1-0.4-1.4,0c-0.4,0.4-0.4,1,0,1.4l3.3,3.3l-3.3,3.3
	c-0.4,0.4-0.4,1,0,1.4c0.4,0.4,1,0.4,1.4,0l3.3-3.3l3.3,3.3c0.4,0.4,1,0.4,1.4,0c0.4-0.4,0.4-1,0-1.4L17.4,16l3.3-3.3
	C21.1,12.3,21.1,11.7,20.7,11.3z"/>
<path class="st1" d="M16,4C9.4,4,4,9.4,4,16s5.4,12,12,12s12-5.4,12-12S22.6,4,16,4z M20.7,19.3c0.4,0.4,0.4,1,0,1.4
	c-0.4,0.4-1,0.4-1.4,0L16,17.4l-3.3,3.3c-0.4,0.4-1,0.4-1.4,0c-0.4-0.4-0.4-1,0-1.4l3.3-3.3l-3.3-3.3c-0.4-0.4-0.4-1,0-1.4
	c0.4-0.4,1-0.4,1.4,0l3.3,3.3l3.3-3.3c0.4-0.4,1-0.4,1.4,0c0.4,0.4,0.4,1,0,1.4L17.4,16L20.7,19.3z"/>
</svg>
