<?xml version="1.0" encoding="utf-8"?>
<!-- Generator: Adobe Illustrator 24.1.1, SVG Export Plug-In . SVG Version: 6.00 Build 0)  -->
<svg version="1.1" id="Layer_1" xmlns="http://www.w3.org/2000/svg" xmlns:xlink="http://www.w3.org/1999/xlink" x="0px" y="0px"
	 viewBox="0 0 24 24" style="enable-background:new 0 0 24 24;" xml:space="preserve">
<style type="text/css">
	.st0{fill:#FFFFFF;}
</style>
<path d="M21.2,5.9h-3.3c-0.2,0-0.5-0.1-0.6-0.4l-1-2.9c-0.1-0.2-0.4-0.4-0.7-0.4H8.4c-0.4,0-0.6,0-0.6,0.4L6.7,5.6
	c0,0.2-0.4,0.4-0.6,0.4H2.8c-1.1,0-1.7,1-1.7,2.1v11.9c0,1.1,0.6,1.8,1.7,1.8h18.4c1.1,0,1.7-0.7,1.7-1.8V8
	C22.9,6.9,22.3,5.9,21.2,5.9z M12,19.9c-3.6,0-6.5-2.9-6.5-6.5S8.4,6.8,12,6.8s6.5,2.9,6.5,6.5S15.6,19.9,12,19.9z"/>
<path d="M12,8c-2.9,0-5.2,2.3-5.2,5.2s2.3,5.2,5.2,5.2s5.2-2.3,5.2-5.2C17.2,10.4,14.9,8,12,8z"/>
<path d="M21.2,4.7h-2.8l-0.8-2.4c-0.2-0.8-1-1.2-1.8-1.2H8.4c-0.8,0-1.6,0.4-1.9,1.2L5.6,4.7H2.8C1,4.7-0.1,6.2-0.1,8v11.9
	c0,1.8,1.1,3,2.9,3h18.4c1.8,0,2.9-1.2,2.9-3V8C24.1,6.2,23,4.7,21.2,4.7z M22.9,19.9c0,1.1-0.6,1.8-1.7,1.8H2.8
	c-1.1,0-1.7-0.7-1.7-1.8V8c0-1.1,0.6-2.1,1.7-2.1h3.3c0.2,0,0.5-0.1,0.6-0.4l1-2.9C7.8,2.3,8,2.3,8.4,2.3h7.3c0.2,0,0.5,0.1,0.6,0.4
	l1,2.9c0.1,0.2,0.5,0.4,0.7,0.4h3.3c1.1,0,1.7,1,1.7,2.1V19.9z"/>
<path class="st0" d="M12,6.8c-3.6,0-6.5,2.9-6.5,6.5s2.9,6.5,6.5,6.5s6.5-2.9,6.5-6.5S15.6,6.8,12,6.8z M12,18.5
	c-2.9,0-5.2-2.3-5.2-5.2S9.1,8,12,8s5.2,2.3,5.2,5.2C17.2,16.2,14.9,18.5,12,18.5z"/>
</svg>
