<?xml version="1.0" encoding="utf-8"?>
<!-- Generator: Adobe Illustrator 24.1.1, SVG Export Plug-In . SVG Version: 6.00 Build 0)  -->
<svg version="1.1" id="Layer_1" xmlns="http://www.w3.org/2000/svg" xmlns:xlink="http://www.w3.org/1999/xlink" x="0px" y="0px"
	 viewBox="0 0 24 24" style="enable-background:new 0 0 24 24;" xml:space="preserve">
<path d="M21.1,4.8h-2.8l-0.9-2.4c-0.3-0.8-1-1.2-1.8-1.2H8.4c-0.8,0-1.6,0.4-1.8,1.2L5.7,4.8H2.9c-1.8,0-2.9,1.5-2.9,3.3v11.7
	c0,1.8,1.1,3,2.9,3h18.1c1.8,0,2.9-1.2,2.9-3V8.1C23.9,6.3,22.9,4.8,21.1,4.8z M22.7,19.8c0,1.1-0.6,1.8-1.7,1.8H2.9
	c-1.1,0-1.7-0.7-1.7-1.8V8.1C1.3,7,1.9,6,2.9,6h3.2c0.3,0,0.5-0.1,0.6-0.4l1-2.9c0.1-0.3,0.3-0.3,0.6-0.3h7.2c0.3,0,0.5,0.1,0.6,0.4
	l1,2.9C17.3,6,17.6,6,17.8,6h3.2c1.1,0,1.7,1,1.7,2.1V19.8z"/>
<path d="M12,6.8c-3.6,0-6.5,2.9-6.5,6.5s2.9,6.5,6.5,6.5s6.5-2.9,6.5-6.5S15.6,6.8,12,6.8z M12,18.5c-2.9,0-5.2-2.3-5.2-5.2
	S9.1,8.1,12,8.1s5.2,2.3,5.2,5.2S14.9,18.5,12,18.5z"/>
</svg>
