<?xml version="1.0" encoding="utf-8"?>
<!-- Generator: Adobe Illustrator 24.1.1, SVG Export Plug-In . SVG Version: 6.00 Build 0)  -->
<svg version="1.1" id="Apple" xmlns="http://www.w3.org/2000/svg" xmlns:xlink="http://www.w3.org/1999/xlink" x="0px" y="0px"
	 viewBox="0 0 512 512" style="enable-background:new 0 0 512 512;" xml:space="preserve">
<style type="text/css">
	.st0{fill:#FFFFFF;}
	.st1{fill:#3B579D;}
</style>
<path class="st0" d="M405.5,308.7l7.7-70.8h-68.6v-46.3c0,0,0.1-14.6,5.7-23.2c6.5-9.9,24-9.3,24-9.3l41.8,0.4V95.7
	c0,0-45.1-2.5-60.1-3c-14-0.4-37,0.4-54.6,13.4c-20.5,15.2-30.1,38.7-30.1,79.9v52.3h-60.7v70.4h60.7v179.8h72.9V308.7H405.5z"/>
<path class="st1" d="M459.4,23.5H52.6c-16,0-29,13-29.1,29.1v406.9c0,16,13,29,29.1,29.1h218.8V308.7h-60.7v-70.4h60.7V186
	c0-41.2,9.5-64.7,30.1-79.9C319,93.1,342,92.3,356,92.7c15,0.5,60.1,3,60.1,3v63.8l-41.8-0.4c0,0-17.5-0.6-24,9.3
	c-5.6,8.5-5.7,23.2-5.7,23.2v46.3h68.6l-7.7,70.8h-61.3v179.8h115.2c16,0,29-13,29.1-29.1V52.5C488.5,36.5,475.5,23.5,459.4,23.5z"
	/>
</svg>
