<?xml version="1.0" encoding="utf-8"?>
<!-- Generator: Adobe Illustrator 24.0.2, SVG Export Plug-In . SVG Version: 6.00 Build 0)  -->
<svg version="1.1" id="레이어_1" xmlns="http://www.w3.org/2000/svg" xmlns:xlink="http://www.w3.org/1999/xlink" x="0px"
	 y="0px" viewBox="0 0 525.4 525.4" style="enable-background:new 0 0 525.4 525.4;" xml:space="preserve">
<style type="text/css">
	.st0{fill:#F0ECEB;}
</style>
<g>
	<path class="st0" d="M262.7,150c30.1,0,58.4,11.7,79.7,33c21.3,21.3,33,49.6,33,79.7s-11.7,58.4-33,79.7
		c-21.3,21.3-49.6,33-79.7,33s-58.4-11.7-79.7-33c-21.3-21.3-33-49.6-33-79.7s11.7-58.4,33-79.7C204.3,161.7,232.6,150,262.7,150
		 M262.7,0C117.6,0,0,117.6,0,262.7s117.6,262.7,262.7,262.7s262.7-117.6,262.7-262.7S407.8,0,262.7,0L262.7,0z"/>
</g>
</svg>
