<?xml version="1.0" encoding="utf-8"?>
<!-- Generator: Adobe Illustrator 24.0.2, SVG Export Plug-In . SVG Version: 6.00 Build 0)  -->
<svg version="1.1" id="레이어_1" xmlns="http://www.w3.org/2000/svg" xmlns:xlink="http://www.w3.org/1999/xlink" x="0px"
	 y="0px" viewBox="0 0 10.6 11.6" style="enable-background:new 0 0 10.6 11.6;" xml:space="preserve">
<path d="M10.5,6.1c0.1-0.2,0.1-0.4,0-0.6c0-0.1-0.1-0.1-0.1-0.2c0,0,0,0,0,0l-5-5c-0.3-0.3-0.8-0.3-1.1,0c-0.3,0.3-0.3,0.8,0,1.1
	L7.9,5H0.8C0.4,5,0,5.4,0,5.8s0.4,0.8,0.8,0.8h7.1l-3.6,3.6c-0.3,0.3-0.3,0.8,0,1.1c0.2,0.2,0.4,0.2,0.6,0.2s0.4-0.1,0.6-0.2l5-5
	c0,0,0,0,0,0C10.5,6.3,10.5,6.2,10.5,6.1z"/>
</svg>
