<?xml version="1.0" encoding="utf-8"?>
<!-- Generator: Adobe Illustrator 24.0.2, SVG Export Plug-In . SVG Version: 6.00 Build 0)  -->
<svg version="1.1" id="레이어_1" xmlns="http://www.w3.org/2000/svg" xmlns:xlink="http://www.w3.org/1999/xlink" x="0px"
	 y="0px" viewBox="0 0 50 50" style="enable-background:new 0 0 50 50;" xml:space="preserve">
<style type="text/css">
	.st0{fill:#FFFFFF;}
</style>
<g>
	<g>
		<g>
			<circle class="st0" cx="25" cy="25" r="25"/>
		</g>
	</g>
	<g>
		<g>
			<path d="M31,31c0,3.3-2.7,6-6,6s-6-2.7-6-6v-3.6c0-3.3,2.7-6,6-6c0.7,0,1.2,0.5,1.2,1.2s-0.5,1.2-1.2,1.2c-2,0-3.6,1.6-3.6,3.6
				V31c0,2,1.6,3.6,3.6,3.6s3.6-1.6,3.6-3.6c0-0.7,0.5-1.2,1.2-1.2C30.5,29.8,31,30.3,31,31z"/>
		</g>
		<g>
			<path d="M31,19v3.6c0,3.3-2.7,6-6,6c-0.7,0-1.2-0.5-1.2-1.2c0-0.7,0.5-1.2,1.2-1.2c2,0,3.6-1.6,3.6-3.6V19c0-2-1.6-3.6-3.6-3.6
				S21.4,17,21.4,19c0,0.7-0.5,1.2-1.2,1.2c-0.7,0-1.2-0.5-1.2-1.2c0-3.3,2.7-6,6-6S31,15.7,31,19z"/>
		</g>
	</g>
</g>
</svg>
