<?xml version="1.0" encoding="utf-8"?>
<!-- Generator: Adobe Illustrator 24.0.2, SVG Export Plug-In . SVG Version: 6.00 Build 0)  -->
<svg version="1.1" id="레이어_1" xmlns="http://www.w3.org/2000/svg" xmlns:xlink="http://www.w3.org/1999/xlink" x="0px"
	 y="0px" viewBox="0 0 50 50" style="enable-background:new 0 0 50 50;" xml:space="preserve">
<style type="text/css">
	.st0{opacity:0.5;}
	.st1{fill:#FFFFFF;}
</style>
<g>
	<g>
		<g class="st0">
			<circle cx="25" cy="25" r="25"/>
		</g>
		<g>
			<path class="st1" d="M25,1c13.2,0,24,10.8,24,24S38.2,49,25,49S1,38.2,1,25S11.8,1,25,1 M25,0C11.2,0,0,11.2,0,25s11.2,25,25,25
				s25-11.2,25-25S38.8,0,25,0L25,0z"/>
		</g>
	</g>
</g>
<g>
	<path class="st1" d="M31,31c0,3.3-2.7,6-6,6s-6-2.7-6-6v-3.6c0-3.3,2.7-6,6-6c0.7,0,1.2,0.5,1.2,1.2s-0.5,1.2-1.2,1.2
		c-2,0-3.6,1.6-3.6,3.6V31c0,2,1.6,3.6,3.6,3.6s3.6-1.6,3.6-3.6c0-0.7,0.5-1.2,1.2-1.2C30.5,29.8,31,30.3,31,31z"/>
	<path class="st1" d="M31,19v3.6c0,3.3-2.7,6-6,6c-0.7,0-1.2-0.5-1.2-1.2c0-0.7,0.5-1.2,1.2-1.2c2,0,3.6-1.6,3.6-3.6V19
		c0-2-1.6-3.6-3.6-3.6S21.4,17,21.4,19c0,0.7-0.5,1.2-1.2,1.2c-0.7,0-1.2-0.5-1.2-1.2c0-3.3,2.7-6,6-6S31,15.7,31,19z"/>
</g>
</svg>
