<?xml version="1.0" encoding="utf-8"?>
<!-- Generator: Adobe Illustrator 24.0.2, SVG Export Plug-In . SVG Version: 6.00 Build 0)  -->
<svg version="1.1" id="레이어_1" xmlns="http://www.w3.org/2000/svg" xmlns:xlink="http://www.w3.org/1999/xlink" x="0px"
	 y="0px" viewBox="0 0 42 42" style="enable-background:new 0 0 42 42;" xml:space="preserve">
<style type="text/css">
	.st0{opacity:0.5;}
	.st1{fill:#FFFFFF;}
</style>
<circle class="st0" cx="21" cy="21" r="21"/>
<g>
	<path class="st1" d="M21,1c11,0,20,9,20,20s-9,20-20,20S1,32,1,21S10,1,21,1 M21,0C9.4,0,0,9.4,0,21s9.4,21,21,21s21-9.4,21-21
		S32.6,0,21,0L21,0z"/>
</g>
<g>
	<path class="st1" d="M19.8,22.2c1.6,1.6,3.4,3.1,4.1,2.4c1-1,1.7-1.9,4-0.1c2.3,1.8,0.5,3.1-0.5,4.1c-1.2,1.2-5.5,0.1-9.8-4.2
		c-4.3-4.3-5.4-8.6-4.2-9.7c1-1,2.2-2.8,4.1-0.5c1.8,2.3,0.9,2.9-0.1,4C16.7,18.8,18.2,20.6,19.8,22.2z"/>
</g>
</svg>
