<?xml version="1.0" encoding="utf-8"?>
<!-- Generator: Adobe Illustrator 24.0.2, SVG Export Plug-In . SVG Version: 6.00 Build 0)  -->
<svg version="1.1" id="레이어_1" xmlns="http://www.w3.org/2000/svg" xmlns:xlink="http://www.w3.org/1999/xlink" x="0px"
	 y="0px" viewBox="0 0 11.6 10.6" style="enable-background:new 0 0 11.6 10.6;" xml:space="preserve">
<style type="text/css">
	.st0{fill:#FFFFFF;}
</style>
<path class="st0" d="M5.5,10.5c0.2,0.1,0.4,0.1,0.6,0c0.1,0,0.1-0.1,0.2-0.1c0,0,0,0,0,0l5-5c0.3-0.3,0.3-0.8,0-1.1
	c-0.3-0.3-0.8-0.3-1.1,0L6.6,7.9V0.8C6.6,0.4,6.2,0,5.8,0S5,0.4,5,0.8v7.1L1.4,4.2c-0.3-0.3-0.8-0.3-1.1,0C0.1,4.4,0,4.6,0,4.8
	s0.1,0.4,0.2,0.6l5,5c0,0,0,0,0,0C5.3,10.5,5.4,10.5,5.5,10.5z"/>
</svg>
