<?xml version="1.0" encoding="utf-8"?>
<!-- Generator: Adobe Illustrator 24.0.2, SVG Export Plug-In . SVG Version: 6.00 Build 0)  -->
<svg version="1.1" id="레이어_1" xmlns="http://www.w3.org/2000/svg" xmlns:xlink="http://www.w3.org/1999/xlink" x="0px"
	 y="0px" viewBox="0 0 50 50" style="enable-background:new 0 0 50 50;" xml:space="preserve">
<style type="text/css">
	.st0{opacity:0.5;}
	.st1{fill:#FFFFFF;}
</style>
<g>
	<g>
		<g class="st0">
			<circle cx="25" cy="25" r="25"/>
		</g>
		<g>
			<path class="st1" d="M25,1c13.2,0,24,10.8,24,24S38.2,49,25,49S1,38.2,1,25S11.8,1,25,1 M25,0C11.2,0,0,11.2,0,25s11.2,25,25,25
				s25-11.2,25-25S38.8,0,25,0L25,0z"/>
		</g>
	</g>
	<path class="st1" d="M37,19.5c-0.5,0.6-1,1.2-1.5,1.8c-0.6,0.6-0.5,1-0.6,1.7c-0.1,1.2-0.3,2.3-0.7,3.4c-0.8,2.2-2.1,4.1-3.9,5.6
		c-4.2,3.6-10.7,3.7-15.3,0.9c3.4,0.1,4.9-0.6,6.7-1.9c-1.8-0.3-3.4-0.7-4.2-3.2c0.9,0.2,1.5,0.1,2,0c-1.6-0.5-3.6-1.3-3.6-4.5
		c0.7,0.4,1.6,0.6,2,0.5c-2.2-1.5-2.4-4.1-1.4-6c1.4,2.1,6.7,5.1,9.1,4.6c-0.3-2.1,0.9-4.3,3-5c1.2-0.4,2.4-0.4,3.6,0.1
		c0.5,0.2,0.9,0.5,1.3,0.8c0.1,0.1,0.1,0.1,0.2,0.1c0.1,0,0.1,0,0.2,0c0.8-0.2,2.1-0.8,2.5-1c0.1-0.1-0.7,2-1.9,2.5
		c0.5-0.1,1.8-0.5,2.3-0.7c0.1,0,0.2-0.1,0.3,0C37,19.2,37.1,19.3,37,19.5z"/>
</g>
</svg>
