<?xml version="1.0" encoding="utf-8"?>
<!-- Generator: Adobe Illustrator 24.0.2, SVG Export Plug-In . SVG Version: 6.00 Build 0)  -->
<svg version="1.1" id="레이어_1" xmlns="http://www.w3.org/2000/svg" xmlns:xlink="http://www.w3.org/1999/xlink" x="0px"
	 y="0px" viewBox="0 0 50 50" style="enable-background:new 0 0 50 50;" xml:space="preserve">
<style type="text/css">
	.st0{opacity:0.5;}
	.st1{fill:#FFFFFF;}
</style>
<g>
	<g>
		<g class="st0">
			<circle cx="25" cy="25" r="25"/>
		</g>
		<g>
			<path class="st1" d="M25,1c13.2,0,24,10.8,24,24S38.2,49,25,49S1,38.2,1,25S11.8,1,25,1 M25,0C11.2,0,0,11.2,0,25s11.2,25,25,25
				s25-11.2,25-25S38.8,0,25,0L25,0z"/>
		</g>
	</g>
	<path class="st1" d="M36,19.5c-0.3-1-1-1.8-2-2C32.1,17,25,17,25,17s-7.1,0-8.9,0.5c-1,0.3-1.8,1-2,2c-0.5,1.8-0.5,5.5-0.5,5.5
		s0,3.7,0.5,5.5c0.3,1,1,1.8,2,2C17.9,33,25,33,25,33s7.1,0,8.9-0.5c1-0.3,1.8-1,2-2c0.5-1.8,0.5-5.5,0.5-5.5S36.4,21.3,36,19.5
		L36,19.5z M22.7,28.4v-6.9l5.9,3.4L22.7,28.4L22.7,28.4z"/>
</g>
</svg>
