<?xml version="1.0" encoding="utf-8"?>
<!-- Generator: Adobe Illustrator 24.0.2, SVG Export Plug-In . SVG Version: 6.00 Build 0)  -->
<svg version="1.1" id="레이어_1" xmlns="http://www.w3.org/2000/svg" xmlns:xlink="http://www.w3.org/1999/xlink" x="0px"
	 y="0px" viewBox="0 0 42 42" style="enable-background:new 0 0 42 42;" xml:space="preserve">
<style type="text/css">
	.st0{opacity:0.5;}
	.st1{fill:#FFFFFF;}
</style>
<circle class="st0" cx="21" cy="21" r="21"/>
<g>
	<path class="st1" d="M21,1c11,0,20,9,20,20s-9,20-20,20S1,32,1,21S10,1,21,1 M21,0C9.4,0,0,9.4,0,21s9.4,21,21,21s21-9.4,21-21
		S32.6,0,21,0L21,0z"/>
</g>
<g>
	<path class="st1" d="M16.2,12.8h9.5c0.1,0,0.2,0.1,0.2,0.2V29c0,0.2-0.2,0.3-0.4,0.2L21,25.3l-4.6,3.8c-0.2,0.1-0.4,0-0.4-0.2V13
		C16,12.9,16.1,12.8,16.2,12.8z"/>
</g>
</svg>
