<?xml version="1.0" encoding="utf-8"?>
<!-- Generator: Adobe Illustrator 24.1.1, SVG Export Plug-In . SVG Version: 6.00 Build 0)  -->
<svg version="1.1" id="레이어_1" xmlns="http://www.w3.org/2000/svg" xmlns:xlink="http://www.w3.org/1999/xlink" x="0px"
	 y="0px" viewBox="0 0 42 42" style="enable-background:new 0 0 42 42;" xml:space="preserve">
<style type="text/css">
	.st0{fill:#FFA6BE;}
	.st1{fill:#FFFFFF;}
</style>
<g>
	<g>
		<g>
			<circle class="st0" cx="21" cy="21" r="21"/>
		</g>
	</g>
</g>
<path class="st1" d="M30.1,26.3c0,0.2,0,0.5-0.1,0.9c-0.1,0.4-0.2,0.7-0.3,0.9c-0.2,0.4-0.7,0.9-1.6,1.4c-0.8,0.4-1.6,0.7-2.4,0.7
	c-0.2,0-0.5,0-0.7,0c-0.2,0-0.5-0.1-0.7-0.2c-0.3-0.1-0.5-0.1-0.6-0.2c-0.1,0-0.4-0.1-0.7-0.3c-0.3-0.1-0.6-0.2-0.6-0.2
	c-0.8-0.3-1.6-0.7-2.3-1.1c-1.1-0.7-2.2-1.6-3.4-2.8s-2.1-2.3-2.8-3.4c-0.4-0.7-0.8-1.4-1.1-2.3c0-0.1-0.1-0.3-0.2-0.6
	c-0.1-0.3-0.2-0.6-0.3-0.7c0-0.1-0.1-0.3-0.2-0.6C12,17.4,12,17.2,11.9,17c0-0.2,0-0.4,0-0.7c0-0.8,0.2-1.6,0.7-2.4
	c0.5-0.9,0.9-1.4,1.4-1.6c0.2-0.1,0.5-0.2,0.9-0.3c0.4-0.1,0.7-0.1,0.9-0.1c0.1,0,0.2,0,0.3,0c0.2,0.1,0.4,0.4,0.7,1
	c0.1,0.2,0.2,0.4,0.4,0.7s0.3,0.6,0.5,0.8c0.1,0.2,0.3,0.5,0.4,0.7c0,0,0.1,0.1,0.2,0.3c0.1,0.2,0.2,0.3,0.3,0.5
	c0.1,0.1,0.1,0.2,0.1,0.4c0,0.2-0.1,0.4-0.4,0.6c-0.2,0.3-0.5,0.5-0.8,0.7c-0.3,0.2-0.6,0.4-0.8,0.7c-0.2,0.2-0.4,0.4-0.4,0.6
	c0,0.1,0,0.2,0.1,0.3c0,0.1,0.1,0.2,0.1,0.3c0,0.1,0.1,0.2,0.2,0.3c0.1,0.1,0.1,0.2,0.1,0.2c0.7,1.2,1.4,2.2,2.2,3
	c0.8,0.8,1.9,1.6,3,2.2c0,0,0.1,0.1,0.2,0.1c0.1,0.1,0.2,0.2,0.3,0.2c0.1,0,0.1,0.1,0.3,0.1c0.1,0,0.2,0.1,0.3,0.1
	c0.2,0,0.4-0.1,0.6-0.4c0.2-0.2,0.5-0.5,0.7-0.8s0.5-0.6,0.7-0.8c0.3-0.2,0.5-0.4,0.6-0.4c0.1,0,0.2,0,0.4,0.1
	c0.1,0.1,0.3,0.2,0.5,0.3c0.2,0.1,0.3,0.2,0.3,0.2c0.2,0.1,0.4,0.3,0.7,0.4c0.2,0.1,0.5,0.3,0.8,0.5c0.3,0.2,0.5,0.3,0.7,0.4
	c0.6,0.3,0.9,0.5,1,0.7C30.1,26.1,30.1,26.2,30.1,26.3z"/>
</svg>
