<?xml version="1.0" encoding="utf-8"?>
<!-- Generator: Adobe Illustrator 24.1.1, SVG Export Plug-In . SVG Version: 6.00 Build 0)  -->
<svg version="1.1" id="Layer_1" xmlns="http://www.w3.org/2000/svg" xmlns:xlink="http://www.w3.org/1999/xlink" x="0px" y="0px"
	 viewBox="0 0 1792 1792" style="enable-background:new 0 0 1792 1792;" xml:space="preserve">
<style type="text/css">
	.st0{fill:url(#SVGID_1_);}
	.st1{fill:#FFFFFF;}
</style>
<linearGradient id="SVGID_1_" gradientUnits="userSpaceOnUse" x1="565.7532" y1="1293.4349" x2="1463.8176" y2="212.6608">
	<stop  offset="3.255285e-02" style="stop-color:#5C47FD"/>
	<stop  offset="1" style="stop-color:#F45897"/>
</linearGradient>
<path class="st0" d="M1664,896c0,139.3-34.3,267.8-103,385.5s-161.8,210.8-279.5,279.5s-246.2,103-385.5,103s-267.8-34.3-385.5-103
	S299.7,1399.2,231,1281.5S128,1035.3,128,896s34.3-267.8,103-385.5S392.8,299.7,510.5,231S756.7,128,896,128s267.8,34.3,385.5,103
	s210.8,161.8,279.5,279.5S1664,756.7,1664,896z"/>
<g>
	<path class="st1" d="M817.6,1104.7c0-66.4,7-114.9,20.9-145.4c16.3-36.7,51.5-73.8,105.8-111.4c25.6-19.5,44.2-39.5,55.8-59.8
		c13.9-22.7,20.9-48.5,20.9-77.4c0-46.1-13.6-80.5-40.8-103.2C958.5,591.2,932,583,901,583c-50.5,0-87,16.8-109.5,50.4
		c-16.3,25-24.5,57.1-24.5,96.1v1.2H593c0-102.4,32.2-179.7,96.5-232.1c54.3-43.8,121.4-65.6,201.2-65.6c69.8,0,131,13.7,183.8,41
		c87.6,45.3,131.4,122.3,131.4,230.9c0,52.4-13.2,98.1-39.6,137.2c-21.7,32.8-58.2,68.4-109.4,106.7c-29.5,20.3-48.9,39.5-58.1,57.4
		c-11.6,21.9-17.4,54.7-17.4,98.5H817.6z M993,1371H813v-181h180V1371z"/>
</g>
</svg>
