<svg xmlns="http://www.w3.org/2000/svg" width="30" height="30" viewBox="0 0 30 30">
    <path data-name="패스 4711" d="M5.375 16.428h16.308l-4.991 6.228a1.469 1.469 0 0 0 .179 2.014 1.342 1.342 0 0 0 1.939-.186l6.875-8.571a1.715 1.715 0 0 0 .124-.214c0-.071.069-.114.1-.186a1.422 1.422 0 0 0 0-1.029c0-.071-.069-.114-.1-.186a1.715 1.715 0 0 0-.124-.214l-6.876-8.57a1.345 1.345 0 0 0-1.939-.186 1.446 1.446 0 0 0-.492.969 1.466 1.466 0 0 0 .313 1.046l4.991 6.228H5.375a1.43 1.43 0 0 0 0 2.857z" style="fill:#29282d"/>
</svg>
