<svg xmlns="http://www.w3.org/2000/svg" width="36.462" height="36.463" viewBox="0 0 36.462 36.463">
    <path d="M676.668 98.445a24.243 24.243 0 0 1-4.532-2.149A43.728 43.728 0 0 1 659.7 83.865a24.349 24.349 0 0 1-2.149-4.532c-.8-2.2-1.786-4.378-1.786-6.785a9.893 9.893 0 0 1 1.321-4.817c.647-1.165 1.475-2.616 2.744-3.16a11.542 11.542 0 0 1 3.6-.8 1.321 1.321 0 0 1 .543.077c.544.182 1.114 1.451 1.373 1.968.828 1.476 1.63 2.978 2.486 4.429.414.672 1.19 1.5 1.19 2.3 0 1.579-4.687 3.884-4.687 5.283a5.544 5.544 0 0 0 1.012 2.227 25.759 25.759 0 0 0 10.595 10.595 5.568 5.568 0 0 0 2.227 1.01c1.4 0 3.7-4.687 5.283-4.687.8 0 1.632.777 2.3 1.192 1.451.854 2.954 1.657 4.43 2.486.518.259 1.786.828 1.967 1.372a1.326 1.326 0 0 1 .077.544 11.491 11.491 0 0 1-.8 3.6c-.543 1.268-1.994 2.1-3.159 2.745a9.892 9.892 0 0 1-4.816 1.32c-2.407-.001-4.583-.984-6.783-1.787z" transform="translate(-655.769 -63.769)" style="fill:#29282d"/>
</svg>
