<svg xmlns="http://www.w3.org/2000/svg" width="36" height="36" viewBox="0 0 36 36">
    <rect data-name="사각형 5" width="28" height="3" rx="1" transform="translate(4 29)" style="fill:#fff"/>
    <rect data-name="사각형 6" width="6" height="3" rx="1" transform="rotate(-90 18 14)" style="fill:#fff"/>
    <rect data-name="사각형 7" width="6" height="3" rx="1" transform="rotate(-90 30.5 1.5)" style="fill:#fff"/>
    <path data-name="패스 4709" d="M15.666 18.151a1.81 1.81 0 0 1-1.005-.293l-6.932-4.6a1.569 1.569 0 0 1-.416-2.266 1.748 1.748 0 0 1 1.126-.671 1.819 1.819 0 0 1 1.3.28l5.926 3.9 5.892-4.173a1.806 1.806 0 0 1 2.426.326 1.567 1.567 0 0 1-.347 2.282l-6.932 4.89a1.806 1.806 0 0 1-1.04.326z" transform="translate(2.246 5.502)" style="fill:#fff"/>
    <path data-name="패스 4710" d="M12.733 19.3A1.684 1.684 0 0 1 11 17.671V4.63a1.736 1.736 0 0 1 3.466 0v13.041a1.684 1.684 0 0 1-1.733 1.629z" transform="translate(5.18 1)" style="fill:#fff"/>
</svg>
