<svg xmlns="http://www.w3.org/2000/svg" width="38" height="38" viewBox="0 0 38 38">
    <path data-name="패스 68" d="M303.316 1156.867h-14.582a11.709 11.709 0 0 0-11.71 11.71v14.582a11.709 11.709 0 0 0 11.71 11.708h14.583a11.707 11.707 0 0 0 11.708-11.708v-14.582a11.707 11.707 0 0 0-11.709-11.71zm8.062 24.892a9.462 9.462 0 0 1-9.46 9.462h-11.786a9.462 9.462 0 0 1-9.462-9.462v-11.784a9.464 9.464 0 0 1 9.462-9.462h11.786a9.464 9.464 0 0 1 9.46 9.462z" transform="translate(-277.024 -1156.867)" style="fill:#fff"/>
    <path data-name="패스 69" d="M292.035 1161.634a10.009 10.009 0 1 0 10.007 10.009 10.008 10.008 0 0 0-10.007-10.009zm0 16.031a6.022 6.022 0 1 1 6.021-6.021 6.021 6.021 0 0 1-6.021 6.02z" transform="translate(-273.024 -1152.634)" style="fill:#fff"/>
    <path data-name="패스 70" d="M295.948 1162.759a2.546 2.546 0 1 1-2.548-2.548 2.546 2.546 0 0 1 2.548 2.548z" transform="translate(-264.383 -1153.757)" style="fill:#fff"/>
</svg>
