<svg xmlns="http://www.w3.org/2000/svg" width="37.33" height="29.999" viewBox="0 0 37.33 29.999">
    <path data-name="Color Overlay" d="M0 26.633c5.744.244 8.319-.937 11.31-3.148-3-.433-5.7-1.238-7.175-5.359a5.825 5.825 0 0 0 3.357-.043c-2.771-.88-6.027-2.223-6.027-7.552a6.529 6.529 0 0 0 3.451.913A7.678 7.678 0 0 1 2.577 1.28C4.98 4.863 13.853 9.889 17.89 9a7.872 7.872 0 0 1 5.1-8.521 8.526 8.526 0 0 1 6.033.141 6.664 6.664 0 0 1 2.159 1.4.62.62 0 0 0 .309.206.557.557 0 0 0 .263-.014 27.023 27.023 0 0 0 4.2-1.7c.241-.136-1.238 3.375-3.255 4.229a34.121 34.121 0 0 0 3.92-1.221.759.759 0 0 1 .512-.067c.2.06.288.255.105.5a18.562 18.562 0 0 1-2.626 2.972c-1.061.965-.872 1.623-.978 2.941a23.173 23.173 0 0 1-1.213 5.776 21.989 21.989 0 0 1-6.539 9.5A21.206 21.206 0 0 1 12.086 30 23.09 23.09 0 0 1 0 26.633z" style="fill:#fff"/>
</svg>
