<?xml version="1.0" encoding="utf-8"?>
<!-- Generator: Adobe Illustrator 24.0.2, SVG Export Plug-In . SVG Version: 6.00 Build 0)  -->
<svg version="1.1" id="레이어_1" xmlns="http://www.w3.org/2000/svg" xmlns:xlink="http://www.w3.org/1999/xlink" x="0px"
	 y="0px" viewBox="0 0 519.6 520" style="enable-background:new 0 0 519.6 520;" xml:space="preserve">
<style type="text/css">
	.st0{fill:#DBE4E8;}
</style>
<g>
	<path class="st0" d="M260,120c37.4,0,72.6,14.6,99,41s41,61.6,41,99s-14.6,72.6-41,99s-61.6,41-99,41s-72.6-14.6-99-41
		s-41-61.6-41-99s14.6-72.6,41-99S222.6,120,260,120 M260,0C116.4,0,0,116.4,0,260s116.4,260,260,260s260-116.4,260-260
		S403.6,0,260,0L260,0z"/>
</g>
</svg>
