<?xml version="1.0" encoding="utf-8"?>
<!-- Generator: Adobe Illustrator 24.0.2, SVG Export Plug-In . SVG Version: 6.00 Build 0)  -->
<svg version="1.1" id="레이어_1" xmlns="http://www.w3.org/2000/svg" xmlns:xlink="http://www.w3.org/1999/xlink" x="0px"
	 y="0px" viewBox="0 0 495.5 495.5" style="enable-background:new 0 0 495.5 495.5;" xml:space="preserve">
<style type="text/css">
	.st0{fill:#F7F4F4;}
</style>
<g>
	<path class="st0" d="M247.8,120c34.1,0,66.2,13.3,90.3,37.4c24.1,24.1,37.4,56.2,37.4,90.3s-13.3,66.2-37.4,90.3
		c-24.1,24.1-56.2,37.4-90.3,37.4s-66.2-13.3-90.3-37.4C133.3,314,120,281.9,120,247.8s13.3-66.2,37.4-90.3
		C181.5,133.3,213.6,120,247.8,120 M247.8,0C110.9,0,0,110.9,0,247.8s110.9,247.8,247.8,247.8s247.8-110.9,247.8-247.8
		S384.6,0,247.8,0L247.8,0z"/>
</g>
</svg>
