<?xml version="1.0" encoding="utf-8"?>
<!-- Generator: Adobe Illustrator 24.0.2, SVG Export Plug-In . SVG Version: 6.00 Build 0)  -->
<svg version="1.1" id="레이어_1" xmlns="http://www.w3.org/2000/svg" xmlns:xlink="http://www.w3.org/1999/xlink" x="0px"
	 y="0px" viewBox="0 0 10 10" style="enable-background:new 0 0 10 10;" xml:space="preserve">
<style type="text/css">
	.st0{fill:#FFFFFF;}
</style>
<path class="st0" d="M9.9,0.6C9.8,0.4,9.6,0.2,9.4,0.1C9.3,0,9.1,0,9,0H1C0.4,0,0,0.4,0,1s0.4,1,1,1h5.6L0.3,8.3
	c-0.4,0.4-0.4,1,0,1.4C0.5,9.9,0.7,10,1,10s0.5-0.1,0.7-0.3L8,3.4V9c0,0.6,0.4,1,1,1s1-0.4,1-1V1C10,0.9,10,0.7,9.9,0.6z"/>
</svg>
