<?xml version="1.0" encoding="utf-8"?>
<!-- Generator: Adobe Illustrator 24.0.2, SVG Export Plug-In . SVG Version: 6.00 Build 0)  -->
<svg version="1.1" id="레이어_1" xmlns="http://www.w3.org/2000/svg" xmlns:xlink="http://www.w3.org/1999/xlink" x="0px"
	 y="0px" viewBox="0 0 30 30.1" style="enable-background:new 0 0 30 30.1;" xml:space="preserve">
<style type="text/css">
	.st0{fill:#FFFFFF;}
</style>
<path class="st0" d="M30,22.5V27c0,1.7-1.3,3-3,3c-0.1,0-0.2,0-0.3,0c-4.6-0.5-9.1-2.1-13-4.6C10,23.1,7,20,4.6,16.4
	C2.1,12.4,0.5,8,0,3.3C-0.1,1.6,1.1,0.2,2.7,0C2.8,0,2.9,0,3,0h4.5c1.5,0,2.8,1.1,3,2.6c0.2,1.4,0.5,2.9,1.1,4.2
	c0.4,1.1,0.1,2.3-0.7,3.2L9,11.9c2.1,3.8,5.3,6.9,9.1,9.1l1.9-1.9c0.8-0.8,2.1-1.1,3.2-0.7c1.4,0.5,2.8,0.9,4.2,1.1
	C28.9,19.7,30,21,30,22.5z"/>
</svg>
