<?xml version="1.0" encoding="utf-8"?>
<!-- Generator: Adobe Illustrator 24.0.2, SVG Export Plug-In . SVG Version: 6.00 Build 0)  -->
<svg version="1.1" id="레이어_1" xmlns="http://www.w3.org/2000/svg" xmlns:xlink="http://www.w3.org/1999/xlink" x="0px"
	 y="0px" viewBox="0 0 10 10" style="enable-background:new 0 0 10 10;" xml:space="preserve">
<style type="text/css">
	.st0{fill:#FFFFFF;}
</style>
<path class="st0" d="M0.1,9.4c0.1,0.2,0.3,0.4,0.5,0.5C0.7,10,0.9,10,1,10h8c0.6,0,1-0.4,1-1S9.6,8,9,8H3.4l6.3-6.3
	c0.4-0.4,0.4-1,0-1.4C9.5,0.1,9.3,0,9,0S8.5,0.1,8.3,0.3L2,6.6V1c0-0.6-0.4-1-1-1S0,0.4,0,1v8C0,9.1,0,9.3,0.1,9.4z"/>
</svg>
