<?xml version="1.0" encoding="utf-8"?>
<!-- Generator: Adobe Illustrator 24.0.2, SVG Export Plug-In . SVG Version: 6.00 Build 0)  -->
<svg version="1.1" id="레이어_1" xmlns="http://www.w3.org/2000/svg" xmlns:xlink="http://www.w3.org/1999/xlink" x="0px"
	 y="0px" viewBox="0 0 46 46" style="enable-background:new 0 0 46 46;" xml:space="preserve">
<style type="text/css">
	.st0{opacity:0.3;}
	.st1{fill:#FFFFFF;}
</style>
<g>
	<g class="st0">
		<circle class="st1" cx="23" cy="23" r="22"/>
		<path class="st1" d="M23,46C10.3,46,0,35.7,0,23S10.3,0,23,0c12.7,0,23,10.3,23,23S35.7,46,23,46z M23,2C11.4,2,2,11.4,2,23
			s9.4,21,21,21s21-9.4,21-21S34.6,2,23,2z"/>
	</g>
	<g>
		<path class="st1" d="M23,46C10.3,46,0,35.7,0,23S10.3,0,23,0c12.7,0,23,10.3,23,23S35.7,46,23,46z M23,2C11.4,2,2,11.4,2,23
			s9.4,21,21,21s21-9.4,21-21S34.6,2,23,2z"/>
	</g>
</g>
<g>
	<g>
		<path class="st1" d="M30.5,24h-15c-0.6,0-1-0.4-1-1s0.4-1,1-1h15c0.6,0,1,0.4,1,1S31.1,24,30.5,24z"/>
	</g>
	<g>
		<path class="st1" d="M23,31.5c-0.6,0-1-0.4-1-1v-15c0-0.6,0.4-1,1-1s1,0.4,1,1v15C24,31.1,23.6,31.5,23,31.5z"/>
	</g>
</g>
</svg>
