<?xml version="1.0" encoding="utf-8"?>
<!-- Generator: Adobe Illustrator 24.1.1, SVG Export Plug-In . SVG Version: 6.00 Build 0)  -->
<svg version="1.1" id="레이어_1" xmlns="http://www.w3.org/2000/svg" xmlns:xlink="http://www.w3.org/1999/xlink" x="0px"
	 y="0px" viewBox="0 0 64.8 46" style="enable-background:new 0 0 64.8 46;" xml:space="preserve">
<style type="text/css">
	.st0{opacity:0.3;}
	.st1{fill:#FFFFFF;}
</style>
<g>
	<g class="st0">
		<circle class="st1" cx="22.9" cy="23" r="22"/>
		<path class="st1" d="M23,0c12.7,0,23,10.3,23,23S35.7,46,23,46S0,35.7,0,23S10.3,0,23,0z M23,44c11.6,0,21-9.4,21-21S34.6,2,23,2
			S2,11.4,2,23S11.4,44,23,44z"/>
	</g>
	<g>
		<path class="st1" d="M23,0c12.7,0,23,10.3,23,23S35.7,46,23,46S0,35.7,0,23S10.3,0,23,0z M23,44c11.6,0,21-9.4,21-21S34.6,2,23,2
			S2,11.4,2,23S11.4,44,23,44z"/>
	</g>
</g>
<g>
	<path class="st1" d="M26.7,14.5c0.3,0,0.5,0.1,0.7,0.3c0.4,0.4,0.4,1,0,1.4L20.6,23l6.8,6.8c0.4,0.4,0.4,1,0,1.4s-1,0.4-1.4,0
		l-7.5-7.5c-0.4-0.4-0.4-1,0-1.4l7.5-7.5C26.2,14.6,26.4,14.5,26.7,14.5z"/>
</g>
<g>
	<path class="st1" d="M19.2,22h44.5c0.6,0,1,0.4,1,1s-0.4,1-1,1H19.2c-0.6,0-1-0.4-1-1S18.6,22,19.2,22z"/>
</g>
</svg>
