<?xml version="1.0" encoding="utf-8"?>
<!-- Generator: Adobe Illustrator 24.0.2, SVG Export Plug-In . SVG Version: 6.00 Build 0)  -->
<svg version="1.1" id="레이어_1" xmlns="http://www.w3.org/2000/svg" xmlns:xlink="http://www.w3.org/1999/xlink" x="0px"
	 y="0px" viewBox="0 0 64.8 46" style="enable-background:new 0 0 64.8 46;" xml:space="preserve">
<style type="text/css">
	.st0{opacity:0.3;}
	.st1{fill:#FFFFFF;}
</style>
<g>
	<g class="st0">
		<circle class="st1" cx="41.8" cy="23" r="22"/>
		<path class="st1" d="M41.7,46c-12.7,0-23-10.3-23-23c0-12.7,10.3-23,23-23c12.7,0,23,10.3,23,23C64.7,35.7,54.4,46,41.7,46z
			 M41.7,2c-11.6,0-21,9.4-21,21c0,11.6,9.4,21,21,21s21-9.4,21-21C62.7,11.4,53.3,2,41.7,2z"/>
	</g>
	<g>
		<path class="st1" d="M41.7,46c-12.7,0-23-10.3-23-23c0-12.7,10.3-23,23-23c12.7,0,23,10.3,23,23C64.7,35.7,54.4,46,41.7,46z
			 M41.7,2c-11.6,0-21,9.4-21,21c0,11.6,9.4,21,21,21s21-9.4,21-21C62.7,11.4,53.3,2,41.7,2z"/>
	</g>
</g>
<g>
	<path class="st1" d="M38,31.5c-0.3,0-0.5-0.1-0.7-0.3c-0.4-0.4-0.4-1,0-1.4l6.8-6.8l-6.8-6.8c-0.4-0.4-0.4-1,0-1.4s1-0.4,1.4,0
		l7.5,7.5c0.4,0.4,0.4,1,0,1.4l-7.5,7.5C38.5,31.4,38.3,31.5,38,31.5z"/>
</g>
<g>
	<path class="st1" d="M45.5,24H1c-0.6,0-1-0.4-1-1s0.4-1,1-1h44.5c0.6,0,1,0.4,1,1S46.1,24,45.5,24z"/>
</g>
</svg>
