<?xml version="1.0" encoding="utf-8"?>
<!-- Generator: Adobe Illustrator 24.1.1, SVG Export Plug-In . SVG Version: 6.00 Build 0)  -->
<svg version="1.1" id="레이어_1" xmlns="http://www.w3.org/2000/svg" xmlns:xlink="http://www.w3.org/1999/xlink" x="0px"
	 y="0px" viewBox="0 0 52.7 26.3" style="enable-background:new 0 0 52.7 26.3;" xml:space="preserve">
<style type="text/css">
	.st0{fill:#FFFFFF;}
</style>
<path class="st0" d="M0.2,12.1c-0.3,0.6-0.3,1.4,0,2c0.1,0.3,0.3,0.6,0.6,0.9l10.5,10.5c1,1,2.7,1,3.7,0s1-2.7,0-3.7l-6-6h41.1
	c1.5,0,2.6-1.2,2.6-2.6s-1.2-2.6-2.6-2.6H9l6-6c1-1,1-2.7,0-3.7c-0.5-0.5-1.2-0.8-1.9-0.8s-1.3,0.3-1.9,0.8L0.8,11.3
	C0.5,11.5,0.4,11.8,0.2,12.1z"/>
</svg>
