<?xml version="1.0" encoding="utf-8"?>
<!-- Generator: Adobe Illustrator 24.0.2, SVG Export Plug-In . SVG Version: 6.00 Build 0)  -->
<svg version="1.1" id="레이어_1" xmlns="http://www.w3.org/2000/svg" xmlns:xlink="http://www.w3.org/1999/xlink" x="0px"
	 y="0px" viewBox="0 0 52.7 26.3" style="enable-background:new 0 0 52.7 26.3;" xml:space="preserve">
<style type="text/css">
	.st0{fill:#FFFFFF;}
</style>
<path class="st0" d="M52.5,14.2c0.3-0.6,0.3-1.4,0-2c-0.1-0.3-0.3-0.6-0.6-0.9L41.4,0.8c-1-1-2.7-1-3.7,0s-1,2.7,0,3.7l6,6H2.6
	c-1.5,0-2.6,1.2-2.6,2.6s1.2,2.6,2.6,2.6h41.1l-6,6c-1,1-1,2.7,0,3.7c0.5,0.5,1.2,0.8,1.9,0.8s1.3-0.3,1.9-0.8L51.9,15
	C52.2,14.8,52.3,14.5,52.5,14.2z"/>
</svg>
