<?xml version="1.0" encoding="utf-8"?>
<!-- Generator: Adobe Illustrator 24.0.2, SVG Export Plug-In . SVG Version: 6.00 Build 0)  -->
<svg version="1.1" id="레이어_1" xmlns="http://www.w3.org/2000/svg" xmlns:xlink="http://www.w3.org/1999/xlink" x="0px"
	 y="0px" viewBox="0 0 55 55" style="enable-background:new 0 0 55 55;" xml:space="preserve">
<style type="text/css">
	.st0{fill:#FFFFFF;}
</style>
<g>
	<circle cx="27.5" cy="27.5" r="27.5"/>
	<path class="st0" d="M29.4,27.5l5.6-5.6c0.3-0.3,0.4-0.6,0.4-0.9S35.2,20.3,35,20c-0.5-0.5-1.3-0.5-1.9,0l-5.6,5.6L21.9,20
		c-0.5-0.5-1.3-0.5-1.9,0c-0.3,0.3-0.4,0.6-0.4,0.9s0.1,0.7,0.4,0.9l5.6,5.6L20,33.1c-0.3,0.3-0.4,0.6-0.4,0.9s0.1,0.7,0.4,0.9
		c0.3,0.3,0.6,0.4,0.9,0.4s0.7-0.1,0.9-0.4l5.6-5.6l5.6,5.6c0.3,0.3,0.6,0.4,0.9,0.4s0.7-0.1,0.9-0.4c0.3-0.3,0.4-0.6,0.4-0.9
		s-0.1-0.7-0.4-0.9L29.4,27.5z"/>
</g>
</svg>
