<?xml version="1.0" encoding="utf-8"?>
<!-- Generator: Adobe Illustrator 24.0.2, SVG Export Plug-In . SVG Version: 6.00 Build 0)  -->
<svg version="1.1" id="레이어_1" xmlns="http://www.w3.org/2000/svg" xmlns:xlink="http://www.w3.org/1999/xlink" x="0px"
	 y="0px" viewBox="0 0 42.4 53" style="enable-background:new 0 0 42.4 53;" xml:space="preserve">
<style type="text/css">
	.st0{fill:#FFFFFF;}
</style>
<g>
	<path class="st0" d="M18.7,37.8c0.7,0.7,1.6,1,2.5,1s1.8-0.3,2.5-1l14.1-14.1c1.4-1.4,1.4-3.6,0-5c-1.4-1.4-3.6-1.4-5,0l-8.1,8.1
		V3.5c0-2-1.6-3.5-3.5-3.5s-3.5,1.6-3.5,3.5v23.3l-8.1-8.1c-1.4-1.4-3.6-1.4-5,0c-1.4,1.4-1.4,3.6,0,5L18.7,37.8z"/>
	<path class="st0" d="M38.9,45.9H3.5c-2,0-3.5,1.6-3.5,3.5c0,2,1.6,3.5,3.5,3.5h35.3c2,0,3.5-1.6,3.5-3.5
		C42.4,47.5,40.8,45.9,38.9,45.9z"/>
</g>
</svg>
