<?xml version="1.0" encoding="utf-8"?>
<!-- Generator: Adobe Illustrator 24.0.2, SVG Export Plug-In . SVG Version: 6.00 Build 0)  -->
<svg version="1.1" id="레이어_1" xmlns="http://www.w3.org/2000/svg" xmlns:xlink="http://www.w3.org/1999/xlink" x="0px"
	 y="0px" viewBox="0 0 16 16" style="enable-background:new 0 0 16 16;" xml:space="preserve">
<style type="text/css">
	.st0{fill:#FFFFFF;}
</style>
<path class="st0" d="M16,10c0-0.6-0.4-1-1-1s-1,0.4-1,1v2.6L3.4,2H6c0.6,0,1-0.4,1-1S6.6,0,6,0H1C0.9,0,0.7,0,0.6,0.1
	C0.4,0.2,0.2,0.4,0.1,0.6C0,0.7,0,0.9,0,1v5c0,0.6,0.4,1,1,1s1-0.4,1-1V3.4L12.6,14H10c-0.6,0-1,0.4-1,1s0.4,1,1,1h5
	c0.1,0,0.3,0,0.4-0.1c0.2-0.1,0.4-0.3,0.5-0.5C16,15.3,16,15.1,16,15V10z"/>
</svg>
