<?xml version="1.0" encoding="utf-8"?>
<!-- Generator: Adobe Illustrator 24.0.2, SVG Export Plug-In . SVG Version: 6.00 Build 0)  -->
<svg version="1.1" id="레이어_1" xmlns="http://www.w3.org/2000/svg" xmlns:xlink="http://www.w3.org/1999/xlink" x="0px"
	 y="0px" viewBox="0 0 14.6 20.4" style="enable-background:new 0 0 14.6 20.4;" xml:space="preserve">
<style type="text/css">
	.st0{fill:#FFFFFF;}
</style>
<path class="st0" d="M14.2,12.1c-0.6-0.6-1.5-0.6-2.1,0l-3.3,3.3v-14C8.8,0.7,8.1,0,7.3,0S5.8,0.7,5.8,1.5v14l-3.3-3.3
	c-0.6-0.6-1.5-0.6-2.1,0c-0.6,0.6-0.6,1.5,0,2.1L6.3,20c0.1,0.1,0.3,0.2,0.5,0.3c0.2,0.1,0.4,0.1,0.6,0.1s0.4,0,0.6-0.1
	C8,20.3,8.2,20.1,8.3,20l5.8-5.8C14.7,13.6,14.7,12.7,14.2,12.1z"/>
</svg>
