<?xml version="1.0" encoding="utf-8"?>
<!-- Generator: Adobe Illustrator 24.1.1, SVG Export Plug-In . SVG Version: 6.00 Build 0)  -->
<svg version="1.1" id="레이어_1" xmlns="http://www.w3.org/2000/svg" xmlns:xlink="http://www.w3.org/1999/xlink" x="0px"
	 y="0px" viewBox="0 0 42 42" style="enable-background:new 0 0 42 42;" xml:space="preserve">
<style type="text/css">
	.st0{fill:#FFA6BE;}
	.st1{fill:#FCFAFB;}
</style>
<g>
	<g>
		<g>
			<circle class="st0" cx="21" cy="21" r="21"/>
		</g>
	</g>
</g>
<path class="st1" d="M15.7,26.8c0.1,1.3-0.1,3-1.9,3.8l0.1,0.8c2.4,0,5-1.6,6.1-4.3L15.7,26.8z"/>
<circle class="st1" cx="14" cy="31" r="0.4"/>
<path class="st1" d="M28.4,11.6H13.6c-1.8,0-3.3,1.5-3.3,3.3v9.9c0,1.8,1.5,3.3,3.3,3.3h14.9c1.8,0,3.3-1.5,3.3-3.3v-9.9
	C31.7,13.1,30.3,11.6,28.4,11.6z M21,21.5c-0.9,0-1.7-0.7-1.7-1.7s0.7-1.7,1.7-1.7s1.7,0.7,1.7,1.7S21.9,21.5,21,21.5z M26,21.5
	c-0.9,0-1.7-0.7-1.7-1.7s0.7-1.7,1.7-1.7c0.9,0,1.7,0.7,1.7,1.7S26.9,21.5,26,21.5z M16,21.5c-0.9,0-1.7-0.7-1.7-1.7
	s0.7-1.7,1.7-1.7c0.9,0,1.7,0.7,1.7,1.7S17,21.5,16,21.5z"/>
</svg>
