<?xml version="1.0" encoding="utf-8"?>
<!-- Generator: Adobe Illustrator 24.1.1, SVG Export Plug-In . SVG Version: 6.00 Build 0)  -->
<svg version="1.1" id="레이어_1" xmlns="http://www.w3.org/2000/svg" xmlns:xlink="http://www.w3.org/1999/xlink" x="0px"
	 y="0px" viewBox="0 0 60 60" style="enable-background:new 0 0 60 60;" xml:space="preserve">
<style type="text/css">
	.st0{fill:#FFA6BE;}
	.st1{fill:#FFFFFF;}
</style>
<circle class="st0" cx="30" cy="30" r="30"/>
<path class="st1" d="M35.5,35.5h2.2v2.2h-2.2V35.5z"/>
<path class="st1" d="M31.1,42H42V31.1H31.1V42z M33.3,33.3h6.5v6.5h-6.5V33.3z"/>
<path class="st1" d="M35.5,22.4h2.2v2.2h-2.2V22.4z"/>
<path class="st1" d="M26.7,33.3h-2.2v-2.2H18V42h2.2v-6.5h2.2v2.2h6.5v-6.5h-2.2V33.3z"/>
<path class="st1" d="M22.4,39.8h2.2V42h-2.2L22.4,39.8z"/>
<path class="st1" d="M26.7,39.8h2.2V42h-2.2V39.8z"/>
<path class="st1" d="M22.4,22.4h2.2v2.2h-2.2L22.4,22.4z"/>
<path class="st1" d="M18,28.9h10.9V18H18V28.9z M20.2,20.2h6.5v6.5h-6.5V20.2z"/>
<path class="st1" d="M31.1,18v10.9H42V18H31.1z M39.8,26.7h-6.5v-6.5h6.5V26.7z"/>
</svg>
