<?xml version="1.0" encoding="utf-8"?>
<!-- Generator: Adobe Illustrator 24.1.1, SVG Export Plug-In . SVG Version: 6.00 Build 0)  -->
<svg version="1.1" id="레이어_1" xmlns="http://www.w3.org/2000/svg" xmlns:xlink="http://www.w3.org/1999/xlink" x="0px"
	 y="0px" viewBox="0 0 42 42" style="enable-background:new 0 0 42 42;" xml:space="preserve">
<style type="text/css">
	.st0{fill:#FFA6BE;}
	.st1{fill:#FFFFFF;}
</style>
<g>
	<g>
		<g>
			<circle class="st0" cx="21" cy="21" r="21"/>
		</g>
	</g>
	<g>
		<g>
			<g>
				<path class="st1" d="M27,10.6H15c-2.4,0-4.4,2-4.4,4.4v12c0,2.4,2,4.4,4.4,4.4h12c2.4,0,4.4-2,4.4-4.4V15
					C31.4,12.6,29.4,10.6,27,10.6z M21,27.4c-3.5,0-6.4-2.9-6.4-6.4s2.9-6.4,6.4-6.4s6.4,2.9,6.4,6.4S24.5,27.4,21,27.4z M27.6,15.8
					c-0.8,0-1.5-0.7-1.5-1.5s0.7-1.5,1.5-1.5s1.5,0.7,1.5,1.5S28.4,15.8,27.6,15.8z"/>
				<ellipse class="st1" cx="21" cy="21" rx="4.3" ry="4.3"/>
			</g>
		</g>
	</g>
</g>
</svg>
