<?xml version="1.0" encoding="utf-8"?>
<!-- Generator: Adobe Illustrator 24.1.1, SVG Export Plug-In . SVG Version: 6.00 Build 0)  -->
<svg version="1.1" id="레이어_1" xmlns="http://www.w3.org/2000/svg" xmlns:xlink="http://www.w3.org/1999/xlink" x="0px"
	 y="0px" viewBox="0 0 42 42" style="enable-background:new 0 0 42 42;" xml:space="preserve">
<style type="text/css">
	.st0{fill:#FFA6BE;}
	.st1{fill:#FFFFFF;}
</style>
<g>
	<g>
		<g>
			<circle class="st0" cx="21" cy="21" r="21"/>
		</g>
	</g>
	<path class="st1" d="M32.2,15.4c-0.3-1-1.1-1.8-2.1-2.1c-1.8-0.5-9.1-0.5-9.1-0.5s-7.3,0-9.1,0.5c-1,0.3-1.8,1.1-2.1,2.1
		C9.3,17.2,9.3,21,9.3,21s0,3.8,0.5,5.6c0.3,1,1.1,1.8,2.1,2.1c1.8,0.5,9.1,0.5,9.1,0.5s7.3,0,9.1-0.5c1-0.3,1.8-1.1,2.1-2.1
		c0.5-1.8,0.5-5.6,0.5-5.6S32.7,17.2,32.2,15.4L32.2,15.4z M18.7,24.5v-7l6.1,3.5L18.7,24.5L18.7,24.5z"/>
</g>
</svg>
