<?xml version="1.0" encoding="utf-8"?>
<!-- Generator: Adobe Illustrator 24.0.2, SVG Export Plug-In . SVG Version: 6.00 Build 0)  -->
<svg version="1.1" id="레이어_1" xmlns="http://www.w3.org/2000/svg" xmlns:xlink="http://www.w3.org/1999/xlink" x="0px"
	 y="0px" viewBox="0 0 50 50" style="enable-background:new 0 0 50 50;" xml:space="preserve">
<style type="text/css">
	.st0{fill:#3D3D3D;}
	.st1{fill:#FFFFFF;}
</style>
<g>
	<g>
		<circle cx="25" cy="25" r="24"/>
		<path class="st0" d="M25,2c12.7,0,23,10.3,23,23S37.7,48,25,48S2,37.7,2,25S12.3,2,25,2 M25,0C11.2,0,0,11.2,0,25s11.2,25,25,25
			s25-11.2,25-25S38.8,0,25,0L25,0z"/>
	</g>
	<path class="st1" d="M30.1,18.9v-3.4h-3c-2.3,0-4.3,1.9-4.3,4.3v3.1h-3v3.5h3v8.2h3.7v-8.2h2.8l0.5-3.5h-3.3v-2.5
		c0-0.8,0.7-1.5,1.5-1.5H30.1z"/>
</g>
</svg>
