<?xml version="1.0" encoding="utf-8"?>
<!-- Generator: Adobe Illustrator 24.0.2, SVG Export Plug-In . SVG Version: 6.00 Build 0)  -->
<svg version="1.1" id="레이어_1" xmlns="http://www.w3.org/2000/svg" xmlns:xlink="http://www.w3.org/1999/xlink" x="0px"
	 y="0px" viewBox="0 0 50 50" style="enable-background:new 0 0 50 50;" xml:space="preserve">
<style type="text/css">
	.st0{fill:#3D3D3D;}
	.st1{fill:#FFFFFF;}
</style>
<g>
	<g>
		<circle cx="25" cy="25" r="24"/>
		<g>
			<path class="st0" d="M25,2c12.7,0,23,10.3,23,23S37.7,48,25,48S2,37.7,2,25S12.3,2,25,2 M25,0C11.2,0,0,11.2,0,25s11.2,25,25,25
				s25-11.2,25-25S38.8,0,25,0L25,0z"/>
		</g>
	</g>
	<g>
		<g>
			<g>
				<path class="st1" d="M30.2,16H19.8c-2.1,0-3.8,1.7-3.8,3.8v10.4c0,2.1,1.7,3.8,3.8,3.8h10.4c2.1,0,3.8-1.7,3.8-3.8V19.8
					C34,17.7,32.3,16,30.2,16z M25,30.6c-3.1,0-5.6-2.5-5.6-5.6c0-3.1,2.5-5.6,5.6-5.6c3.1,0,5.6,2.5,5.6,5.6
					C30.6,28.1,28.1,30.6,25,30.6z M30.8,20.5c-0.7,0-1.3-0.6-1.3-1.3c0-0.7,0.6-1.3,1.3-1.3c0.7,0,1.3,0.6,1.3,1.3
					C32,19.9,31.5,20.5,30.8,20.5z"/>
				<ellipse transform="matrix(0.9912 -0.1327 0.1327 0.9912 -3.0971 3.5395)" class="st1" cx="25" cy="25" rx="3.7" ry="3.7"/>
			</g>
		</g>
	</g>
</g>
</svg>
