<?xml version="1.0" encoding="utf-8"?>
<!-- Generator: Adobe Illustrator 24.0.2, SVG Export Plug-In . SVG Version: 6.00 Build 0)  -->
<svg version="1.1" id="레이어_1" xmlns="http://www.w3.org/2000/svg" xmlns:xlink="http://www.w3.org/1999/xlink" x="0px"
	 y="0px" viewBox="0 0 50 50" style="enable-background:new 0 0 50 50;" xml:space="preserve">
<style type="text/css">
	.st0{fill:#3D3D3D;}
	.st1{fill:#FFFFFF;}
</style>
<g>
	<g>
		<circle cx="25" cy="25" r="24"/>
		<g>
			<path class="st0" d="M25,2c12.7,0,23,10.3,23,23S37.7,48,25,48S2,37.7,2,25S12.3,2,25,2 M25,0C11.2,0,0,11.2,0,25s11.2,25,25,25
				s25-11.2,25-25S38.8,0,25,0L25,0z"/>
		</g>
	</g>
	<path class="st1" d="M37.1,19.4c-0.5,0.7-1,1.2-1.6,1.8c-0.6,0.6-0.5,1-0.6,1.8c-0.1,1.2-0.3,2.3-0.7,3.5c-0.8,2.2-2.1,4.2-3.9,5.7
		c-4.3,3.6-10.8,3.8-15.5,0.9c3.4,0.1,5-0.6,6.8-1.9c-1.8-0.3-3.4-0.7-4.3-3.2c0.9,0.2,1.5,0.1,2,0c-1.7-0.5-3.6-1.3-3.6-4.5
		c0.7,0.4,1.7,0.6,2.1,0.5c-2.2-1.6-2.4-4.2-1.4-6.1c1.4,2.1,6.8,5.2,9.2,4.6c-0.3-2.2,0.9-4.4,3.1-5.1c1.2-0.4,2.4-0.4,3.6,0.1
		c0.5,0.2,0.9,0.5,1.3,0.8c0.1,0.1,0.1,0.1,0.2,0.1c0.1,0,0.1,0,0.2,0c0.8-0.2,2.2-0.8,2.5-1c0.1-0.1-0.7,2-2,2.5
		c0.5-0.1,1.8-0.5,2.4-0.7c0.1,0,0.2-0.1,0.3,0C37.2,19.1,37.2,19.2,37.1,19.4z"/>
</g>
</svg>
