<?xml version="1.0" encoding="utf-8"?>
<!-- Generator: Adobe Illustrator 24.0.2, SVG Export Plug-In . SVG Version: 6.00 Build 0)  -->
<svg version="1.1" id="레이어_1" xmlns="http://www.w3.org/2000/svg" xmlns:xlink="http://www.w3.org/1999/xlink" x="0px"
	 y="0px" viewBox="0 0 50 50" style="enable-background:new 0 0 50 50;" xml:space="preserve">
<style type="text/css">
	.st0{fill:#3D3D3D;}
	.st1{fill:#FFFFFF;}
</style>
<g>
	<g>
		<circle cx="25" cy="25" r="24"/>
		<g>
			<path class="st0" d="M25,2c12.7,0,23,10.3,23,23S37.7,48,25,48S2,37.7,2,25S12.3,2,25,2 M25,0C11.2,0,0,11.2,0,25s11.2,25,25,25
				s25-11.2,25-25S38.8,0,25,0L25,0z"/>
		</g>
	</g>
	<path class="st1" d="M35.7,19.6c-0.3-1-1-1.7-2-2C32,17.2,25,17.2,25,17.2s-7,0-8.8,0.5c-1,0.3-1.7,1-2,2c-0.5,1.7-0.5,5.4-0.5,5.4
		s0,3.6,0.5,5.4c0.3,1,1,1.7,2,2c1.7,0.5,8.8,0.5,8.8,0.5s7,0,8.8-0.5c1-0.3,1.7-1,2-2c0.5-1.7,0.5-5.4,0.5-5.4S36.2,21.4,35.7,19.6
		L35.7,19.6z M22.8,28.4v-6.7l5.8,3.4L22.8,28.4L22.8,28.4z"/>
</g>
</svg>
