<?xml version="1.0" encoding="utf-8"?>
<!-- Generator: Adobe Illustrator 24.1.1, SVG Export Plug-In . SVG Version: 6.00 Build 0)  -->
<svg version="1.1" id="Layer_1" xmlns="http://www.w3.org/2000/svg" xmlns:xlink="http://www.w3.org/1999/xlink" x="0px" y="0px"
	 viewBox="0 0 80 80" style="enable-background:new 0 0 80 80;" xml:space="preserve">
<style type="text/css">
	.st0{fill:#505A5A;}
</style>
<g>
	<path class="st0" d="M61.3,80c-34,0-61.5-27.5-61.5-61.5C-0.1,8.2,8.1,0,18.4,0c1,0,2,0,3,0.3c1,0.3,2,0.5,3,0.7
		c1.3,0.5,2.3,1.5,2.5,3l5.5,24c0.2,1.3,0,2.7-1,3.8c-0.5,0.5-0.5,0.5-5.5,3.2c4,8.8,10.7,15.5,19.5,19.5c2.5-5,2.7-5,3.2-5.5
		c1-1,2.3-1.3,3.8-1l24,5.5c1.3,0.3,2.5,1.3,3,2.5c0.3,1,0.5,2,0.8,3s0.2,2,0.2,3C79.9,72,71.6,80,61.3,80z"/>
</g>
</svg>
