<?xml version="1.0" encoding="utf-8"?>
<!-- Generator: Adobe Illustrator 24.1.1, SVG Export Plug-In . SVG Version: 6.00 Build 0)  -->
<svg version="1.1" id="Layer_1" xmlns="http://www.w3.org/2000/svg" xmlns:xlink="http://www.w3.org/1999/xlink" x="0px" y="0px"
	 viewBox="0 0 30 30" style="enable-background:new 0 0 30 30;" xml:space="preserve">
<style type="text/css">
	.st0{fill:#FFFFFF;}
</style>
<path class="st0" d="M8.6,22.4C8.7,23.9,8.5,26,6.3,27l0.2,1c2.9,0,6.1-1.9,7.3-5.2L8.6,22.4z"/>
<circle class="st0" cx="6.5" cy="27.5" r="0.5"/>
<path class="st0" d="M24,4H6C3.8,4,2,5.8,2,8v12c0,2.2,1.8,4,4,4h18c2.2,0,4-1.8,4-4V8C28,5.8,26.2,4,24,4z M15,16c-1.1,0-2-0.9-2-2
	s0.9-2,2-2s2,0.9,2,2S16.1,16,15,16z M21,16c-1.1,0-2-0.9-2-2s0.9-2,2-2s2,0.9,2,2S22.1,16,21,16z M9,16c-1.1,0-2-0.9-2-2s0.9-2,2-2
	s2,0.9,2,2S10.1,16,9,16z"/>
</svg>
