<svg xmlns="http://www.w3.org/2000/svg" width="260" height="260.001" viewBox="0 0 260 260.001">
    <defs>
        <clipPath id="ltkm1g52pa">
            <path data-name="패스 311" d="M142.687 154.645s-9.247 18.646-.72 35.7 27.165 22.426 33.8 26.533 8.528 18.417 8.212 38.633h19.581s-1.9-21.98 11.372-21.98 11.687 21.98 11.687 21.98h18.636s8.212-34.527 6.634-52.057c0 0 1.578-42.526-32.534-42.526-36.957 0-30.992 34.041-48.96 31.944-18.951-2.211-24.015-14.15-18.864-38.229z" transform="translate(-138.355 -154.645)" style="fill:none"/>
        </clipPath>
    </defs>
    <g data-name="그룹 146">
        <g data-name="그룹 132">
            <path data-name="패스 300" d="M335.859 185.549a20.821 20.821 0 0 0-18.811-20.723c-.112-.6-.22-1.193-.342-1.786a20.82 20.82 0 0 0-15.75-38.337q-.693-1.071-1.414-2.125a20.82 20.82 0 0 0-29.308-29.308c-.5-.341-1-.675-1.5-1.008a20.82 20.82 0 0 0-38.233-16c-.832-.176-1.671-.342-2.509-.5a20.821 20.821 0 0 0-41.447 0c-.595.113-1.192.221-1.785.342a20.82 20.82 0 0 0-38.337 15.747q-1.071.7-2.125 1.417a20.82 20.82 0 0 0-29.308 29.308q-.512.748-1.008 1.5a20.82 20.82 0 0 0-16 38.233q-.265 1.25-.5 2.51a20.82 20.82 0 0 0 0 41.445c.113.6.221 1.194.342 1.787a20.82 20.82 0 0 0 15.744 38.349q.7 1.07 1.417 2.124a20.821 20.821 0 0 0 29.308 29.309q.748.508 1.5 1.007a20.821 20.821 0 0 0 38.235 16q1.247.262 2.508.5a20.821 20.821 0 0 0 41.447 0c.6-.112 1.192-.221 1.785-.341a20.82 20.82 0 0 0 38.338-15.747c.712-.464 1.422-.938 2.126-1.417a20.82 20.82 0 0 0 29.306-29.309c.341-.5.675-1 1.009-1.5a20.82 20.82 0 0 0 16-38.235q.266-1.249.5-2.508a20.822 20.822 0 0 0 18.812-20.734zm-242.277 6.358a6.357 6.357 0 1 1 6.359-6.357 6.357 6.357 0 0 1-6.359 6.357zm10.662 42.125a6.357 6.357 0 1 1 3.513-8.275 6.356 6.356 0 0 1-3.513 8.275zm4.227-90.414a6.358 6.358 0 1 1-3.369-8.336 6.359 6.359 0 0 1 3.369 8.337zm13.912-42.948a6.358 6.358 0 1 1 0 8.989 6.357 6.357 0 0 1 0-8.988zm8.992 169.757a6.357 6.357 0 1 1 0-8.99 6.357 6.357 0 0 1 0 8.991zm37.325 22.251a6.357 6.357 0 1 1-3.367-8.336 6.358 6.358 0 0 1 3.367 8.336zm-1.645-206.635a6.358 6.358 0 1 1 3.513-8.276 6.357 6.357 0 0 1-3.513 8.276zm40.208 219.545a6.358 6.358 0 1 1 6.358-6.358 6.359 6.359 0 0 1-6.358 6.358zm0-227.361a6.358 6.358 0 1 1 6.358-6.358 6.359 6.359 0 0 1-6.358 6.358zm44.97 218.619a6.358 6.358 0 1 1 3.514-8.276 6.358 6.358 0 0 1-3.514 8.275zm5.3-213.457a6.357 6.357 0 1 1-3.367-8.336 6.355 6.355 0 0 1 3.364 8.335zm34.61 187.041a6.358 6.358 0 1 1 0-8.992 6.355 6.355 0 0 1 0 8.992zm0-160.77a6.357 6.357 0 1 1 0-8.989 6.356 6.356 0 0 1 0 8.989zm18.14 27.406a6.358 6.358 0 1 1-3.514 8.277 6.36 6.36 0 0 1 3.514-8.277zm7.477 95.383a6.358 6.358 0 1 1-3.368-8.336 6.355 6.355 0 0 1 3.368 8.336zm-3.174-46.9a6.357 6.357 0 1 1 6.357 6.357 6.358 6.358 0 0 1-6.357-6.356z" transform="translate(-75.859 -54.145)" style="fill:#8dc7c4"/>
            <path data-name="패스 301" d="M332.964 182.655a20.82 20.82 0 0 0-18.809-20.723c-.113-.6-.221-1.193-.342-1.786a20.821 20.821 0 0 0-15.75-38.338q-.7-1.07-1.415-2.124a20.82 20.82 0 0 0-29.308-29.308c-.5-.342-1-.675-1.5-1.008a20.82 20.82 0 0 0-38.233-16q-1.25-.262-2.51-.5a20.82 20.82 0 0 0-41.446 0c-.595.113-1.193.221-1.785.342a20.82 20.82 0 0 0-38.338 15.747q-1.071.7-2.124 1.417a20.821 20.821 0 0 0-29.309 29.308c-.341.5-.675 1-1.008 1.5a20.82 20.82 0 0 0-16 38.234q-.263 1.25-.5 2.51a20.82 20.82 0 0 0 0 41.445c.112.6.22 1.193.342 1.786a20.82 20.82 0 0 0 15.744 38.343q.7 1.071 1.416 2.125a20.821 20.821 0 0 0 29.311 29.308q.747.509 1.5 1.008a20.821 20.821 0 0 0 38.235 16q1.247.263 2.508.5a20.82 20.82 0 0 0 41.446 0c.6-.111 1.192-.221 1.786-.342a20.82 20.82 0 0 0 38.337-15.747q1.07-.7 2.126-1.417a20.82 20.82 0 0 0 29.307-29.308q.51-.747 1.01-1.5a20.82 20.82 0 0 0 16-38.234c.177-.832.341-1.669.5-2.509a20.822 20.822 0 0 0 18.809-20.729zm-242.276 6.357a6.357 6.357 0 1 1 6.358-6.356 6.357 6.357 0 0 1-6.358 6.356zm10.661 42.126a6.357 6.357 0 1 1 3.513-8.275 6.357 6.357 0 0 1-3.513 8.275zm4.227-90.415a6.358 6.358 0 1 1-3.369-8.336 6.357 6.357 0 0 1 3.369 8.337zm13.912-42.948a6.358 6.358 0 1 1 0 8.99 6.359 6.359 0 0 1 0-8.989zm8.992 169.758a6.357 6.357 0 1 1 0-8.99 6.358 6.358 0 0 1-.001 8.991zm37.326 22.249a6.357 6.357 0 1 1-3.368-8.335 6.357 6.357 0 0 1 3.367 8.335zM164.16 83.149a6.358 6.358 0 1 1 3.514-8.277 6.357 6.357 0 0 1-3.514 8.277zm40.208 219.544a6.357 6.357 0 1 1 6.358-6.357 6.357 6.357 0 0 1-6.358 6.357zm0-227.361a6.358 6.358 0 1 1 6.358-6.358 6.358 6.358 0 0 1-6.358 6.358zm44.971 218.62a6.358 6.358 0 1 1 3.513-8.276 6.355 6.355 0 0 1-3.513 8.275zm5.3-213.458a6.357 6.357 0 1 1-3.367-8.336 6.355 6.355 0 0 1 3.363 8.335zm34.613 187.042a6.358 6.358 0 1 1 0-8.992 6.358 6.358 0 0 1-.004 8.992zm0-160.77a6.357 6.357 0 1 1 0-8.99 6.358 6.358 0 0 1-.004 8.99zm18.142 27.406a6.357 6.357 0 1 1-3.515 8.277 6.356 6.356 0 0 1 3.511-8.277zm7.476 95.383a6.358 6.358 0 1 1-3.37-8.336 6.356 6.356 0 0 1 3.366 8.336zm-3.175-46.9a6.358 6.358 0 1 1 6.359 6.357 6.359 6.359 0 0 1-6.363-6.356z" transform="translate(-75.773 -54.059)" style="fill:#fff"/>
            <g data-name="그룹 131">
                <path data-name="패스 302" d="M205.186 285.5q-.688 0-1.372-.01l.024-1.872c.927.013 1.859.011 2.785 0l.027 1.872c-.487.01-.974.01-1.464.01zm-4.208-.085q-1.419-.06-2.831-.154l.128-1.868q1.387.095 2.781.151zm8.5 0-.076-1.871q1.394-.057 2.779-.154l.13 1.869q-1.411.091-2.831.15zm-14.157-.38q-1.416-.138-2.819-.31l.231-1.859q1.377.172 2.767.3zm19.815-.01-.18-1.863q1.39-.138 2.766-.308l.232 1.858q-1.4.171-2.817.307zm-25.443-.689q-1.406-.214-2.8-.467l.333-1.842q1.368.247 2.747.456zm31.071-.015-.283-1.851c.917-.14 1.834-.294 2.745-.46l.336 1.842q-1.392.248-2.796.464zm-36.652-1q-1.391-.291-2.768-.622l.437-1.82q1.351.323 2.717.609zm42.23-.019-.385-1.832a91.245 91.245 0 0 0 2.716-.612l.437 1.821q-1.375.33-2.767.621zM178.6 282q-1.371-.37-2.728-.775l.538-1.793q1.331.4 2.677.76zm53.262-.024-.488-1.806q1.346-.365 2.677-.763l.539 1.793c-.907.268-1.814.528-2.73.774zm-58.7-1.6c-.9-.3-1.8-.606-2.689-.931l.637-1.759q1.313.476 2.64.913zm64.127-.028-.588-1.776q1.326-.439 2.631-.912l.637 1.758q-1.328.482-2.679.926zm-69.477-1.906q-1.324-.522-2.631-1.08l.734-1.722q1.284.549 2.584 1.06zm74.81-.027-.688-1.74c.861-.341 1.718-.695 2.567-1.056l.735 1.722q-1.298.55-2.613 1.069zm-80.04-2.205c-.862-.394-1.716-.8-2.565-1.223l.829-1.677q1.249.617 2.518 1.2zm85.239-.016-.783-1.7q1.26-.581 2.505-1.2l.83 1.679q-1.263.627-2.55 1.215zm-90.334-2.5q-1.259-.665-2.493-1.366l.924-1.629q1.212.688 2.446 1.341zm95.4-.006-.875-1.654q1.227-.651 2.435-1.335l.922 1.629q-1.226.689-2.478 1.352zm4.926-2.787-.966-1.6q1.192-.72 2.36-1.47l1.011 1.575q-1.188.755-2.401 1.487zm-105.272 0q-1.217-.735-2.411-1.5l1.011-1.576q1.173.751 2.367 1.474zm110.037-3.053-1.055-1.547q1.15-.783 2.275-1.6l1.1 1.518q-1.145.816-2.317 1.616zm-114.815-.015q-1.173-.8-2.324-1.633l1.1-1.516q1.129.818 2.28 1.6zm119.406-3.3-1.139-1.487q1.1-.846 2.185-1.72l1.18 1.452q-1.095.874-2.223 1.738zm-124.006-.023q-1.126-.865-2.229-1.758l1.181-1.453q1.081.876 2.188 1.726zm128.406-3.545-1.218-1.422q1.055-.905 2.087-1.84l1.257 1.386q-1.045.935-2.123 1.858zm-132.813-.031q-1.076-.923-2.127-1.877l1.259-1.385q1.032.934 2.088 1.842zm137.015-3.777-1.3-1.351q1-.963 1.983-1.954l1.332 1.316q-.986.988-2.012 1.971zm-141.21-.057q-1.022-.982-2.02-1.991l1.334-1.315q.976.99 1.982 1.954zm145.2-4-1.368-1.278q.95-1.02 1.874-2.062l1.4 1.24q-.941 1.067-1.91 2.1zm-149.177-.036a99.896 99.896 0 0 1-1.906-2.1l1.4-1.238q.921 1.043 1.87 2.06zm152.933-4.215-1.436-1.2q.893-1.068 1.756-2.163l1.469 1.161q-.882 1.118-1.793 2.205zm-156.685-.034q-.908-1.089-1.787-2.2l1.471-1.16q.862 1.093 1.753 2.16zm160.2-4.42-1.5-1.119q.832-1.118 1.635-2.258l1.533 1.082q-.822 1.161-1.67 2.3zm-163.713-.029q-.845-1.135-1.66-2.295l1.53-1.071q.8 1.138 1.631 2.253zm166.981-4.611-1.56-1.033q.768-1.163 1.507-2.345l1.589.99q-.756 1.204-1.536 2.388zm-170.235-.019q-.782-1.179-1.531-2.382l1.589-.99q.736 1.18 1.5 2.338zm173.238-4.8-1.614-.947q.7-1.2 1.374-2.426l1.642.9q-.689 1.247-1.405 2.473zm-176.232 0q-.713-1.22-1.4-2.462l1.641-.9q.668 1.22 1.371 2.417zm-2.721-4.962q-.645-1.257-1.255-2.535l1.688-.808q.6 1.256 1.233 2.489zm181.688-.016-1.667-.854q.637-1.24 1.239-2.5l1.689.807q-.619 1.28-1.266 2.543zm-184.128-5.087q-.573-1.289-1.113-2.6l1.731-.712q.531 1.285 1.091 2.551zm186.578-.043-1.711-.76q.565-1.273 1.1-2.566l1.731.711q-.547 1.314-1.125 2.611zm-188.737-5.198q-.5-1.324-.968-2.665l1.768-.615q.459 1.318.951 2.618zm190.893-.064-1.752-.664q.5-1.305.953-2.626l1.77.613q-.468 1.346-.971 2.677zm-192.754-5.293q-.428-1.35-.818-2.717l1.8-.514q.383 1.34.8 2.666zm194.619-.085-1.787-.564q.419-1.326.8-2.666l1.8.512q-.39 1.367-.814 2.718zm-196.177-5.369q-.351-1.371-.665-2.756l1.826-.414q.307 1.362.652 2.707zm197.728-.086-1.813-.463q.343-1.346.648-2.707l1.828.411q-.313 1.387-.663 2.759zm-198.979-5.445q-.275-1.388-.51-2.79l1.846-.31q.233 1.375.5 2.739zm200.226-.088-1.839-.362q.268-1.362.5-2.738l1.846.307q-.236 1.403-.507 2.793zm-201.166-5.505q-.2-1.4-.352-2.814l1.86-.208q.154 1.387.346 2.763zm202.1-.089-1.855-.257q.189-1.375.344-2.763l1.861.206q-.156 1.408-.35 2.813zm-202.728-5.547q-.118-1.409-.2-2.829l1.87-.1q.079 1.394.193 2.777zm203.349-.089-1.862-.157q.115-1.383.192-2.777l1.868.1q-.079 1.422-.198 2.833zM103.2 186.4q-.041-1.413-.042-2.836h1.872q0 1.4.042 2.785zm203.974-.091-1.872-.05q.038-1.387.039-2.784v-.18h1.87v.18q0 1.418-.038 2.83zm-202.109-5.53-1.871-.049q.036-1.42.115-2.833l1.87.1q-.079 1.383-.115 2.778zm200.233-.264q-.041-1.4-.12-2.783l1.87-.107q.08 1.412.123 2.834zm-199.933-5.3-1.866-.151q.115-1.417.27-2.823l1.861.2q-.151 1.384-.265 2.775zm199.619-.265q-.121-1.391-.275-2.771l1.861-.209q.159 1.4.277 2.821zm-199.013-5.269-1.855-.255c.128-.939.272-1.873.425-2.8l1.847.308q-.228 1.366-.416 2.748zm198.39-.263q-.194-1.383-.426-2.751l1.846-.312q.236 1.4.433 2.8zm-197.477-5.228-1.837-.358q.271-1.4.581-2.778l1.826.411q-.304 1.356-.57 2.725zm196.552-.26q-.274-1.369-.58-2.724l1.827-.413q.311 1.378.589 2.773zM108.1 158.758l-1.814-.46q.349-1.378.736-2.74l1.8.511q-.376 1.338-.722 2.689zm194.1-.257q-.346-1.351-.73-2.687l1.8-.516q.39 1.361.744 2.737zm-192.58-5.1-1.787-.562q.429-1.359.892-2.7l1.771.611q-.455 1.318-.874 2.65zm191.047-.254q-.421-1.33-.879-2.641l1.768-.617q.466 1.337.9 2.693zm-189.223-5.026-1.752-.661q.5-1.333 1.041-2.648l1.733.71q-.529 1.294-1.021 2.602zm187.392-.231q-.495-1.3-1.028-2.589l1.733-.714c.358.873.708 1.751 1.044 2.637zm-185.276-4.934-1.71-.759q.575-1.3 1.187-2.583l1.69.805q-.6 1.262-1.165 2.539zm183.155-.2q-.566-1.269-1.163-2.52l1.687-.809q.611 1.273 1.187 2.567zm-180.754-4.833-1.666-.853q.646-1.266 1.328-2.512l1.643.9q-.666 1.221-1.303 2.464zm178.354-.174q-.633-1.237-1.3-2.453l1.64-.9q.683 1.238 1.329 2.5zm-175.676-4.72-1.616-.944q.716-1.227 1.467-2.432l1.589.989q-.735 1.182-1.438 2.386zm173-.148q-.706-1.2-1.441-2.377l1.59-.992q.748 1.2 1.465 2.422zM121.585 128.3l-1.561-1.033q.783-1.185 1.6-2.346l1.533 1.076q-.804 1.136-1.572 2.303zm167.113-.13q-.768-1.158-1.569-2.295l1.53-1.079q.816 1.157 1.6 2.338zm-163.911-4.432-1.5-1.118q.846-1.14 1.726-2.253l1.47 1.158q-.864 1.089-1.695 2.209zm160.71-.114q-.833-1.113-1.694-2.205l1.467-1.16q.879 1.11 1.728 2.247zm-157.262-4.262-1.437-1.2q.907-1.089 1.846-2.154l1.4 1.239q-.916 1.04-1.808 2.11zm153.813-.1q-.894-1.067-1.815-2.11l1.4-1.24q.937 1.061 1.848 2.148zm-150.128-4.08-1.369-1.277q.968-1.036 1.963-2.047l1.334 1.313q-.978.994-1.928 2.011zm146.442-.094q-.952-1.019-1.929-2.007l1.33-1.317q1 1.01 1.967 2.045zm-142.534-3.872-1.3-1.35q1.022-.981 2.071-1.936l1.259 1.385q-1.026.937-2.03 1.901zm138.621-.088q-1.006-.963-2.038-1.9l1.258-1.387q1.051.953 2.074 1.934zm-134.5-3.653-1.22-1.42q1.074-.923 2.174-1.816l1.181 1.452q-1.084.877-2.136 1.784zm130.375-.086q-1.058-.905-2.14-1.783l1.177-1.455q1.106.892 2.181 1.816zm-126.056-3.423-1.141-1.484q1.122-.862 2.271-1.694l1.1 1.517q-1.13.815-2.231 1.661zm121.726-.083q-1.1-.847-2.235-1.663l1.1-1.518q1.151.832 2.279 1.695zM148.768 100.7l-1.056-1.547q1.169-.8 2.361-1.564l1.013 1.574q-1.17.759-2.318 1.537zm112.708-.085q-1.151-.784-2.326-1.538l1.011-1.576q1.2.767 2.368 1.565zM153.444 97.7l-.967-1.6q1.209-.731 2.441-1.43l.924 1.627q-1.21.683-2.398 1.403zm103.339-.087q-1.195-.72-2.409-1.406l.922-1.629q1.234.7 2.453 1.431zm-98.506-2.655L157.4 93.3q1.249-.662 2.517-1.292l.831 1.678q-1.248.614-2.472 1.271zm93.65-.088q-1.233-.652-2.484-1.269l.828-1.679q1.278.63 2.531 1.293zm-88.677-2.38-.783-1.7q1.281-.591 2.583-1.15l.737 1.722q-1.278.546-2.537 1.128zm83.674-.09q-1.268-.582-2.554-1.128l.734-1.723q1.308.557 2.6 1.151zm-78.572-2.095-.689-1.741q1.315-.521 2.652-1.007l.639 1.76q-1.311.478-2.603.988zm73.436-.091q-1.3-.509-2.612-.984l.635-1.762q1.342.485 2.662 1zm-68.2-1.81-.591-1.777q1.343-.445 2.7-.856l.54 1.793q-1.337.4-2.654.836zm62.952-.084q-1.32-.435-2.656-.833l.535-1.794q1.361.406 2.706.85zm-57.627-1.52-.49-1.807q1.367-.37 2.748-.7l.439 1.82q-1.356.32-2.697.687zm52.286-.068q-1.342-.361-2.7-.684l.434-1.821q1.383.329 2.75.7zm-46.875-1.237-.389-1.832q1.386-.294 2.784-.549l.336 1.841q-1.372.245-2.73.536zm41.46-.054q-1.359-.285-2.733-.533l.331-1.842q1.4.252 2.785.541zM189.8 84.49l-.285-1.85q1.4-.215 2.809-.394l.234 1.858q-1.386.174-2.758.386zm30.5-.04q-1.372-.208-2.757-.379l.229-1.858q1.41.173 2.809.386zm-24.976-.65-.182-1.863q1.409-.138 2.826-.237l.131 1.868q-1.392.091-2.775.232zm19.457-.025q-1.386-.131-2.776-.226l.125-1.867q1.418.093 2.828.229zm-13.9-.363-.079-1.871q1.41-.06 2.829-.081l.028 1.871q-1.397.016-2.782.076zm8.348-.012q-1.388-.055-2.783-.072l.022-1.873q1.423.018 2.837.074z" transform="translate(-76.589 -54.875)" style="fill:#b4e0e0"/>
            </g>
        </g>
        <g data-name="그룹 145">
            <g data-name="그룹 133">
                <path data-name="패스 303" d="M248.751 208.563c4.418 12 14.927 22.676 28.47 21.51.924-.08.93-1.526 0-1.448-12.872 1.108-22.875-11.348-27.076-22.76-.318-.867-1.715 1.822-1.393 2.7z" transform="translate(-80.925 -58.577)" style="fill:#69c3c1"/>
            </g>
            <g data-name="그룹 144">
                <g data-name="그룹 134">
                    <path data-name="패스 304" d="M148.6 151.157s2.114-18.424 7.559-17.514-4.859 10.098-7.559 17.514z" transform="translate(-77.942 -56.429)" style="fill:#c2e6e8"/>
                    <path data-name="패스 305" d="M146.565 142.044s-1.679-18.468-7.144-17.687 4.623 10.211 7.144 17.687z" transform="translate(-77.621 -56.153)" style="fill:#c2e6e8"/>
                    <path data-name="패스 306" d="M148.824 132.143s2.114-18.424 7.558-17.515-4.863 10.1-7.558 17.515z" transform="translate(-77.949 -55.862)" style="fill:#c2e6e8"/>
                </g>
                <g data-name="그룹 143">
                    <g data-name="그룹 141">
                        <path data-name="패스 307" d="M142.687 154.645s-9.247 18.646-.72 35.7 27.165 22.426 33.8 26.533 8.528 18.417 8.212 38.633h19.581s-1.9-21.98 11.372-21.98 11.687 21.98 11.687 21.98h18.636s8.212-34.527 6.634-52.057c0 0 1.578-42.526-32.534-42.526-36.957 0-30.992 34.041-48.96 31.944-18.951-2.211-24.015-14.15-18.864-38.229z" transform="translate(-77.637 -57.056)" style="fill:#b4e0e0"/>
                        <g data-name="그룹 140">
                            <g data-name="그룹 139" style="clip-path:url(#ltkm1g52pa)" transform="translate(60.718 97.589)">
                                <g data-name="그룹 138">
                                    <g data-name="그룹 135">
                                        <path data-name="패스 308" d="M157.334 181.331c-2.894-.54-6.022 1.757-7.958 3.575-.747.7.218 1.983.972 1.274 1.626-1.526 4.316-3.718 6.79-3.258 1.016.191 1.208-1.4.2-1.591z" transform="translate(-138.675 -155.437)" style="fill:#69c3c1"/>
                                    </g>
                                    <g data-name="그룹 136">
                                        <path data-name="패스 309" d="M159.482 184.813c-2.942 0-5.594 2.837-7.159 4.98-.606.829.579 1.909 1.191 1.076 1.316-1.8 3.556-4.451 6.071-4.455 1.035 0 .928-1.6-.1-1.6z" transform="translate(-138.766 -155.543)" style="fill:#69c3c1"/>
                                    </g>
                                    <g data-name="그룹 137">
                                        <path data-name="패스 310" d="M162.27 187.851c-2.842.761-4.674 4.183-5.637 6.659-.374.955 1.051 1.694 1.426.73.808-2.079 2.292-5.216 4.721-5.868 1-.266.486-1.786-.51-1.52z" transform="translate(-138.898 -155.633)" style="fill:#69c3c1"/>
                                    </g>
                                </g>
                            </g>
                        </g>
                    </g>
                    <path data-name="패스 312" d="M200.218 191.115a2.525 2.525 0 1 1-2.526-2.523 2.526 2.526 0 0 1 2.526 2.523z" transform="translate(-79.33 -58.067)" style="fill:#69c3c1"/>
                    <path data-name="패스 313" d="M217.1 202.286a8.238 8.238 0 1 1-8.238-8.238 8.238 8.238 0 0 1 8.238 8.238z" transform="translate(-79.492 -58.23)" style="fill:#f3abc4"/>
                    <path data-name="패스 314" d="M226.726 179.464v42.641a21.321 21.321 0 0 0 0-42.641z" transform="translate(-80.27 -57.795)" style="fill:#69c3c1"/>
                    <g data-name="그룹 142">
                        <path data-name="패스 315" d="M185.391 250.951c.029 2.531.024 5.024-.014 7.431h19.584s-.193-3.154-.021-7.431z" transform="translate(-79.038 -59.925)" style="fill:#69c3c1"/>
                        <path data-name="패스 316" d="M229.27 250.951c.217 4.277.057 7.431.057 7.431h18.636s.507-2.861 1.243-7.431z" transform="translate(-80.346 -59.925)" style="fill:#69c3c1"/>
                    </g>
                </g>
            </g>
        </g>
    </g>
    <g data-name="그룹 147">
        <path data-name="패스 317" d="m181.715 128.164 2.021 4.1 4.52.657-3.269 3.188.771 4.5-4.043-2.126-4.042 2.126.772-4.5-3.27-3.188 4.519-.657z" transform="translate(-78.735 -56.267)" style="fill:#ffcd5e"/>
        <path data-name="패스 318" d="m221.109 91.625 2.939 5.955 6.572.955-4.756 4.635 1.124 6.546-5.878-3.09-5.878 3.09 1.123-6.546-4.755-4.635 6.572-.955z" transform="translate(-79.82 -55.178)" style="fill:#ffcd5e"/>
        <path data-name="패스 319" d="m217.5 130.82 1.137 2.3 2.542.369-1.84 1.793.435 2.532-2.274-1.2-2.274 1.2.435-2.532-1.839-1.793 2.541-.369z" transform="translate(-79.886 -56.346)" style="fill:#ffcd5e"/>
        <path data-name="패스 320" d="m181.8 97.342 1.136 2.3 2.543.37-1.84 1.793.435 2.532-2.274-1.2-2.274 1.2.435-2.532-1.84-1.793 2.542-.37z" transform="translate(-78.822 -55.348)" style="fill:#ffcd5e"/>
        <path data-name="패스 321" d="m263.467 146.286 2.938 5.956 6.573.955-4.756 4.635 1.123 6.546-5.877-3.091-5.879 3.091 1.123-6.546-4.755-4.635 6.572-.955z" transform="translate(-81.082 -56.806)" style="fill:#ffcd5e"/>
        <path data-name="패스 322" d="m263.558 115.561 2.021 4.1 4.52.657-3.272 3.188.773 4.5-4.042-2.125-4.044 2.119.773-4.5-3.271-3.188 4.519-.657z" transform="translate(-81.173 -55.891)" style="fill:#ffcd5e"/>
        <path data-name="패스 323" d="m171.269 164.933 1.137 2.3 2.542.369-1.84 1.793.435 2.531-2.274-1.2L169 171.93l.434-2.531-1.839-1.793 2.541-.369z" transform="translate(-78.509 -57.362)" style="fill:#ffcd5e"/>
        <path data-name="패스 324" d="m300.826 168.539 1.136 2.3 2.542.369-1.839 1.792.434 2.532-2.272-1.2-2.274 1.2.434-2.532-1.839-1.793 2.541-.369z" transform="translate(-82.369 -57.469)" style="fill:#ffcd5e"/>
        <path data-name="패스 325" d="m121.295 164.933 1.137 2.3 2.542.369-1.84 1.793.435 2.531-2.274-1.2-2.274 1.2.435-2.531-1.84-1.793 2.542-.369z" transform="translate(-77.02 -57.362)" style="fill:#ffcd5e"/>
        <path data-name="패스 326" d="m280.1 201.181 2.021 4.1 4.519.657-3.269 3.187.771 4.5-4.042-2.125-4.042 2.125.771-4.5-3.27-3.187 4.519-.657z" transform="translate(-81.666 -58.442)" style="fill:#ffcd5e"/>
        <path data-name="패스 327" d="m127.127 204.681 2.939 5.955 6.572.955-4.757 4.635 1.119 6.545-5.878-3.09-5.878 3.09 1.123-6.545-4.756-4.635 6.572-.955z" transform="translate(-77.02 -58.546)" style="fill:#ffcd5e"/>
        <path data-name="패스 328" d="m157.8 237.134 2.022 4.1 4.519.657-3.272 3.188.773 4.5-4.042-2.129-4.042 2.125.772-4.5-3.271-3.188 4.52-.657z" transform="translate(-78.022 -59.513)" style="fill:#ffcd5e"/>
        <path data-name="패스 329" d="m181.8 266.148 1.136 2.3 2.543.368-1.84 1.793.435 2.532-2.274-1.2-2.274 1.2.435-2.532-1.84-1.793 2.542-.368z" transform="translate(-78.822 -60.378)" style="fill:#ffcd5e"/>
        <path data-name="패스 330" d="m270.387 248.31 1.136 2.3 2.542.369-1.839 1.793.435 2.531-2.274-1.195-2.274 1.195.435-2.531-1.84-1.793 2.541-.369z" transform="translate(-81.462 -59.846)" style="fill:#ffcd5e"/>
        <path data-name="패스 331" d="m221.2 263.343 2.021 4.1 4.519.659-3.27 3.186.772 4.5-4.043-2.125-4.042 2.125.772-4.5-3.271-3.186 4.52-.659z" transform="translate(-79.911 -60.294)" style="fill:#ffcd5e"/>
    </g>
</svg>
