<?xml version="1.0" encoding="utf-8"?>
<!-- Generator: Adobe Illustrator 24.1.1, SVG Export Plug-In . SVG Version: 6.00 Build 0)  -->
<svg version="1.1" id="Layer_1" xmlns="http://www.w3.org/2000/svg" xmlns:xlink="http://www.w3.org/1999/xlink" x="0px" y="0px"
	 viewBox="0 0 40 40" style="enable-background:new 0 0 40 40;" xml:space="preserve">
<style type="text/css">
	.st0{fill:#FDFFFF;}
</style>
<path class="st0" d="M7.7,30h24.7c0.6,0,1,0.4,1,1v1.3c0,0.6-0.4,1-1,1H7.7c-0.6,0-1-0.4-1-1V31C6.7,30.4,7.1,30,7.7,30z"/>
<path class="st0" d="M6.7,32.3v-4.7c0-0.6,0.4-1,1-1H9c0.6,0,1,0.4,1,1v4.7c0,0.6-0.4,1-1,1H7.7C7.1,33.3,6.7,32.9,6.7,32.3z"/>
<path class="st0" d="M30,32.3v-4.7c0-0.6,0.4-1,1-1h1.3c0.6,0,1,0.4,1,1v4.7c0,0.6-0.4,1-1,1H31C30.4,33.3,30,32.9,30,32.3z"/>
<path class="st0" d="M20,25c-0.3,0-0.7-0.1-1-0.3L12.4,20c-0.8-0.5-0.9-1.6-0.4-2.3s1.6-0.9,2.3-0.4l0,0l5.7,4l5.7-4.3
	c0.7-0.6,1.8-0.4,2.3,0.3c0.6,0.7,0.4,1.8-0.3,2.3c0,0,0,0,0,0l-6.7,5C20.7,24.9,20.4,25,20,25z"/>
<path class="st0" d="M20,21.7c-0.9,0-1.7-0.7-1.7-1.7V6.7C18.4,5.7,19.1,5,20,5c0.9,0,1.6,0.7,1.6,1.6V20
	C21.7,20.9,20.9,21.7,20,21.7z"/>
</svg>
