<svg xmlns="http://www.w3.org/2000/svg" width="40" height="40" viewBox="0 0 40 40">
    <rect data-name="사각형 9" width="26.667" height="3.333" rx="1" transform="translate(6.667 30)" style="fill:#38bdbc"/>
    <rect data-name="사각형 10" width="6.667" height="3.333" rx="1" transform="rotate(-90 20 13.333)" style="fill:#38bdbc"/>
    <rect data-name="사각형 11" width="6.667" height="3.333" rx="1" transform="rotate(-90 31.667 1.666)" style="fill:#38bdbc"/>
    <path data-name="패스 250" d="M15.334 18.333a1.667 1.667 0 0 1-.967-.3l-6.667-4.7a1.667 1.667 0 1 1 1.933-2.717l5.7 3.983L21 10.333A1.667 1.667 0 1 1 23 13l-6.667 5a1.667 1.667 0 0 1-.999.333z" transform="translate(4.666 6.667)" style="fill:#38bdbc"/>
    <path data-name="패스 251" d="M12.667 19.667A1.667 1.667 0 0 1 11 18V4.667a1.667 1.667 0 0 1 3.333 0V18a1.667 1.667 0 0 1-1.666 1.667z" transform="translate(7.333 2)" style="fill:#38bdbc"/>
</svg>
