<svg xmlns="http://www.w3.org/2000/svg" width="38" height="26" viewBox="0 0 38 26">
    <path data-name="패스 71" d="M2125.5 350.932a4.706 4.706 0 0 0-3.36-3.285c-2.964-.776-14.847-.776-14.847-.776s-11.883 0-14.847.776a4.711 4.711 0 0 0-3.36 3.285c-.793 2.9-.793 8.94-.793 8.94s0 6.043.793 8.94a4.71 4.71 0 0 0 3.36 3.285c2.963.776 14.847.776 14.847.776s11.883 0 14.847-.776a4.705 4.705 0 0 0 3.36-3.285c.793-2.9.793-8.94.793-8.94s-.004-6.043-.793-8.94zm-22.1 14.425v-10.972l9.931 5.486z" transform="translate(-2088.289 -346.871)" style="fill:#fff"/>
</svg>
