<?xml version="1.0" encoding="utf-8"?>
<!-- Generator: Adobe Illustrator 24.0.2, SVG Export Plug-In . SVG Version: 6.00 Build 0)  -->
<svg version="1.1" id="레이어_1" xmlns="http://www.w3.org/2000/svg" xmlns:xlink="http://www.w3.org/1999/xlink" x="0px"
	 y="0px" viewBox="0 0 100 100" style="enable-background:new 0 0 100 100;" xml:space="preserve">
<style type="text/css">
	.st0{fill:#00F7A6;}
</style>
<path class="st0" d="M50,0C22.4,0,0,22.4,0,50s22.4,50,50,50s50-22.4,50-50S77.6,0,50,0z M76.3,62.4c0,3.1-2.5,5.6-5.6,5.6
	c-3.1,0-5.6-2.5-5.6-5.6V42.8L32.3,75.7c-1.1,1.1-2.5,1.6-4,1.6c-1.4,0-2.9-0.5-4-1.6c-2.2-2.2-2.2-5.7,0-7.9l32.9-32.9H37.6
	c-3.1,0-5.6-2.5-5.6-5.6s2.5-5.6,5.6-5.6h33.1c0.7,0,1.4,0.1,2,0.4c0,0,0.1,0,0.1,0c0.7,0.3,1.3,0.7,1.8,1.2
	c0.5,0.5,0.9,1.2,1.2,1.8c0,0,0,0.1,0,0.1c0.2,0.6,0.4,1.3,0.4,2V62.4z"/>
</svg>
