<?xml version="1.0" encoding="utf-8"?>
<!-- Generator: Adobe Illustrator 24.0.2, SVG Export Plug-In . SVG Version: 6.00 Build 0)  -->
<svg version="1.1" id="레이어_1" xmlns="http://www.w3.org/2000/svg" xmlns:xlink="http://www.w3.org/1999/xlink" x="0px"
	 y="0px" viewBox="0 0 100 100" style="enable-background:new 0 0 100 100;" xml:space="preserve">
<style type="text/css">
	.st0{fill:#27282A;}
</style>
<path class="st0" d="M50,0C22.4,0,0,22.4,0,50s22.4,50,50,50c27.6,0,50-22.4,50-50S77.6,0,50,0z M77.3,57.1L54,80.5
	c-0.3,0.3-0.5,0.5-0.8,0.7c-0.1,0-0.1,0.1-0.2,0.1c-0.2,0.1-0.5,0.3-0.8,0.4c-0.1,0-0.2,0.1-0.3,0.1c-0.2,0.1-0.5,0.2-0.7,0.2
	c-0.4,0.1-0.7,0.1-1.1,0.1c-0.4,0-0.7,0-1.1-0.1c-0.3-0.1-0.5-0.1-0.7-0.2c-0.1,0-0.2-0.1-0.3-0.1c-0.3-0.1-0.5-0.3-0.7-0.4
	c-0.1,0-0.1-0.1-0.2-0.1c-0.3-0.2-0.6-0.4-0.8-0.7L22.7,57.1c-2.2-2.2-2.2-5.7,0-7.9c2.2-2.2,5.7-2.2,7.9,0L44.4,63V24.2
	c0-3.1,2.5-5.6,5.6-5.6s5.6,2.5,5.6,5.6V63l13.8-13.8c2.2-2.2,5.7-2.2,7.9,0C79.5,51.4,79.5,54.9,77.3,57.1z"/>
</svg>
