<?xml version="1.0" encoding="utf-8"?>
<!-- Generator: Adobe Illustrator 24.0.2, SVG Export Plug-In . SVG Version: 6.00 Build 0)  -->
<svg version="1.1" id="레이어_1" xmlns="http://www.w3.org/2000/svg" xmlns:xlink="http://www.w3.org/1999/xlink" x="0px"
	 y="0px" viewBox="0 0 100 100" style="enable-background:new 0 0 100 100;" xml:space="preserve">
<style type="text/css">
	.st0{fill:none;}
	.st1{fill:#00F7A6;}
</style>
<g>
	<g>
		<path class="st0" d="M50,19.6c-16.7,0-30.4,13.6-30.4,30.4c0,16.7,13.6,30.4,30.4,30.4c16.7,0,30.4-13.6,30.4-30.4
			C80.4,33.3,66.7,19.6,50,19.6z M50,70.3c-11.2,0-20.3-9.1-20.3-20.3c0-11.2,9.1-20.3,20.3-20.3c11.2,0,20.3,9.1,20.3,20.3
			C70.3,61.2,61.2,70.3,50,70.3z"/>
		<path class="st1" d="M78.3,1H21.7C10.3,1,1,10.3,1,21.7v56.5C1,89.7,10.3,99,21.7,99h56.5C89.7,99,99,89.7,99,78.3V21.7
			C99,10.3,89.7,1,78.3,1z M50,80.4c-16.7,0-30.4-13.6-30.4-30.4c0-16.7,13.6-30.4,30.4-30.4c16.7,0,30.4,13.6,30.4,30.4
			C80.4,66.7,66.7,80.4,50,80.4z M81.4,25.2c-3.9,0-7-3.1-7-7c0-3.9,3.1-7,7-7c3.9,0,7,3.1,7,7C88.3,22.1,85.2,25.2,81.4,25.2z"/>
		<ellipse transform="matrix(0.9912 -0.1327 0.1327 0.9912 -6.1942 7.079)" class="st1" cx="50" cy="50" rx="20.3" ry="20.3"/>
	</g>
</g>
</svg>
