<?xml version="1.0" encoding="utf-8"?>
<!-- Generator: Adobe Illustrator 24.0.2, SVG Export Plug-In . SVG Version: 6.00 Build 0)  -->
<svg version="1.1" id="레이어_1" xmlns="http://www.w3.org/2000/svg" xmlns:xlink="http://www.w3.org/1999/xlink" x="0px"
	 y="0px" viewBox="0 0 100 100" style="enable-background:new 0 0 100 100;" xml:space="preserve">
<style type="text/css">
	.st0{fill:#00F7A6;}
</style>
<g>
	<g>
		<path class="st0" d="M49.8,2C23.3,2,1.7,23.5,1.7,50.1s21.5,48.1,48.1,48.1c26.6,0,48.1-21.5,48.1-48.1S76.4,2,49.8,2z M74.5,46
			L53.8,66.7c-1.1,1.1-2.5,1.7-4,1.7s-2.9-0.6-4-1.7L25.1,46c-2.2-2.2-2.2-5.8,0-8c2.2-2.2,5.8-2.2,8,0l16.7,16.7L66.6,38
			c2.2-2.2,5.8-2.2,8,0C76.7,40.2,76.7,43.8,74.5,46z"/>
	</g>
</g>
</svg>
