<?xml version="1.0" encoding="utf-8"?>
<!-- Generator: Adobe Illustrator 24.0.2, SVG Export Plug-In . SVG Version: 6.00 Build 0)  -->
<svg version="1.1" id="레이어_1" xmlns="http://www.w3.org/2000/svg" xmlns:xlink="http://www.w3.org/1999/xlink" x="0px"
	 y="0px" viewBox="0 0 100 100" style="enable-background:new 0 0 100 100;" xml:space="preserve">
<style type="text/css">
	.st0{fill:#00F7A6;}
</style>
<path class="st0" d="M99.2,20.8c-2.1,2.9-4.3,5.5-6.9,7.9c-2.8,2.6-2.3,4.3-2.6,7.8c-0.4,5.3-1.5,10.3-3.2,15.3
	c-3.4,9.8-9.5,18.5-17.3,25.2C50.3,92.9,21.2,93.6,0.6,80.8c15.2,0.6,22-2.5,30-8.3c-8-1.1-15.1-3.3-19-14.2c3.8,1,6.5,0.5,8.9-0.1
	c-7.3-2.3-16-5.9-16-20c3.1,1.9,7.3,2.7,9.1,2.4C3.7,33.7,2.9,22.2,7.4,13.7c6.4,9.5,29.9,22.8,40.6,20.5c-1.2-9.6,4-19.3,13.5-22.6
	c5.4-1.8,10.7-1.7,16,0.4c2.1,0.8,4.1,2.2,5.7,3.7c0.3,0.3,0.5,0.5,0.8,0.5c0.2,0,0.5,0,0.7,0c3.7-1,9.5-3.6,11.1-4.5
	c0.6-0.4-3.3,8.9-8.6,11.2c2.4-0.5,8.1-2.3,10.4-3.2c0.5-0.2,1-0.3,1.4-0.2C99.4,19.6,99.7,20.1,99.2,20.8z"/>
</svg>
